M48
;DRILL file {KiCad (2016-07-20 BZR 6990)-product} date Sun Sep 11 23:35:12 2016
;FORMAT={-:-/ absolute / inch / decimal}
FMAT,2
INCH,TZ
T1C0.015
T2C0.025
T3C0.040
T4C0.043
T5C0.035
T6C0.055
T7C0.126
%
G90
G05
M72
T1
X3.811Y-2.1102
X3.8346Y-2.1811
X4.4646Y-2.2913
X4.8583Y-2.2913
X5.3701Y-2.0551
X5.4252Y-2.0157
X5.4331Y-2.0551
X5.5043Y-2.0944
X5.5332Y-2.136
X5.5354Y-2.2913
X5.5433Y-2.5039
X5.5442Y-2.1802
X5.7677Y-2.5866
X5.8906Y-3.0118
X5.9328Y-3.0921
X5.9685Y-3.0945
X6.0039Y-2.2244
X6.0323Y-3.3279
X6.0374Y-3.5197
X6.0433Y-3.4252
X6.0472Y-2.2527
X6.0709Y-2.811
X6.1041Y-2.2131
X6.1147Y-2.2988
X6.1496Y-2.1732
X6.1654Y-2.2992
X6.1811Y-2.6614
X6.1969Y-2.1417
X6.2362Y-2.6693
X6.2913Y-2.0787
X6.2992Y-2.3622
X6.3071Y-3.
X6.315Y-2.3937
X6.317Y-2.3356
X6.3228Y-2.252
X6.3771Y-2.2607
X6.4016Y-2.5039
X6.4094Y-2.1575
X6.4173Y-2.1969
X6.4173Y-2.8189
X6.4252Y-2.4407
X6.4252Y-2.4727
X6.4331Y-2.5276
X6.4339Y-2.2511
X6.4409Y-2.2992
X6.5446Y-2.6535
X6.5984Y-2.2677
X6.6063Y-2.3071
X6.6142Y-2.6378
X6.6273Y-2.3702
X6.6558Y-2.3082
X6.7402Y-2.9764
X6.7723Y-2.4354
X6.8819Y-2.8268
X6.8898Y-2.252
X6.893Y-2.3679
X7.5276Y-2.3465
X7.6112Y-2.6173
X7.6299Y-2.3228
X7.68Y-2.6288
X7.6842Y-2.5757
X7.7087Y-2.8268
X7.7559Y-2.5827
X7.77Y-1.8976
X7.811Y-2.5827
X7.8661Y-2.5984
X7.9449Y-2.7953
X7.9685Y-2.9528
X8.1745Y-2.0252
X8.3465Y-2.189
T2
X4.063Y-2.6772
X4.6063Y-2.6772
X5.0236Y-3.3937
T3
X3.6772Y-1.837
X3.6772Y-1.937
X3.6772Y-2.037
X3.6772Y-2.137
X3.6772Y-2.237
T4
X3.2874Y-3.878
X3.4843Y-3.878
X3.6811Y-3.878
X3.878Y-3.878
X4.0748Y-3.878
X4.2717Y-3.878
X4.5866Y-3.878
X4.7835Y-3.878
X4.9803Y-3.878
X5.1772Y-3.878
X5.4921Y-3.878
X5.689Y-3.878
X5.8858Y-3.878
X6.0827Y-3.878
X6.2795Y-3.878
X6.4764Y-3.878
X6.6732Y-3.878
X6.8701Y-3.878
X7.0669Y-3.878
X7.2638Y-3.878
X7.4606Y-3.878
X7.6575Y-3.878
X7.8543Y-3.878
X8.0512Y-3.878
X8.248Y-3.878
X8.4449Y-3.878
T5
X8.378Y-2.0709
X8.378Y-2.2441
T6
X3.2874Y-4.0079
X3.4843Y-4.0079
X3.6811Y-4.0079
X3.878Y-4.0079
X4.0748Y-4.0079
X4.2717Y-4.0079
X4.5866Y-4.0079
X4.7835Y-4.0079
X4.9803Y-4.0079
X5.1772Y-4.0079
X5.4921Y-4.0079
X5.689Y-4.0079
X5.8858Y-4.0079
X6.0827Y-4.0079
X6.2795Y-4.0079
X6.4764Y-4.0079
X6.6732Y-4.0079
X6.8701Y-4.0079
X7.0669Y-4.0079
X7.2638Y-4.0079
X7.4606Y-4.0079
X7.6575Y-4.0079
X7.8543Y-4.0079
X8.0512Y-4.0079
X8.248Y-4.0079
X8.4449Y-4.0079
T7
X3.3858Y-3.622
X4.0551Y-1.8898
X6.811Y-3.5039
X8.3858Y-2.5591
X8.3858Y-3.4646
T0
M30
