G04 #@! TF.FileFunction,Drawing*
%FSLAX46Y46*%
G04 Gerber Fmt 4.6, Leading zero omitted, Abs format (unit mm)*
G04 Created by KiCad (PCBNEW (2016-07-20 BZR 6990)-product) date Sun Sep 11 23:36:35 2016*
%MOMM*%
%LPD*%
G01*
G04 APERTURE LIST*
%ADD10C,0.100000*%
%ADD11C,0.300000*%
G04 APERTURE END LIST*
D10*
D11*
X76471428Y-69500000D02*
X76471428Y-69214285D01*
X76400000Y-69071428D01*
X76328571Y-69000000D01*
X76114285Y-68857142D01*
X75828571Y-68785714D01*
X75257142Y-68785714D01*
X75114285Y-68857142D01*
X75042857Y-68928571D01*
X74971428Y-69071428D01*
X74971428Y-69357142D01*
X75042857Y-69500000D01*
X75114285Y-69571428D01*
X75257142Y-69642857D01*
X75614285Y-69642857D01*
X75757142Y-69571428D01*
X75828571Y-69500000D01*
X75900000Y-69357142D01*
X75900000Y-69071428D01*
X75828571Y-68928571D01*
X75757142Y-68857142D01*
X75614285Y-68785714D01*
X76328571Y-70214285D02*
X76400000Y-70285714D01*
X76471428Y-70428571D01*
X76471428Y-70785714D01*
X76400000Y-70928571D01*
X76328571Y-71000000D01*
X76185714Y-71071428D01*
X76042857Y-71071428D01*
X75828571Y-71000000D01*
X74971428Y-70142857D01*
X74971428Y-71071428D01*
X75114285Y-71714285D02*
X75042857Y-71785714D01*
X74971428Y-71714285D01*
X75042857Y-71642857D01*
X75114285Y-71714285D01*
X74971428Y-71714285D01*
X76471428Y-72714285D02*
X76471428Y-72857142D01*
X76400000Y-73000000D01*
X76328571Y-73071428D01*
X76185714Y-73142857D01*
X75900000Y-73214285D01*
X75542857Y-73214285D01*
X75257142Y-73142857D01*
X75114285Y-73071428D01*
X75042857Y-73000000D01*
X74971428Y-72857142D01*
X74971428Y-72714285D01*
X75042857Y-72571428D01*
X75114285Y-72500000D01*
X75257142Y-72428571D01*
X75542857Y-72357142D01*
X75900000Y-72357142D01*
X76185714Y-72428571D01*
X76328571Y-72500000D01*
X76400000Y-72571428D01*
X76471428Y-72714285D01*
X76471428Y-74142857D02*
X76471428Y-74285714D01*
X76400000Y-74428571D01*
X76328571Y-74500000D01*
X76185714Y-74571428D01*
X75900000Y-74642857D01*
X75542857Y-74642857D01*
X75257142Y-74571428D01*
X75114285Y-74500000D01*
X75042857Y-74428571D01*
X74971428Y-74285714D01*
X74971428Y-74142857D01*
X75042857Y-74000000D01*
X75114285Y-73928571D01*
X75257142Y-73857142D01*
X75542857Y-73785714D01*
X75900000Y-73785714D01*
X76185714Y-73857142D01*
X76328571Y-73928571D01*
X76400000Y-74000000D01*
X76471428Y-74142857D01*
X76471428Y-75571428D02*
X76471428Y-75714285D01*
X76400000Y-75857142D01*
X76328571Y-75928571D01*
X76185714Y-76000000D01*
X75900000Y-76071428D01*
X75542857Y-76071428D01*
X75257142Y-76000000D01*
X75114285Y-75928571D01*
X75042857Y-75857142D01*
X74971428Y-75714285D01*
X74971428Y-75571428D01*
X75042857Y-75428571D01*
X75114285Y-75357142D01*
X75257142Y-75285714D01*
X75542857Y-75214285D01*
X75900000Y-75214285D01*
X76185714Y-75285714D01*
X76328571Y-75357142D01*
X76400000Y-75428571D01*
X76471428Y-75571428D01*
X74971428Y-77857142D02*
X75971428Y-77857142D01*
X75828571Y-77857142D02*
X75900000Y-77928571D01*
X75971428Y-78071428D01*
X75971428Y-78285714D01*
X75900000Y-78428571D01*
X75757142Y-78500000D01*
X74971428Y-78500000D01*
X75757142Y-78500000D02*
X75900000Y-78571428D01*
X75971428Y-78714285D01*
X75971428Y-78928571D01*
X75900000Y-79071428D01*
X75757142Y-79142857D01*
X74971428Y-79142857D01*
X74971428Y-79857142D02*
X75971428Y-79857142D01*
X75828571Y-79857142D02*
X75900000Y-79928571D01*
X75971428Y-80071428D01*
X75971428Y-80285714D01*
X75900000Y-80428571D01*
X75757142Y-80500000D01*
X74971428Y-80500000D01*
X75757142Y-80500000D02*
X75900000Y-80571428D01*
X75971428Y-80714285D01*
X75971428Y-80928571D01*
X75900000Y-81071428D01*
X75757142Y-81142857D01*
X74971428Y-81142857D01*
X77000000Y-44000000D02*
X77000000Y-106000000D01*
X80000000Y-44000000D02*
X74300000Y-44000000D01*
X80000000Y-106000000D02*
X74300000Y-106000000D01*
X77000000Y-106000000D02*
X76413579Y-104873496D01*
X77000000Y-106000000D02*
X77586421Y-104873496D01*
X77000000Y-44000000D02*
X76413579Y-45126504D01*
X77000000Y-44000000D02*
X77586421Y-45126504D01*
X142928571Y-40328571D02*
X142071428Y-40328571D01*
X142500000Y-40328571D02*
X142500000Y-38828571D01*
X142357142Y-39042857D01*
X142214285Y-39185714D01*
X142071428Y-39257142D01*
X143428571Y-38828571D02*
X144357142Y-38828571D01*
X143857142Y-39400000D01*
X144071428Y-39400000D01*
X144214285Y-39471428D01*
X144285714Y-39542857D01*
X144357142Y-39685714D01*
X144357142Y-40042857D01*
X144285714Y-40185714D01*
X144214285Y-40257142D01*
X144071428Y-40328571D01*
X143642857Y-40328571D01*
X143500000Y-40257142D01*
X143428571Y-40185714D01*
X145214285Y-39471428D02*
X145071428Y-39400000D01*
X145000000Y-39328571D01*
X144928571Y-39185714D01*
X144928571Y-39114285D01*
X145000000Y-38971428D01*
X145071428Y-38900000D01*
X145214285Y-38828571D01*
X145500000Y-38828571D01*
X145642857Y-38900000D01*
X145714285Y-38971428D01*
X145785714Y-39114285D01*
X145785714Y-39185714D01*
X145714285Y-39328571D01*
X145642857Y-39400000D01*
X145500000Y-39471428D01*
X145214285Y-39471428D01*
X145071428Y-39542857D01*
X145000000Y-39614285D01*
X144928571Y-39757142D01*
X144928571Y-40042857D01*
X145000000Y-40185714D01*
X145071428Y-40257142D01*
X145214285Y-40328571D01*
X145500000Y-40328571D01*
X145642857Y-40257142D01*
X145714285Y-40185714D01*
X145785714Y-40042857D01*
X145785714Y-39757142D01*
X145714285Y-39614285D01*
X145642857Y-39542857D01*
X145500000Y-39471428D01*
X146428571Y-40185714D02*
X146500000Y-40257142D01*
X146428571Y-40328571D01*
X146357142Y-40257142D01*
X146428571Y-40185714D01*
X146428571Y-40328571D01*
X147428571Y-38828571D02*
X147571428Y-38828571D01*
X147714285Y-38900000D01*
X147785714Y-38971428D01*
X147857142Y-39114285D01*
X147928571Y-39400000D01*
X147928571Y-39757142D01*
X147857142Y-40042857D01*
X147785714Y-40185714D01*
X147714285Y-40257142D01*
X147571428Y-40328571D01*
X147428571Y-40328571D01*
X147285714Y-40257142D01*
X147214285Y-40185714D01*
X147142857Y-40042857D01*
X147071428Y-39757142D01*
X147071428Y-39400000D01*
X147142857Y-39114285D01*
X147214285Y-38971428D01*
X147285714Y-38900000D01*
X147428571Y-38828571D01*
X148857142Y-38828571D02*
X149000000Y-38828571D01*
X149142857Y-38900000D01*
X149214285Y-38971428D01*
X149285714Y-39114285D01*
X149357142Y-39400000D01*
X149357142Y-39757142D01*
X149285714Y-40042857D01*
X149214285Y-40185714D01*
X149142857Y-40257142D01*
X149000000Y-40328571D01*
X148857142Y-40328571D01*
X148714285Y-40257142D01*
X148642857Y-40185714D01*
X148571428Y-40042857D01*
X148500000Y-39757142D01*
X148500000Y-39400000D01*
X148571428Y-39114285D01*
X148642857Y-38971428D01*
X148714285Y-38900000D01*
X148857142Y-38828571D01*
X150285714Y-38828571D02*
X150428571Y-38828571D01*
X150571428Y-38900000D01*
X150642857Y-38971428D01*
X150714285Y-39114285D01*
X150785714Y-39400000D01*
X150785714Y-39757142D01*
X150714285Y-40042857D01*
X150642857Y-40185714D01*
X150571428Y-40257142D01*
X150428571Y-40328571D01*
X150285714Y-40328571D01*
X150142857Y-40257142D01*
X150071428Y-40185714D01*
X150000000Y-40042857D01*
X149928571Y-39757142D01*
X149928571Y-39400000D01*
X150000000Y-39114285D01*
X150071428Y-38971428D01*
X150142857Y-38900000D01*
X150285714Y-38828571D01*
X152571428Y-40328571D02*
X152571428Y-39328571D01*
X152571428Y-39471428D02*
X152642857Y-39400000D01*
X152785714Y-39328571D01*
X153000000Y-39328571D01*
X153142857Y-39400000D01*
X153214285Y-39542857D01*
X153214285Y-40328571D01*
X153214285Y-39542857D02*
X153285714Y-39400000D01*
X153428571Y-39328571D01*
X153642857Y-39328571D01*
X153785714Y-39400000D01*
X153857142Y-39542857D01*
X153857142Y-40328571D01*
X154571428Y-40328571D02*
X154571428Y-39328571D01*
X154571428Y-39471428D02*
X154642857Y-39400000D01*
X154785714Y-39328571D01*
X155000000Y-39328571D01*
X155142857Y-39400000D01*
X155214285Y-39542857D01*
X155214285Y-40328571D01*
X155214285Y-39542857D02*
X155285714Y-39400000D01*
X155428571Y-39328571D01*
X155642857Y-39328571D01*
X155785714Y-39400000D01*
X155857142Y-39542857D01*
X155857142Y-40328571D01*
X80000000Y-41000000D02*
X218000000Y-41000000D01*
X80000000Y-44000000D02*
X80000000Y-38300000D01*
X218000000Y-44000000D02*
X218000000Y-38300000D01*
X218000000Y-41000000D02*
X216873496Y-41586421D01*
X218000000Y-41000000D02*
X216873496Y-40413579D01*
X80000000Y-41000000D02*
X81126504Y-41586421D01*
X80000000Y-41000000D02*
X81126504Y-40413579D01*
M02*
