G04 #@! TF.FileFunction,Drawing*
%FSLAX46Y46*%
G04 Gerber Fmt 4.6, Leading zero omitted, Abs format (unit mm)*
G04 Created by KiCad (PCBNEW 4.0.2+dfsg1-stable) date Sun 11 Sep 2016 08:44:01 PM CDT*
%MOMM*%
G01*
G04 APERTURE LIST*
%ADD10C,0.100000*%
%ADD11C,0.300000*%
G04 APERTURE END LIST*
D10*
D11*
X76471429Y-69500001D02*
X76471429Y-69214287D01*
X76400000Y-69071430D01*
X76328571Y-69000001D01*
X76114286Y-68857144D01*
X75828571Y-68785715D01*
X75257143Y-68785715D01*
X75114286Y-68857144D01*
X75042857Y-68928572D01*
X74971429Y-69071430D01*
X74971429Y-69357144D01*
X75042857Y-69500001D01*
X75114286Y-69571430D01*
X75257143Y-69642858D01*
X75614286Y-69642858D01*
X75757143Y-69571430D01*
X75828571Y-69500001D01*
X75900000Y-69357144D01*
X75900000Y-69071430D01*
X75828571Y-68928572D01*
X75757143Y-68857144D01*
X75614286Y-68785715D01*
X76328571Y-70214286D02*
X76400000Y-70285715D01*
X76471429Y-70428572D01*
X76471429Y-70785715D01*
X76400000Y-70928572D01*
X76328571Y-71000001D01*
X76185714Y-71071429D01*
X76042857Y-71071429D01*
X75828571Y-71000001D01*
X74971429Y-70142858D01*
X74971429Y-71071429D01*
X75114286Y-71714286D02*
X75042857Y-71785714D01*
X74971429Y-71714286D01*
X75042857Y-71642857D01*
X75114286Y-71714286D01*
X74971429Y-71714286D01*
X76471429Y-72714286D02*
X76471429Y-72857143D01*
X76400000Y-73000000D01*
X76328571Y-73071429D01*
X76185714Y-73142858D01*
X75900000Y-73214286D01*
X75542857Y-73214286D01*
X75257143Y-73142858D01*
X75114286Y-73071429D01*
X75042857Y-73000000D01*
X74971429Y-72857143D01*
X74971429Y-72714286D01*
X75042857Y-72571429D01*
X75114286Y-72500000D01*
X75257143Y-72428572D01*
X75542857Y-72357143D01*
X75900000Y-72357143D01*
X76185714Y-72428572D01*
X76328571Y-72500000D01*
X76400000Y-72571429D01*
X76471429Y-72714286D01*
X76471429Y-74142857D02*
X76471429Y-74285714D01*
X76400000Y-74428571D01*
X76328571Y-74500000D01*
X76185714Y-74571429D01*
X75900000Y-74642857D01*
X75542857Y-74642857D01*
X75257143Y-74571429D01*
X75114286Y-74500000D01*
X75042857Y-74428571D01*
X74971429Y-74285714D01*
X74971429Y-74142857D01*
X75042857Y-74000000D01*
X75114286Y-73928571D01*
X75257143Y-73857143D01*
X75542857Y-73785714D01*
X75900000Y-73785714D01*
X76185714Y-73857143D01*
X76328571Y-73928571D01*
X76400000Y-74000000D01*
X76471429Y-74142857D01*
X76471429Y-75571428D02*
X76471429Y-75714285D01*
X76400000Y-75857142D01*
X76328571Y-75928571D01*
X76185714Y-76000000D01*
X75900000Y-76071428D01*
X75542857Y-76071428D01*
X75257143Y-76000000D01*
X75114286Y-75928571D01*
X75042857Y-75857142D01*
X74971429Y-75714285D01*
X74971429Y-75571428D01*
X75042857Y-75428571D01*
X75114286Y-75357142D01*
X75257143Y-75285714D01*
X75542857Y-75214285D01*
X75900000Y-75214285D01*
X76185714Y-75285714D01*
X76328571Y-75357142D01*
X76400000Y-75428571D01*
X76471429Y-75571428D01*
X74971429Y-77857142D02*
X75971429Y-77857142D01*
X75828571Y-77857142D02*
X75900000Y-77928570D01*
X75971429Y-78071428D01*
X75971429Y-78285713D01*
X75900000Y-78428570D01*
X75757143Y-78499999D01*
X74971429Y-78499999D01*
X75757143Y-78499999D02*
X75900000Y-78571428D01*
X75971429Y-78714285D01*
X75971429Y-78928570D01*
X75900000Y-79071428D01*
X75757143Y-79142856D01*
X74971429Y-79142856D01*
X74971429Y-79857142D02*
X75971429Y-79857142D01*
X75828571Y-79857142D02*
X75900000Y-79928570D01*
X75971429Y-80071428D01*
X75971429Y-80285713D01*
X75900000Y-80428570D01*
X75757143Y-80499999D01*
X74971429Y-80499999D01*
X75757143Y-80499999D02*
X75900000Y-80571428D01*
X75971429Y-80714285D01*
X75971429Y-80928570D01*
X75900000Y-81071428D01*
X75757143Y-81142856D01*
X74971429Y-81142856D01*
X77000000Y-44000000D02*
X77000000Y-106000000D01*
X80000000Y-44000000D02*
X74300000Y-44000000D01*
X80000000Y-106000000D02*
X74300000Y-106000000D01*
X77000000Y-106000000D02*
X76413579Y-104873496D01*
X77000000Y-106000000D02*
X77586421Y-104873496D01*
X77000000Y-44000000D02*
X76413579Y-45126504D01*
X77000000Y-44000000D02*
X77586421Y-45126504D01*
X142928573Y-40328571D02*
X142071430Y-40328571D01*
X142500002Y-40328571D02*
X142500002Y-38828571D01*
X142357145Y-39042857D01*
X142214287Y-39185714D01*
X142071430Y-39257143D01*
X143428573Y-38828571D02*
X144357144Y-38828571D01*
X143857144Y-39400000D01*
X144071430Y-39400000D01*
X144214287Y-39471429D01*
X144285716Y-39542857D01*
X144357144Y-39685714D01*
X144357144Y-40042857D01*
X144285716Y-40185714D01*
X144214287Y-40257143D01*
X144071430Y-40328571D01*
X143642858Y-40328571D01*
X143500001Y-40257143D01*
X143428573Y-40185714D01*
X145214287Y-39471429D02*
X145071429Y-39400000D01*
X145000001Y-39328571D01*
X144928572Y-39185714D01*
X144928572Y-39114286D01*
X145000001Y-38971429D01*
X145071429Y-38900000D01*
X145214287Y-38828571D01*
X145500001Y-38828571D01*
X145642858Y-38900000D01*
X145714287Y-38971429D01*
X145785715Y-39114286D01*
X145785715Y-39185714D01*
X145714287Y-39328571D01*
X145642858Y-39400000D01*
X145500001Y-39471429D01*
X145214287Y-39471429D01*
X145071429Y-39542857D01*
X145000001Y-39614286D01*
X144928572Y-39757143D01*
X144928572Y-40042857D01*
X145000001Y-40185714D01*
X145071429Y-40257143D01*
X145214287Y-40328571D01*
X145500001Y-40328571D01*
X145642858Y-40257143D01*
X145714287Y-40185714D01*
X145785715Y-40042857D01*
X145785715Y-39757143D01*
X145714287Y-39614286D01*
X145642858Y-39542857D01*
X145500001Y-39471429D01*
X146428572Y-40185714D02*
X146500000Y-40257143D01*
X146428572Y-40328571D01*
X146357143Y-40257143D01*
X146428572Y-40185714D01*
X146428572Y-40328571D01*
X147428572Y-38828571D02*
X147571429Y-38828571D01*
X147714286Y-38900000D01*
X147785715Y-38971429D01*
X147857144Y-39114286D01*
X147928572Y-39400000D01*
X147928572Y-39757143D01*
X147857144Y-40042857D01*
X147785715Y-40185714D01*
X147714286Y-40257143D01*
X147571429Y-40328571D01*
X147428572Y-40328571D01*
X147285715Y-40257143D01*
X147214286Y-40185714D01*
X147142858Y-40042857D01*
X147071429Y-39757143D01*
X147071429Y-39400000D01*
X147142858Y-39114286D01*
X147214286Y-38971429D01*
X147285715Y-38900000D01*
X147428572Y-38828571D01*
X148857143Y-38828571D02*
X149000000Y-38828571D01*
X149142857Y-38900000D01*
X149214286Y-38971429D01*
X149285715Y-39114286D01*
X149357143Y-39400000D01*
X149357143Y-39757143D01*
X149285715Y-40042857D01*
X149214286Y-40185714D01*
X149142857Y-40257143D01*
X149000000Y-40328571D01*
X148857143Y-40328571D01*
X148714286Y-40257143D01*
X148642857Y-40185714D01*
X148571429Y-40042857D01*
X148500000Y-39757143D01*
X148500000Y-39400000D01*
X148571429Y-39114286D01*
X148642857Y-38971429D01*
X148714286Y-38900000D01*
X148857143Y-38828571D01*
X150285714Y-38828571D02*
X150428571Y-38828571D01*
X150571428Y-38900000D01*
X150642857Y-38971429D01*
X150714286Y-39114286D01*
X150785714Y-39400000D01*
X150785714Y-39757143D01*
X150714286Y-40042857D01*
X150642857Y-40185714D01*
X150571428Y-40257143D01*
X150428571Y-40328571D01*
X150285714Y-40328571D01*
X150142857Y-40257143D01*
X150071428Y-40185714D01*
X150000000Y-40042857D01*
X149928571Y-39757143D01*
X149928571Y-39400000D01*
X150000000Y-39114286D01*
X150071428Y-38971429D01*
X150142857Y-38900000D01*
X150285714Y-38828571D01*
X152571428Y-40328571D02*
X152571428Y-39328571D01*
X152571428Y-39471429D02*
X152642856Y-39400000D01*
X152785714Y-39328571D01*
X152999999Y-39328571D01*
X153142856Y-39400000D01*
X153214285Y-39542857D01*
X153214285Y-40328571D01*
X153214285Y-39542857D02*
X153285714Y-39400000D01*
X153428571Y-39328571D01*
X153642856Y-39328571D01*
X153785714Y-39400000D01*
X153857142Y-39542857D01*
X153857142Y-40328571D01*
X154571428Y-40328571D02*
X154571428Y-39328571D01*
X154571428Y-39471429D02*
X154642856Y-39400000D01*
X154785714Y-39328571D01*
X154999999Y-39328571D01*
X155142856Y-39400000D01*
X155214285Y-39542857D01*
X155214285Y-40328571D01*
X155214285Y-39542857D02*
X155285714Y-39400000D01*
X155428571Y-39328571D01*
X155642856Y-39328571D01*
X155785714Y-39400000D01*
X155857142Y-39542857D01*
X155857142Y-40328571D01*
X80000000Y-41000000D02*
X218000000Y-41000000D01*
X80000000Y-44000000D02*
X80000000Y-38300000D01*
X218000000Y-44000000D02*
X218000000Y-38300000D01*
X218000000Y-41000000D02*
X216873496Y-41586421D01*
X218000000Y-41000000D02*
X216873496Y-40413579D01*
X80000000Y-41000000D02*
X81126504Y-41586421D01*
X80000000Y-41000000D02*
X81126504Y-40413579D01*
M02*
