G04 #@! TF.FileFunction,Soldermask,Bot*
%FSLAX46Y46*%
G04 Gerber Fmt 4.6, Leading zero omitted, Abs format (unit mm)*
G04 Created by KiCad (PCBNEW (2016-07-20 BZR 6990)-product) date Sun Sep 11 23:36:35 2016*
%MOMM*%
%LPD*%
G01*
G04 APERTURE LIST*
%ADD10C,0.100000*%
%ADD11C,3.600000*%
%ADD12C,1.299160*%
%ADD13R,2.432000X2.127200*%
%ADD14O,2.432000X2.127200*%
%ADD15C,1.800000*%
%ADD16C,2.900000*%
G04 APERTURE END LIST*
D10*
D11*
X173000000Y-89000000D03*
X86000000Y-92000000D03*
X103000000Y-48000000D03*
X213000000Y-65000000D03*
D12*
X212800000Y-56999280D03*
X212800000Y-52600000D03*
D13*
X93400000Y-56820000D03*
D14*
X93400000Y-54280000D03*
X93400000Y-51740000D03*
X93400000Y-49200000D03*
X93400000Y-46660000D03*
D15*
X179500000Y-101800000D03*
D16*
X184500000Y-98500000D03*
X189500000Y-98500000D03*
X194500000Y-98500000D03*
X199500000Y-98500000D03*
X204500000Y-98500000D03*
X209500000Y-98500000D03*
X214500000Y-98500000D03*
X179500000Y-98500000D03*
D15*
X184500000Y-101800000D03*
X189500000Y-101800000D03*
X194500000Y-101800000D03*
X199500000Y-101800000D03*
X204500000Y-101800000D03*
X209500000Y-101800000D03*
X214500000Y-101800000D03*
X139500000Y-101800000D03*
D16*
X144500000Y-98500000D03*
X149500000Y-98500000D03*
X154500000Y-98500000D03*
X159500000Y-98500000D03*
X164500000Y-98500000D03*
X169500000Y-98500000D03*
X174500000Y-98500000D03*
X139500000Y-98500000D03*
D15*
X144500000Y-101800000D03*
X149500000Y-101800000D03*
X154500000Y-101800000D03*
X159500000Y-101800000D03*
X164500000Y-101800000D03*
X169500000Y-101800000D03*
X174500000Y-101800000D03*
X116500000Y-101800000D03*
D16*
X121500000Y-98500000D03*
X116500000Y-98500000D03*
D15*
X121500000Y-101800000D03*
X126500000Y-101800000D03*
D16*
X131500000Y-98500000D03*
X126500000Y-98500000D03*
D15*
X131500000Y-101800000D03*
X83500000Y-101800000D03*
D16*
X88500000Y-98500000D03*
X83500000Y-98500000D03*
D15*
X88500000Y-101800000D03*
X93500000Y-101800000D03*
D16*
X98500000Y-98500000D03*
X93500000Y-98500000D03*
D15*
X98500000Y-101800000D03*
X103500000Y-101800000D03*
D16*
X108500000Y-98500000D03*
X103500000Y-98500000D03*
D15*
X108500000Y-101800000D03*
D11*
X213000000Y-88000000D03*
M02*
