G04 #@! TF.FileFunction,Soldermask,Top*
%FSLAX46Y46*%
G04 Gerber Fmt 4.6, Leading zero omitted, Abs format (unit mm)*
G04 Created by KiCad (PCBNEW (2015-11-11 BZR 6310)-product) date Mon 12 Sep 2016 09:25:39 AM CDT*
%MOMM*%
G01*
G04 APERTURE LIST*
%ADD10C,0.100000*%
%ADD11C,3.600000*%
%ADD12R,0.800000X1.750000*%
%ADD13R,1.600000X1.150000*%
%ADD14R,1.150000X1.600000*%
%ADD15R,5.400000X2.000000*%
%ADD16R,2.000000X5.400000*%
%ADD17R,2.000000X5.100000*%
%ADD18R,2.701240X0.900380*%
%ADD19R,2.899360X2.398980*%
%ADD20C,1.299160*%
%ADD21R,1.924000X2.660600*%
%ADD22R,7.131000X6.623000*%
%ADD23R,1.600000X1.300000*%
%ADD24R,2.100000X1.050000*%
%ADD25R,2.660600X1.924000*%
%ADD26R,6.623000X7.131000*%
%ADD27R,3.699460X2.899360*%
%ADD28R,2.432000X2.127200*%
%ADD29O,2.432000X2.127200*%
%ADD30R,1.870000X0.570000*%
%ADD31R,1.000000X1.900000*%
%ADD32C,1.800000*%
%ADD33C,2.900000*%
%ADD34R,0.850000X2.150000*%
%ADD35R,1.598880X1.598880*%
G04 APERTURE END LIST*
D10*
D11*
X173000000Y-89000000D03*
X86000000Y-92000000D03*
X103000000Y-48000000D03*
X213000000Y-65000000D03*
D12*
X154555000Y-74800000D03*
X155825000Y-74800000D03*
X157095000Y-74800000D03*
X158365000Y-74800000D03*
X158365000Y-69400000D03*
X157095000Y-69400000D03*
X155825000Y-69400000D03*
X154555000Y-69400000D03*
X165985000Y-74800000D03*
X167255000Y-74800000D03*
X168525000Y-74800000D03*
X169795000Y-74800000D03*
X169795000Y-69400000D03*
X168525000Y-69400000D03*
X167255000Y-69400000D03*
X165985000Y-69400000D03*
D13*
X197358000Y-46814000D03*
X195458000Y-46814000D03*
D14*
X189296000Y-58056000D03*
X189296000Y-59956000D03*
D13*
X201676000Y-46814000D03*
X199776000Y-46814000D03*
X177300000Y-56650000D03*
X179200000Y-56650000D03*
D15*
X126740000Y-82570000D03*
X118440000Y-82620000D03*
X126740000Y-73070000D03*
X118440000Y-73120000D03*
D14*
X129940000Y-66520000D03*
X129940000Y-64620000D03*
X129940000Y-59220000D03*
X129940000Y-61120000D03*
D16*
X138860000Y-57680000D03*
X138910000Y-65980000D03*
D14*
X91500000Y-72500000D03*
X91500000Y-70600000D03*
X101500000Y-72500000D03*
X101500000Y-70600000D03*
X111500000Y-72500000D03*
X111500000Y-70600000D03*
D17*
X138940000Y-73620000D03*
X133240000Y-73620000D03*
D18*
X210201580Y-56399840D03*
X210201580Y-55599740D03*
X210201580Y-54799640D03*
X210201580Y-53999540D03*
X210201580Y-53199440D03*
D19*
X210300640Y-59249720D03*
X215799740Y-59249720D03*
X210300640Y-50349560D03*
X215799740Y-50349560D03*
D20*
X212800000Y-56999280D03*
X212800000Y-52600000D03*
D21*
X88786000Y-65337200D03*
X84214000Y-65337200D03*
D22*
X86500000Y-72500000D03*
D21*
X98786000Y-65337200D03*
X94214000Y-65337200D03*
D22*
X96500000Y-72500000D03*
D21*
X108786000Y-65337200D03*
X104214000Y-65337200D03*
D22*
X106500000Y-72500000D03*
D23*
X88400000Y-62000000D03*
X90600000Y-62000000D03*
X98500000Y-62000000D03*
X100700000Y-62000000D03*
X108400000Y-62000000D03*
X110600000Y-62000000D03*
D24*
X184850000Y-54105000D03*
X184850000Y-52835000D03*
X184850000Y-51565000D03*
X184850000Y-50295000D03*
X177550000Y-50295000D03*
X177550000Y-51565000D03*
X177550000Y-52835000D03*
X177550000Y-54105000D03*
D25*
X126440000Y-64906000D03*
X126440000Y-60334000D03*
D26*
X119277200Y-62620000D03*
D27*
X134440000Y-79218940D03*
X134440000Y-86021060D03*
X87500000Y-86901060D03*
X87500000Y-80098940D03*
X97500000Y-86901060D03*
X97500000Y-80098940D03*
X107500000Y-87500000D03*
X107500000Y-80697880D03*
D13*
X161248321Y-53614355D03*
X163148321Y-53614355D03*
X161248321Y-51614355D03*
X163148321Y-51614355D03*
D28*
X93400000Y-56820000D03*
D29*
X93400000Y-54280000D03*
X93400000Y-51740000D03*
X93400000Y-49200000D03*
X93400000Y-46660000D03*
D30*
X165600000Y-64225000D03*
X165600000Y-63575000D03*
X165600000Y-62925000D03*
X165600000Y-62275000D03*
X165600000Y-61625000D03*
X165600000Y-60975000D03*
X165600000Y-60325000D03*
X165600000Y-59675000D03*
X165600000Y-59025000D03*
X165600000Y-58375000D03*
X165600000Y-57725000D03*
X165600000Y-57075000D03*
X165600000Y-56425000D03*
X165600000Y-55775000D03*
X158400000Y-55775000D03*
X158400000Y-56425000D03*
X158400000Y-57075000D03*
X158400000Y-57725000D03*
X158400000Y-58375000D03*
X158400000Y-59025000D03*
X158400000Y-59675000D03*
X158400000Y-60325000D03*
X158400000Y-60975000D03*
X158400000Y-61625000D03*
X158400000Y-62275000D03*
X158400000Y-62925000D03*
X158400000Y-63575000D03*
X158400000Y-64225000D03*
D31*
X201490000Y-82100000D03*
X200220000Y-82100000D03*
X198950000Y-82100000D03*
X197680000Y-82100000D03*
X196410000Y-82100000D03*
X195140000Y-82100000D03*
X193870000Y-82100000D03*
X192600000Y-82100000D03*
X192600000Y-91400000D03*
X193870000Y-91400000D03*
X195140000Y-91400000D03*
X196410000Y-91400000D03*
X197680000Y-91400000D03*
X198950000Y-91400000D03*
X200220000Y-91400000D03*
X201490000Y-91400000D03*
X165045000Y-82100000D03*
X163775000Y-82100000D03*
X162505000Y-82100000D03*
X161235000Y-82100000D03*
X159965000Y-82100000D03*
X158695000Y-82100000D03*
X157425000Y-82100000D03*
X156155000Y-82100000D03*
X156155000Y-91400000D03*
X157425000Y-91400000D03*
X158695000Y-91400000D03*
X159965000Y-91400000D03*
X161235000Y-91400000D03*
X162505000Y-91400000D03*
X163775000Y-91400000D03*
X165045000Y-91400000D03*
D12*
X196600000Y-74800000D03*
X197870000Y-74800000D03*
X199140000Y-74800000D03*
X200410000Y-74800000D03*
X200410000Y-69400000D03*
X199140000Y-69400000D03*
X197870000Y-69400000D03*
X196600000Y-69400000D03*
D14*
X161000000Y-71050000D03*
X161000000Y-72950000D03*
X173000000Y-71050000D03*
X173000000Y-72950000D03*
X203000000Y-71214800D03*
X203000000Y-73114800D03*
D32*
X179500000Y-101800000D03*
D33*
X184500000Y-98500000D03*
X189500000Y-98500000D03*
X194500000Y-98500000D03*
X199500000Y-98500000D03*
X204500000Y-98500000D03*
X209500000Y-98500000D03*
X214500000Y-98500000D03*
X179500000Y-98500000D03*
D32*
X184500000Y-101800000D03*
X189500000Y-101800000D03*
X194500000Y-101800000D03*
X199500000Y-101800000D03*
X204500000Y-101800000D03*
X209500000Y-101800000D03*
X214500000Y-101800000D03*
X139500000Y-101800000D03*
D33*
X144500000Y-98500000D03*
X149500000Y-98500000D03*
X154500000Y-98500000D03*
X159500000Y-98500000D03*
X164500000Y-98500000D03*
X169500000Y-98500000D03*
X174500000Y-98500000D03*
X139500000Y-98500000D03*
D32*
X144500000Y-101800000D03*
X149500000Y-101800000D03*
X154500000Y-101800000D03*
X159500000Y-101800000D03*
X164500000Y-101800000D03*
X169500000Y-101800000D03*
X174500000Y-101800000D03*
D34*
X192100000Y-57300000D03*
X192750000Y-57300000D03*
X193400000Y-57300000D03*
X194050000Y-57300000D03*
X194700000Y-57300000D03*
X195350000Y-57300000D03*
X196000000Y-57300000D03*
X196650000Y-57300000D03*
X197300000Y-57300000D03*
X197950000Y-57300000D03*
X198600000Y-57300000D03*
X199250000Y-57300000D03*
X199900000Y-57300000D03*
X200550000Y-57300000D03*
X200550000Y-50100000D03*
X199900000Y-50100000D03*
X199250000Y-50100000D03*
X198600000Y-50100000D03*
X197950000Y-50100000D03*
X197300000Y-50100000D03*
X196650000Y-50100000D03*
X196000000Y-50100000D03*
X195350000Y-50100000D03*
X194700000Y-50100000D03*
X194050000Y-50100000D03*
X193400000Y-50100000D03*
X192750000Y-50100000D03*
X192100000Y-50100000D03*
D32*
X116500000Y-101800000D03*
D33*
X121500000Y-98500000D03*
X116500000Y-98500000D03*
D32*
X121500000Y-101800000D03*
X126500000Y-101800000D03*
D33*
X131500000Y-98500000D03*
X126500000Y-98500000D03*
D32*
X131500000Y-101800000D03*
X83500000Y-101800000D03*
D33*
X88500000Y-98500000D03*
X83500000Y-98500000D03*
D32*
X88500000Y-101800000D03*
X93500000Y-101800000D03*
D33*
X98500000Y-98500000D03*
X93500000Y-98500000D03*
D32*
X98500000Y-101800000D03*
X103500000Y-101800000D03*
D33*
X108500000Y-98500000D03*
X103500000Y-98500000D03*
D32*
X108500000Y-101800000D03*
D35*
X147598040Y-83000000D03*
X145500000Y-83000000D03*
X147549020Y-85500000D03*
X145450980Y-85500000D03*
X147549020Y-88000000D03*
X145450980Y-88000000D03*
X147598040Y-90500000D03*
X145500000Y-90500000D03*
D23*
X149800000Y-83000000D03*
X152000000Y-83000000D03*
X149900000Y-85500000D03*
X152100000Y-85500000D03*
X149900000Y-88000000D03*
X152100000Y-88000000D03*
X149900000Y-90500000D03*
X152100000Y-90500000D03*
D11*
X213000000Y-88000000D03*
M02*
