G04 #@! TF.FileFunction,Legend,Top*
%FSLAX46Y46*%
G04 Gerber Fmt 4.6, Leading zero omitted, Abs format (unit mm)*
G04 Created by KiCad (PCBNEW (2016-07-20 BZR 6990)-product) date Sun Sep 11 23:36:35 2016*
%MOMM*%
%LPD*%
G01*
G04 APERTURE LIST*
%ADD10C,0.100000*%
%ADD11C,0.160000*%
%ADD12C,0.500000*%
%ADD13C,0.300000*%
%ADD14C,0.150000*%
%ADD15C,0.010000*%
G04 APERTURE END LIST*
D10*
D11*
X207991238Y-71792380D02*
X207991238Y-70792380D01*
X208229333Y-70792380D01*
X208372190Y-70840000D01*
X208467428Y-70935238D01*
X208515047Y-71030476D01*
X208562666Y-71220952D01*
X208562666Y-71363809D01*
X208515047Y-71554285D01*
X208467428Y-71649523D01*
X208372190Y-71744761D01*
X208229333Y-71792380D01*
X207991238Y-71792380D01*
X209372190Y-71744761D02*
X209276952Y-71792380D01*
X209086476Y-71792380D01*
X208991238Y-71744761D01*
X208943619Y-71649523D01*
X208943619Y-71268571D01*
X208991238Y-71173333D01*
X209086476Y-71125714D01*
X209276952Y-71125714D01*
X209372190Y-71173333D01*
X209419809Y-71268571D01*
X209419809Y-71363809D01*
X208943619Y-71459047D01*
X209800761Y-71744761D02*
X209896000Y-71792380D01*
X210086476Y-71792380D01*
X210181714Y-71744761D01*
X210229333Y-71649523D01*
X210229333Y-71601904D01*
X210181714Y-71506666D01*
X210086476Y-71459047D01*
X209943619Y-71459047D01*
X209848380Y-71411428D01*
X209800761Y-71316190D01*
X209800761Y-71268571D01*
X209848380Y-71173333D01*
X209943619Y-71125714D01*
X210086476Y-71125714D01*
X210181714Y-71173333D01*
X210657904Y-71792380D02*
X210657904Y-71125714D01*
X210657904Y-70792380D02*
X210610285Y-70840000D01*
X210657904Y-70887619D01*
X210705523Y-70840000D01*
X210657904Y-70792380D01*
X210657904Y-70887619D01*
X211562666Y-71125714D02*
X211562666Y-71935238D01*
X211515047Y-72030476D01*
X211467428Y-72078095D01*
X211372190Y-72125714D01*
X211229333Y-72125714D01*
X211134095Y-72078095D01*
X211562666Y-71744761D02*
X211467428Y-71792380D01*
X211276952Y-71792380D01*
X211181714Y-71744761D01*
X211134095Y-71697142D01*
X211086476Y-71601904D01*
X211086476Y-71316190D01*
X211134095Y-71220952D01*
X211181714Y-71173333D01*
X211276952Y-71125714D01*
X211467428Y-71125714D01*
X211562666Y-71173333D01*
X212038857Y-71125714D02*
X212038857Y-71792380D01*
X212038857Y-71220952D02*
X212086476Y-71173333D01*
X212181714Y-71125714D01*
X212324571Y-71125714D01*
X212419809Y-71173333D01*
X212467428Y-71268571D01*
X212467428Y-71792380D01*
X213324571Y-71744761D02*
X213229333Y-71792380D01*
X213038857Y-71792380D01*
X212943619Y-71744761D01*
X212896000Y-71649523D01*
X212896000Y-71268571D01*
X212943619Y-71173333D01*
X213038857Y-71125714D01*
X213229333Y-71125714D01*
X213324571Y-71173333D01*
X213372190Y-71268571D01*
X213372190Y-71363809D01*
X212896000Y-71459047D01*
X214229333Y-71792380D02*
X214229333Y-70792380D01*
X214229333Y-71744761D02*
X214134095Y-71792380D01*
X213943619Y-71792380D01*
X213848380Y-71744761D01*
X213800761Y-71697142D01*
X213753142Y-71601904D01*
X213753142Y-71316190D01*
X213800761Y-71220952D01*
X213848380Y-71173333D01*
X213943619Y-71125714D01*
X214134095Y-71125714D01*
X214229333Y-71173333D01*
X215467428Y-71792380D02*
X215467428Y-70792380D01*
X215467428Y-71173333D02*
X215562666Y-71125714D01*
X215753142Y-71125714D01*
X215848380Y-71173333D01*
X215896000Y-71220952D01*
X215943619Y-71316190D01*
X215943619Y-71601904D01*
X215896000Y-71697142D01*
X215848380Y-71744761D01*
X215753142Y-71792380D01*
X215562666Y-71792380D01*
X215467428Y-71744761D01*
X216276952Y-71125714D02*
X216515047Y-71792380D01*
X216753142Y-71125714D02*
X216515047Y-71792380D01*
X216419809Y-72030476D01*
X216372190Y-72078095D01*
X216276952Y-72125714D01*
X207134095Y-72928571D02*
X207276952Y-72976190D01*
X207324571Y-73023809D01*
X207372190Y-73119047D01*
X207372190Y-73261904D01*
X207324571Y-73357142D01*
X207276952Y-73404761D01*
X207181714Y-73452380D01*
X206800761Y-73452380D01*
X206800761Y-72452380D01*
X207134095Y-72452380D01*
X207229333Y-72500000D01*
X207276952Y-72547619D01*
X207324571Y-72642857D01*
X207324571Y-72738095D01*
X207276952Y-72833333D01*
X207229333Y-72880952D01*
X207134095Y-72928571D01*
X206800761Y-72928571D01*
X207800761Y-73452380D02*
X207800761Y-72785714D01*
X207800761Y-72976190D02*
X207848380Y-72880952D01*
X207896000Y-72833333D01*
X207991238Y-72785714D01*
X208086476Y-72785714D01*
X208848380Y-73452380D02*
X208848380Y-72928571D01*
X208800761Y-72833333D01*
X208705523Y-72785714D01*
X208515047Y-72785714D01*
X208419809Y-72833333D01*
X208848380Y-73404761D02*
X208753142Y-73452380D01*
X208515047Y-73452380D01*
X208419809Y-73404761D01*
X208372190Y-73309523D01*
X208372190Y-73214285D01*
X208419809Y-73119047D01*
X208515047Y-73071428D01*
X208753142Y-73071428D01*
X208848380Y-73023809D01*
X209753142Y-73452380D02*
X209753142Y-72452380D01*
X209753142Y-73404761D02*
X209657904Y-73452380D01*
X209467428Y-73452380D01*
X209372190Y-73404761D01*
X209324571Y-73357142D01*
X209276952Y-73261904D01*
X209276952Y-72976190D01*
X209324571Y-72880952D01*
X209372190Y-72833333D01*
X209467428Y-72785714D01*
X209657904Y-72785714D01*
X209753142Y-72833333D01*
X210134095Y-72785714D02*
X210372190Y-73452380D01*
X210610285Y-72785714D02*
X210372190Y-73452380D01*
X210276952Y-73690476D01*
X210229333Y-73738095D01*
X210134095Y-73785714D01*
X211943619Y-72452380D02*
X212134095Y-72452380D01*
X212229333Y-72500000D01*
X212324571Y-72595238D01*
X212372190Y-72785714D01*
X212372190Y-73119047D01*
X212324571Y-73309523D01*
X212229333Y-73404761D01*
X212134095Y-73452380D01*
X211943619Y-73452380D01*
X211848380Y-73404761D01*
X211753142Y-73309523D01*
X211705523Y-73119047D01*
X211705523Y-72785714D01*
X211753142Y-72595238D01*
X211848380Y-72500000D01*
X211943619Y-72452380D01*
X212848380Y-72452380D02*
X212753142Y-72642857D01*
X213610285Y-72928571D02*
X213753142Y-72976190D01*
X213800761Y-73023809D01*
X213848380Y-73119047D01*
X213848380Y-73261904D01*
X213800761Y-73357142D01*
X213753142Y-73404761D01*
X213657904Y-73452380D01*
X213276952Y-73452380D01*
X213276952Y-72452380D01*
X213610285Y-72452380D01*
X213705523Y-72500000D01*
X213753142Y-72547619D01*
X213800761Y-72642857D01*
X213800761Y-72738095D01*
X213753142Y-72833333D01*
X213705523Y-72880952D01*
X213610285Y-72928571D01*
X213276952Y-72928571D01*
X214276952Y-73452380D02*
X214276952Y-72785714D01*
X214276952Y-72976190D02*
X214324571Y-72880952D01*
X214372190Y-72833333D01*
X214467428Y-72785714D01*
X214562666Y-72785714D01*
X214896000Y-73452380D02*
X214896000Y-72785714D01*
X214896000Y-72452380D02*
X214848380Y-72500000D01*
X214896000Y-72547619D01*
X214943619Y-72500000D01*
X214896000Y-72452380D01*
X214896000Y-72547619D01*
X215753142Y-73404761D02*
X215657904Y-73452380D01*
X215467428Y-73452380D01*
X215372190Y-73404761D01*
X215324571Y-73309523D01*
X215324571Y-72928571D01*
X215372190Y-72833333D01*
X215467428Y-72785714D01*
X215657904Y-72785714D01*
X215753142Y-72833333D01*
X215800761Y-72928571D01*
X215800761Y-73023809D01*
X215324571Y-73119047D01*
X216229333Y-72785714D02*
X216229333Y-73452380D01*
X216229333Y-72880952D02*
X216276952Y-72833333D01*
X216372190Y-72785714D01*
X216515047Y-72785714D01*
X216610285Y-72833333D01*
X216657904Y-72928571D01*
X216657904Y-73452380D01*
X211181714Y-75112380D02*
X211181714Y-74445714D01*
X211181714Y-74112380D02*
X211134095Y-74160000D01*
X211181714Y-74207619D01*
X211229333Y-74160000D01*
X211181714Y-74112380D01*
X211181714Y-74207619D01*
X211657904Y-74445714D02*
X211657904Y-75112380D01*
X211657904Y-74540952D02*
X211705523Y-74493333D01*
X211800761Y-74445714D01*
X211943619Y-74445714D01*
X212038857Y-74493333D01*
X212086476Y-74588571D01*
X212086476Y-75112380D01*
X213276952Y-74207619D02*
X213324571Y-74160000D01*
X213419809Y-74112380D01*
X213657904Y-74112380D01*
X213753142Y-74160000D01*
X213800761Y-74207619D01*
X213848380Y-74302857D01*
X213848380Y-74398095D01*
X213800761Y-74540952D01*
X213229333Y-75112380D01*
X213848380Y-75112380D01*
X214467428Y-74112380D02*
X214562666Y-74112380D01*
X214657904Y-74160000D01*
X214705523Y-74207619D01*
X214753142Y-74302857D01*
X214800761Y-74493333D01*
X214800761Y-74731428D01*
X214753142Y-74921904D01*
X214705523Y-75017142D01*
X214657904Y-75064761D01*
X214562666Y-75112380D01*
X214467428Y-75112380D01*
X214372190Y-75064761D01*
X214324571Y-75017142D01*
X214276952Y-74921904D01*
X214229333Y-74731428D01*
X214229333Y-74493333D01*
X214276952Y-74302857D01*
X214324571Y-74207619D01*
X214372190Y-74160000D01*
X214467428Y-74112380D01*
X215753142Y-75112380D02*
X215181714Y-75112380D01*
X215467428Y-75112380D02*
X215467428Y-74112380D01*
X215372190Y-74255238D01*
X215276952Y-74350476D01*
X215181714Y-74398095D01*
X216610285Y-74112380D02*
X216419809Y-74112380D01*
X216324571Y-74160000D01*
X216276952Y-74207619D01*
X216181714Y-74350476D01*
X216134095Y-74540952D01*
X216134095Y-74921904D01*
X216181714Y-75017142D01*
X216229333Y-75064761D01*
X216324571Y-75112380D01*
X216515047Y-75112380D01*
X216610285Y-75064761D01*
X216657904Y-75017142D01*
X216705523Y-74921904D01*
X216705523Y-74683809D01*
X216657904Y-74588571D01*
X216610285Y-74540952D01*
X216515047Y-74493333D01*
X216324571Y-74493333D01*
X216229333Y-74540952D01*
X216181714Y-74588571D01*
X216134095Y-74683809D01*
D12*
X122702380Y-47416666D02*
X123892857Y-47416666D01*
X122464285Y-48130952D02*
X123297619Y-45630952D01*
X124130952Y-48130952D01*
X126392857Y-48130952D02*
X125559523Y-46940476D01*
X124964285Y-48130952D02*
X124964285Y-45630952D01*
X125916666Y-45630952D01*
X126154761Y-45750000D01*
X126273809Y-45869047D01*
X126392857Y-46107142D01*
X126392857Y-46464285D01*
X126273809Y-46702380D01*
X126154761Y-46821428D01*
X125916666Y-46940476D01*
X124964285Y-46940476D01*
X128892857Y-47892857D02*
X128773809Y-48011904D01*
X128416666Y-48130952D01*
X128178571Y-48130952D01*
X127821428Y-48011904D01*
X127583333Y-47773809D01*
X127464285Y-47535714D01*
X127345238Y-47059523D01*
X127345238Y-46702380D01*
X127464285Y-46226190D01*
X127583333Y-45988095D01*
X127821428Y-45750000D01*
X128178571Y-45630952D01*
X128416666Y-45630952D01*
X128773809Y-45750000D01*
X128892857Y-45869047D01*
X131869047Y-48130952D02*
X131869047Y-45630952D01*
X132821428Y-45630952D01*
X133059523Y-45750000D01*
X133178571Y-45869047D01*
X133297619Y-46107142D01*
X133297619Y-46464285D01*
X133178571Y-46702380D01*
X133059523Y-46821428D01*
X132821428Y-46940476D01*
X131869047Y-46940476D01*
X134369047Y-48130952D02*
X134369047Y-46464285D01*
X134369047Y-46940476D02*
X134488095Y-46702380D01*
X134607142Y-46583333D01*
X134845238Y-46464285D01*
X135083333Y-46464285D01*
X136273809Y-48130952D02*
X136035714Y-48011904D01*
X135916666Y-47892857D01*
X135797619Y-47654761D01*
X135797619Y-46940476D01*
X135916666Y-46702380D01*
X136035714Y-46583333D01*
X136273809Y-46464285D01*
X136630952Y-46464285D01*
X136869047Y-46583333D01*
X136988095Y-46702380D01*
X137107142Y-46940476D01*
X137107142Y-47654761D01*
X136988095Y-47892857D01*
X136869047Y-48011904D01*
X136630952Y-48130952D01*
X136273809Y-48130952D01*
X137821428Y-46464285D02*
X138773809Y-46464285D01*
X138178571Y-45630952D02*
X138178571Y-47773809D01*
X138297619Y-48011904D01*
X138535714Y-48130952D01*
X138773809Y-48130952D01*
X140559523Y-48011904D02*
X140321428Y-48130952D01*
X139845238Y-48130952D01*
X139607142Y-48011904D01*
X139488095Y-47773809D01*
X139488095Y-46821428D01*
X139607142Y-46583333D01*
X139845238Y-46464285D01*
X140321428Y-46464285D01*
X140559523Y-46583333D01*
X140678571Y-46821428D01*
X140678571Y-47059523D01*
X139488095Y-47297619D01*
X142821428Y-48011904D02*
X142583333Y-48130952D01*
X142107142Y-48130952D01*
X141869047Y-48011904D01*
X141750000Y-47892857D01*
X141630952Y-47654761D01*
X141630952Y-46940476D01*
X141750000Y-46702380D01*
X141869047Y-46583333D01*
X142107142Y-46464285D01*
X142583333Y-46464285D01*
X142821428Y-46583333D01*
X143535714Y-46464285D02*
X144488095Y-46464285D01*
X143892857Y-45630952D02*
X143892857Y-47773809D01*
X144011904Y-48011904D01*
X144250000Y-48130952D01*
X144488095Y-48130952D01*
X146273809Y-48011904D02*
X146035714Y-48130952D01*
X145559523Y-48130952D01*
X145321428Y-48011904D01*
X145202380Y-47773809D01*
X145202380Y-46821428D01*
X145321428Y-46583333D01*
X145559523Y-46464285D01*
X146035714Y-46464285D01*
X146273809Y-46583333D01*
X146392857Y-46821428D01*
X146392857Y-47059523D01*
X145202380Y-47297619D01*
X148535714Y-48130952D02*
X148535714Y-45630952D01*
X148535714Y-48011904D02*
X148297619Y-48130952D01*
X147821428Y-48130952D01*
X147583333Y-48011904D01*
X147464285Y-47892857D01*
X147345238Y-47654761D01*
X147345238Y-46940476D01*
X147464285Y-46702380D01*
X147583333Y-46583333D01*
X147821428Y-46464285D01*
X148297619Y-46464285D01*
X148535714Y-46583333D01*
X151630952Y-48130952D02*
X151630952Y-45630952D01*
X152583333Y-45630952D01*
X152821428Y-45750000D01*
X152940476Y-45869047D01*
X153059523Y-46107142D01*
X153059523Y-46464285D01*
X152940476Y-46702380D01*
X152821428Y-46821428D01*
X152583333Y-46940476D01*
X151630952Y-46940476D01*
X154011904Y-48011904D02*
X154369047Y-48130952D01*
X154964285Y-48130952D01*
X155202380Y-48011904D01*
X155321428Y-47892857D01*
X155440476Y-47654761D01*
X155440476Y-47416666D01*
X155321428Y-47178571D01*
X155202380Y-47059523D01*
X154964285Y-46940476D01*
X154488095Y-46821428D01*
X154250000Y-46702380D01*
X154130952Y-46583333D01*
X154011904Y-46345238D01*
X154011904Y-46107142D01*
X154130952Y-45869047D01*
X154250000Y-45750000D01*
X154488095Y-45630952D01*
X155083333Y-45630952D01*
X155440476Y-45750000D01*
X156988095Y-45630952D02*
X157464285Y-45630952D01*
X157702380Y-45750000D01*
X157940476Y-45988095D01*
X158059523Y-46464285D01*
X158059523Y-47297619D01*
X157940476Y-47773809D01*
X157702380Y-48011904D01*
X157464285Y-48130952D01*
X156988095Y-48130952D01*
X156750000Y-48011904D01*
X156511904Y-47773809D01*
X156392857Y-47297619D01*
X156392857Y-46464285D01*
X156511904Y-45988095D01*
X156750000Y-45750000D01*
X156988095Y-45630952D01*
X160559523Y-47892857D02*
X160440476Y-48011904D01*
X160083333Y-48130952D01*
X159845238Y-48130952D01*
X159488095Y-48011904D01*
X159250000Y-47773809D01*
X159130952Y-47535714D01*
X159011904Y-47059523D01*
X159011904Y-46702380D01*
X159130952Y-46226190D01*
X159250000Y-45988095D01*
X159488095Y-45750000D01*
X159845238Y-45630952D01*
X160083333Y-45630952D01*
X160440476Y-45750000D01*
X160559523Y-45869047D01*
X164369047Y-46821428D02*
X164726190Y-46940476D01*
X164845238Y-47059523D01*
X164964285Y-47297619D01*
X164964285Y-47654761D01*
X164845238Y-47892857D01*
X164726190Y-48011904D01*
X164488095Y-48130952D01*
X163535714Y-48130952D01*
X163535714Y-45630952D01*
X164369047Y-45630952D01*
X164607142Y-45750000D01*
X164726190Y-45869047D01*
X164845238Y-46107142D01*
X164845238Y-46345238D01*
X164726190Y-46583333D01*
X164607142Y-46702380D01*
X164369047Y-46821428D01*
X163535714Y-46821428D01*
X166392857Y-48130952D02*
X166154761Y-48011904D01*
X166035714Y-47892857D01*
X165916666Y-47654761D01*
X165916666Y-46940476D01*
X166035714Y-46702380D01*
X166154761Y-46583333D01*
X166392857Y-46464285D01*
X166750000Y-46464285D01*
X166988095Y-46583333D01*
X167107142Y-46702380D01*
X167226190Y-46940476D01*
X167226190Y-47654761D01*
X167107142Y-47892857D01*
X166988095Y-48011904D01*
X166750000Y-48130952D01*
X166392857Y-48130952D01*
X169369047Y-48130952D02*
X169369047Y-46821428D01*
X169250000Y-46583333D01*
X169011904Y-46464285D01*
X168535714Y-46464285D01*
X168297619Y-46583333D01*
X169369047Y-48011904D02*
X169130952Y-48130952D01*
X168535714Y-48130952D01*
X168297619Y-48011904D01*
X168178571Y-47773809D01*
X168178571Y-47535714D01*
X168297619Y-47297619D01*
X168535714Y-47178571D01*
X169130952Y-47178571D01*
X169369047Y-47059523D01*
X170559523Y-48130952D02*
X170559523Y-46464285D01*
X170559523Y-46940476D02*
X170678571Y-46702380D01*
X170797619Y-46583333D01*
X171035714Y-46464285D01*
X171273809Y-46464285D01*
X173178571Y-48130952D02*
X173178571Y-45630952D01*
X173178571Y-48011904D02*
X172940476Y-48130952D01*
X172464285Y-48130952D01*
X172226190Y-48011904D01*
X172107142Y-47892857D01*
X171988095Y-47654761D01*
X171988095Y-46940476D01*
X172107142Y-46702380D01*
X172226190Y-46583333D01*
X172464285Y-46464285D01*
X172940476Y-46464285D01*
X173178571Y-46583333D01*
D13*
X116281249Y-53178571D02*
X116245535Y-53464285D01*
X116852678Y-53178571D02*
X116816964Y-53464285D01*
X117352678Y-53178571D02*
X117522321Y-54678571D01*
X117941964Y-53607142D01*
X118093749Y-54678571D01*
X118638392Y-53178571D01*
X119602678Y-54607142D02*
X119450892Y-54678571D01*
X119165178Y-54678571D01*
X119031249Y-54607142D01*
X118977678Y-54464285D01*
X119049107Y-53892857D01*
X119138392Y-53750000D01*
X119290178Y-53678571D01*
X119575892Y-53678571D01*
X119709821Y-53750000D01*
X119763392Y-53892857D01*
X119745535Y-54035714D01*
X119013392Y-54178571D01*
X121450892Y-54678571D02*
X121638392Y-53178571D01*
X121566964Y-53750000D02*
X121718749Y-53678571D01*
X122004464Y-53678571D01*
X122138392Y-53750000D01*
X122200892Y-53821428D01*
X122254464Y-53964285D01*
X122200892Y-54392857D01*
X122111607Y-54535714D01*
X122031249Y-54607142D01*
X121879464Y-54678571D01*
X121593749Y-54678571D01*
X121459821Y-54607142D01*
X123575892Y-53678571D02*
X123450892Y-54678571D01*
X122933035Y-53678571D02*
X122834821Y-54464285D01*
X122888392Y-54607142D01*
X123022321Y-54678571D01*
X123236607Y-54678571D01*
X123388392Y-54607142D01*
X123468749Y-54535714D01*
X124165178Y-54678571D02*
X124290178Y-53678571D01*
X124352678Y-53178571D02*
X124272321Y-53250000D01*
X124334821Y-53321428D01*
X124415178Y-53250000D01*
X124352678Y-53178571D01*
X124334821Y-53321428D01*
X125093749Y-54678571D02*
X124959821Y-54607142D01*
X124906249Y-54464285D01*
X125066964Y-53178571D01*
X126308035Y-54678571D02*
X126495535Y-53178571D01*
X126316964Y-54607142D02*
X126165178Y-54678571D01*
X125879464Y-54678571D01*
X125745535Y-54607142D01*
X125683035Y-54535714D01*
X125629464Y-54392857D01*
X125683035Y-53964285D01*
X125772321Y-53821428D01*
X125852678Y-53750000D01*
X126004464Y-53678571D01*
X126290178Y-53678571D01*
X126424107Y-53750000D01*
X128165178Y-54678571D02*
X128290178Y-53678571D01*
X128254464Y-53964285D02*
X128343750Y-53821428D01*
X128424107Y-53750000D01*
X128575892Y-53678571D01*
X128718749Y-53678571D01*
X129308035Y-54678571D02*
X129174107Y-54607142D01*
X129111607Y-54535714D01*
X129058035Y-54392857D01*
X129111607Y-53964285D01*
X129200892Y-53821428D01*
X129281250Y-53750000D01*
X129433035Y-53678571D01*
X129647321Y-53678571D01*
X129781250Y-53750000D01*
X129843750Y-53821428D01*
X129897321Y-53964285D01*
X129843749Y-54392857D01*
X129754464Y-54535714D01*
X129674107Y-54607142D01*
X129522321Y-54678571D01*
X129308035Y-54678571D01*
X130450892Y-54678571D02*
X130638392Y-53178571D01*
X130566964Y-53750000D02*
X130718749Y-53678571D01*
X131004464Y-53678571D01*
X131138392Y-53750000D01*
X131200892Y-53821428D01*
X131254464Y-53964285D01*
X131200892Y-54392857D01*
X131111607Y-54535714D01*
X131031250Y-54607142D01*
X130879464Y-54678571D01*
X130593749Y-54678571D01*
X130459821Y-54607142D01*
X132022321Y-54678571D02*
X131888392Y-54607142D01*
X131825892Y-54535714D01*
X131772321Y-54392857D01*
X131825892Y-53964285D01*
X131915178Y-53821428D01*
X131995535Y-53750000D01*
X132147321Y-53678571D01*
X132361607Y-53678571D01*
X132495535Y-53750000D01*
X132558035Y-53821428D01*
X132611607Y-53964285D01*
X132558035Y-54392857D01*
X132468749Y-54535714D01*
X132388392Y-54607142D01*
X132236607Y-54678571D01*
X132022321Y-54678571D01*
X133075892Y-53678571D02*
X133647321Y-53678571D01*
X133352678Y-53178571D02*
X133191964Y-54464285D01*
X133245535Y-54607142D01*
X133379464Y-54678571D01*
X133522321Y-54678571D01*
X133959821Y-54607142D02*
X134093750Y-54678571D01*
X134379464Y-54678571D01*
X134531250Y-54607142D01*
X134620535Y-54464285D01*
X134629464Y-54392857D01*
X134575892Y-54250000D01*
X134441964Y-54178571D01*
X134227678Y-54178571D01*
X134093750Y-54107142D01*
X134040178Y-53964285D01*
X134049107Y-53892857D01*
X134138392Y-53750000D01*
X134290178Y-53678571D01*
X134504464Y-53678571D01*
X134638392Y-53750000D01*
X135352678Y-53178571D02*
X135316964Y-53464285D01*
X135924107Y-53178571D02*
X135888392Y-53464285D01*
D12*
X168551190Y-80666666D02*
X169741666Y-80666666D01*
X168313095Y-81380952D02*
X169146428Y-78880952D01*
X169979761Y-81380952D01*
X171884523Y-79714285D02*
X171884523Y-81380952D01*
X170813095Y-79714285D02*
X170813095Y-81023809D01*
X170932142Y-81261904D01*
X171170238Y-81380952D01*
X171527380Y-81380952D01*
X171765476Y-81261904D01*
X171884523Y-81142857D01*
X172717857Y-79714285D02*
X173670238Y-79714285D01*
X173075000Y-78880952D02*
X173075000Y-81023809D01*
X173194047Y-81261904D01*
X173432142Y-81380952D01*
X173670238Y-81380952D01*
X174860714Y-81380952D02*
X174622619Y-81261904D01*
X174503571Y-81142857D01*
X174384523Y-80904761D01*
X174384523Y-80190476D01*
X174503571Y-79952380D01*
X174622619Y-79833333D01*
X174860714Y-79714285D01*
X175217857Y-79714285D01*
X175455952Y-79833333D01*
X175575000Y-79952380D01*
X175694047Y-80190476D01*
X175694047Y-80904761D01*
X175575000Y-81142857D01*
X175455952Y-81261904D01*
X175217857Y-81380952D01*
X174860714Y-81380952D01*
X176765476Y-79714285D02*
X176765476Y-81380952D01*
X176765476Y-79952380D02*
X176884523Y-79833333D01*
X177122619Y-79714285D01*
X177479761Y-79714285D01*
X177717857Y-79833333D01*
X177836904Y-80071428D01*
X177836904Y-81380952D01*
X179384523Y-81380952D02*
X179146428Y-81261904D01*
X179027380Y-81142857D01*
X178908333Y-80904761D01*
X178908333Y-80190476D01*
X179027380Y-79952380D01*
X179146428Y-79833333D01*
X179384523Y-79714285D01*
X179741666Y-79714285D01*
X179979761Y-79833333D01*
X180098809Y-79952380D01*
X180217857Y-80190476D01*
X180217857Y-80904761D01*
X180098809Y-81142857D01*
X179979761Y-81261904D01*
X179741666Y-81380952D01*
X179384523Y-81380952D01*
X181289285Y-81380952D02*
X181289285Y-79714285D01*
X181289285Y-79952380D02*
X181408333Y-79833333D01*
X181646428Y-79714285D01*
X182003571Y-79714285D01*
X182241666Y-79833333D01*
X182360714Y-80071428D01*
X182360714Y-81380952D01*
X182360714Y-80071428D02*
X182479761Y-79833333D01*
X182717857Y-79714285D01*
X183075000Y-79714285D01*
X183313095Y-79833333D01*
X183432142Y-80071428D01*
X183432142Y-81380952D01*
X184979761Y-81380952D02*
X184741666Y-81261904D01*
X184622619Y-81142857D01*
X184503571Y-80904761D01*
X184503571Y-80190476D01*
X184622619Y-79952380D01*
X184741666Y-79833333D01*
X184979761Y-79714285D01*
X185336904Y-79714285D01*
X185575000Y-79833333D01*
X185694047Y-79952380D01*
X185813095Y-80190476D01*
X185813095Y-80904761D01*
X185694047Y-81142857D01*
X185575000Y-81261904D01*
X185336904Y-81380952D01*
X184979761Y-81380952D01*
X187955952Y-79714285D02*
X187955952Y-81380952D01*
X186884523Y-79714285D02*
X186884523Y-81023809D01*
X187003571Y-81261904D01*
X187241666Y-81380952D01*
X187598809Y-81380952D01*
X187836904Y-81261904D01*
X187955952Y-81142857D01*
X189027380Y-81261904D02*
X189265476Y-81380952D01*
X189741666Y-81380952D01*
X189979761Y-81261904D01*
X190098809Y-81023809D01*
X190098809Y-80904761D01*
X189979761Y-80666666D01*
X189741666Y-80547619D01*
X189384523Y-80547619D01*
X189146428Y-80428571D01*
X189027380Y-80190476D01*
X189027380Y-80071428D01*
X189146428Y-79833333D01*
X189384523Y-79714285D01*
X189741666Y-79714285D01*
X189979761Y-79833333D01*
X176527380Y-85630952D02*
X175694047Y-84440476D01*
X175098809Y-85630952D02*
X175098809Y-83130952D01*
X176051190Y-83130952D01*
X176289285Y-83250000D01*
X176408333Y-83369047D01*
X176527380Y-83607142D01*
X176527380Y-83964285D01*
X176408333Y-84202380D01*
X176289285Y-84321428D01*
X176051190Y-84440476D01*
X175098809Y-84440476D01*
X177955952Y-85630952D02*
X177717857Y-85511904D01*
X177598809Y-85392857D01*
X177479761Y-85154761D01*
X177479761Y-84440476D01*
X177598809Y-84202380D01*
X177717857Y-84083333D01*
X177955952Y-83964285D01*
X178313095Y-83964285D01*
X178551190Y-84083333D01*
X178670238Y-84202380D01*
X178789285Y-84440476D01*
X178789285Y-85154761D01*
X178670238Y-85392857D01*
X178551190Y-85511904D01*
X178313095Y-85630952D01*
X177955952Y-85630952D01*
X179860714Y-85630952D02*
X179860714Y-83130952D01*
X179860714Y-84083333D02*
X180098809Y-83964285D01*
X180575000Y-83964285D01*
X180813095Y-84083333D01*
X180932142Y-84202380D01*
X181051190Y-84440476D01*
X181051190Y-85154761D01*
X180932142Y-85392857D01*
X180813095Y-85511904D01*
X180575000Y-85630952D01*
X180098809Y-85630952D01*
X179860714Y-85511904D01*
X182479761Y-85630952D02*
X182241666Y-85511904D01*
X182122619Y-85392857D01*
X182003571Y-85154761D01*
X182003571Y-84440476D01*
X182122619Y-84202380D01*
X182241666Y-84083333D01*
X182479761Y-83964285D01*
X182836904Y-83964285D01*
X183075000Y-84083333D01*
X183194047Y-84202380D01*
X183313095Y-84440476D01*
X183313095Y-85154761D01*
X183194047Y-85392857D01*
X183075000Y-85511904D01*
X182836904Y-85630952D01*
X182479761Y-85630952D01*
X184027380Y-83964285D02*
X184979761Y-83964285D01*
X184384523Y-83130952D02*
X184384523Y-85273809D01*
X184503571Y-85511904D01*
X184741666Y-85630952D01*
X184979761Y-85630952D01*
X185813095Y-85630952D02*
X185813095Y-83964285D01*
X185813095Y-83130952D02*
X185694047Y-83250000D01*
X185813095Y-83369047D01*
X185932142Y-83250000D01*
X185813095Y-83130952D01*
X185813095Y-83369047D01*
X188075000Y-85511904D02*
X187836904Y-85630952D01*
X187360714Y-85630952D01*
X187122619Y-85511904D01*
X187003571Y-85392857D01*
X186884523Y-85154761D01*
X186884523Y-84440476D01*
X187003571Y-84202380D01*
X187122619Y-84083333D01*
X187360714Y-83964285D01*
X187836904Y-83964285D01*
X188075000Y-84083333D01*
X189027380Y-85511904D02*
X189265476Y-85630952D01*
X189741666Y-85630952D01*
X189979761Y-85511904D01*
X190098809Y-85273809D01*
X190098809Y-85154761D01*
X189979761Y-84916666D01*
X189741666Y-84797619D01*
X189384523Y-84797619D01*
X189146428Y-84678571D01*
X189027380Y-84440476D01*
X189027380Y-84321428D01*
X189146428Y-84083333D01*
X189384523Y-83964285D01*
X189741666Y-83964285D01*
X189979761Y-84083333D01*
X184265476Y-89642857D02*
X184146428Y-89761904D01*
X183789285Y-89880952D01*
X183551190Y-89880952D01*
X183194047Y-89761904D01*
X182955952Y-89523809D01*
X182836904Y-89285714D01*
X182717857Y-88809523D01*
X182717857Y-88452380D01*
X182836904Y-87976190D01*
X182955952Y-87738095D01*
X183194047Y-87500000D01*
X183551190Y-87380952D01*
X183789285Y-87380952D01*
X184146428Y-87500000D01*
X184265476Y-87619047D01*
X185694047Y-89880952D02*
X185455952Y-89761904D01*
X185336904Y-89523809D01*
X185336904Y-87380952D01*
X187717857Y-88214285D02*
X187717857Y-89880952D01*
X186646428Y-88214285D02*
X186646428Y-89523809D01*
X186765476Y-89761904D01*
X187003571Y-89880952D01*
X187360714Y-89880952D01*
X187598809Y-89761904D01*
X187717857Y-89642857D01*
X188908333Y-89880952D02*
X188908333Y-87380952D01*
X188908333Y-88333333D02*
X189146428Y-88214285D01*
X189622619Y-88214285D01*
X189860714Y-88333333D01*
X189979761Y-88452380D01*
X190098809Y-88690476D01*
X190098809Y-89404761D01*
X189979761Y-89642857D01*
X189860714Y-89761904D01*
X189622619Y-89880952D01*
X189146428Y-89880952D01*
X188908333Y-89761904D01*
D13*
X141892857Y-91178571D02*
X141892857Y-89678571D01*
X142250000Y-89678571D01*
X142464285Y-89750000D01*
X142607142Y-89892857D01*
X142678571Y-90035714D01*
X142750000Y-90321428D01*
X142750000Y-90535714D01*
X142678571Y-90821428D01*
X142607142Y-90964285D01*
X142464285Y-91107142D01*
X142250000Y-91178571D01*
X141892857Y-91178571D01*
X143321428Y-89821428D02*
X143392857Y-89750000D01*
X143535714Y-89678571D01*
X143892857Y-89678571D01*
X144035714Y-89750000D01*
X144107142Y-89821428D01*
X144178571Y-89964285D01*
X144178571Y-90107142D01*
X144107142Y-90321428D01*
X143250000Y-91178571D01*
X144178571Y-91178571D01*
X141892857Y-88678571D02*
X141892857Y-87178571D01*
X142250000Y-87178571D01*
X142464285Y-87250000D01*
X142607142Y-87392857D01*
X142678571Y-87535714D01*
X142750000Y-87821428D01*
X142750000Y-88035714D01*
X142678571Y-88321428D01*
X142607142Y-88464285D01*
X142464285Y-88607142D01*
X142250000Y-88678571D01*
X141892857Y-88678571D01*
X144178571Y-88678571D02*
X143321428Y-88678571D01*
X143750000Y-88678571D02*
X143750000Y-87178571D01*
X143607142Y-87392857D01*
X143464285Y-87535714D01*
X143321428Y-87607142D01*
X141892857Y-86178571D02*
X141892857Y-84678571D01*
X142250000Y-84678571D01*
X142464285Y-84750000D01*
X142607142Y-84892857D01*
X142678571Y-85035714D01*
X142750000Y-85321428D01*
X142750000Y-85535714D01*
X142678571Y-85821428D01*
X142607142Y-85964285D01*
X142464285Y-86107142D01*
X142250000Y-86178571D01*
X141892857Y-86178571D01*
X143678571Y-84678571D02*
X143821428Y-84678571D01*
X143964285Y-84750000D01*
X144035714Y-84821428D01*
X144107142Y-84964285D01*
X144178571Y-85250000D01*
X144178571Y-85607142D01*
X144107142Y-85892857D01*
X144035714Y-86035714D01*
X143964285Y-86107142D01*
X143821428Y-86178571D01*
X143678571Y-86178571D01*
X143535714Y-86107142D01*
X143464285Y-86035714D01*
X143392857Y-85892857D01*
X143321428Y-85607142D01*
X143321428Y-85250000D01*
X143392857Y-84964285D01*
X143464285Y-84821428D01*
X143535714Y-84750000D01*
X143678571Y-84678571D01*
X140000000Y-83678571D02*
X140000000Y-82178571D01*
X140571428Y-82178571D01*
X140714285Y-82250000D01*
X140785714Y-82321428D01*
X140857142Y-82464285D01*
X140857142Y-82678571D01*
X140785714Y-82821428D01*
X140714285Y-82892857D01*
X140571428Y-82964285D01*
X140000000Y-82964285D01*
X141357142Y-82178571D02*
X141714285Y-83678571D01*
X142000000Y-82607142D01*
X142285714Y-83678571D01*
X142642857Y-82178571D01*
X144071428Y-83678571D02*
X143571428Y-82964285D01*
X143214285Y-83678571D02*
X143214285Y-82178571D01*
X143785714Y-82178571D01*
X143928571Y-82250000D01*
X144000000Y-82321428D01*
X144071428Y-82464285D01*
X144071428Y-82678571D01*
X144000000Y-82821428D01*
X143928571Y-82892857D01*
X143785714Y-82964285D01*
X143214285Y-82964285D01*
X118714285Y-103178571D02*
X118000000Y-103178571D01*
X117928571Y-103892857D01*
X118000000Y-103821428D01*
X118142857Y-103750000D01*
X118500000Y-103750000D01*
X118642857Y-103821428D01*
X118714285Y-103892857D01*
X118785714Y-104035714D01*
X118785714Y-104392857D01*
X118714285Y-104535714D01*
X118642857Y-104607142D01*
X118500000Y-104678571D01*
X118142857Y-104678571D01*
X118000000Y-104607142D01*
X117928571Y-104535714D01*
X119214285Y-103178571D02*
X119714285Y-104678571D01*
X120214285Y-103178571D01*
X169485714Y-94178571D02*
X169485714Y-92678571D01*
X170057142Y-92678571D01*
X170200000Y-92750000D01*
X170271428Y-92821428D01*
X170342857Y-92964285D01*
X170342857Y-93178571D01*
X170271428Y-93321428D01*
X170200000Y-93392857D01*
X170057142Y-93464285D01*
X169485714Y-93464285D01*
X170985714Y-94178571D02*
X170985714Y-93178571D01*
X170985714Y-93464285D02*
X171057142Y-93321428D01*
X171128571Y-93250000D01*
X171271428Y-93178571D01*
X171414285Y-93178571D01*
X172128571Y-94178571D02*
X171985714Y-94107142D01*
X171914285Y-94035714D01*
X171842857Y-93892857D01*
X171842857Y-93464285D01*
X171914285Y-93321428D01*
X171985714Y-93250000D01*
X172128571Y-93178571D01*
X172342857Y-93178571D01*
X172485714Y-93250000D01*
X172557142Y-93321428D01*
X172628571Y-93464285D01*
X172628571Y-93892857D01*
X172557142Y-94035714D01*
X172485714Y-94107142D01*
X172342857Y-94178571D01*
X172128571Y-94178571D01*
X173057142Y-93178571D02*
X173628571Y-93178571D01*
X173271428Y-92678571D02*
X173271428Y-93964285D01*
X173342857Y-94107142D01*
X173485714Y-94178571D01*
X173628571Y-94178571D01*
X174700000Y-94107142D02*
X174557142Y-94178571D01*
X174271428Y-94178571D01*
X174128571Y-94107142D01*
X174057142Y-93964285D01*
X174057142Y-93392857D01*
X174128571Y-93250000D01*
X174271428Y-93178571D01*
X174557142Y-93178571D01*
X174700000Y-93250000D01*
X174771428Y-93392857D01*
X174771428Y-93535714D01*
X174057142Y-93678571D01*
X176057142Y-94107142D02*
X175914285Y-94178571D01*
X175628571Y-94178571D01*
X175485714Y-94107142D01*
X175414285Y-94035714D01*
X175342857Y-93892857D01*
X175342857Y-93464285D01*
X175414285Y-93321428D01*
X175485714Y-93250000D01*
X175628571Y-93178571D01*
X175914285Y-93178571D01*
X176057142Y-93250000D01*
X176485714Y-93178571D02*
X177057142Y-93178571D01*
X176700000Y-92678571D02*
X176700000Y-93964285D01*
X176771428Y-94107142D01*
X176914285Y-94178571D01*
X177057142Y-94178571D01*
X178128571Y-94107142D02*
X177985714Y-94178571D01*
X177700000Y-94178571D01*
X177557142Y-94107142D01*
X177485714Y-93964285D01*
X177485714Y-93392857D01*
X177557142Y-93250000D01*
X177700000Y-93178571D01*
X177985714Y-93178571D01*
X178128571Y-93250000D01*
X178200000Y-93392857D01*
X178200000Y-93535714D01*
X177485714Y-93678571D01*
X179485714Y-94178571D02*
X179485714Y-92678571D01*
X179485714Y-94107142D02*
X179342857Y-94178571D01*
X179057142Y-94178571D01*
X178914285Y-94107142D01*
X178842857Y-94035714D01*
X178771428Y-93892857D01*
X178771428Y-93464285D01*
X178842857Y-93321428D01*
X178914285Y-93250000D01*
X179057142Y-93178571D01*
X179342857Y-93178571D01*
X179485714Y-93250000D01*
X182128571Y-92750000D02*
X181985714Y-92678571D01*
X181771428Y-92678571D01*
X181557142Y-92750000D01*
X181414285Y-92892857D01*
X181342857Y-93035714D01*
X181271428Y-93321428D01*
X181271428Y-93535714D01*
X181342857Y-93821428D01*
X181414285Y-93964285D01*
X181557142Y-94107142D01*
X181771428Y-94178571D01*
X181914285Y-94178571D01*
X182128571Y-94107142D01*
X182200000Y-94035714D01*
X182200000Y-93535714D01*
X181914285Y-93535714D01*
X182842857Y-94178571D02*
X182842857Y-92678571D01*
X183414285Y-92678571D01*
X183557142Y-92750000D01*
X183628571Y-92821428D01*
X183700000Y-92964285D01*
X183700000Y-93178571D01*
X183628571Y-93321428D01*
X183557142Y-93392857D01*
X183414285Y-93464285D01*
X182842857Y-93464285D01*
X184342857Y-94178571D02*
X184342857Y-92678571D01*
X185342857Y-92678571D02*
X185628571Y-92678571D01*
X185771428Y-92750000D01*
X185914285Y-92892857D01*
X185985714Y-93178571D01*
X185985714Y-93678571D01*
X185914285Y-93964285D01*
X185771428Y-94107142D01*
X185628571Y-94178571D01*
X185342857Y-94178571D01*
X185200000Y-94107142D01*
X185057142Y-93964285D01*
X184985714Y-93678571D01*
X184985714Y-93178571D01*
X185057142Y-92892857D01*
X185200000Y-92750000D01*
X185342857Y-92678571D01*
X199214285Y-104678571D02*
X198357142Y-104678571D01*
X198785714Y-104678571D02*
X198785714Y-103178571D01*
X198642857Y-103392857D01*
X198500000Y-103535714D01*
X198357142Y-103607142D01*
X199714285Y-103178571D02*
X200642857Y-103178571D01*
X200142857Y-103750000D01*
X200357142Y-103750000D01*
X200500000Y-103821428D01*
X200571428Y-103892857D01*
X200642857Y-104035714D01*
X200642857Y-104392857D01*
X200571428Y-104535714D01*
X200500000Y-104607142D01*
X200357142Y-104678571D01*
X199928571Y-104678571D01*
X199785714Y-104607142D01*
X199714285Y-104535714D01*
X194214285Y-104678571D02*
X193357142Y-104678571D01*
X193785714Y-104678571D02*
X193785714Y-103178571D01*
X193642857Y-103392857D01*
X193500000Y-103535714D01*
X193357142Y-103607142D01*
X194785714Y-103321428D02*
X194857142Y-103250000D01*
X195000000Y-103178571D01*
X195357142Y-103178571D01*
X195500000Y-103250000D01*
X195571428Y-103321428D01*
X195642857Y-103464285D01*
X195642857Y-103607142D01*
X195571428Y-103821428D01*
X194714285Y-104678571D01*
X195642857Y-104678571D01*
X179214285Y-104678571D02*
X179500000Y-104678571D01*
X179642857Y-104607142D01*
X179714285Y-104535714D01*
X179857142Y-104321428D01*
X179928571Y-104035714D01*
X179928571Y-103464285D01*
X179857142Y-103321428D01*
X179785714Y-103250000D01*
X179642857Y-103178571D01*
X179357142Y-103178571D01*
X179214285Y-103250000D01*
X179142857Y-103321428D01*
X179071428Y-103464285D01*
X179071428Y-103821428D01*
X179142857Y-103964285D01*
X179214285Y-104035714D01*
X179357142Y-104107142D01*
X179642857Y-104107142D01*
X179785714Y-104035714D01*
X179857142Y-103964285D01*
X179928571Y-103821428D01*
X184214285Y-104678571D02*
X183357142Y-104678571D01*
X183785714Y-104678571D02*
X183785714Y-103178571D01*
X183642857Y-103392857D01*
X183500000Y-103535714D01*
X183357142Y-103607142D01*
X185142857Y-103178571D02*
X185285714Y-103178571D01*
X185428571Y-103250000D01*
X185500000Y-103321428D01*
X185571428Y-103464285D01*
X185642857Y-103750000D01*
X185642857Y-104107142D01*
X185571428Y-104392857D01*
X185500000Y-104535714D01*
X185428571Y-104607142D01*
X185285714Y-104678571D01*
X185142857Y-104678571D01*
X185000000Y-104607142D01*
X184928571Y-104535714D01*
X184857142Y-104392857D01*
X184785714Y-104107142D01*
X184785714Y-103750000D01*
X184857142Y-103464285D01*
X184928571Y-103321428D01*
X185000000Y-103250000D01*
X185142857Y-103178571D01*
X189214285Y-104678571D02*
X188357142Y-104678571D01*
X188785714Y-104678571D02*
X188785714Y-103178571D01*
X188642857Y-103392857D01*
X188500000Y-103535714D01*
X188357142Y-103607142D01*
X190642857Y-104678571D02*
X189785714Y-104678571D01*
X190214285Y-104678571D02*
X190214285Y-103178571D01*
X190071428Y-103392857D01*
X189928571Y-103535714D01*
X189785714Y-103607142D01*
X214214285Y-104678571D02*
X213357142Y-104678571D01*
X213785714Y-104678571D02*
X213785714Y-103178571D01*
X213642857Y-103392857D01*
X213500000Y-103535714D01*
X213357142Y-103607142D01*
X215500000Y-103178571D02*
X215214285Y-103178571D01*
X215071428Y-103250000D01*
X215000000Y-103321428D01*
X214857142Y-103535714D01*
X214785714Y-103821428D01*
X214785714Y-104392857D01*
X214857142Y-104535714D01*
X214928571Y-104607142D01*
X215071428Y-104678571D01*
X215357142Y-104678571D01*
X215500000Y-104607142D01*
X215571428Y-104535714D01*
X215642857Y-104392857D01*
X215642857Y-104035714D01*
X215571428Y-103892857D01*
X215500000Y-103821428D01*
X215357142Y-103750000D01*
X215071428Y-103750000D01*
X214928571Y-103821428D01*
X214857142Y-103892857D01*
X214785714Y-104035714D01*
X209214285Y-104678571D02*
X208357142Y-104678571D01*
X208785714Y-104678571D02*
X208785714Y-103178571D01*
X208642857Y-103392857D01*
X208500000Y-103535714D01*
X208357142Y-103607142D01*
X210571428Y-103178571D02*
X209857142Y-103178571D01*
X209785714Y-103892857D01*
X209857142Y-103821428D01*
X210000000Y-103750000D01*
X210357142Y-103750000D01*
X210500000Y-103821428D01*
X210571428Y-103892857D01*
X210642857Y-104035714D01*
X210642857Y-104392857D01*
X210571428Y-104535714D01*
X210500000Y-104607142D01*
X210357142Y-104678571D01*
X210000000Y-104678571D01*
X209857142Y-104607142D01*
X209785714Y-104535714D01*
X204214285Y-104678571D02*
X203357142Y-104678571D01*
X203785714Y-104678571D02*
X203785714Y-103178571D01*
X203642857Y-103392857D01*
X203500000Y-103535714D01*
X203357142Y-103607142D01*
X205500000Y-103678571D02*
X205500000Y-104678571D01*
X205142857Y-103107142D02*
X204785714Y-104178571D01*
X205714285Y-104178571D01*
X169000000Y-103178571D02*
X170000000Y-103178571D01*
X169357142Y-104678571D01*
X174357142Y-103821428D02*
X174214285Y-103750000D01*
X174142857Y-103678571D01*
X174071428Y-103535714D01*
X174071428Y-103464285D01*
X174142857Y-103321428D01*
X174214285Y-103250000D01*
X174357142Y-103178571D01*
X174642857Y-103178571D01*
X174785714Y-103250000D01*
X174857142Y-103321428D01*
X174928571Y-103464285D01*
X174928571Y-103535714D01*
X174857142Y-103678571D01*
X174785714Y-103750000D01*
X174642857Y-103821428D01*
X174357142Y-103821428D01*
X174214285Y-103892857D01*
X174142857Y-103964285D01*
X174071428Y-104107142D01*
X174071428Y-104392857D01*
X174142857Y-104535714D01*
X174214285Y-104607142D01*
X174357142Y-104678571D01*
X174642857Y-104678571D01*
X174785714Y-104607142D01*
X174857142Y-104535714D01*
X174928571Y-104392857D01*
X174928571Y-104107142D01*
X174857142Y-103964285D01*
X174785714Y-103892857D01*
X174642857Y-103821428D01*
X159857142Y-103178571D02*
X159142857Y-103178571D01*
X159071428Y-103892857D01*
X159142857Y-103821428D01*
X159285714Y-103750000D01*
X159642857Y-103750000D01*
X159785714Y-103821428D01*
X159857142Y-103892857D01*
X159928571Y-104035714D01*
X159928571Y-104392857D01*
X159857142Y-104535714D01*
X159785714Y-104607142D01*
X159642857Y-104678571D01*
X159285714Y-104678571D01*
X159142857Y-104607142D01*
X159071428Y-104535714D01*
X164785714Y-103178571D02*
X164500000Y-103178571D01*
X164357142Y-103250000D01*
X164285714Y-103321428D01*
X164142857Y-103535714D01*
X164071428Y-103821428D01*
X164071428Y-104392857D01*
X164142857Y-104535714D01*
X164214285Y-104607142D01*
X164357142Y-104678571D01*
X164642857Y-104678571D01*
X164785714Y-104607142D01*
X164857142Y-104535714D01*
X164928571Y-104392857D01*
X164928571Y-104035714D01*
X164857142Y-103892857D01*
X164785714Y-103821428D01*
X164642857Y-103750000D01*
X164357142Y-103750000D01*
X164214285Y-103821428D01*
X164142857Y-103892857D01*
X164071428Y-104035714D01*
X149000000Y-103178571D02*
X149928571Y-103178571D01*
X149428571Y-103750000D01*
X149642857Y-103750000D01*
X149785714Y-103821428D01*
X149857142Y-103892857D01*
X149928571Y-104035714D01*
X149928571Y-104392857D01*
X149857142Y-104535714D01*
X149785714Y-104607142D01*
X149642857Y-104678571D01*
X149214285Y-104678571D01*
X149071428Y-104607142D01*
X149000000Y-104535714D01*
X154785714Y-103678571D02*
X154785714Y-104678571D01*
X154428571Y-103107142D02*
X154071428Y-104178571D01*
X155000000Y-104178571D01*
X144071428Y-103321428D02*
X144142857Y-103250000D01*
X144285714Y-103178571D01*
X144642857Y-103178571D01*
X144785714Y-103250000D01*
X144857142Y-103321428D01*
X144928571Y-103464285D01*
X144928571Y-103607142D01*
X144857142Y-103821428D01*
X144000000Y-104678571D01*
X144928571Y-104678571D01*
X139928571Y-104678571D02*
X139071428Y-104678571D01*
X139500000Y-104678571D02*
X139500000Y-103178571D01*
X139357142Y-103392857D01*
X139214285Y-103535714D01*
X139071428Y-103607142D01*
X130928571Y-103607142D02*
X132071428Y-103607142D01*
X131500000Y-104178571D02*
X131500000Y-103035714D01*
X125928571Y-103607142D02*
X127071428Y-103607142D01*
X120928571Y-103607142D02*
X122071428Y-103607142D01*
X121500000Y-104178571D02*
X121500000Y-103035714D01*
X115928571Y-103607142D02*
X117071428Y-103607142D01*
X88607142Y-91178571D02*
X87892857Y-91178571D01*
X87892857Y-89678571D01*
X89321428Y-91178571D02*
X89178571Y-91107142D01*
X89107142Y-91035714D01*
X89035714Y-90892857D01*
X89035714Y-90464285D01*
X89107142Y-90321428D01*
X89178571Y-90250000D01*
X89321428Y-90178571D01*
X89535714Y-90178571D01*
X89678571Y-90250000D01*
X89750000Y-90321428D01*
X89821428Y-90464285D01*
X89821428Y-90892857D01*
X89750000Y-91035714D01*
X89678571Y-91107142D01*
X89535714Y-91178571D01*
X89321428Y-91178571D01*
X90321428Y-90178571D02*
X90607142Y-91178571D01*
X90892857Y-90464285D01*
X91178571Y-91178571D01*
X91464285Y-90178571D01*
X93107142Y-91107142D02*
X93321428Y-91178571D01*
X93678571Y-91178571D01*
X93821428Y-91107142D01*
X93892857Y-91035714D01*
X93964285Y-90892857D01*
X93964285Y-90750000D01*
X93892857Y-90607142D01*
X93821428Y-90535714D01*
X93678571Y-90464285D01*
X93392857Y-90392857D01*
X93250000Y-90321428D01*
X93178571Y-90250000D01*
X93107142Y-90107142D01*
X93107142Y-89964285D01*
X93178571Y-89821428D01*
X93250000Y-89750000D01*
X93392857Y-89678571D01*
X93750000Y-89678571D01*
X93964285Y-89750000D01*
X94607142Y-91178571D02*
X94607142Y-90178571D01*
X94607142Y-89678571D02*
X94535714Y-89750000D01*
X94607142Y-89821428D01*
X94678571Y-89750000D01*
X94607142Y-89678571D01*
X94607142Y-89821428D01*
X95964285Y-91178571D02*
X95964285Y-89678571D01*
X95964285Y-91107142D02*
X95821428Y-91178571D01*
X95535714Y-91178571D01*
X95392857Y-91107142D01*
X95321428Y-91035714D01*
X95250000Y-90892857D01*
X95250000Y-90464285D01*
X95321428Y-90321428D01*
X95392857Y-90250000D01*
X95535714Y-90178571D01*
X95821428Y-90178571D01*
X95964285Y-90250000D01*
X97250000Y-91107142D02*
X97107142Y-91178571D01*
X96821428Y-91178571D01*
X96678571Y-91107142D01*
X96607142Y-90964285D01*
X96607142Y-90392857D01*
X96678571Y-90250000D01*
X96821428Y-90178571D01*
X97107142Y-90178571D01*
X97250000Y-90250000D01*
X97321428Y-90392857D01*
X97321428Y-90535714D01*
X96607142Y-90678571D01*
X99035714Y-91107142D02*
X99250000Y-91178571D01*
X99607142Y-91178571D01*
X99750000Y-91107142D01*
X99821428Y-91035714D01*
X99892857Y-90892857D01*
X99892857Y-90750000D01*
X99821428Y-90607142D01*
X99750000Y-90535714D01*
X99607142Y-90464285D01*
X99321428Y-90392857D01*
X99178571Y-90321428D01*
X99107142Y-90250000D01*
X99035714Y-90107142D01*
X99035714Y-89964285D01*
X99107142Y-89821428D01*
X99178571Y-89750000D01*
X99321428Y-89678571D01*
X99678571Y-89678571D01*
X99892857Y-89750000D01*
X100392857Y-90178571D02*
X100678571Y-91178571D01*
X100964285Y-90464285D01*
X101250000Y-91178571D01*
X101535714Y-90178571D01*
X102107142Y-91178571D02*
X102107142Y-90178571D01*
X102107142Y-89678571D02*
X102035714Y-89750000D01*
X102107142Y-89821428D01*
X102178571Y-89750000D01*
X102107142Y-89678571D01*
X102107142Y-89821428D01*
X102607142Y-90178571D02*
X103178571Y-90178571D01*
X102821428Y-89678571D02*
X102821428Y-90964285D01*
X102892857Y-91107142D01*
X103035714Y-91178571D01*
X103178571Y-91178571D01*
X104321428Y-91107142D02*
X104178571Y-91178571D01*
X103892857Y-91178571D01*
X103750000Y-91107142D01*
X103678571Y-91035714D01*
X103607142Y-90892857D01*
X103607142Y-90464285D01*
X103678571Y-90321428D01*
X103750000Y-90250000D01*
X103892857Y-90178571D01*
X104178571Y-90178571D01*
X104321428Y-90250000D01*
X104964285Y-91178571D02*
X104964285Y-89678571D01*
X105607142Y-91178571D02*
X105607142Y-90392857D01*
X105535714Y-90250000D01*
X105392857Y-90178571D01*
X105178571Y-90178571D01*
X105035714Y-90250000D01*
X104964285Y-90321428D01*
X106892857Y-91107142D02*
X106750000Y-91178571D01*
X106464285Y-91178571D01*
X106321428Y-91107142D01*
X106250000Y-90964285D01*
X106250000Y-90392857D01*
X106321428Y-90250000D01*
X106464285Y-90178571D01*
X106750000Y-90178571D01*
X106892857Y-90250000D01*
X106964285Y-90392857D01*
X106964285Y-90535714D01*
X106250000Y-90678571D01*
X107535714Y-91107142D02*
X107678571Y-91178571D01*
X107964285Y-91178571D01*
X108107142Y-91107142D01*
X108178571Y-90964285D01*
X108178571Y-90892857D01*
X108107142Y-90750000D01*
X107964285Y-90678571D01*
X107750000Y-90678571D01*
X107607142Y-90607142D01*
X107535714Y-90464285D01*
X107535714Y-90392857D01*
X107607142Y-90250000D01*
X107750000Y-90178571D01*
X107964285Y-90178571D01*
X108107142Y-90250000D01*
X125940000Y-89023571D02*
X126940000Y-89023571D01*
X126297142Y-90523571D01*
X127511428Y-89952142D02*
X128654285Y-89952142D01*
X129225714Y-89023571D02*
X130154285Y-89023571D01*
X129654285Y-89595000D01*
X129868571Y-89595000D01*
X130011428Y-89666428D01*
X130082857Y-89737857D01*
X130154285Y-89880714D01*
X130154285Y-90237857D01*
X130082857Y-90380714D01*
X130011428Y-90452142D01*
X129868571Y-90523571D01*
X129440000Y-90523571D01*
X129297142Y-90452142D01*
X129225714Y-90380714D01*
X131511428Y-89023571D02*
X130797142Y-89023571D01*
X130725714Y-89737857D01*
X130797142Y-89666428D01*
X130940000Y-89595000D01*
X131297142Y-89595000D01*
X131440000Y-89666428D01*
X131511428Y-89737857D01*
X131582857Y-89880714D01*
X131582857Y-90237857D01*
X131511428Y-90380714D01*
X131440000Y-90452142D01*
X131297142Y-90523571D01*
X130940000Y-90523571D01*
X130797142Y-90452142D01*
X130725714Y-90380714D01*
X132011428Y-89023571D02*
X132511428Y-90523571D01*
X133011428Y-89023571D01*
X128761428Y-93073571D02*
X128761428Y-91573571D01*
X129475714Y-92073571D02*
X129475714Y-93073571D01*
X129475714Y-92216428D02*
X129547142Y-92145000D01*
X129690000Y-92073571D01*
X129904285Y-92073571D01*
X130047142Y-92145000D01*
X130118571Y-92287857D01*
X130118571Y-93073571D01*
X116725714Y-89023571D02*
X116011428Y-89023571D01*
X115940000Y-89737857D01*
X116011428Y-89666428D01*
X116154285Y-89595000D01*
X116511428Y-89595000D01*
X116654285Y-89666428D01*
X116725714Y-89737857D01*
X116797142Y-89880714D01*
X116797142Y-90237857D01*
X116725714Y-90380714D01*
X116654285Y-90452142D01*
X116511428Y-90523571D01*
X116154285Y-90523571D01*
X116011428Y-90452142D01*
X115940000Y-90380714D01*
X117225714Y-89023571D02*
X117725714Y-90523571D01*
X118225714Y-89023571D01*
X120654285Y-90523571D02*
X119797142Y-90523571D01*
X120225714Y-90523571D02*
X120225714Y-89023571D01*
X120082857Y-89237857D01*
X119940000Y-89380714D01*
X119797142Y-89452142D01*
X121225714Y-90095000D02*
X121940000Y-90095000D01*
X121082857Y-90523571D02*
X121582857Y-89023571D01*
X122082857Y-90523571D01*
X117690000Y-91573571D02*
X117975714Y-91573571D01*
X118118571Y-91645000D01*
X118261428Y-91787857D01*
X118332857Y-92073571D01*
X118332857Y-92573571D01*
X118261428Y-92859285D01*
X118118571Y-93002142D01*
X117975714Y-93073571D01*
X117690000Y-93073571D01*
X117547142Y-93002142D01*
X117404285Y-92859285D01*
X117332857Y-92573571D01*
X117332857Y-92073571D01*
X117404285Y-91787857D01*
X117547142Y-91645000D01*
X117690000Y-91573571D01*
X119618571Y-92073571D02*
X119618571Y-93073571D01*
X118975714Y-92073571D02*
X118975714Y-92859285D01*
X119047142Y-93002142D01*
X119190000Y-93073571D01*
X119404285Y-93073571D01*
X119547142Y-93002142D01*
X119618571Y-92930714D01*
X120118571Y-92073571D02*
X120690000Y-92073571D01*
X120332857Y-91573571D02*
X120332857Y-92859285D01*
X120404285Y-93002142D01*
X120547142Y-93073571D01*
X120690000Y-93073571D01*
X104892857Y-104678571D02*
X104892857Y-103178571D01*
X105250000Y-103178571D01*
X105464285Y-103250000D01*
X105607142Y-103392857D01*
X105678571Y-103535714D01*
X105750000Y-103821428D01*
X105750000Y-104035714D01*
X105678571Y-104321428D01*
X105607142Y-104464285D01*
X105464285Y-104607142D01*
X105250000Y-104678571D01*
X104892857Y-104678571D01*
X106321428Y-103321428D02*
X106392857Y-103250000D01*
X106535714Y-103178571D01*
X106892857Y-103178571D01*
X107035714Y-103250000D01*
X107107142Y-103321428D01*
X107178571Y-103464285D01*
X107178571Y-103607142D01*
X107107142Y-103821428D01*
X106250000Y-104678571D01*
X107178571Y-104678571D01*
X94892857Y-104678571D02*
X94892857Y-103178571D01*
X95250000Y-103178571D01*
X95464285Y-103250000D01*
X95607142Y-103392857D01*
X95678571Y-103535714D01*
X95750000Y-103821428D01*
X95750000Y-104035714D01*
X95678571Y-104321428D01*
X95607142Y-104464285D01*
X95464285Y-104607142D01*
X95250000Y-104678571D01*
X94892857Y-104678571D01*
X97178571Y-104678571D02*
X96321428Y-104678571D01*
X96750000Y-104678571D02*
X96750000Y-103178571D01*
X96607142Y-103392857D01*
X96464285Y-103535714D01*
X96321428Y-103607142D01*
X84892857Y-104678571D02*
X84892857Y-103178571D01*
X85250000Y-103178571D01*
X85464285Y-103250000D01*
X85607142Y-103392857D01*
X85678571Y-103535714D01*
X85750000Y-103821428D01*
X85750000Y-104035714D01*
X85678571Y-104321428D01*
X85607142Y-104464285D01*
X85464285Y-104607142D01*
X85250000Y-104678571D01*
X84892857Y-104678571D01*
X86678571Y-103178571D02*
X86821428Y-103178571D01*
X86964285Y-103250000D01*
X87035714Y-103321428D01*
X87107142Y-103464285D01*
X87178571Y-103750000D01*
X87178571Y-104107142D01*
X87107142Y-104392857D01*
X87035714Y-104535714D01*
X86964285Y-104607142D01*
X86821428Y-104678571D01*
X86678571Y-104678571D01*
X86535714Y-104607142D01*
X86464285Y-104535714D01*
X86392857Y-104392857D01*
X86321428Y-104107142D01*
X86321428Y-103750000D01*
X86392857Y-103464285D01*
X86464285Y-103321428D01*
X86535714Y-103250000D01*
X86678571Y-103178571D01*
X107928571Y-103607142D02*
X109071428Y-103607142D01*
X108500000Y-104178571D02*
X108500000Y-103035714D01*
X102928571Y-103607142D02*
X104071428Y-103607142D01*
X97928571Y-103607142D02*
X99071428Y-103607142D01*
X98500000Y-104178571D02*
X98500000Y-103035714D01*
X92928571Y-103607142D02*
X94071428Y-103607142D01*
X87928571Y-103607142D02*
X89071428Y-103607142D01*
X88500000Y-104178571D02*
X88500000Y-103035714D01*
X82928571Y-103607142D02*
X84071428Y-103607142D01*
D14*
X153885000Y-74175000D02*
X154030000Y-74175000D01*
X153885000Y-70025000D02*
X154030000Y-70025000D01*
X159035000Y-70025000D02*
X158890000Y-70025000D01*
X159035000Y-74175000D02*
X158890000Y-74175000D01*
X153885000Y-74175000D02*
X153885000Y-70025000D01*
X159035000Y-74175000D02*
X159035000Y-70025000D01*
X154030000Y-74175000D02*
X154030000Y-75575000D01*
X165315000Y-74175000D02*
X165460000Y-74175000D01*
X165315000Y-70025000D02*
X165460000Y-70025000D01*
X170465000Y-70025000D02*
X170320000Y-70025000D01*
X170465000Y-74175000D02*
X170320000Y-74175000D01*
X165315000Y-74175000D02*
X165315000Y-70025000D01*
X170465000Y-74175000D02*
X170465000Y-70025000D01*
X165460000Y-74175000D02*
X165460000Y-75575000D01*
X196758000Y-47414000D02*
X196058000Y-47414000D01*
X196058000Y-46214000D02*
X196758000Y-46214000D01*
X189896000Y-58656000D02*
X189896000Y-59356000D01*
X188696000Y-59356000D02*
X188696000Y-58656000D01*
X201076000Y-47414000D02*
X200376000Y-47414000D01*
X200376000Y-46214000D02*
X201076000Y-46214000D01*
X177900000Y-56050000D02*
X178600000Y-56050000D01*
X178600000Y-57250000D02*
X177900000Y-57250000D01*
X118440000Y-79720000D02*
X119740000Y-78420000D01*
X119740000Y-86720000D02*
X118440000Y-85420000D01*
X118440000Y-86720000D02*
X126740000Y-86720000D01*
X118440000Y-78420000D02*
X118440000Y-86720000D01*
X126740000Y-78420000D02*
X118440000Y-78420000D01*
X126740000Y-86720000D02*
X126740000Y-78420000D01*
X118440000Y-70220000D02*
X119740000Y-68920000D01*
X119740000Y-77220000D02*
X118440000Y-75920000D01*
X118440000Y-77220000D02*
X126740000Y-77220000D01*
X118440000Y-68920000D02*
X118440000Y-77220000D01*
X126740000Y-68920000D02*
X118440000Y-68920000D01*
X126740000Y-77220000D02*
X126740000Y-68920000D01*
X129340000Y-65920000D02*
X129340000Y-65220000D01*
X130540000Y-65220000D02*
X130540000Y-65920000D01*
X130540000Y-59820000D02*
X130540000Y-60520000D01*
X129340000Y-60520000D02*
X129340000Y-59820000D01*
X136010000Y-65980000D02*
X134710000Y-64680000D01*
X143010000Y-64680000D02*
X141710000Y-65980000D01*
X143010000Y-65980000D02*
X143010000Y-57680000D01*
X134710000Y-65980000D02*
X143010000Y-65980000D01*
X134710000Y-57680000D02*
X134710000Y-65980000D01*
X143010000Y-57680000D02*
X134710000Y-57680000D01*
X90900000Y-71900000D02*
X90900000Y-71200000D01*
X92100000Y-71200000D02*
X92100000Y-71900000D01*
X100900000Y-71900000D02*
X100900000Y-71200000D01*
X102100000Y-71200000D02*
X102100000Y-71900000D01*
X110900000Y-71900000D02*
X110900000Y-71200000D01*
X112100000Y-71200000D02*
X112100000Y-71900000D01*
X132082000Y-76160000D02*
X139956000Y-76160000D01*
X132082000Y-70953000D02*
X132082000Y-76160000D01*
X139956000Y-70953000D02*
X132082000Y-70953000D01*
X139956000Y-76160000D02*
X139956000Y-70953000D01*
X217250080Y-58650280D02*
X217250080Y-50949000D01*
X218250840Y-58650280D02*
X218250840Y-50949000D01*
X218250840Y-50949000D02*
X209050960Y-50949000D01*
X209050960Y-50949000D02*
X209050960Y-58650280D01*
X209050960Y-58650280D02*
X218250840Y-58650280D01*
X90310000Y-63813200D02*
X82690000Y-63813200D01*
X90310000Y-76005200D02*
X90310000Y-63813200D01*
X82690000Y-76005200D02*
X90310000Y-76005200D01*
X82690000Y-76005200D02*
X82690000Y-63813200D01*
X100310000Y-63813200D02*
X92690000Y-63813200D01*
X100310000Y-76005200D02*
X100310000Y-63813200D01*
X92690000Y-76005200D02*
X100310000Y-76005200D01*
X92690000Y-76005200D02*
X92690000Y-63813200D01*
X110310000Y-63813200D02*
X102690000Y-63813200D01*
X110310000Y-76005200D02*
X110310000Y-63813200D01*
X102690000Y-76005200D02*
X110310000Y-76005200D01*
X102690000Y-76005200D02*
X102690000Y-63813200D01*
X90000000Y-62675000D02*
X89000000Y-62675000D01*
X89000000Y-61325000D02*
X90000000Y-61325000D01*
X100100000Y-62675000D02*
X99100000Y-62675000D01*
X99100000Y-61325000D02*
X100100000Y-61325000D01*
X110000000Y-62675000D02*
X109000000Y-62675000D01*
X109000000Y-61325000D02*
X110000000Y-61325000D01*
X183950000Y-54955000D02*
X183950000Y-54655000D01*
X178450000Y-54955000D02*
X178450000Y-54655000D01*
X178450000Y-49445000D02*
X178450000Y-49745000D01*
X183950000Y-49445000D02*
X183950000Y-49745000D01*
X183950000Y-54955000D02*
X178450000Y-54955000D01*
X183950000Y-49445000D02*
X178450000Y-49445000D01*
X183950000Y-54655000D02*
X185700000Y-54655000D01*
X127964000Y-66430000D02*
X127964000Y-58810000D01*
X115772000Y-66430000D02*
X127964000Y-66430000D01*
X115772000Y-58810000D02*
X115772000Y-66430000D01*
X115772000Y-58810000D02*
X127964000Y-58810000D01*
X136438980Y-81970560D02*
X136438980Y-81068860D01*
X136438980Y-83121180D02*
X136438980Y-84119400D01*
X131038940Y-79470540D02*
X132240360Y-79470540D01*
X137841060Y-79470540D02*
X136639640Y-79470540D01*
X131038940Y-86219180D02*
X132240360Y-86219180D01*
X137841060Y-86219180D02*
X136639640Y-86219180D01*
X131038940Y-79020820D02*
X132291160Y-79020820D01*
X137841060Y-79020820D02*
X136588840Y-79020820D01*
X137239080Y-81970560D02*
X135638880Y-81970560D01*
X135689680Y-83121180D02*
X137239080Y-83121180D01*
X136438980Y-81970560D02*
X135689680Y-83121180D01*
X136438980Y-81970560D02*
X137239080Y-83121180D01*
X131038940Y-79020820D02*
X131038940Y-86219180D01*
X137841060Y-79020820D02*
X137841060Y-86219180D01*
X85501020Y-84149440D02*
X85501020Y-85051140D01*
X85501020Y-82998820D02*
X85501020Y-82000600D01*
X90901060Y-86649460D02*
X89699640Y-86649460D01*
X84098940Y-86649460D02*
X85300360Y-86649460D01*
X90901060Y-79900820D02*
X89699640Y-79900820D01*
X84098940Y-79900820D02*
X85300360Y-79900820D01*
X90901060Y-87099180D02*
X89648840Y-87099180D01*
X84098940Y-87099180D02*
X85351160Y-87099180D01*
X84700920Y-84149440D02*
X86301120Y-84149440D01*
X86250320Y-82998820D02*
X84700920Y-82998820D01*
X85501020Y-84149440D02*
X86250320Y-82998820D01*
X85501020Y-84149440D02*
X84700920Y-82998820D01*
X90901060Y-87099180D02*
X90901060Y-79900820D01*
X84098940Y-87099180D02*
X84098940Y-79900820D01*
X95501020Y-84149440D02*
X95501020Y-85051140D01*
X95501020Y-82998820D02*
X95501020Y-82000600D01*
X100901060Y-86649460D02*
X99699640Y-86649460D01*
X94098940Y-86649460D02*
X95300360Y-86649460D01*
X100901060Y-79900820D02*
X99699640Y-79900820D01*
X94098940Y-79900820D02*
X95300360Y-79900820D01*
X100901060Y-87099180D02*
X99648840Y-87099180D01*
X94098940Y-87099180D02*
X95351160Y-87099180D01*
X94700920Y-84149440D02*
X96301120Y-84149440D01*
X96250320Y-82998820D02*
X94700920Y-82998820D01*
X95501020Y-84149440D02*
X96250320Y-82998820D01*
X95501020Y-84149440D02*
X94700920Y-82998820D01*
X100901060Y-87099180D02*
X100901060Y-79900820D01*
X94098940Y-87099180D02*
X94098940Y-79900820D01*
X105501020Y-84748380D02*
X105501020Y-85650080D01*
X105501020Y-83597760D02*
X105501020Y-82599540D01*
X110901060Y-87248400D02*
X109699640Y-87248400D01*
X104098940Y-87248400D02*
X105300360Y-87248400D01*
X110901060Y-80499760D02*
X109699640Y-80499760D01*
X104098940Y-80499760D02*
X105300360Y-80499760D01*
X110901060Y-87698120D02*
X109648840Y-87698120D01*
X104098940Y-87698120D02*
X105351160Y-87698120D01*
X104700920Y-84748380D02*
X106301120Y-84748380D01*
X106250320Y-83597760D02*
X104700920Y-83597760D01*
X105501020Y-84748380D02*
X106250320Y-83597760D01*
X105501020Y-84748380D02*
X104700920Y-83597760D01*
X110901060Y-87698120D02*
X110901060Y-80499760D01*
X104098940Y-87698120D02*
X104098940Y-80499760D01*
X161848321Y-53014355D02*
X162548321Y-53014355D01*
X162548321Y-54214355D02*
X161848321Y-54214355D01*
X161848321Y-51014355D02*
X162548321Y-51014355D01*
X162548321Y-52214355D02*
X161848321Y-52214355D01*
X94700000Y-58370000D02*
X94700000Y-56820000D01*
X93400000Y-58370000D02*
X94700000Y-58370000D01*
X89209000Y-56947000D02*
X83367000Y-56947000D01*
X83367000Y-56947000D02*
X83367000Y-56693000D01*
X83367000Y-56693000D02*
X89209000Y-56693000D01*
X89209000Y-56693000D02*
X89209000Y-56820000D01*
X89209000Y-56820000D02*
X83367000Y-56820000D01*
X91876000Y-57074000D02*
X92257000Y-57074000D01*
X91876000Y-56566000D02*
X92257000Y-56566000D01*
X91876000Y-54534000D02*
X92257000Y-54534000D01*
X91876000Y-54026000D02*
X92257000Y-54026000D01*
X91876000Y-51994000D02*
X92257000Y-51994000D01*
X91876000Y-51486000D02*
X92257000Y-51486000D01*
X91876000Y-49454000D02*
X92257000Y-49454000D01*
X91876000Y-48946000D02*
X92257000Y-48946000D01*
X91876000Y-46406000D02*
X92257000Y-46406000D01*
X91876000Y-46914000D02*
X92257000Y-46914000D01*
X89336000Y-55550000D02*
X89336000Y-58090000D01*
X83240000Y-56566000D02*
X89336000Y-56566000D01*
X83240000Y-57074000D02*
X83240000Y-56566000D01*
X89336000Y-57074000D02*
X83240000Y-57074000D01*
X91876000Y-55550000D02*
X89336000Y-55550000D01*
X91876000Y-58090000D02*
X91876000Y-55550000D01*
X91876000Y-58090000D02*
X89336000Y-58090000D01*
X91876000Y-53010000D02*
X89336000Y-53010000D01*
X91876000Y-53010000D02*
X91876000Y-50470000D01*
X91876000Y-50470000D02*
X89336000Y-50470000D01*
X89336000Y-51994000D02*
X83240000Y-51994000D01*
X83240000Y-51994000D02*
X83240000Y-51486000D01*
X83240000Y-51486000D02*
X89336000Y-51486000D01*
X89336000Y-50470000D02*
X89336000Y-53010000D01*
X89336000Y-53010000D02*
X89336000Y-55550000D01*
X83240000Y-54026000D02*
X89336000Y-54026000D01*
X83240000Y-54534000D02*
X83240000Y-54026000D01*
X89336000Y-54534000D02*
X83240000Y-54534000D01*
X91876000Y-53010000D02*
X89336000Y-53010000D01*
X91876000Y-55550000D02*
X91876000Y-53010000D01*
X91876000Y-55550000D02*
X89336000Y-55550000D01*
X91876000Y-47930000D02*
X89336000Y-47930000D01*
X91876000Y-47930000D02*
X91876000Y-45390000D01*
X91876000Y-45390000D02*
X89336000Y-45390000D01*
X89336000Y-46914000D02*
X83240000Y-46914000D01*
X83240000Y-46914000D02*
X83240000Y-46406000D01*
X83240000Y-46406000D02*
X89336000Y-46406000D01*
X89336000Y-45390000D02*
X89336000Y-47930000D01*
X89336000Y-47930000D02*
X89336000Y-50470000D01*
X83240000Y-48946000D02*
X89336000Y-48946000D01*
X83240000Y-49454000D02*
X83240000Y-48946000D01*
X89336000Y-49454000D02*
X83240000Y-49454000D01*
X91876000Y-47930000D02*
X89336000Y-47930000D01*
X91876000Y-50470000D02*
X91876000Y-47930000D01*
X91876000Y-50470000D02*
X89336000Y-50470000D01*
X164875000Y-65325000D02*
X164875000Y-64675000D01*
X159125000Y-65325000D02*
X159125000Y-64675000D01*
X159125000Y-54675000D02*
X159125000Y-55325000D01*
X164875000Y-54675000D02*
X164875000Y-55325000D01*
X164875000Y-65325000D02*
X159125000Y-65325000D01*
X164875000Y-54675000D02*
X159125000Y-54675000D01*
X164875000Y-64675000D02*
X166475000Y-64675000D01*
X202370000Y-82875000D02*
X202015000Y-82875000D01*
X202370000Y-90625000D02*
X202015000Y-90625000D01*
X191720000Y-90625000D02*
X192075000Y-90625000D01*
X191720000Y-82875000D02*
X192075000Y-82875000D01*
X202370000Y-82875000D02*
X202370000Y-90625000D01*
X191720000Y-82875000D02*
X191720000Y-90625000D01*
X202015000Y-82875000D02*
X202015000Y-81350000D01*
X165925000Y-82875000D02*
X165570000Y-82875000D01*
X165925000Y-90625000D02*
X165570000Y-90625000D01*
X155275000Y-90625000D02*
X155630000Y-90625000D01*
X155275000Y-82875000D02*
X155630000Y-82875000D01*
X165925000Y-82875000D02*
X165925000Y-90625000D01*
X155275000Y-82875000D02*
X155275000Y-90625000D01*
X165570000Y-82875000D02*
X165570000Y-81350000D01*
X195930000Y-74175000D02*
X196075000Y-74175000D01*
X195930000Y-70025000D02*
X196075000Y-70025000D01*
X201080000Y-70025000D02*
X200935000Y-70025000D01*
X201080000Y-74175000D02*
X200935000Y-74175000D01*
X195930000Y-74175000D02*
X195930000Y-70025000D01*
X201080000Y-74175000D02*
X201080000Y-70025000D01*
X196075000Y-74175000D02*
X196075000Y-75575000D01*
X161600000Y-71650000D02*
X161600000Y-72350000D01*
X160400000Y-72350000D02*
X160400000Y-71650000D01*
X173600000Y-71650000D02*
X173600000Y-72350000D01*
X172400000Y-72350000D02*
X172400000Y-71650000D01*
X203600000Y-71814800D02*
X203600000Y-72514800D01*
X202400000Y-72514800D02*
X202400000Y-71814800D01*
X177000000Y-96500000D02*
X217000000Y-96500000D01*
X217000000Y-102750000D02*
X177000000Y-102750000D01*
X217000000Y-94500000D02*
X217000000Y-102750000D01*
X177000000Y-94500000D02*
X217000000Y-94500000D01*
X177000000Y-94500000D02*
X177000000Y-102750000D01*
X137000000Y-96500000D02*
X177000000Y-96500000D01*
X177000000Y-102750000D02*
X137000000Y-102750000D01*
X177000000Y-94500000D02*
X177000000Y-102750000D01*
X137000000Y-94500000D02*
X177000000Y-94500000D01*
X137000000Y-94500000D02*
X137000000Y-102750000D01*
X191000000Y-56575000D02*
X191650000Y-56575000D01*
X191000000Y-50825000D02*
X191650000Y-50825000D01*
X201650000Y-50825000D02*
X201000000Y-50825000D01*
X201650000Y-56575000D02*
X201000000Y-56575000D01*
X191000000Y-56575000D02*
X191000000Y-50825000D01*
X201650000Y-56575000D02*
X201650000Y-50825000D01*
X191650000Y-56575000D02*
X191650000Y-58175000D01*
X114000000Y-96500000D02*
X124000000Y-96500000D01*
X124000000Y-102750000D02*
X114000000Y-102750000D01*
X114000000Y-94500000D02*
X124000000Y-94500000D01*
X114000000Y-94500000D02*
X114000000Y-102750000D01*
X124000000Y-94500000D02*
X124000000Y-102750000D01*
X124000000Y-96500000D02*
X134000000Y-96500000D01*
X134000000Y-102750000D02*
X124000000Y-102750000D01*
X124000000Y-94500000D02*
X134000000Y-94500000D01*
X124000000Y-94500000D02*
X124000000Y-102750000D01*
X134000000Y-94500000D02*
X134000000Y-102750000D01*
X81000000Y-96500000D02*
X91000000Y-96500000D01*
X91000000Y-102750000D02*
X81000000Y-102750000D01*
X81000000Y-94500000D02*
X91000000Y-94500000D01*
X81000000Y-94500000D02*
X81000000Y-102750000D01*
X91000000Y-94500000D02*
X91000000Y-102750000D01*
X91000000Y-96500000D02*
X101000000Y-96500000D01*
X101000000Y-102750000D02*
X91000000Y-102750000D01*
X91000000Y-94500000D02*
X101000000Y-94500000D01*
X91000000Y-94500000D02*
X91000000Y-102750000D01*
X101000000Y-94500000D02*
X101000000Y-102750000D01*
X101000000Y-96500000D02*
X111000000Y-96500000D01*
X111000000Y-102750000D02*
X101000000Y-102750000D01*
X101000000Y-94500000D02*
X111000000Y-94500000D01*
X101000000Y-94500000D02*
X101000000Y-102750000D01*
X111000000Y-94500000D02*
X111000000Y-102750000D01*
X144949020Y-83750000D02*
X147649020Y-83750000D01*
X144949020Y-82250000D02*
X147649020Y-82250000D01*
X146449020Y-83150000D02*
X146449020Y-82900000D01*
X146449020Y-82900000D02*
X146299020Y-83050000D01*
X146199020Y-82650000D02*
X146199020Y-83350000D01*
X146549020Y-83000000D02*
X146899020Y-83000000D01*
X146199020Y-83000000D02*
X146549020Y-82650000D01*
X146549020Y-82650000D02*
X146549020Y-83350000D01*
X146549020Y-83350000D02*
X146199020Y-83000000D01*
X144900000Y-86250000D02*
X147600000Y-86250000D01*
X144900000Y-84750000D02*
X147600000Y-84750000D01*
X146400000Y-85650000D02*
X146400000Y-85400000D01*
X146400000Y-85400000D02*
X146250000Y-85550000D01*
X146150000Y-85150000D02*
X146150000Y-85850000D01*
X146500000Y-85500000D02*
X146850000Y-85500000D01*
X146150000Y-85500000D02*
X146500000Y-85150000D01*
X146500000Y-85150000D02*
X146500000Y-85850000D01*
X146500000Y-85850000D02*
X146150000Y-85500000D01*
X144900000Y-88750000D02*
X147600000Y-88750000D01*
X144900000Y-87250000D02*
X147600000Y-87250000D01*
X146400000Y-88150000D02*
X146400000Y-87900000D01*
X146400000Y-87900000D02*
X146250000Y-88050000D01*
X146150000Y-87650000D02*
X146150000Y-88350000D01*
X146500000Y-88000000D02*
X146850000Y-88000000D01*
X146150000Y-88000000D02*
X146500000Y-87650000D01*
X146500000Y-87650000D02*
X146500000Y-88350000D01*
X146500000Y-88350000D02*
X146150000Y-88000000D01*
X144949020Y-91250000D02*
X147649020Y-91250000D01*
X144949020Y-89750000D02*
X147649020Y-89750000D01*
X146449020Y-90650000D02*
X146449020Y-90400000D01*
X146449020Y-90400000D02*
X146299020Y-90550000D01*
X146199020Y-90150000D02*
X146199020Y-90850000D01*
X146549020Y-90500000D02*
X146899020Y-90500000D01*
X146199020Y-90500000D02*
X146549020Y-90150000D01*
X146549020Y-90150000D02*
X146549020Y-90850000D01*
X146549020Y-90850000D02*
X146199020Y-90500000D01*
X151400000Y-83675000D02*
X150400000Y-83675000D01*
X150400000Y-82325000D02*
X151400000Y-82325000D01*
X151500000Y-86175000D02*
X150500000Y-86175000D01*
X150500000Y-84825000D02*
X151500000Y-84825000D01*
X151500000Y-88675000D02*
X150500000Y-88675000D01*
X150500000Y-87325000D02*
X151500000Y-87325000D01*
X151500000Y-91175000D02*
X150500000Y-91175000D01*
X150500000Y-89825000D02*
X151500000Y-89825000D01*
D15*
G36*
X192042702Y-69777299D02*
X192895961Y-69990859D01*
X193427708Y-70221010D01*
X193685470Y-70362327D01*
X193819245Y-70494282D01*
X193869699Y-70690097D01*
X193877500Y-71022999D01*
X193877500Y-71030901D01*
X193857418Y-71401831D01*
X193780022Y-71579069D01*
X193619582Y-71573845D01*
X193350371Y-71397392D01*
X193240155Y-71309145D01*
X192668363Y-70967570D01*
X191968459Y-70756216D01*
X191185492Y-70683569D01*
X190364508Y-70758118D01*
X190339932Y-70762685D01*
X189930951Y-70856651D01*
X189632427Y-70984291D01*
X189352214Y-71194381D01*
X189132849Y-71401598D01*
X188821374Y-71737961D01*
X188624957Y-72049090D01*
X188486939Y-72433508D01*
X188442221Y-72602501D01*
X188312301Y-73366657D01*
X188276104Y-74191299D01*
X188333709Y-74985668D01*
X188439634Y-75510997D01*
X188729141Y-76194330D01*
X189171540Y-76737223D01*
X189753585Y-77130386D01*
X190462029Y-77364533D01*
X191178698Y-77431667D01*
X191789161Y-77376668D01*
X192401729Y-77226812D01*
X192945917Y-77004810D01*
X193351243Y-76733375D01*
X193354124Y-76730703D01*
X193606781Y-76528862D01*
X193766017Y-76499383D01*
X193850077Y-76653829D01*
X193877203Y-77003766D01*
X193877500Y-77062464D01*
X193877500Y-77645761D01*
X193186666Y-77962169D01*
X192302787Y-78299939D01*
X191481863Y-78463752D01*
X190675121Y-78459427D01*
X190014583Y-78340666D01*
X189145327Y-78037676D01*
X188426022Y-77592129D01*
X187845336Y-76993305D01*
X187391937Y-76230486D01*
X187159560Y-75639956D01*
X187076092Y-75340291D01*
X187026701Y-75018094D01*
X187007385Y-74618732D01*
X187014143Y-74087571D01*
X187024458Y-73795188D01*
X187050163Y-73238335D01*
X187083637Y-72834775D01*
X187137026Y-72526180D01*
X187222475Y-72254222D01*
X187352129Y-71960573D01*
X187446233Y-71769583D01*
X187927552Y-71021181D01*
X188537857Y-70440437D01*
X189276330Y-70027816D01*
X190142153Y-69783784D01*
X191072917Y-69708527D01*
X192042702Y-69777299D01*
X192042702Y-69777299D01*
G37*
X192042702Y-69777299D02*
X192895961Y-69990859D01*
X193427708Y-70221010D01*
X193685470Y-70362327D01*
X193819245Y-70494282D01*
X193869699Y-70690097D01*
X193877500Y-71022999D01*
X193877500Y-71030901D01*
X193857418Y-71401831D01*
X193780022Y-71579069D01*
X193619582Y-71573845D01*
X193350371Y-71397392D01*
X193240155Y-71309145D01*
X192668363Y-70967570D01*
X191968459Y-70756216D01*
X191185492Y-70683569D01*
X190364508Y-70758118D01*
X190339932Y-70762685D01*
X189930951Y-70856651D01*
X189632427Y-70984291D01*
X189352214Y-71194381D01*
X189132849Y-71401598D01*
X188821374Y-71737961D01*
X188624957Y-72049090D01*
X188486939Y-72433508D01*
X188442221Y-72602501D01*
X188312301Y-73366657D01*
X188276104Y-74191299D01*
X188333709Y-74985668D01*
X188439634Y-75510997D01*
X188729141Y-76194330D01*
X189171540Y-76737223D01*
X189753585Y-77130386D01*
X190462029Y-77364533D01*
X191178698Y-77431667D01*
X191789161Y-77376668D01*
X192401729Y-77226812D01*
X192945917Y-77004810D01*
X193351243Y-76733375D01*
X193354124Y-76730703D01*
X193606781Y-76528862D01*
X193766017Y-76499383D01*
X193850077Y-76653829D01*
X193877203Y-77003766D01*
X193877500Y-77062464D01*
X193877500Y-77645761D01*
X193186666Y-77962169D01*
X192302787Y-78299939D01*
X191481863Y-78463752D01*
X190675121Y-78459427D01*
X190014583Y-78340666D01*
X189145327Y-78037676D01*
X188426022Y-77592129D01*
X187845336Y-76993305D01*
X187391937Y-76230486D01*
X187159560Y-75639956D01*
X187076092Y-75340291D01*
X187026701Y-75018094D01*
X187007385Y-74618732D01*
X187014143Y-74087571D01*
X187024458Y-73795188D01*
X187050163Y-73238335D01*
X187083637Y-72834775D01*
X187137026Y-72526180D01*
X187222475Y-72254222D01*
X187352129Y-71960573D01*
X187446233Y-71769583D01*
X187927552Y-71021181D01*
X188537857Y-70440437D01*
X189276330Y-70027816D01*
X190142153Y-69783784D01*
X191072917Y-69708527D01*
X192042702Y-69777299D01*
G36*
X177314583Y-69864583D02*
X177504163Y-70436281D01*
X177647391Y-70838045D01*
X177834102Y-71322388D01*
X178006871Y-71743821D01*
X178158533Y-72118083D01*
X178269758Y-72426600D01*
X178319218Y-72609593D01*
X178320000Y-72621468D01*
X178361798Y-72778429D01*
X178473037Y-73071923D01*
X178632480Y-73447222D01*
X178690417Y-73576099D01*
X178860095Y-73959621D01*
X178988887Y-74272028D01*
X179055862Y-74461737D01*
X179060833Y-74488984D01*
X179098122Y-74626300D01*
X179200265Y-74921489D01*
X179352673Y-75336230D01*
X179540761Y-75832204D01*
X179749941Y-76371088D01*
X179965625Y-76914562D01*
X180173228Y-77424306D01*
X180231348Y-77563958D01*
X180530422Y-78278333D01*
X179861773Y-78278333D01*
X179497765Y-78273954D01*
X179291951Y-78244804D01*
X179190862Y-78166864D01*
X179141028Y-78016116D01*
X179127124Y-77948327D01*
X179055159Y-77683239D01*
X178929613Y-77304005D01*
X178777508Y-76892198D01*
X178775747Y-76887686D01*
X178490371Y-76157051D01*
X176579560Y-76185817D01*
X174668750Y-76214583D01*
X174481694Y-76796667D01*
X174341634Y-77220147D01*
X174194867Y-77645399D01*
X174128983Y-77828542D01*
X173963327Y-78278333D01*
X172790209Y-78278333D01*
X172857500Y-77934375D01*
X172931707Y-77664240D01*
X173062769Y-77281121D01*
X173222892Y-76866038D01*
X173229646Y-76849583D01*
X173408855Y-76404554D01*
X173624204Y-75855816D01*
X173838599Y-75298256D01*
X173912282Y-75103333D01*
X175140967Y-75103333D01*
X176633470Y-75103333D01*
X177164398Y-75097964D01*
X177607015Y-75083210D01*
X177924775Y-75061100D01*
X178081131Y-75033663D01*
X178090694Y-75022419D01*
X178033512Y-74877979D01*
X177914593Y-74568214D01*
X177746416Y-74126027D01*
X177541465Y-73584320D01*
X177312220Y-72975996D01*
X177097635Y-72404583D01*
X176937620Y-71967173D01*
X176805337Y-71585924D01*
X176719946Y-71317000D01*
X176700476Y-71240417D01*
X176650821Y-71188969D01*
X176548451Y-71313899D01*
X176385895Y-71625433D01*
X176326038Y-71752990D01*
X176163692Y-72124236D01*
X176044826Y-72433433D01*
X175992404Y-72620205D01*
X175991667Y-72632106D01*
X175953286Y-72795523D01*
X175850824Y-73098931D01*
X175703299Y-73487648D01*
X175636201Y-73654116D01*
X175465412Y-74084246D01*
X175320934Y-74472644D01*
X175226868Y-74753688D01*
X175210851Y-74812292D01*
X175140967Y-75103333D01*
X173912282Y-75103333D01*
X174122994Y-74547659D01*
X174354347Y-73945547D01*
X174565956Y-73401887D01*
X174625337Y-73251250D01*
X174831019Y-72723107D01*
X175052576Y-72140664D01*
X175243245Y-71626908D01*
X175249093Y-71610833D01*
X175419353Y-71147629D01*
X175592465Y-70685126D01*
X175731958Y-70320734D01*
X175736119Y-70310096D01*
X175934661Y-69803109D01*
X177314583Y-69864583D01*
X177314583Y-69864583D01*
G37*
X177314583Y-69864583D02*
X177504163Y-70436281D01*
X177647391Y-70838045D01*
X177834102Y-71322388D01*
X178006871Y-71743821D01*
X178158533Y-72118083D01*
X178269758Y-72426600D01*
X178319218Y-72609593D01*
X178320000Y-72621468D01*
X178361798Y-72778429D01*
X178473037Y-73071923D01*
X178632480Y-73447222D01*
X178690417Y-73576099D01*
X178860095Y-73959621D01*
X178988887Y-74272028D01*
X179055862Y-74461737D01*
X179060833Y-74488984D01*
X179098122Y-74626300D01*
X179200265Y-74921489D01*
X179352673Y-75336230D01*
X179540761Y-75832204D01*
X179749941Y-76371088D01*
X179965625Y-76914562D01*
X180173228Y-77424306D01*
X180231348Y-77563958D01*
X180530422Y-78278333D01*
X179861773Y-78278333D01*
X179497765Y-78273954D01*
X179291951Y-78244804D01*
X179190862Y-78166864D01*
X179141028Y-78016116D01*
X179127124Y-77948327D01*
X179055159Y-77683239D01*
X178929613Y-77304005D01*
X178777508Y-76892198D01*
X178775747Y-76887686D01*
X178490371Y-76157051D01*
X176579560Y-76185817D01*
X174668750Y-76214583D01*
X174481694Y-76796667D01*
X174341634Y-77220147D01*
X174194867Y-77645399D01*
X174128983Y-77828542D01*
X173963327Y-78278333D01*
X172790209Y-78278333D01*
X172857500Y-77934375D01*
X172931707Y-77664240D01*
X173062769Y-77281121D01*
X173222892Y-76866038D01*
X173229646Y-76849583D01*
X173408855Y-76404554D01*
X173624204Y-75855816D01*
X173838599Y-75298256D01*
X173912282Y-75103333D01*
X175140967Y-75103333D01*
X176633470Y-75103333D01*
X177164398Y-75097964D01*
X177607015Y-75083210D01*
X177924775Y-75061100D01*
X178081131Y-75033663D01*
X178090694Y-75022419D01*
X178033512Y-74877979D01*
X177914593Y-74568214D01*
X177746416Y-74126027D01*
X177541465Y-73584320D01*
X177312220Y-72975996D01*
X177097635Y-72404583D01*
X176937620Y-71967173D01*
X176805337Y-71585924D01*
X176719946Y-71317000D01*
X176700476Y-71240417D01*
X176650821Y-71188969D01*
X176548451Y-71313899D01*
X176385895Y-71625433D01*
X176326038Y-71752990D01*
X176163692Y-72124236D01*
X176044826Y-72433433D01*
X175992404Y-72620205D01*
X175991667Y-72632106D01*
X175953286Y-72795523D01*
X175850824Y-73098931D01*
X175703299Y-73487648D01*
X175636201Y-73654116D01*
X175465412Y-74084246D01*
X175320934Y-74472644D01*
X175226868Y-74753688D01*
X175210851Y-74812292D01*
X175140967Y-75103333D01*
X173912282Y-75103333D01*
X174122994Y-74547659D01*
X174354347Y-73945547D01*
X174565956Y-73401887D01*
X174625337Y-73251250D01*
X174831019Y-72723107D01*
X175052576Y-72140664D01*
X175243245Y-71626908D01*
X175249093Y-71610833D01*
X175419353Y-71147629D01*
X175592465Y-70685126D01*
X175731958Y-70320734D01*
X175736119Y-70310096D01*
X175934661Y-69803109D01*
X177314583Y-69864583D01*
G36*
X182368125Y-69813763D02*
X183344288Y-69829262D01*
X184133849Y-69878874D01*
X184760436Y-69972104D01*
X185247679Y-70118457D01*
X185619207Y-70327436D01*
X185898649Y-70608547D01*
X186109633Y-70971294D01*
X186261953Y-71380023D01*
X186412923Y-72122426D01*
X186387509Y-72790457D01*
X186190550Y-73365713D01*
X185826884Y-73829796D01*
X185566198Y-74025644D01*
X185090182Y-74321923D01*
X185460486Y-74617165D01*
X185720005Y-74890443D01*
X186030929Y-75324799D01*
X186370436Y-75883084D01*
X186715704Y-76528150D01*
X186998021Y-77119946D01*
X187175949Y-77492795D01*
X187353226Y-77829538D01*
X187450565Y-77993071D01*
X187638213Y-78278333D01*
X186273966Y-78278333D01*
X185635257Y-76964628D01*
X185330606Y-76371964D01*
X185029000Y-75846144D01*
X184758253Y-75433418D01*
X184585077Y-75218378D01*
X184173607Y-74785833D01*
X182130000Y-74785833D01*
X182130000Y-78278333D01*
X180965833Y-78278333D01*
X180965833Y-70874033D01*
X182130000Y-70874033D01*
X182130000Y-73727500D01*
X183161875Y-73727104D01*
X183684938Y-73718417D01*
X184050349Y-73687441D01*
X184311646Y-73626092D01*
X184522365Y-73526285D01*
X184532570Y-73520118D01*
X184918436Y-73168394D01*
X185139928Y-72683733D01*
X185199167Y-72166734D01*
X185179487Y-71835134D01*
X185091780Y-71598406D01*
X184893046Y-71359355D01*
X184802292Y-71269699D01*
X184588156Y-71076469D01*
X184392461Y-70955345D01*
X184150192Y-70882762D01*
X183796335Y-70835160D01*
X183538774Y-70811787D01*
X183095991Y-70784999D01*
X182704497Y-70780607D01*
X182436059Y-70798974D01*
X182401066Y-70805999D01*
X182130000Y-70874033D01*
X180965833Y-70874033D01*
X180965833Y-69811667D01*
X182368125Y-69813763D01*
X182368125Y-69813763D01*
G37*
X182368125Y-69813763D02*
X183344288Y-69829262D01*
X184133849Y-69878874D01*
X184760436Y-69972104D01*
X185247679Y-70118457D01*
X185619207Y-70327436D01*
X185898649Y-70608547D01*
X186109633Y-70971294D01*
X186261953Y-71380023D01*
X186412923Y-72122426D01*
X186387509Y-72790457D01*
X186190550Y-73365713D01*
X185826884Y-73829796D01*
X185566198Y-74025644D01*
X185090182Y-74321923D01*
X185460486Y-74617165D01*
X185720005Y-74890443D01*
X186030929Y-75324799D01*
X186370436Y-75883084D01*
X186715704Y-76528150D01*
X186998021Y-77119946D01*
X187175949Y-77492795D01*
X187353226Y-77829538D01*
X187450565Y-77993071D01*
X187638213Y-78278333D01*
X186273966Y-78278333D01*
X185635257Y-76964628D01*
X185330606Y-76371964D01*
X185029000Y-75846144D01*
X184758253Y-75433418D01*
X184585077Y-75218378D01*
X184173607Y-74785833D01*
X182130000Y-74785833D01*
X182130000Y-78278333D01*
X180965833Y-78278333D01*
X180965833Y-70874033D01*
X182130000Y-70874033D01*
X182130000Y-73727500D01*
X183161875Y-73727104D01*
X183684938Y-73718417D01*
X184050349Y-73687441D01*
X184311646Y-73626092D01*
X184522365Y-73526285D01*
X184532570Y-73520118D01*
X184918436Y-73168394D01*
X185139928Y-72683733D01*
X185199167Y-72166734D01*
X185179487Y-71835134D01*
X185091780Y-71598406D01*
X184893046Y-71359355D01*
X184802292Y-71269699D01*
X184588156Y-71076469D01*
X184392461Y-70955345D01*
X184150192Y-70882762D01*
X183796335Y-70835160D01*
X183538774Y-70811787D01*
X183095991Y-70784999D01*
X182704497Y-70780607D01*
X182436059Y-70798974D01*
X182401066Y-70805999D01*
X182130000Y-70874033D01*
X180965833Y-70874033D01*
X180965833Y-69811667D01*
X182368125Y-69813763D01*
G36*
X185354879Y-59729427D02*
X185995158Y-59957241D01*
X186629214Y-60373057D01*
X187260442Y-60981004D01*
X187892238Y-61785212D01*
X188527995Y-62789810D01*
X189171110Y-63998929D01*
X189584933Y-64874943D01*
X189755794Y-65262752D01*
X189886210Y-65579390D01*
X189955589Y-65774013D01*
X189961667Y-65805128D01*
X189996793Y-65937250D01*
X190092625Y-66225766D01*
X190234844Y-66629148D01*
X190409132Y-67105866D01*
X190423134Y-67143519D01*
X190608908Y-67657914D01*
X190771225Y-68135900D01*
X190892335Y-68523332D01*
X190953776Y-68762092D01*
X191022950Y-69141267D01*
X189273750Y-69335417D01*
X188917598Y-68118333D01*
X188769366Y-67602225D01*
X188637311Y-67125020D01*
X188536845Y-66743482D01*
X188486580Y-66530833D01*
X188388944Y-66167636D01*
X188221033Y-65664904D01*
X188002911Y-65074523D01*
X187754640Y-64448379D01*
X187496285Y-63838358D01*
X187247908Y-63296346D01*
X187190583Y-63179275D01*
X186724630Y-62358596D01*
X186217728Y-61675058D01*
X185688384Y-61147717D01*
X185155106Y-60795630D01*
X184736567Y-60652661D01*
X184281436Y-60670670D01*
X183788286Y-60873391D01*
X183278979Y-61242518D01*
X182775378Y-61759741D01*
X182299344Y-62406755D01*
X181973339Y-62966600D01*
X181728652Y-63467850D01*
X181464650Y-64066156D01*
X181206245Y-64699116D01*
X180978353Y-65304325D01*
X180805886Y-65819382D01*
X180740490Y-66054583D01*
X180664533Y-66333456D01*
X180541547Y-66749547D01*
X180390707Y-67239028D01*
X180279454Y-67589167D01*
X180123027Y-68099012D01*
X179986601Y-68587705D01*
X179888172Y-68988397D01*
X179852100Y-69176667D01*
X179798217Y-69472231D01*
X179705122Y-69910208D01*
X179586585Y-70428080D01*
X179474649Y-70890268D01*
X179352852Y-71406139D01*
X179253800Y-71876198D01*
X179188218Y-72246072D01*
X179166667Y-72451309D01*
X179144804Y-72697220D01*
X179077135Y-72750377D01*
X178960542Y-72607721D01*
X178791904Y-72266191D01*
X178660479Y-71954792D01*
X178466301Y-71462152D01*
X178270492Y-70941895D01*
X178113755Y-70502305D01*
X178106865Y-70481992D01*
X177886336Y-69829401D01*
X178149347Y-68841575D01*
X178309487Y-68293018D01*
X178501431Y-67712616D01*
X178690056Y-67204996D01*
X178736596Y-67092259D01*
X178890740Y-66716012D01*
X179005164Y-66409609D01*
X179059123Y-66229290D01*
X179060833Y-66213196D01*
X179104635Y-66049156D01*
X179223179Y-65738417D01*
X179397171Y-65323912D01*
X179607316Y-64848572D01*
X179834321Y-64355330D01*
X180058892Y-63887118D01*
X180261733Y-63486868D01*
X180393737Y-63247281D01*
X180575780Y-62928310D01*
X180705353Y-62685320D01*
X180754167Y-62571649D01*
X180817970Y-62449670D01*
X180988197Y-62208320D01*
X181233078Y-61888554D01*
X181520840Y-61531328D01*
X181819710Y-61177597D01*
X181952433Y-61027040D01*
X182647467Y-60377024D01*
X183381567Y-59933556D01*
X184152714Y-59697408D01*
X184958887Y-59669349D01*
X185354879Y-59729427D01*
X185354879Y-59729427D01*
G37*
X185354879Y-59729427D02*
X185995158Y-59957241D01*
X186629214Y-60373057D01*
X187260442Y-60981004D01*
X187892238Y-61785212D01*
X188527995Y-62789810D01*
X189171110Y-63998929D01*
X189584933Y-64874943D01*
X189755794Y-65262752D01*
X189886210Y-65579390D01*
X189955589Y-65774013D01*
X189961667Y-65805128D01*
X189996793Y-65937250D01*
X190092625Y-66225766D01*
X190234844Y-66629148D01*
X190409132Y-67105866D01*
X190423134Y-67143519D01*
X190608908Y-67657914D01*
X190771225Y-68135900D01*
X190892335Y-68523332D01*
X190953776Y-68762092D01*
X191022950Y-69141267D01*
X189273750Y-69335417D01*
X188917598Y-68118333D01*
X188769366Y-67602225D01*
X188637311Y-67125020D01*
X188536845Y-66743482D01*
X188486580Y-66530833D01*
X188388944Y-66167636D01*
X188221033Y-65664904D01*
X188002911Y-65074523D01*
X187754640Y-64448379D01*
X187496285Y-63838358D01*
X187247908Y-63296346D01*
X187190583Y-63179275D01*
X186724630Y-62358596D01*
X186217728Y-61675058D01*
X185688384Y-61147717D01*
X185155106Y-60795630D01*
X184736567Y-60652661D01*
X184281436Y-60670670D01*
X183788286Y-60873391D01*
X183278979Y-61242518D01*
X182775378Y-61759741D01*
X182299344Y-62406755D01*
X181973339Y-62966600D01*
X181728652Y-63467850D01*
X181464650Y-64066156D01*
X181206245Y-64699116D01*
X180978353Y-65304325D01*
X180805886Y-65819382D01*
X180740490Y-66054583D01*
X180664533Y-66333456D01*
X180541547Y-66749547D01*
X180390707Y-67239028D01*
X180279454Y-67589167D01*
X180123027Y-68099012D01*
X179986601Y-68587705D01*
X179888172Y-68988397D01*
X179852100Y-69176667D01*
X179798217Y-69472231D01*
X179705122Y-69910208D01*
X179586585Y-70428080D01*
X179474649Y-70890268D01*
X179352852Y-71406139D01*
X179253800Y-71876198D01*
X179188218Y-72246072D01*
X179166667Y-72451309D01*
X179144804Y-72697220D01*
X179077135Y-72750377D01*
X178960542Y-72607721D01*
X178791904Y-72266191D01*
X178660479Y-71954792D01*
X178466301Y-71462152D01*
X178270492Y-70941895D01*
X178113755Y-70502305D01*
X178106865Y-70481992D01*
X177886336Y-69829401D01*
X178149347Y-68841575D01*
X178309487Y-68293018D01*
X178501431Y-67712616D01*
X178690056Y-67204996D01*
X178736596Y-67092259D01*
X178890740Y-66716012D01*
X179005164Y-66409609D01*
X179059123Y-66229290D01*
X179060833Y-66213196D01*
X179104635Y-66049156D01*
X179223179Y-65738417D01*
X179397171Y-65323912D01*
X179607316Y-64848572D01*
X179834321Y-64355330D01*
X180058892Y-63887118D01*
X180261733Y-63486868D01*
X180393737Y-63247281D01*
X180575780Y-62928310D01*
X180705353Y-62685320D01*
X180754167Y-62571649D01*
X180817970Y-62449670D01*
X180988197Y-62208320D01*
X181233078Y-61888554D01*
X181520840Y-61531328D01*
X181819710Y-61177597D01*
X181952433Y-61027040D01*
X182647467Y-60377024D01*
X183381567Y-59933556D01*
X184152714Y-59697408D01*
X184958887Y-59669349D01*
X185354879Y-59729427D01*
D14*
X152412380Y-73814285D02*
X153221904Y-73814285D01*
X153317142Y-73766666D01*
X153364761Y-73719047D01*
X153412380Y-73623809D01*
X153412380Y-73433333D01*
X153364761Y-73338095D01*
X153317142Y-73290476D01*
X153221904Y-73242857D01*
X152412380Y-73242857D01*
X152507619Y-72814285D02*
X152460000Y-72766666D01*
X152412380Y-72671428D01*
X152412380Y-72433333D01*
X152460000Y-72338095D01*
X152507619Y-72290476D01*
X152602857Y-72242857D01*
X152698095Y-72242857D01*
X152840952Y-72290476D01*
X153412380Y-72861904D01*
X153412380Y-72242857D01*
X152412380Y-71623809D02*
X152412380Y-71528571D01*
X152460000Y-71433333D01*
X152507619Y-71385714D01*
X152602857Y-71338095D01*
X152793333Y-71290476D01*
X153031428Y-71290476D01*
X153221904Y-71338095D01*
X153317142Y-71385714D01*
X153364761Y-71433333D01*
X153412380Y-71528571D01*
X153412380Y-71623809D01*
X153364761Y-71719047D01*
X153317142Y-71766666D01*
X153221904Y-71814285D01*
X153031428Y-71861904D01*
X152793333Y-71861904D01*
X152602857Y-71814285D01*
X152507619Y-71766666D01*
X152460000Y-71719047D01*
X152412380Y-71623809D01*
X153412380Y-70338095D02*
X153412380Y-70909523D01*
X153412380Y-70623809D02*
X152412380Y-70623809D01*
X152555238Y-70719047D01*
X152650476Y-70814285D01*
X152698095Y-70909523D01*
X163842380Y-73814285D02*
X164651904Y-73814285D01*
X164747142Y-73766666D01*
X164794761Y-73719047D01*
X164842380Y-73623809D01*
X164842380Y-73433333D01*
X164794761Y-73338095D01*
X164747142Y-73290476D01*
X164651904Y-73242857D01*
X163842380Y-73242857D01*
X163937619Y-72814285D02*
X163890000Y-72766666D01*
X163842380Y-72671428D01*
X163842380Y-72433333D01*
X163890000Y-72338095D01*
X163937619Y-72290476D01*
X164032857Y-72242857D01*
X164128095Y-72242857D01*
X164270952Y-72290476D01*
X164842380Y-72861904D01*
X164842380Y-72242857D01*
X163842380Y-71623809D02*
X163842380Y-71528571D01*
X163890000Y-71433333D01*
X163937619Y-71385714D01*
X164032857Y-71338095D01*
X164223333Y-71290476D01*
X164461428Y-71290476D01*
X164651904Y-71338095D01*
X164747142Y-71385714D01*
X164794761Y-71433333D01*
X164842380Y-71528571D01*
X164842380Y-71623809D01*
X164794761Y-71719047D01*
X164747142Y-71766666D01*
X164651904Y-71814285D01*
X164461428Y-71861904D01*
X164223333Y-71861904D01*
X164032857Y-71814285D01*
X163937619Y-71766666D01*
X163890000Y-71719047D01*
X163842380Y-71623809D01*
X163937619Y-70909523D02*
X163890000Y-70861904D01*
X163842380Y-70766666D01*
X163842380Y-70528571D01*
X163890000Y-70433333D01*
X163937619Y-70385714D01*
X164032857Y-70338095D01*
X164128095Y-70338095D01*
X164270952Y-70385714D01*
X164842380Y-70957142D01*
X164842380Y-70338095D01*
X195288952Y-45647142D02*
X195241333Y-45694761D01*
X195098476Y-45742380D01*
X195003238Y-45742380D01*
X194860380Y-45694761D01*
X194765142Y-45599523D01*
X194717523Y-45504285D01*
X194669904Y-45313809D01*
X194669904Y-45170952D01*
X194717523Y-44980476D01*
X194765142Y-44885238D01*
X194860380Y-44790000D01*
X195003238Y-44742380D01*
X195098476Y-44742380D01*
X195241333Y-44790000D01*
X195288952Y-44837619D01*
X195622285Y-44742380D02*
X196241333Y-44742380D01*
X195908000Y-45123333D01*
X196050857Y-45123333D01*
X196146095Y-45170952D01*
X196193714Y-45218571D01*
X196241333Y-45313809D01*
X196241333Y-45551904D01*
X196193714Y-45647142D01*
X196146095Y-45694761D01*
X196050857Y-45742380D01*
X195765142Y-45742380D01*
X195669904Y-45694761D01*
X195622285Y-45647142D01*
X196860380Y-44742380D02*
X196955619Y-44742380D01*
X197050857Y-44790000D01*
X197098476Y-44837619D01*
X197146095Y-44932857D01*
X197193714Y-45123333D01*
X197193714Y-45361428D01*
X197146095Y-45551904D01*
X197098476Y-45647142D01*
X197050857Y-45694761D01*
X196955619Y-45742380D01*
X196860380Y-45742380D01*
X196765142Y-45694761D01*
X196717523Y-45647142D01*
X196669904Y-45551904D01*
X196622285Y-45361428D01*
X196622285Y-45123333D01*
X196669904Y-44932857D01*
X196717523Y-44837619D01*
X196765142Y-44790000D01*
X196860380Y-44742380D01*
X198146095Y-45742380D02*
X197574666Y-45742380D01*
X197860380Y-45742380D02*
X197860380Y-44742380D01*
X197765142Y-44885238D01*
X197669904Y-44980476D01*
X197574666Y-45028095D01*
X188129142Y-60125047D02*
X188176761Y-60172666D01*
X188224380Y-60315523D01*
X188224380Y-60410761D01*
X188176761Y-60553619D01*
X188081523Y-60648857D01*
X187986285Y-60696476D01*
X187795809Y-60744095D01*
X187652952Y-60744095D01*
X187462476Y-60696476D01*
X187367238Y-60648857D01*
X187272000Y-60553619D01*
X187224380Y-60410761D01*
X187224380Y-60315523D01*
X187272000Y-60172666D01*
X187319619Y-60125047D01*
X187224380Y-59791714D02*
X187224380Y-59172666D01*
X187605333Y-59506000D01*
X187605333Y-59363142D01*
X187652952Y-59267904D01*
X187700571Y-59220285D01*
X187795809Y-59172666D01*
X188033904Y-59172666D01*
X188129142Y-59220285D01*
X188176761Y-59267904D01*
X188224380Y-59363142D01*
X188224380Y-59648857D01*
X188176761Y-59744095D01*
X188129142Y-59791714D01*
X187224380Y-58553619D02*
X187224380Y-58458380D01*
X187272000Y-58363142D01*
X187319619Y-58315523D01*
X187414857Y-58267904D01*
X187605333Y-58220285D01*
X187843428Y-58220285D01*
X188033904Y-58267904D01*
X188129142Y-58315523D01*
X188176761Y-58363142D01*
X188224380Y-58458380D01*
X188224380Y-58553619D01*
X188176761Y-58648857D01*
X188129142Y-58696476D01*
X188033904Y-58744095D01*
X187843428Y-58791714D01*
X187605333Y-58791714D01*
X187414857Y-58744095D01*
X187319619Y-58696476D01*
X187272000Y-58648857D01*
X187224380Y-58553619D01*
X187319619Y-57839333D02*
X187272000Y-57791714D01*
X187224380Y-57696476D01*
X187224380Y-57458380D01*
X187272000Y-57363142D01*
X187319619Y-57315523D01*
X187414857Y-57267904D01*
X187510095Y-57267904D01*
X187652952Y-57315523D01*
X188224380Y-57886952D01*
X188224380Y-57267904D01*
X199606952Y-48695142D02*
X199559333Y-48742761D01*
X199416476Y-48790380D01*
X199321238Y-48790380D01*
X199178380Y-48742761D01*
X199083142Y-48647523D01*
X199035523Y-48552285D01*
X198987904Y-48361809D01*
X198987904Y-48218952D01*
X199035523Y-48028476D01*
X199083142Y-47933238D01*
X199178380Y-47838000D01*
X199321238Y-47790380D01*
X199416476Y-47790380D01*
X199559333Y-47838000D01*
X199606952Y-47885619D01*
X199940285Y-47790380D02*
X200559333Y-47790380D01*
X200226000Y-48171333D01*
X200368857Y-48171333D01*
X200464095Y-48218952D01*
X200511714Y-48266571D01*
X200559333Y-48361809D01*
X200559333Y-48599904D01*
X200511714Y-48695142D01*
X200464095Y-48742761D01*
X200368857Y-48790380D01*
X200083142Y-48790380D01*
X199987904Y-48742761D01*
X199940285Y-48695142D01*
X201178380Y-47790380D02*
X201273619Y-47790380D01*
X201368857Y-47838000D01*
X201416476Y-47885619D01*
X201464095Y-47980857D01*
X201511714Y-48171333D01*
X201511714Y-48409428D01*
X201464095Y-48599904D01*
X201416476Y-48695142D01*
X201368857Y-48742761D01*
X201273619Y-48790380D01*
X201178380Y-48790380D01*
X201083142Y-48742761D01*
X201035523Y-48695142D01*
X200987904Y-48599904D01*
X200940285Y-48409428D01*
X200940285Y-48171333D01*
X200987904Y-47980857D01*
X201035523Y-47885619D01*
X201083142Y-47838000D01*
X201178380Y-47790380D01*
X201845047Y-47790380D02*
X202464095Y-47790380D01*
X202130761Y-48171333D01*
X202273619Y-48171333D01*
X202368857Y-48218952D01*
X202416476Y-48266571D01*
X202464095Y-48361809D01*
X202464095Y-48599904D01*
X202416476Y-48695142D01*
X202368857Y-48742761D01*
X202273619Y-48790380D01*
X201987904Y-48790380D01*
X201892666Y-48742761D01*
X201845047Y-48695142D01*
X176942952Y-58531142D02*
X176895333Y-58578761D01*
X176752476Y-58626380D01*
X176657238Y-58626380D01*
X176514380Y-58578761D01*
X176419142Y-58483523D01*
X176371523Y-58388285D01*
X176323904Y-58197809D01*
X176323904Y-58054952D01*
X176371523Y-57864476D01*
X176419142Y-57769238D01*
X176514380Y-57674000D01*
X176657238Y-57626380D01*
X176752476Y-57626380D01*
X176895333Y-57674000D01*
X176942952Y-57721619D01*
X177276285Y-57626380D02*
X177895333Y-57626380D01*
X177562000Y-58007333D01*
X177704857Y-58007333D01*
X177800095Y-58054952D01*
X177847714Y-58102571D01*
X177895333Y-58197809D01*
X177895333Y-58435904D01*
X177847714Y-58531142D01*
X177800095Y-58578761D01*
X177704857Y-58626380D01*
X177419142Y-58626380D01*
X177323904Y-58578761D01*
X177276285Y-58531142D01*
X178514380Y-57626380D02*
X178609619Y-57626380D01*
X178704857Y-57674000D01*
X178752476Y-57721619D01*
X178800095Y-57816857D01*
X178847714Y-58007333D01*
X178847714Y-58245428D01*
X178800095Y-58435904D01*
X178752476Y-58531142D01*
X178704857Y-58578761D01*
X178609619Y-58626380D01*
X178514380Y-58626380D01*
X178419142Y-58578761D01*
X178371523Y-58531142D01*
X178323904Y-58435904D01*
X178276285Y-58245428D01*
X178276285Y-58007333D01*
X178323904Y-57816857D01*
X178371523Y-57721619D01*
X178419142Y-57674000D01*
X178514380Y-57626380D01*
X179704857Y-57959714D02*
X179704857Y-58626380D01*
X179466761Y-57578761D02*
X179228666Y-58293047D01*
X179847714Y-58293047D01*
X117997142Y-80339047D02*
X118044761Y-80386666D01*
X118092380Y-80529523D01*
X118092380Y-80624761D01*
X118044761Y-80767619D01*
X117949523Y-80862857D01*
X117854285Y-80910476D01*
X117663809Y-80958095D01*
X117520952Y-80958095D01*
X117330476Y-80910476D01*
X117235238Y-80862857D01*
X117140000Y-80767619D01*
X117092380Y-80624761D01*
X117092380Y-80529523D01*
X117140000Y-80386666D01*
X117187619Y-80339047D01*
X117425714Y-79481904D02*
X118092380Y-79481904D01*
X117044761Y-79720000D02*
X117759047Y-79958095D01*
X117759047Y-79339047D01*
X117092380Y-78767619D02*
X117092380Y-78672380D01*
X117140000Y-78577142D01*
X117187619Y-78529523D01*
X117282857Y-78481904D01*
X117473333Y-78434285D01*
X117711428Y-78434285D01*
X117901904Y-78481904D01*
X117997142Y-78529523D01*
X118044761Y-78577142D01*
X118092380Y-78672380D01*
X118092380Y-78767619D01*
X118044761Y-78862857D01*
X117997142Y-78910476D01*
X117901904Y-78958095D01*
X117711428Y-79005714D01*
X117473333Y-79005714D01*
X117282857Y-78958095D01*
X117187619Y-78910476D01*
X117140000Y-78862857D01*
X117092380Y-78767619D01*
X118092380Y-77481904D02*
X118092380Y-78053333D01*
X118092380Y-77767619D02*
X117092380Y-77767619D01*
X117235238Y-77862857D01*
X117330476Y-77958095D01*
X117378095Y-78053333D01*
X117997142Y-70839047D02*
X118044761Y-70886666D01*
X118092380Y-71029523D01*
X118092380Y-71124761D01*
X118044761Y-71267619D01*
X117949523Y-71362857D01*
X117854285Y-71410476D01*
X117663809Y-71458095D01*
X117520952Y-71458095D01*
X117330476Y-71410476D01*
X117235238Y-71362857D01*
X117140000Y-71267619D01*
X117092380Y-71124761D01*
X117092380Y-71029523D01*
X117140000Y-70886666D01*
X117187619Y-70839047D01*
X117425714Y-69981904D02*
X118092380Y-69981904D01*
X117044761Y-70220000D02*
X117759047Y-70458095D01*
X117759047Y-69839047D01*
X117092380Y-69267619D02*
X117092380Y-69172380D01*
X117140000Y-69077142D01*
X117187619Y-69029523D01*
X117282857Y-68981904D01*
X117473333Y-68934285D01*
X117711428Y-68934285D01*
X117901904Y-68981904D01*
X117997142Y-69029523D01*
X118044761Y-69077142D01*
X118092380Y-69172380D01*
X118092380Y-69267619D01*
X118044761Y-69362857D01*
X117997142Y-69410476D01*
X117901904Y-69458095D01*
X117711428Y-69505714D01*
X117473333Y-69505714D01*
X117282857Y-69458095D01*
X117187619Y-69410476D01*
X117140000Y-69362857D01*
X117092380Y-69267619D01*
X117187619Y-68553333D02*
X117140000Y-68505714D01*
X117092380Y-68410476D01*
X117092380Y-68172380D01*
X117140000Y-68077142D01*
X117187619Y-68029523D01*
X117282857Y-67981904D01*
X117378095Y-67981904D01*
X117520952Y-68029523D01*
X118092380Y-68600952D01*
X118092380Y-67981904D01*
X132297142Y-66689047D02*
X132344761Y-66736666D01*
X132392380Y-66879523D01*
X132392380Y-66974761D01*
X132344761Y-67117619D01*
X132249523Y-67212857D01*
X132154285Y-67260476D01*
X131963809Y-67308095D01*
X131820952Y-67308095D01*
X131630476Y-67260476D01*
X131535238Y-67212857D01*
X131440000Y-67117619D01*
X131392380Y-66974761D01*
X131392380Y-66879523D01*
X131440000Y-66736666D01*
X131487619Y-66689047D01*
X131725714Y-65831904D02*
X132392380Y-65831904D01*
X131344761Y-66070000D02*
X132059047Y-66308095D01*
X132059047Y-65689047D01*
X131392380Y-65117619D02*
X131392380Y-65022380D01*
X131440000Y-64927142D01*
X131487619Y-64879523D01*
X131582857Y-64831904D01*
X131773333Y-64784285D01*
X132011428Y-64784285D01*
X132201904Y-64831904D01*
X132297142Y-64879523D01*
X132344761Y-64927142D01*
X132392380Y-65022380D01*
X132392380Y-65117619D01*
X132344761Y-65212857D01*
X132297142Y-65260476D01*
X132201904Y-65308095D01*
X132011428Y-65355714D01*
X131773333Y-65355714D01*
X131582857Y-65308095D01*
X131487619Y-65260476D01*
X131440000Y-65212857D01*
X131392380Y-65117619D01*
X131392380Y-64450952D02*
X131392380Y-63831904D01*
X131773333Y-64165238D01*
X131773333Y-64022380D01*
X131820952Y-63927142D01*
X131868571Y-63879523D01*
X131963809Y-63831904D01*
X132201904Y-63831904D01*
X132297142Y-63879523D01*
X132344761Y-63927142D01*
X132392380Y-64022380D01*
X132392380Y-64308095D01*
X132344761Y-64403333D01*
X132297142Y-64450952D01*
X132197142Y-61289047D02*
X132244761Y-61336666D01*
X132292380Y-61479523D01*
X132292380Y-61574761D01*
X132244761Y-61717619D01*
X132149523Y-61812857D01*
X132054285Y-61860476D01*
X131863809Y-61908095D01*
X131720952Y-61908095D01*
X131530476Y-61860476D01*
X131435238Y-61812857D01*
X131340000Y-61717619D01*
X131292380Y-61574761D01*
X131292380Y-61479523D01*
X131340000Y-61336666D01*
X131387619Y-61289047D01*
X131625714Y-60431904D02*
X132292380Y-60431904D01*
X131244761Y-60670000D02*
X131959047Y-60908095D01*
X131959047Y-60289047D01*
X131292380Y-59717619D02*
X131292380Y-59622380D01*
X131340000Y-59527142D01*
X131387619Y-59479523D01*
X131482857Y-59431904D01*
X131673333Y-59384285D01*
X131911428Y-59384285D01*
X132101904Y-59431904D01*
X132197142Y-59479523D01*
X132244761Y-59527142D01*
X132292380Y-59622380D01*
X132292380Y-59717619D01*
X132244761Y-59812857D01*
X132197142Y-59860476D01*
X132101904Y-59908095D01*
X131911428Y-59955714D01*
X131673333Y-59955714D01*
X131482857Y-59908095D01*
X131387619Y-59860476D01*
X131340000Y-59812857D01*
X131292380Y-59717619D01*
X131625714Y-58527142D02*
X132292380Y-58527142D01*
X131244761Y-58765238D02*
X131959047Y-59003333D01*
X131959047Y-58384285D01*
X134390952Y-67137142D02*
X134343333Y-67184761D01*
X134200476Y-67232380D01*
X134105238Y-67232380D01*
X133962380Y-67184761D01*
X133867142Y-67089523D01*
X133819523Y-66994285D01*
X133771904Y-66803809D01*
X133771904Y-66660952D01*
X133819523Y-66470476D01*
X133867142Y-66375238D01*
X133962380Y-66280000D01*
X134105238Y-66232380D01*
X134200476Y-66232380D01*
X134343333Y-66280000D01*
X134390952Y-66327619D01*
X135248095Y-66565714D02*
X135248095Y-67232380D01*
X135010000Y-66184761D02*
X134771904Y-66899047D01*
X135390952Y-66899047D01*
X135962380Y-66232380D02*
X136057619Y-66232380D01*
X136152857Y-66280000D01*
X136200476Y-66327619D01*
X136248095Y-66422857D01*
X136295714Y-66613333D01*
X136295714Y-66851428D01*
X136248095Y-67041904D01*
X136200476Y-67137142D01*
X136152857Y-67184761D01*
X136057619Y-67232380D01*
X135962380Y-67232380D01*
X135867142Y-67184761D01*
X135819523Y-67137142D01*
X135771904Y-67041904D01*
X135724285Y-66851428D01*
X135724285Y-66613333D01*
X135771904Y-66422857D01*
X135819523Y-66327619D01*
X135867142Y-66280000D01*
X135962380Y-66232380D01*
X137200476Y-66232380D02*
X136724285Y-66232380D01*
X136676666Y-66708571D01*
X136724285Y-66660952D01*
X136819523Y-66613333D01*
X137057619Y-66613333D01*
X137152857Y-66660952D01*
X137200476Y-66708571D01*
X137248095Y-66803809D01*
X137248095Y-67041904D01*
X137200476Y-67137142D01*
X137152857Y-67184761D01*
X137057619Y-67232380D01*
X136819523Y-67232380D01*
X136724285Y-67184761D01*
X136676666Y-67137142D01*
X91957142Y-77169047D02*
X92004761Y-77216666D01*
X92052380Y-77359523D01*
X92052380Y-77454761D01*
X92004761Y-77597619D01*
X91909523Y-77692857D01*
X91814285Y-77740476D01*
X91623809Y-77788095D01*
X91480952Y-77788095D01*
X91290476Y-77740476D01*
X91195238Y-77692857D01*
X91100000Y-77597619D01*
X91052380Y-77454761D01*
X91052380Y-77359523D01*
X91100000Y-77216666D01*
X91147619Y-77169047D01*
X91052380Y-76264285D02*
X91052380Y-76740476D01*
X91528571Y-76788095D01*
X91480952Y-76740476D01*
X91433333Y-76645238D01*
X91433333Y-76407142D01*
X91480952Y-76311904D01*
X91528571Y-76264285D01*
X91623809Y-76216666D01*
X91861904Y-76216666D01*
X91957142Y-76264285D01*
X92004761Y-76311904D01*
X92052380Y-76407142D01*
X92052380Y-76645238D01*
X92004761Y-76740476D01*
X91957142Y-76788095D01*
X91052380Y-75597619D02*
X91052380Y-75502380D01*
X91100000Y-75407142D01*
X91147619Y-75359523D01*
X91242857Y-75311904D01*
X91433333Y-75264285D01*
X91671428Y-75264285D01*
X91861904Y-75311904D01*
X91957142Y-75359523D01*
X92004761Y-75407142D01*
X92052380Y-75502380D01*
X92052380Y-75597619D01*
X92004761Y-75692857D01*
X91957142Y-75740476D01*
X91861904Y-75788095D01*
X91671428Y-75835714D01*
X91433333Y-75835714D01*
X91242857Y-75788095D01*
X91147619Y-75740476D01*
X91100000Y-75692857D01*
X91052380Y-75597619D01*
X92052380Y-74311904D02*
X92052380Y-74883333D01*
X92052380Y-74597619D02*
X91052380Y-74597619D01*
X91195238Y-74692857D01*
X91290476Y-74788095D01*
X91338095Y-74883333D01*
X101957142Y-77169047D02*
X102004761Y-77216666D01*
X102052380Y-77359523D01*
X102052380Y-77454761D01*
X102004761Y-77597619D01*
X101909523Y-77692857D01*
X101814285Y-77740476D01*
X101623809Y-77788095D01*
X101480952Y-77788095D01*
X101290476Y-77740476D01*
X101195238Y-77692857D01*
X101100000Y-77597619D01*
X101052380Y-77454761D01*
X101052380Y-77359523D01*
X101100000Y-77216666D01*
X101147619Y-77169047D01*
X101052380Y-76264285D02*
X101052380Y-76740476D01*
X101528571Y-76788095D01*
X101480952Y-76740476D01*
X101433333Y-76645238D01*
X101433333Y-76407142D01*
X101480952Y-76311904D01*
X101528571Y-76264285D01*
X101623809Y-76216666D01*
X101861904Y-76216666D01*
X101957142Y-76264285D01*
X102004761Y-76311904D01*
X102052380Y-76407142D01*
X102052380Y-76645238D01*
X102004761Y-76740476D01*
X101957142Y-76788095D01*
X101052380Y-75597619D02*
X101052380Y-75502380D01*
X101100000Y-75407142D01*
X101147619Y-75359523D01*
X101242857Y-75311904D01*
X101433333Y-75264285D01*
X101671428Y-75264285D01*
X101861904Y-75311904D01*
X101957142Y-75359523D01*
X102004761Y-75407142D01*
X102052380Y-75502380D01*
X102052380Y-75597619D01*
X102004761Y-75692857D01*
X101957142Y-75740476D01*
X101861904Y-75788095D01*
X101671428Y-75835714D01*
X101433333Y-75835714D01*
X101242857Y-75788095D01*
X101147619Y-75740476D01*
X101100000Y-75692857D01*
X101052380Y-75597619D01*
X101147619Y-74883333D02*
X101100000Y-74835714D01*
X101052380Y-74740476D01*
X101052380Y-74502380D01*
X101100000Y-74407142D01*
X101147619Y-74359523D01*
X101242857Y-74311904D01*
X101338095Y-74311904D01*
X101480952Y-74359523D01*
X102052380Y-74930952D01*
X102052380Y-74311904D01*
X111957142Y-77169047D02*
X112004761Y-77216666D01*
X112052380Y-77359523D01*
X112052380Y-77454761D01*
X112004761Y-77597619D01*
X111909523Y-77692857D01*
X111814285Y-77740476D01*
X111623809Y-77788095D01*
X111480952Y-77788095D01*
X111290476Y-77740476D01*
X111195238Y-77692857D01*
X111100000Y-77597619D01*
X111052380Y-77454761D01*
X111052380Y-77359523D01*
X111100000Y-77216666D01*
X111147619Y-77169047D01*
X111052380Y-76264285D02*
X111052380Y-76740476D01*
X111528571Y-76788095D01*
X111480952Y-76740476D01*
X111433333Y-76645238D01*
X111433333Y-76407142D01*
X111480952Y-76311904D01*
X111528571Y-76264285D01*
X111623809Y-76216666D01*
X111861904Y-76216666D01*
X111957142Y-76264285D01*
X112004761Y-76311904D01*
X112052380Y-76407142D01*
X112052380Y-76645238D01*
X112004761Y-76740476D01*
X111957142Y-76788095D01*
X111052380Y-75597619D02*
X111052380Y-75502380D01*
X111100000Y-75407142D01*
X111147619Y-75359523D01*
X111242857Y-75311904D01*
X111433333Y-75264285D01*
X111671428Y-75264285D01*
X111861904Y-75311904D01*
X111957142Y-75359523D01*
X112004761Y-75407142D01*
X112052380Y-75502380D01*
X112052380Y-75597619D01*
X112004761Y-75692857D01*
X111957142Y-75740476D01*
X111861904Y-75788095D01*
X111671428Y-75835714D01*
X111433333Y-75835714D01*
X111242857Y-75788095D01*
X111147619Y-75740476D01*
X111100000Y-75692857D01*
X111052380Y-75597619D01*
X111052380Y-74930952D02*
X111052380Y-74311904D01*
X111433333Y-74645238D01*
X111433333Y-74502380D01*
X111480952Y-74407142D01*
X111528571Y-74359523D01*
X111623809Y-74311904D01*
X111861904Y-74311904D01*
X111957142Y-74359523D01*
X112004761Y-74407142D01*
X112052380Y-74502380D01*
X112052380Y-74788095D01*
X112004761Y-74883333D01*
X111957142Y-74930952D01*
X136931952Y-70516380D02*
X136455761Y-70516380D01*
X136455761Y-69516380D01*
X137693857Y-69849714D02*
X137693857Y-70516380D01*
X137455761Y-69468761D02*
X137217666Y-70183047D01*
X137836714Y-70183047D01*
X138408142Y-69516380D02*
X138503380Y-69516380D01*
X138598619Y-69564000D01*
X138646238Y-69611619D01*
X138693857Y-69706857D01*
X138741476Y-69897333D01*
X138741476Y-70135428D01*
X138693857Y-70325904D01*
X138646238Y-70421142D01*
X138598619Y-70468761D01*
X138503380Y-70516380D01*
X138408142Y-70516380D01*
X138312904Y-70468761D01*
X138265285Y-70421142D01*
X138217666Y-70325904D01*
X138170047Y-70135428D01*
X138170047Y-69897333D01*
X138217666Y-69706857D01*
X138265285Y-69611619D01*
X138312904Y-69564000D01*
X138408142Y-69516380D01*
X139693857Y-70516380D02*
X139122428Y-70516380D01*
X139408142Y-70516380D02*
X139408142Y-69516380D01*
X139312904Y-69659238D01*
X139217666Y-69754476D01*
X139122428Y-69802095D01*
X211960423Y-48350840D02*
X211960423Y-47350840D01*
X212341376Y-47350840D01*
X212436614Y-47398460D01*
X212484233Y-47446079D01*
X212531852Y-47541317D01*
X212531852Y-47684174D01*
X212484233Y-47779412D01*
X212436614Y-47827031D01*
X212341376Y-47874650D01*
X211960423Y-47874650D01*
X212865185Y-47350840D02*
X213484233Y-47350840D01*
X213150900Y-47731793D01*
X213293757Y-47731793D01*
X213388995Y-47779412D01*
X213436614Y-47827031D01*
X213484233Y-47922269D01*
X213484233Y-48160364D01*
X213436614Y-48255602D01*
X213388995Y-48303221D01*
X213293757Y-48350840D01*
X213008042Y-48350840D01*
X212912804Y-48303221D01*
X212865185Y-48255602D01*
X214103280Y-47350840D02*
X214198519Y-47350840D01*
X214293757Y-47398460D01*
X214341376Y-47446079D01*
X214388995Y-47541317D01*
X214436614Y-47731793D01*
X214436614Y-47969888D01*
X214388995Y-48160364D01*
X214341376Y-48255602D01*
X214293757Y-48303221D01*
X214198519Y-48350840D01*
X214103280Y-48350840D01*
X214008042Y-48303221D01*
X213960423Y-48255602D01*
X213912804Y-48160364D01*
X213865185Y-47969888D01*
X213865185Y-47731793D01*
X213912804Y-47541317D01*
X213960423Y-47446079D01*
X214008042Y-47398460D01*
X214103280Y-47350840D01*
X215388995Y-48350840D02*
X214817566Y-48350840D01*
X215103280Y-48350840D02*
X215103280Y-47350840D01*
X215008042Y-47493698D01*
X214912804Y-47588936D01*
X214817566Y-47636555D01*
X87230380Y-77314819D02*
X87135142Y-77267200D01*
X87039904Y-77171961D01*
X86897047Y-77029104D01*
X86801809Y-76981485D01*
X86706571Y-76981485D01*
X86754190Y-77219580D02*
X86658952Y-77171961D01*
X86563714Y-77076723D01*
X86516095Y-76886247D01*
X86516095Y-76552914D01*
X86563714Y-76362438D01*
X86658952Y-76267200D01*
X86754190Y-76219580D01*
X86944666Y-76219580D01*
X87039904Y-76267200D01*
X87135142Y-76362438D01*
X87182761Y-76552914D01*
X87182761Y-76886247D01*
X87135142Y-77076723D01*
X87039904Y-77171961D01*
X86944666Y-77219580D01*
X86754190Y-77219580D01*
X88087523Y-76219580D02*
X87611333Y-76219580D01*
X87563714Y-76695771D01*
X87611333Y-76648152D01*
X87706571Y-76600533D01*
X87944666Y-76600533D01*
X88039904Y-76648152D01*
X88087523Y-76695771D01*
X88135142Y-76791009D01*
X88135142Y-77029104D01*
X88087523Y-77124342D01*
X88039904Y-77171961D01*
X87944666Y-77219580D01*
X87706571Y-77219580D01*
X87611333Y-77171961D01*
X87563714Y-77124342D01*
X88754190Y-76219580D02*
X88849428Y-76219580D01*
X88944666Y-76267200D01*
X88992285Y-76314819D01*
X89039904Y-76410057D01*
X89087523Y-76600533D01*
X89087523Y-76838628D01*
X89039904Y-77029104D01*
X88992285Y-77124342D01*
X88944666Y-77171961D01*
X88849428Y-77219580D01*
X88754190Y-77219580D01*
X88658952Y-77171961D01*
X88611333Y-77124342D01*
X88563714Y-77029104D01*
X88516095Y-76838628D01*
X88516095Y-76600533D01*
X88563714Y-76410057D01*
X88611333Y-76314819D01*
X88658952Y-76267200D01*
X88754190Y-76219580D01*
X90039904Y-77219580D02*
X89468476Y-77219580D01*
X89754190Y-77219580D02*
X89754190Y-76219580D01*
X89658952Y-76362438D01*
X89563714Y-76457676D01*
X89468476Y-76505295D01*
X97230380Y-77314819D02*
X97135142Y-77267200D01*
X97039904Y-77171961D01*
X96897047Y-77029104D01*
X96801809Y-76981485D01*
X96706571Y-76981485D01*
X96754190Y-77219580D02*
X96658952Y-77171961D01*
X96563714Y-77076723D01*
X96516095Y-76886247D01*
X96516095Y-76552914D01*
X96563714Y-76362438D01*
X96658952Y-76267200D01*
X96754190Y-76219580D01*
X96944666Y-76219580D01*
X97039904Y-76267200D01*
X97135142Y-76362438D01*
X97182761Y-76552914D01*
X97182761Y-76886247D01*
X97135142Y-77076723D01*
X97039904Y-77171961D01*
X96944666Y-77219580D01*
X96754190Y-77219580D01*
X98087523Y-76219580D02*
X97611333Y-76219580D01*
X97563714Y-76695771D01*
X97611333Y-76648152D01*
X97706571Y-76600533D01*
X97944666Y-76600533D01*
X98039904Y-76648152D01*
X98087523Y-76695771D01*
X98135142Y-76791009D01*
X98135142Y-77029104D01*
X98087523Y-77124342D01*
X98039904Y-77171961D01*
X97944666Y-77219580D01*
X97706571Y-77219580D01*
X97611333Y-77171961D01*
X97563714Y-77124342D01*
X98754190Y-76219580D02*
X98849428Y-76219580D01*
X98944666Y-76267200D01*
X98992285Y-76314819D01*
X99039904Y-76410057D01*
X99087523Y-76600533D01*
X99087523Y-76838628D01*
X99039904Y-77029104D01*
X98992285Y-77124342D01*
X98944666Y-77171961D01*
X98849428Y-77219580D01*
X98754190Y-77219580D01*
X98658952Y-77171961D01*
X98611333Y-77124342D01*
X98563714Y-77029104D01*
X98516095Y-76838628D01*
X98516095Y-76600533D01*
X98563714Y-76410057D01*
X98611333Y-76314819D01*
X98658952Y-76267200D01*
X98754190Y-76219580D01*
X99468476Y-76314819D02*
X99516095Y-76267200D01*
X99611333Y-76219580D01*
X99849428Y-76219580D01*
X99944666Y-76267200D01*
X99992285Y-76314819D01*
X100039904Y-76410057D01*
X100039904Y-76505295D01*
X99992285Y-76648152D01*
X99420857Y-77219580D01*
X100039904Y-77219580D01*
X107230380Y-77314819D02*
X107135142Y-77267200D01*
X107039904Y-77171961D01*
X106897047Y-77029104D01*
X106801809Y-76981485D01*
X106706571Y-76981485D01*
X106754190Y-77219580D02*
X106658952Y-77171961D01*
X106563714Y-77076723D01*
X106516095Y-76886247D01*
X106516095Y-76552914D01*
X106563714Y-76362438D01*
X106658952Y-76267200D01*
X106754190Y-76219580D01*
X106944666Y-76219580D01*
X107039904Y-76267200D01*
X107135142Y-76362438D01*
X107182761Y-76552914D01*
X107182761Y-76886247D01*
X107135142Y-77076723D01*
X107039904Y-77171961D01*
X106944666Y-77219580D01*
X106754190Y-77219580D01*
X108087523Y-76219580D02*
X107611333Y-76219580D01*
X107563714Y-76695771D01*
X107611333Y-76648152D01*
X107706571Y-76600533D01*
X107944666Y-76600533D01*
X108039904Y-76648152D01*
X108087523Y-76695771D01*
X108135142Y-76791009D01*
X108135142Y-77029104D01*
X108087523Y-77124342D01*
X108039904Y-77171961D01*
X107944666Y-77219580D01*
X107706571Y-77219580D01*
X107611333Y-77171961D01*
X107563714Y-77124342D01*
X108754190Y-76219580D02*
X108849428Y-76219580D01*
X108944666Y-76267200D01*
X108992285Y-76314819D01*
X109039904Y-76410057D01*
X109087523Y-76600533D01*
X109087523Y-76838628D01*
X109039904Y-77029104D01*
X108992285Y-77124342D01*
X108944666Y-77171961D01*
X108849428Y-77219580D01*
X108754190Y-77219580D01*
X108658952Y-77171961D01*
X108611333Y-77124342D01*
X108563714Y-77029104D01*
X108516095Y-76838628D01*
X108516095Y-76600533D01*
X108563714Y-76410057D01*
X108611333Y-76314819D01*
X108658952Y-76267200D01*
X108754190Y-76219580D01*
X109420857Y-76219580D02*
X110039904Y-76219580D01*
X109706571Y-76600533D01*
X109849428Y-76600533D01*
X109944666Y-76648152D01*
X109992285Y-76695771D01*
X110039904Y-76791009D01*
X110039904Y-77029104D01*
X109992285Y-77124342D01*
X109944666Y-77171961D01*
X109849428Y-77219580D01*
X109563714Y-77219580D01*
X109468476Y-77171961D01*
X109420857Y-77124342D01*
X88380952Y-60552380D02*
X88047619Y-60076190D01*
X87809523Y-60552380D02*
X87809523Y-59552380D01*
X88190476Y-59552380D01*
X88285714Y-59600000D01*
X88333333Y-59647619D01*
X88380952Y-59742857D01*
X88380952Y-59885714D01*
X88333333Y-59980952D01*
X88285714Y-60028571D01*
X88190476Y-60076190D01*
X87809523Y-60076190D01*
X89285714Y-59552380D02*
X88809523Y-59552380D01*
X88761904Y-60028571D01*
X88809523Y-59980952D01*
X88904761Y-59933333D01*
X89142857Y-59933333D01*
X89238095Y-59980952D01*
X89285714Y-60028571D01*
X89333333Y-60123809D01*
X89333333Y-60361904D01*
X89285714Y-60457142D01*
X89238095Y-60504761D01*
X89142857Y-60552380D01*
X88904761Y-60552380D01*
X88809523Y-60504761D01*
X88761904Y-60457142D01*
X89952380Y-59552380D02*
X90047619Y-59552380D01*
X90142857Y-59600000D01*
X90190476Y-59647619D01*
X90238095Y-59742857D01*
X90285714Y-59933333D01*
X90285714Y-60171428D01*
X90238095Y-60361904D01*
X90190476Y-60457142D01*
X90142857Y-60504761D01*
X90047619Y-60552380D01*
X89952380Y-60552380D01*
X89857142Y-60504761D01*
X89809523Y-60457142D01*
X89761904Y-60361904D01*
X89714285Y-60171428D01*
X89714285Y-59933333D01*
X89761904Y-59742857D01*
X89809523Y-59647619D01*
X89857142Y-59600000D01*
X89952380Y-59552380D01*
X91238095Y-60552380D02*
X90666666Y-60552380D01*
X90952380Y-60552380D02*
X90952380Y-59552380D01*
X90857142Y-59695238D01*
X90761904Y-59790476D01*
X90666666Y-59838095D01*
X98480952Y-60552380D02*
X98147619Y-60076190D01*
X97909523Y-60552380D02*
X97909523Y-59552380D01*
X98290476Y-59552380D01*
X98385714Y-59600000D01*
X98433333Y-59647619D01*
X98480952Y-59742857D01*
X98480952Y-59885714D01*
X98433333Y-59980952D01*
X98385714Y-60028571D01*
X98290476Y-60076190D01*
X97909523Y-60076190D01*
X99385714Y-59552380D02*
X98909523Y-59552380D01*
X98861904Y-60028571D01*
X98909523Y-59980952D01*
X99004761Y-59933333D01*
X99242857Y-59933333D01*
X99338095Y-59980952D01*
X99385714Y-60028571D01*
X99433333Y-60123809D01*
X99433333Y-60361904D01*
X99385714Y-60457142D01*
X99338095Y-60504761D01*
X99242857Y-60552380D01*
X99004761Y-60552380D01*
X98909523Y-60504761D01*
X98861904Y-60457142D01*
X100052380Y-59552380D02*
X100147619Y-59552380D01*
X100242857Y-59600000D01*
X100290476Y-59647619D01*
X100338095Y-59742857D01*
X100385714Y-59933333D01*
X100385714Y-60171428D01*
X100338095Y-60361904D01*
X100290476Y-60457142D01*
X100242857Y-60504761D01*
X100147619Y-60552380D01*
X100052380Y-60552380D01*
X99957142Y-60504761D01*
X99909523Y-60457142D01*
X99861904Y-60361904D01*
X99814285Y-60171428D01*
X99814285Y-59933333D01*
X99861904Y-59742857D01*
X99909523Y-59647619D01*
X99957142Y-59600000D01*
X100052380Y-59552380D01*
X100766666Y-59647619D02*
X100814285Y-59600000D01*
X100909523Y-59552380D01*
X101147619Y-59552380D01*
X101242857Y-59600000D01*
X101290476Y-59647619D01*
X101338095Y-59742857D01*
X101338095Y-59838095D01*
X101290476Y-59980952D01*
X100719047Y-60552380D01*
X101338095Y-60552380D01*
X108380952Y-60552380D02*
X108047619Y-60076190D01*
X107809523Y-60552380D02*
X107809523Y-59552380D01*
X108190476Y-59552380D01*
X108285714Y-59600000D01*
X108333333Y-59647619D01*
X108380952Y-59742857D01*
X108380952Y-59885714D01*
X108333333Y-59980952D01*
X108285714Y-60028571D01*
X108190476Y-60076190D01*
X107809523Y-60076190D01*
X109285714Y-59552380D02*
X108809523Y-59552380D01*
X108761904Y-60028571D01*
X108809523Y-59980952D01*
X108904761Y-59933333D01*
X109142857Y-59933333D01*
X109238095Y-59980952D01*
X109285714Y-60028571D01*
X109333333Y-60123809D01*
X109333333Y-60361904D01*
X109285714Y-60457142D01*
X109238095Y-60504761D01*
X109142857Y-60552380D01*
X108904761Y-60552380D01*
X108809523Y-60504761D01*
X108761904Y-60457142D01*
X109952380Y-59552380D02*
X110047619Y-59552380D01*
X110142857Y-59600000D01*
X110190476Y-59647619D01*
X110238095Y-59742857D01*
X110285714Y-59933333D01*
X110285714Y-60171428D01*
X110238095Y-60361904D01*
X110190476Y-60457142D01*
X110142857Y-60504761D01*
X110047619Y-60552380D01*
X109952380Y-60552380D01*
X109857142Y-60504761D01*
X109809523Y-60457142D01*
X109761904Y-60361904D01*
X109714285Y-60171428D01*
X109714285Y-59933333D01*
X109761904Y-59742857D01*
X109809523Y-59647619D01*
X109857142Y-59600000D01*
X109952380Y-59552380D01*
X110619047Y-59552380D02*
X111238095Y-59552380D01*
X110904761Y-59933333D01*
X111047619Y-59933333D01*
X111142857Y-59980952D01*
X111190476Y-60028571D01*
X111238095Y-60123809D01*
X111238095Y-60361904D01*
X111190476Y-60457142D01*
X111142857Y-60504761D01*
X111047619Y-60552380D01*
X110761904Y-60552380D01*
X110666666Y-60504761D01*
X110619047Y-60457142D01*
X180501714Y-55332380D02*
X180501714Y-56141904D01*
X180549333Y-56237142D01*
X180596952Y-56284761D01*
X180692190Y-56332380D01*
X180882666Y-56332380D01*
X180977904Y-56284761D01*
X181025523Y-56237142D01*
X181073142Y-56141904D01*
X181073142Y-55332380D01*
X181454095Y-55332380D02*
X182073142Y-55332380D01*
X181739809Y-55713333D01*
X181882666Y-55713333D01*
X181977904Y-55760952D01*
X182025523Y-55808571D01*
X182073142Y-55903809D01*
X182073142Y-56141904D01*
X182025523Y-56237142D01*
X181977904Y-56284761D01*
X181882666Y-56332380D01*
X181596952Y-56332380D01*
X181501714Y-56284761D01*
X181454095Y-56237142D01*
X182692190Y-55332380D02*
X182787428Y-55332380D01*
X182882666Y-55380000D01*
X182930285Y-55427619D01*
X182977904Y-55522857D01*
X183025523Y-55713333D01*
X183025523Y-55951428D01*
X182977904Y-56141904D01*
X182930285Y-56237142D01*
X182882666Y-56284761D01*
X182787428Y-56332380D01*
X182692190Y-56332380D01*
X182596952Y-56284761D01*
X182549333Y-56237142D01*
X182501714Y-56141904D01*
X182454095Y-55951428D01*
X182454095Y-55713333D01*
X182501714Y-55522857D01*
X182549333Y-55427619D01*
X182596952Y-55380000D01*
X182692190Y-55332380D01*
X183406476Y-55427619D02*
X183454095Y-55380000D01*
X183549333Y-55332380D01*
X183787428Y-55332380D01*
X183882666Y-55380000D01*
X183930285Y-55427619D01*
X183977904Y-55522857D01*
X183977904Y-55618095D01*
X183930285Y-55760952D01*
X183358857Y-56332380D01*
X183977904Y-56332380D01*
X114462380Y-66112285D02*
X115271904Y-66112285D01*
X115367142Y-66064666D01*
X115414761Y-66017047D01*
X115462380Y-65921809D01*
X115462380Y-65731333D01*
X115414761Y-65636095D01*
X115367142Y-65588476D01*
X115271904Y-65540857D01*
X114462380Y-65540857D01*
X114795714Y-64636095D02*
X115462380Y-64636095D01*
X114414761Y-64874190D02*
X115129047Y-65112285D01*
X115129047Y-64493238D01*
X114462380Y-63921809D02*
X114462380Y-63826571D01*
X114510000Y-63731333D01*
X114557619Y-63683714D01*
X114652857Y-63636095D01*
X114843333Y-63588476D01*
X115081428Y-63588476D01*
X115271904Y-63636095D01*
X115367142Y-63683714D01*
X115414761Y-63731333D01*
X115462380Y-63826571D01*
X115462380Y-63921809D01*
X115414761Y-64017047D01*
X115367142Y-64064666D01*
X115271904Y-64112285D01*
X115081428Y-64159904D01*
X114843333Y-64159904D01*
X114652857Y-64112285D01*
X114557619Y-64064666D01*
X114510000Y-64017047D01*
X114462380Y-63921809D01*
X115462380Y-62636095D02*
X115462380Y-63207523D01*
X115462380Y-62921809D02*
X114462380Y-62921809D01*
X114605238Y-63017047D01*
X114700476Y-63112285D01*
X114748095Y-63207523D01*
X139592380Y-84310476D02*
X138592380Y-84310476D01*
X138592380Y-84072380D01*
X138640000Y-83929523D01*
X138735238Y-83834285D01*
X138830476Y-83786666D01*
X139020952Y-83739047D01*
X139163809Y-83739047D01*
X139354285Y-83786666D01*
X139449523Y-83834285D01*
X139544761Y-83929523D01*
X139592380Y-84072380D01*
X139592380Y-84310476D01*
X138925714Y-82881904D02*
X139592380Y-82881904D01*
X138544761Y-83120000D02*
X139259047Y-83358095D01*
X139259047Y-82739047D01*
X138592380Y-82167619D02*
X138592380Y-82072380D01*
X138640000Y-81977142D01*
X138687619Y-81929523D01*
X138782857Y-81881904D01*
X138973333Y-81834285D01*
X139211428Y-81834285D01*
X139401904Y-81881904D01*
X139497142Y-81929523D01*
X139544761Y-81977142D01*
X139592380Y-82072380D01*
X139592380Y-82167619D01*
X139544761Y-82262857D01*
X139497142Y-82310476D01*
X139401904Y-82358095D01*
X139211428Y-82405714D01*
X138973333Y-82405714D01*
X138782857Y-82358095D01*
X138687619Y-82310476D01*
X138640000Y-82262857D01*
X138592380Y-82167619D01*
X139592380Y-80881904D02*
X139592380Y-81453333D01*
X139592380Y-81167619D02*
X138592380Y-81167619D01*
X138735238Y-81262857D01*
X138830476Y-81358095D01*
X138878095Y-81453333D01*
X83252380Y-85190476D02*
X82252380Y-85190476D01*
X82252380Y-84952380D01*
X82300000Y-84809523D01*
X82395238Y-84714285D01*
X82490476Y-84666666D01*
X82680952Y-84619047D01*
X82823809Y-84619047D01*
X83014285Y-84666666D01*
X83109523Y-84714285D01*
X83204761Y-84809523D01*
X83252380Y-84952380D01*
X83252380Y-85190476D01*
X82252380Y-83714285D02*
X82252380Y-84190476D01*
X82728571Y-84238095D01*
X82680952Y-84190476D01*
X82633333Y-84095238D01*
X82633333Y-83857142D01*
X82680952Y-83761904D01*
X82728571Y-83714285D01*
X82823809Y-83666666D01*
X83061904Y-83666666D01*
X83157142Y-83714285D01*
X83204761Y-83761904D01*
X83252380Y-83857142D01*
X83252380Y-84095238D01*
X83204761Y-84190476D01*
X83157142Y-84238095D01*
X82252380Y-83047619D02*
X82252380Y-82952380D01*
X82300000Y-82857142D01*
X82347619Y-82809523D01*
X82442857Y-82761904D01*
X82633333Y-82714285D01*
X82871428Y-82714285D01*
X83061904Y-82761904D01*
X83157142Y-82809523D01*
X83204761Y-82857142D01*
X83252380Y-82952380D01*
X83252380Y-83047619D01*
X83204761Y-83142857D01*
X83157142Y-83190476D01*
X83061904Y-83238095D01*
X82871428Y-83285714D01*
X82633333Y-83285714D01*
X82442857Y-83238095D01*
X82347619Y-83190476D01*
X82300000Y-83142857D01*
X82252380Y-83047619D01*
X83252380Y-81761904D02*
X83252380Y-82333333D01*
X83252380Y-82047619D02*
X82252380Y-82047619D01*
X82395238Y-82142857D01*
X82490476Y-82238095D01*
X82538095Y-82333333D01*
X93252380Y-85190476D02*
X92252380Y-85190476D01*
X92252380Y-84952380D01*
X92300000Y-84809523D01*
X92395238Y-84714285D01*
X92490476Y-84666666D01*
X92680952Y-84619047D01*
X92823809Y-84619047D01*
X93014285Y-84666666D01*
X93109523Y-84714285D01*
X93204761Y-84809523D01*
X93252380Y-84952380D01*
X93252380Y-85190476D01*
X92252380Y-83714285D02*
X92252380Y-84190476D01*
X92728571Y-84238095D01*
X92680952Y-84190476D01*
X92633333Y-84095238D01*
X92633333Y-83857142D01*
X92680952Y-83761904D01*
X92728571Y-83714285D01*
X92823809Y-83666666D01*
X93061904Y-83666666D01*
X93157142Y-83714285D01*
X93204761Y-83761904D01*
X93252380Y-83857142D01*
X93252380Y-84095238D01*
X93204761Y-84190476D01*
X93157142Y-84238095D01*
X92252380Y-83047619D02*
X92252380Y-82952380D01*
X92300000Y-82857142D01*
X92347619Y-82809523D01*
X92442857Y-82761904D01*
X92633333Y-82714285D01*
X92871428Y-82714285D01*
X93061904Y-82761904D01*
X93157142Y-82809523D01*
X93204761Y-82857142D01*
X93252380Y-82952380D01*
X93252380Y-83047619D01*
X93204761Y-83142857D01*
X93157142Y-83190476D01*
X93061904Y-83238095D01*
X92871428Y-83285714D01*
X92633333Y-83285714D01*
X92442857Y-83238095D01*
X92347619Y-83190476D01*
X92300000Y-83142857D01*
X92252380Y-83047619D01*
X92347619Y-82333333D02*
X92300000Y-82285714D01*
X92252380Y-82190476D01*
X92252380Y-81952380D01*
X92300000Y-81857142D01*
X92347619Y-81809523D01*
X92442857Y-81761904D01*
X92538095Y-81761904D01*
X92680952Y-81809523D01*
X93252380Y-82380952D01*
X93252380Y-81761904D01*
X103252380Y-85789416D02*
X102252380Y-85789416D01*
X102252380Y-85551320D01*
X102300000Y-85408463D01*
X102395238Y-85313225D01*
X102490476Y-85265606D01*
X102680952Y-85217987D01*
X102823809Y-85217987D01*
X103014285Y-85265606D01*
X103109523Y-85313225D01*
X103204761Y-85408463D01*
X103252380Y-85551320D01*
X103252380Y-85789416D01*
X102252380Y-84313225D02*
X102252380Y-84789416D01*
X102728571Y-84837035D01*
X102680952Y-84789416D01*
X102633333Y-84694178D01*
X102633333Y-84456082D01*
X102680952Y-84360844D01*
X102728571Y-84313225D01*
X102823809Y-84265606D01*
X103061904Y-84265606D01*
X103157142Y-84313225D01*
X103204761Y-84360844D01*
X103252380Y-84456082D01*
X103252380Y-84694178D01*
X103204761Y-84789416D01*
X103157142Y-84837035D01*
X102252380Y-83646559D02*
X102252380Y-83551320D01*
X102300000Y-83456082D01*
X102347619Y-83408463D01*
X102442857Y-83360844D01*
X102633333Y-83313225D01*
X102871428Y-83313225D01*
X103061904Y-83360844D01*
X103157142Y-83408463D01*
X103204761Y-83456082D01*
X103252380Y-83551320D01*
X103252380Y-83646559D01*
X103204761Y-83741797D01*
X103157142Y-83789416D01*
X103061904Y-83837035D01*
X102871428Y-83884654D01*
X102633333Y-83884654D01*
X102442857Y-83837035D01*
X102347619Y-83789416D01*
X102300000Y-83741797D01*
X102252380Y-83646559D01*
X102252380Y-82979892D02*
X102252380Y-82360844D01*
X102633333Y-82694178D01*
X102633333Y-82551320D01*
X102680952Y-82456082D01*
X102728571Y-82408463D01*
X102823809Y-82360844D01*
X103061904Y-82360844D01*
X103157142Y-82408463D01*
X103204761Y-82456082D01*
X103252380Y-82551320D01*
X103252380Y-82837035D01*
X103204761Y-82932273D01*
X103157142Y-82979892D01*
X157279273Y-53971497D02*
X157231654Y-54019116D01*
X157088797Y-54066735D01*
X156993559Y-54066735D01*
X156850701Y-54019116D01*
X156755463Y-53923878D01*
X156707844Y-53828640D01*
X156660225Y-53638164D01*
X156660225Y-53495307D01*
X156707844Y-53304831D01*
X156755463Y-53209593D01*
X156850701Y-53114355D01*
X156993559Y-53066735D01*
X157088797Y-53066735D01*
X157231654Y-53114355D01*
X157279273Y-53161974D01*
X158231654Y-54066735D02*
X157660225Y-54066735D01*
X157945940Y-54066735D02*
X157945940Y-53066735D01*
X157850701Y-53209593D01*
X157755463Y-53304831D01*
X157660225Y-53352450D01*
X158850701Y-53066735D02*
X158945940Y-53066735D01*
X159041178Y-53114355D01*
X159088797Y-53161974D01*
X159136416Y-53257212D01*
X159184035Y-53447688D01*
X159184035Y-53685783D01*
X159136416Y-53876259D01*
X159088797Y-53971497D01*
X159041178Y-54019116D01*
X158945940Y-54066735D01*
X158850701Y-54066735D01*
X158755463Y-54019116D01*
X158707844Y-53971497D01*
X158660225Y-53876259D01*
X158612606Y-53685783D01*
X158612606Y-53447688D01*
X158660225Y-53257212D01*
X158707844Y-53161974D01*
X158755463Y-53114355D01*
X158850701Y-53066735D01*
X160136416Y-54066735D02*
X159564987Y-54066735D01*
X159850701Y-54066735D02*
X159850701Y-53066735D01*
X159755463Y-53209593D01*
X159660225Y-53304831D01*
X159564987Y-53352450D01*
X157079273Y-52171497D02*
X157031654Y-52219116D01*
X156888797Y-52266735D01*
X156793559Y-52266735D01*
X156650701Y-52219116D01*
X156555463Y-52123878D01*
X156507844Y-52028640D01*
X156460225Y-51838164D01*
X156460225Y-51695307D01*
X156507844Y-51504831D01*
X156555463Y-51409593D01*
X156650701Y-51314355D01*
X156793559Y-51266735D01*
X156888797Y-51266735D01*
X157031654Y-51314355D01*
X157079273Y-51361974D01*
X158031654Y-52266735D02*
X157460225Y-52266735D01*
X157745940Y-52266735D02*
X157745940Y-51266735D01*
X157650701Y-51409593D01*
X157555463Y-51504831D01*
X157460225Y-51552450D01*
X158650701Y-51266735D02*
X158745940Y-51266735D01*
X158841178Y-51314355D01*
X158888797Y-51361974D01*
X158936416Y-51457212D01*
X158984035Y-51647688D01*
X158984035Y-51885783D01*
X158936416Y-52076259D01*
X158888797Y-52171497D01*
X158841178Y-52219116D01*
X158745940Y-52266735D01*
X158650701Y-52266735D01*
X158555463Y-52219116D01*
X158507844Y-52171497D01*
X158460225Y-52076259D01*
X158412606Y-51885783D01*
X158412606Y-51647688D01*
X158460225Y-51457212D01*
X158507844Y-51361974D01*
X158555463Y-51314355D01*
X158650701Y-51266735D01*
X159364987Y-51361974D02*
X159412606Y-51314355D01*
X159507844Y-51266735D01*
X159745940Y-51266735D01*
X159841178Y-51314355D01*
X159888797Y-51361974D01*
X159936416Y-51457212D01*
X159936416Y-51552450D01*
X159888797Y-51695307D01*
X159317368Y-52266735D01*
X159936416Y-52266735D01*
X91709523Y-62372380D02*
X91709523Y-61372380D01*
X92090476Y-61372380D01*
X92185714Y-61420000D01*
X92233333Y-61467619D01*
X92280952Y-61562857D01*
X92280952Y-61705714D01*
X92233333Y-61800952D01*
X92185714Y-61848571D01*
X92090476Y-61896190D01*
X91709523Y-61896190D01*
X93233333Y-62372380D02*
X92661904Y-62372380D01*
X92947619Y-62372380D02*
X92947619Y-61372380D01*
X92852380Y-61515238D01*
X92757142Y-61610476D01*
X92661904Y-61658095D01*
X93852380Y-61372380D02*
X93947619Y-61372380D01*
X94042857Y-61420000D01*
X94090476Y-61467619D01*
X94138095Y-61562857D01*
X94185714Y-61753333D01*
X94185714Y-61991428D01*
X94138095Y-62181904D01*
X94090476Y-62277142D01*
X94042857Y-62324761D01*
X93947619Y-62372380D01*
X93852380Y-62372380D01*
X93757142Y-62324761D01*
X93709523Y-62277142D01*
X93661904Y-62181904D01*
X93614285Y-61991428D01*
X93614285Y-61753333D01*
X93661904Y-61562857D01*
X93709523Y-61467619D01*
X93757142Y-61420000D01*
X93852380Y-61372380D01*
X95138095Y-62372380D02*
X94566666Y-62372380D01*
X94852380Y-62372380D02*
X94852380Y-61372380D01*
X94757142Y-61515238D01*
X94661904Y-61610476D01*
X94566666Y-61658095D01*
X160285714Y-65702380D02*
X160285714Y-66511904D01*
X160333333Y-66607142D01*
X160380952Y-66654761D01*
X160476190Y-66702380D01*
X160666666Y-66702380D01*
X160761904Y-66654761D01*
X160809523Y-66607142D01*
X160857142Y-66511904D01*
X160857142Y-65702380D01*
X161857142Y-66702380D02*
X161285714Y-66702380D01*
X161571428Y-66702380D02*
X161571428Y-65702380D01*
X161476190Y-65845238D01*
X161380952Y-65940476D01*
X161285714Y-65988095D01*
X162476190Y-65702380D02*
X162571428Y-65702380D01*
X162666666Y-65750000D01*
X162714285Y-65797619D01*
X162761904Y-65892857D01*
X162809523Y-66083333D01*
X162809523Y-66321428D01*
X162761904Y-66511904D01*
X162714285Y-66607142D01*
X162666666Y-66654761D01*
X162571428Y-66702380D01*
X162476190Y-66702380D01*
X162380952Y-66654761D01*
X162333333Y-66607142D01*
X162285714Y-66511904D01*
X162238095Y-66321428D01*
X162238095Y-66083333D01*
X162285714Y-65892857D01*
X162333333Y-65797619D01*
X162380952Y-65750000D01*
X162476190Y-65702380D01*
X163761904Y-66702380D02*
X163190476Y-66702380D01*
X163476190Y-66702380D02*
X163476190Y-65702380D01*
X163380952Y-65845238D01*
X163285714Y-65940476D01*
X163190476Y-65988095D01*
X203747380Y-88369047D02*
X203271190Y-88702380D01*
X203747380Y-88940476D02*
X202747380Y-88940476D01*
X202747380Y-88559523D01*
X202795000Y-88464285D01*
X202842619Y-88416666D01*
X202937857Y-88369047D01*
X203080714Y-88369047D01*
X203175952Y-88416666D01*
X203223571Y-88464285D01*
X203271190Y-88559523D01*
X203271190Y-88940476D01*
X203747380Y-87940476D02*
X202747380Y-87940476D01*
X202747380Y-87559523D01*
X202795000Y-87464285D01*
X202842619Y-87416666D01*
X202937857Y-87369047D01*
X203080714Y-87369047D01*
X203175952Y-87416666D01*
X203223571Y-87464285D01*
X203271190Y-87559523D01*
X203271190Y-87940476D01*
X202842619Y-86988095D02*
X202795000Y-86940476D01*
X202747380Y-86845238D01*
X202747380Y-86607142D01*
X202795000Y-86511904D01*
X202842619Y-86464285D01*
X202937857Y-86416666D01*
X203033095Y-86416666D01*
X203175952Y-86464285D01*
X203747380Y-87035714D01*
X203747380Y-86416666D01*
X202747380Y-85797619D02*
X202747380Y-85702380D01*
X202795000Y-85607142D01*
X202842619Y-85559523D01*
X202937857Y-85511904D01*
X203128333Y-85464285D01*
X203366428Y-85464285D01*
X203556904Y-85511904D01*
X203652142Y-85559523D01*
X203699761Y-85607142D01*
X203747380Y-85702380D01*
X203747380Y-85797619D01*
X203699761Y-85892857D01*
X203652142Y-85940476D01*
X203556904Y-85988095D01*
X203366428Y-86035714D01*
X203128333Y-86035714D01*
X202937857Y-85988095D01*
X202842619Y-85940476D01*
X202795000Y-85892857D01*
X202747380Y-85797619D01*
X203747380Y-84511904D02*
X203747380Y-85083333D01*
X203747380Y-84797619D02*
X202747380Y-84797619D01*
X202890238Y-84892857D01*
X202985476Y-84988095D01*
X203033095Y-85083333D01*
X167302380Y-88369047D02*
X166826190Y-88702380D01*
X167302380Y-88940476D02*
X166302380Y-88940476D01*
X166302380Y-88559523D01*
X166350000Y-88464285D01*
X166397619Y-88416666D01*
X166492857Y-88369047D01*
X166635714Y-88369047D01*
X166730952Y-88416666D01*
X166778571Y-88464285D01*
X166826190Y-88559523D01*
X166826190Y-88940476D01*
X167302380Y-87940476D02*
X166302380Y-87940476D01*
X166302380Y-87559523D01*
X166350000Y-87464285D01*
X166397619Y-87416666D01*
X166492857Y-87369047D01*
X166635714Y-87369047D01*
X166730952Y-87416666D01*
X166778571Y-87464285D01*
X166826190Y-87559523D01*
X166826190Y-87940476D01*
X166397619Y-86988095D02*
X166350000Y-86940476D01*
X166302380Y-86845238D01*
X166302380Y-86607142D01*
X166350000Y-86511904D01*
X166397619Y-86464285D01*
X166492857Y-86416666D01*
X166588095Y-86416666D01*
X166730952Y-86464285D01*
X167302380Y-87035714D01*
X167302380Y-86416666D01*
X166302380Y-85797619D02*
X166302380Y-85702380D01*
X166350000Y-85607142D01*
X166397619Y-85559523D01*
X166492857Y-85511904D01*
X166683333Y-85464285D01*
X166921428Y-85464285D01*
X167111904Y-85511904D01*
X167207142Y-85559523D01*
X167254761Y-85607142D01*
X167302380Y-85702380D01*
X167302380Y-85797619D01*
X167254761Y-85892857D01*
X167207142Y-85940476D01*
X167111904Y-85988095D01*
X166921428Y-86035714D01*
X166683333Y-86035714D01*
X166492857Y-85988095D01*
X166397619Y-85940476D01*
X166350000Y-85892857D01*
X166302380Y-85797619D01*
X166397619Y-85083333D02*
X166350000Y-85035714D01*
X166302380Y-84940476D01*
X166302380Y-84702380D01*
X166350000Y-84607142D01*
X166397619Y-84559523D01*
X166492857Y-84511904D01*
X166588095Y-84511904D01*
X166730952Y-84559523D01*
X167302380Y-85130952D01*
X167302380Y-84511904D01*
X194457380Y-73814285D02*
X195266904Y-73814285D01*
X195362142Y-73766666D01*
X195409761Y-73719047D01*
X195457380Y-73623809D01*
X195457380Y-73433333D01*
X195409761Y-73338095D01*
X195362142Y-73290476D01*
X195266904Y-73242857D01*
X194457380Y-73242857D01*
X194552619Y-72814285D02*
X194505000Y-72766666D01*
X194457380Y-72671428D01*
X194457380Y-72433333D01*
X194505000Y-72338095D01*
X194552619Y-72290476D01*
X194647857Y-72242857D01*
X194743095Y-72242857D01*
X194885952Y-72290476D01*
X195457380Y-72861904D01*
X195457380Y-72242857D01*
X194457380Y-71623809D02*
X194457380Y-71528571D01*
X194505000Y-71433333D01*
X194552619Y-71385714D01*
X194647857Y-71338095D01*
X194838333Y-71290476D01*
X195076428Y-71290476D01*
X195266904Y-71338095D01*
X195362142Y-71385714D01*
X195409761Y-71433333D01*
X195457380Y-71528571D01*
X195457380Y-71623809D01*
X195409761Y-71719047D01*
X195362142Y-71766666D01*
X195266904Y-71814285D01*
X195076428Y-71861904D01*
X194838333Y-71861904D01*
X194647857Y-71814285D01*
X194552619Y-71766666D01*
X194505000Y-71719047D01*
X194457380Y-71623809D01*
X194457380Y-70957142D02*
X194457380Y-70338095D01*
X194838333Y-70671428D01*
X194838333Y-70528571D01*
X194885952Y-70433333D01*
X194933571Y-70385714D01*
X195028809Y-70338095D01*
X195266904Y-70338095D01*
X195362142Y-70385714D01*
X195409761Y-70433333D01*
X195457380Y-70528571D01*
X195457380Y-70814285D01*
X195409761Y-70909523D01*
X195362142Y-70957142D01*
X161357142Y-75166666D02*
X161404761Y-75214285D01*
X161452380Y-75357142D01*
X161452380Y-75452380D01*
X161404761Y-75595238D01*
X161309523Y-75690476D01*
X161214285Y-75738095D01*
X161023809Y-75785714D01*
X160880952Y-75785714D01*
X160690476Y-75738095D01*
X160595238Y-75690476D01*
X160500000Y-75595238D01*
X160452380Y-75452380D01*
X160452380Y-75357142D01*
X160500000Y-75214285D01*
X160547619Y-75166666D01*
X161452380Y-74214285D02*
X161452380Y-74785714D01*
X161452380Y-74500000D02*
X160452380Y-74500000D01*
X160595238Y-74595238D01*
X160690476Y-74690476D01*
X160738095Y-74785714D01*
X172157142Y-69566666D02*
X172204761Y-69614285D01*
X172252380Y-69757142D01*
X172252380Y-69852380D01*
X172204761Y-69995238D01*
X172109523Y-70090476D01*
X172014285Y-70138095D01*
X171823809Y-70185714D01*
X171680952Y-70185714D01*
X171490476Y-70138095D01*
X171395238Y-70090476D01*
X171300000Y-69995238D01*
X171252380Y-69852380D01*
X171252380Y-69757142D01*
X171300000Y-69614285D01*
X171347619Y-69566666D01*
X171347619Y-69185714D02*
X171300000Y-69138095D01*
X171252380Y-69042857D01*
X171252380Y-68804761D01*
X171300000Y-68709523D01*
X171347619Y-68661904D01*
X171442857Y-68614285D01*
X171538095Y-68614285D01*
X171680952Y-68661904D01*
X172252380Y-69233333D01*
X172252380Y-68614285D01*
X203521942Y-76166666D02*
X203569561Y-76214285D01*
X203617180Y-76357142D01*
X203617180Y-76452380D01*
X203569561Y-76595238D01*
X203474323Y-76690476D01*
X203379085Y-76738095D01*
X203188609Y-76785714D01*
X203045752Y-76785714D01*
X202855276Y-76738095D01*
X202760038Y-76690476D01*
X202664800Y-76595238D01*
X202617180Y-76452380D01*
X202617180Y-76357142D01*
X202664800Y-76214285D01*
X202712419Y-76166666D01*
X202617180Y-75833333D02*
X202617180Y-75214285D01*
X202998133Y-75547619D01*
X202998133Y-75404761D01*
X203045752Y-75309523D01*
X203093371Y-75261904D01*
X203188609Y-75214285D01*
X203426704Y-75214285D01*
X203521942Y-75261904D01*
X203569561Y-75309523D01*
X203617180Y-75404761D01*
X203617180Y-75690476D01*
X203569561Y-75785714D01*
X203521942Y-75833333D01*
X202709523Y-93952380D02*
X202709523Y-92952380D01*
X203090476Y-92952380D01*
X203185714Y-93000000D01*
X203233333Y-93047619D01*
X203280952Y-93142857D01*
X203280952Y-93285714D01*
X203233333Y-93380952D01*
X203185714Y-93428571D01*
X203090476Y-93476190D01*
X202709523Y-93476190D01*
X203661904Y-93047619D02*
X203709523Y-93000000D01*
X203804761Y-92952380D01*
X204042857Y-92952380D01*
X204138095Y-93000000D01*
X204185714Y-93047619D01*
X204233333Y-93142857D01*
X204233333Y-93238095D01*
X204185714Y-93380952D01*
X203614285Y-93952380D01*
X204233333Y-93952380D01*
X204852380Y-92952380D02*
X204947619Y-92952380D01*
X205042857Y-93000000D01*
X205090476Y-93047619D01*
X205138095Y-93142857D01*
X205185714Y-93333333D01*
X205185714Y-93571428D01*
X205138095Y-93761904D01*
X205090476Y-93857142D01*
X205042857Y-93904761D01*
X204947619Y-93952380D01*
X204852380Y-93952380D01*
X204757142Y-93904761D01*
X204709523Y-93857142D01*
X204661904Y-93761904D01*
X204614285Y-93571428D01*
X204614285Y-93333333D01*
X204661904Y-93142857D01*
X204709523Y-93047619D01*
X204757142Y-93000000D01*
X204852380Y-92952380D01*
X206138095Y-93952380D02*
X205566666Y-93952380D01*
X205852380Y-93952380D02*
X205852380Y-92952380D01*
X205757142Y-93095238D01*
X205661904Y-93190476D01*
X205566666Y-93238095D01*
X137059523Y-93952380D02*
X137059523Y-92952380D01*
X137440476Y-92952380D01*
X137535714Y-93000000D01*
X137583333Y-93047619D01*
X137630952Y-93142857D01*
X137630952Y-93285714D01*
X137583333Y-93380952D01*
X137535714Y-93428571D01*
X137440476Y-93476190D01*
X137059523Y-93476190D01*
X138011904Y-93047619D02*
X138059523Y-93000000D01*
X138154761Y-92952380D01*
X138392857Y-92952380D01*
X138488095Y-93000000D01*
X138535714Y-93047619D01*
X138583333Y-93142857D01*
X138583333Y-93238095D01*
X138535714Y-93380952D01*
X137964285Y-93952380D01*
X138583333Y-93952380D01*
X139202380Y-92952380D02*
X139297619Y-92952380D01*
X139392857Y-93000000D01*
X139440476Y-93047619D01*
X139488095Y-93142857D01*
X139535714Y-93333333D01*
X139535714Y-93571428D01*
X139488095Y-93761904D01*
X139440476Y-93857142D01*
X139392857Y-93904761D01*
X139297619Y-93952380D01*
X139202380Y-93952380D01*
X139107142Y-93904761D01*
X139059523Y-93857142D01*
X139011904Y-93761904D01*
X138964285Y-93571428D01*
X138964285Y-93333333D01*
X139011904Y-93142857D01*
X139059523Y-93047619D01*
X139107142Y-93000000D01*
X139202380Y-92952380D01*
X139916666Y-93047619D02*
X139964285Y-93000000D01*
X140059523Y-92952380D01*
X140297619Y-92952380D01*
X140392857Y-93000000D01*
X140440476Y-93047619D01*
X140488095Y-93142857D01*
X140488095Y-93238095D01*
X140440476Y-93380952D01*
X139869047Y-93952380D01*
X140488095Y-93952380D01*
X189527380Y-55414285D02*
X190336904Y-55414285D01*
X190432142Y-55366666D01*
X190479761Y-55319047D01*
X190527380Y-55223809D01*
X190527380Y-55033333D01*
X190479761Y-54938095D01*
X190432142Y-54890476D01*
X190336904Y-54842857D01*
X189527380Y-54842857D01*
X189527380Y-54461904D02*
X189527380Y-53842857D01*
X189908333Y-54176190D01*
X189908333Y-54033333D01*
X189955952Y-53938095D01*
X190003571Y-53890476D01*
X190098809Y-53842857D01*
X190336904Y-53842857D01*
X190432142Y-53890476D01*
X190479761Y-53938095D01*
X190527380Y-54033333D01*
X190527380Y-54319047D01*
X190479761Y-54414285D01*
X190432142Y-54461904D01*
X189527380Y-53223809D02*
X189527380Y-53128571D01*
X189575000Y-53033333D01*
X189622619Y-52985714D01*
X189717857Y-52938095D01*
X189908333Y-52890476D01*
X190146428Y-52890476D01*
X190336904Y-52938095D01*
X190432142Y-52985714D01*
X190479761Y-53033333D01*
X190527380Y-53128571D01*
X190527380Y-53223809D01*
X190479761Y-53319047D01*
X190432142Y-53366666D01*
X190336904Y-53414285D01*
X190146428Y-53461904D01*
X189908333Y-53461904D01*
X189717857Y-53414285D01*
X189622619Y-53366666D01*
X189575000Y-53319047D01*
X189527380Y-53223809D01*
X190527380Y-51938095D02*
X190527380Y-52509523D01*
X190527380Y-52223809D02*
X189527380Y-52223809D01*
X189670238Y-52319047D01*
X189765476Y-52414285D01*
X189813095Y-52509523D01*
X112709523Y-93952380D02*
X112709523Y-92952380D01*
X113090476Y-92952380D01*
X113185714Y-93000000D01*
X113233333Y-93047619D01*
X113280952Y-93142857D01*
X113280952Y-93285714D01*
X113233333Y-93380952D01*
X113185714Y-93428571D01*
X113090476Y-93476190D01*
X112709523Y-93476190D01*
X113614285Y-92952380D02*
X114233333Y-92952380D01*
X113900000Y-93333333D01*
X114042857Y-93333333D01*
X114138095Y-93380952D01*
X114185714Y-93428571D01*
X114233333Y-93523809D01*
X114233333Y-93761904D01*
X114185714Y-93857142D01*
X114138095Y-93904761D01*
X114042857Y-93952380D01*
X113757142Y-93952380D01*
X113661904Y-93904761D01*
X113614285Y-93857142D01*
X114852380Y-92952380D02*
X114947619Y-92952380D01*
X115042857Y-93000000D01*
X115090476Y-93047619D01*
X115138095Y-93142857D01*
X115185714Y-93333333D01*
X115185714Y-93571428D01*
X115138095Y-93761904D01*
X115090476Y-93857142D01*
X115042857Y-93904761D01*
X114947619Y-93952380D01*
X114852380Y-93952380D01*
X114757142Y-93904761D01*
X114709523Y-93857142D01*
X114661904Y-93761904D01*
X114614285Y-93571428D01*
X114614285Y-93333333D01*
X114661904Y-93142857D01*
X114709523Y-93047619D01*
X114757142Y-93000000D01*
X114852380Y-92952380D01*
X115566666Y-93047619D02*
X115614285Y-93000000D01*
X115709523Y-92952380D01*
X115947619Y-92952380D01*
X116042857Y-93000000D01*
X116090476Y-93047619D01*
X116138095Y-93142857D01*
X116138095Y-93238095D01*
X116090476Y-93380952D01*
X115519047Y-93952380D01*
X116138095Y-93952380D01*
X124059523Y-93952380D02*
X124059523Y-92952380D01*
X124440476Y-92952380D01*
X124535714Y-93000000D01*
X124583333Y-93047619D01*
X124630952Y-93142857D01*
X124630952Y-93285714D01*
X124583333Y-93380952D01*
X124535714Y-93428571D01*
X124440476Y-93476190D01*
X124059523Y-93476190D01*
X125488095Y-93285714D02*
X125488095Y-93952380D01*
X125250000Y-92904761D02*
X125011904Y-93619047D01*
X125630952Y-93619047D01*
X126202380Y-92952380D02*
X126297619Y-92952380D01*
X126392857Y-93000000D01*
X126440476Y-93047619D01*
X126488095Y-93142857D01*
X126535714Y-93333333D01*
X126535714Y-93571428D01*
X126488095Y-93761904D01*
X126440476Y-93857142D01*
X126392857Y-93904761D01*
X126297619Y-93952380D01*
X126202380Y-93952380D01*
X126107142Y-93904761D01*
X126059523Y-93857142D01*
X126011904Y-93761904D01*
X125964285Y-93571428D01*
X125964285Y-93333333D01*
X126011904Y-93142857D01*
X126059523Y-93047619D01*
X126107142Y-93000000D01*
X126202380Y-92952380D01*
X127488095Y-93952380D02*
X126916666Y-93952380D01*
X127202380Y-93952380D02*
X127202380Y-92952380D01*
X127107142Y-93095238D01*
X127011904Y-93190476D01*
X126916666Y-93238095D01*
X81059523Y-93952380D02*
X81059523Y-92952380D01*
X81440476Y-92952380D01*
X81535714Y-93000000D01*
X81583333Y-93047619D01*
X81630952Y-93142857D01*
X81630952Y-93285714D01*
X81583333Y-93380952D01*
X81535714Y-93428571D01*
X81440476Y-93476190D01*
X81059523Y-93476190D01*
X82535714Y-92952380D02*
X82059523Y-92952380D01*
X82011904Y-93428571D01*
X82059523Y-93380952D01*
X82154761Y-93333333D01*
X82392857Y-93333333D01*
X82488095Y-93380952D01*
X82535714Y-93428571D01*
X82583333Y-93523809D01*
X82583333Y-93761904D01*
X82535714Y-93857142D01*
X82488095Y-93904761D01*
X82392857Y-93952380D01*
X82154761Y-93952380D01*
X82059523Y-93904761D01*
X82011904Y-93857142D01*
X83202380Y-92952380D02*
X83297619Y-92952380D01*
X83392857Y-93000000D01*
X83440476Y-93047619D01*
X83488095Y-93142857D01*
X83535714Y-93333333D01*
X83535714Y-93571428D01*
X83488095Y-93761904D01*
X83440476Y-93857142D01*
X83392857Y-93904761D01*
X83297619Y-93952380D01*
X83202380Y-93952380D01*
X83107142Y-93904761D01*
X83059523Y-93857142D01*
X83011904Y-93761904D01*
X82964285Y-93571428D01*
X82964285Y-93333333D01*
X83011904Y-93142857D01*
X83059523Y-93047619D01*
X83107142Y-93000000D01*
X83202380Y-92952380D01*
X84488095Y-93952380D02*
X83916666Y-93952380D01*
X84202380Y-93952380D02*
X84202380Y-92952380D01*
X84107142Y-93095238D01*
X84011904Y-93190476D01*
X83916666Y-93238095D01*
X91059523Y-93952380D02*
X91059523Y-92952380D01*
X91440476Y-92952380D01*
X91535714Y-93000000D01*
X91583333Y-93047619D01*
X91630952Y-93142857D01*
X91630952Y-93285714D01*
X91583333Y-93380952D01*
X91535714Y-93428571D01*
X91440476Y-93476190D01*
X91059523Y-93476190D01*
X92535714Y-92952380D02*
X92059523Y-92952380D01*
X92011904Y-93428571D01*
X92059523Y-93380952D01*
X92154761Y-93333333D01*
X92392857Y-93333333D01*
X92488095Y-93380952D01*
X92535714Y-93428571D01*
X92583333Y-93523809D01*
X92583333Y-93761904D01*
X92535714Y-93857142D01*
X92488095Y-93904761D01*
X92392857Y-93952380D01*
X92154761Y-93952380D01*
X92059523Y-93904761D01*
X92011904Y-93857142D01*
X93202380Y-92952380D02*
X93297619Y-92952380D01*
X93392857Y-93000000D01*
X93440476Y-93047619D01*
X93488095Y-93142857D01*
X93535714Y-93333333D01*
X93535714Y-93571428D01*
X93488095Y-93761904D01*
X93440476Y-93857142D01*
X93392857Y-93904761D01*
X93297619Y-93952380D01*
X93202380Y-93952380D01*
X93107142Y-93904761D01*
X93059523Y-93857142D01*
X93011904Y-93761904D01*
X92964285Y-93571428D01*
X92964285Y-93333333D01*
X93011904Y-93142857D01*
X93059523Y-93047619D01*
X93107142Y-93000000D01*
X93202380Y-92952380D01*
X93916666Y-93047619D02*
X93964285Y-93000000D01*
X94059523Y-92952380D01*
X94297619Y-92952380D01*
X94392857Y-93000000D01*
X94440476Y-93047619D01*
X94488095Y-93142857D01*
X94488095Y-93238095D01*
X94440476Y-93380952D01*
X93869047Y-93952380D01*
X94488095Y-93952380D01*
X101059523Y-93952380D02*
X101059523Y-92952380D01*
X101440476Y-92952380D01*
X101535714Y-93000000D01*
X101583333Y-93047619D01*
X101630952Y-93142857D01*
X101630952Y-93285714D01*
X101583333Y-93380952D01*
X101535714Y-93428571D01*
X101440476Y-93476190D01*
X101059523Y-93476190D01*
X102535714Y-92952380D02*
X102059523Y-92952380D01*
X102011904Y-93428571D01*
X102059523Y-93380952D01*
X102154761Y-93333333D01*
X102392857Y-93333333D01*
X102488095Y-93380952D01*
X102535714Y-93428571D01*
X102583333Y-93523809D01*
X102583333Y-93761904D01*
X102535714Y-93857142D01*
X102488095Y-93904761D01*
X102392857Y-93952380D01*
X102154761Y-93952380D01*
X102059523Y-93904761D01*
X102011904Y-93857142D01*
X103202380Y-92952380D02*
X103297619Y-92952380D01*
X103392857Y-93000000D01*
X103440476Y-93047619D01*
X103488095Y-93142857D01*
X103535714Y-93333333D01*
X103535714Y-93571428D01*
X103488095Y-93761904D01*
X103440476Y-93857142D01*
X103392857Y-93904761D01*
X103297619Y-93952380D01*
X103202380Y-93952380D01*
X103107142Y-93904761D01*
X103059523Y-93857142D01*
X103011904Y-93761904D01*
X102964285Y-93571428D01*
X102964285Y-93333333D01*
X103011904Y-93142857D01*
X103059523Y-93047619D01*
X103107142Y-93000000D01*
X103202380Y-92952380D01*
X103869047Y-92952380D02*
X104488095Y-92952380D01*
X104154761Y-93333333D01*
X104297619Y-93333333D01*
X104392857Y-93380952D01*
X104440476Y-93428571D01*
X104488095Y-93523809D01*
X104488095Y-93761904D01*
X104440476Y-93857142D01*
X104392857Y-93904761D01*
X104297619Y-93952380D01*
X104011904Y-93952380D01*
X103916666Y-93904761D01*
X103869047Y-93857142D01*
X159761904Y-84452380D02*
X159761904Y-83452380D01*
X160000000Y-83452380D01*
X160142857Y-83500000D01*
X160238095Y-83595238D01*
X160285714Y-83690476D01*
X160333333Y-83880952D01*
X160333333Y-84023809D01*
X160285714Y-84214285D01*
X160238095Y-84309523D01*
X160142857Y-84404761D01*
X160000000Y-84452380D01*
X159761904Y-84452380D01*
X161285714Y-84452380D02*
X160714285Y-84452380D01*
X161000000Y-84452380D02*
X161000000Y-83452380D01*
X160904761Y-83595238D01*
X160809523Y-83690476D01*
X160714285Y-83738095D01*
X157809523Y-86202380D02*
X157809523Y-85202380D01*
X158047619Y-85202380D01*
X158190476Y-85250000D01*
X158285714Y-85345238D01*
X158333333Y-85440476D01*
X158380952Y-85630952D01*
X158380952Y-85773809D01*
X158333333Y-85964285D01*
X158285714Y-86059523D01*
X158190476Y-86154761D01*
X158047619Y-86202380D01*
X157809523Y-86202380D01*
X159333333Y-86202380D02*
X158761904Y-86202380D01*
X159047619Y-86202380D02*
X159047619Y-85202380D01*
X158952380Y-85345238D01*
X158857142Y-85440476D01*
X158761904Y-85488095D01*
X159952380Y-85202380D02*
X160047619Y-85202380D01*
X160142857Y-85250000D01*
X160190476Y-85297619D01*
X160238095Y-85392857D01*
X160285714Y-85583333D01*
X160285714Y-85821428D01*
X160238095Y-86011904D01*
X160190476Y-86107142D01*
X160142857Y-86154761D01*
X160047619Y-86202380D01*
X159952380Y-86202380D01*
X159857142Y-86154761D01*
X159809523Y-86107142D01*
X159761904Y-86011904D01*
X159714285Y-85821428D01*
X159714285Y-85583333D01*
X159761904Y-85392857D01*
X159809523Y-85297619D01*
X159857142Y-85250000D01*
X159952380Y-85202380D01*
X161238095Y-86202380D02*
X160666666Y-86202380D01*
X160952380Y-86202380D02*
X160952380Y-85202380D01*
X160857142Y-85345238D01*
X160761904Y-85440476D01*
X160666666Y-85488095D01*
X157809523Y-88702380D02*
X157809523Y-87702380D01*
X158047619Y-87702380D01*
X158190476Y-87750000D01*
X158285714Y-87845238D01*
X158333333Y-87940476D01*
X158380952Y-88130952D01*
X158380952Y-88273809D01*
X158333333Y-88464285D01*
X158285714Y-88559523D01*
X158190476Y-88654761D01*
X158047619Y-88702380D01*
X157809523Y-88702380D01*
X159333333Y-88702380D02*
X158761904Y-88702380D01*
X159047619Y-88702380D02*
X159047619Y-87702380D01*
X158952380Y-87845238D01*
X158857142Y-87940476D01*
X158761904Y-87988095D01*
X159952380Y-87702380D02*
X160047619Y-87702380D01*
X160142857Y-87750000D01*
X160190476Y-87797619D01*
X160238095Y-87892857D01*
X160285714Y-88083333D01*
X160285714Y-88321428D01*
X160238095Y-88511904D01*
X160190476Y-88607142D01*
X160142857Y-88654761D01*
X160047619Y-88702380D01*
X159952380Y-88702380D01*
X159857142Y-88654761D01*
X159809523Y-88607142D01*
X159761904Y-88511904D01*
X159714285Y-88321428D01*
X159714285Y-88083333D01*
X159761904Y-87892857D01*
X159809523Y-87797619D01*
X159857142Y-87750000D01*
X159952380Y-87702380D01*
X160666666Y-87797619D02*
X160714285Y-87750000D01*
X160809523Y-87702380D01*
X161047619Y-87702380D01*
X161142857Y-87750000D01*
X161190476Y-87797619D01*
X161238095Y-87892857D01*
X161238095Y-87988095D01*
X161190476Y-88130952D01*
X160619047Y-88702380D01*
X161238095Y-88702380D01*
X157858543Y-91202380D02*
X157858543Y-90202380D01*
X158096639Y-90202380D01*
X158239496Y-90250000D01*
X158334734Y-90345238D01*
X158382353Y-90440476D01*
X158429972Y-90630952D01*
X158429972Y-90773809D01*
X158382353Y-90964285D01*
X158334734Y-91059523D01*
X158239496Y-91154761D01*
X158096639Y-91202380D01*
X157858543Y-91202380D01*
X159382353Y-91202380D02*
X158810924Y-91202380D01*
X159096639Y-91202380D02*
X159096639Y-90202380D01*
X159001400Y-90345238D01*
X158906162Y-90440476D01*
X158810924Y-90488095D01*
X160001400Y-90202380D02*
X160096639Y-90202380D01*
X160191877Y-90250000D01*
X160239496Y-90297619D01*
X160287115Y-90392857D01*
X160334734Y-90583333D01*
X160334734Y-90821428D01*
X160287115Y-91011904D01*
X160239496Y-91107142D01*
X160191877Y-91154761D01*
X160096639Y-91202380D01*
X160001400Y-91202380D01*
X159906162Y-91154761D01*
X159858543Y-91107142D01*
X159810924Y-91011904D01*
X159763305Y-90821428D01*
X159763305Y-90583333D01*
X159810924Y-90392857D01*
X159858543Y-90297619D01*
X159906162Y-90250000D01*
X160001400Y-90202380D01*
X160668067Y-90202380D02*
X161287115Y-90202380D01*
X160953781Y-90583333D01*
X161096639Y-90583333D01*
X161191877Y-90630952D01*
X161239496Y-90678571D01*
X161287115Y-90773809D01*
X161287115Y-91011904D01*
X161239496Y-91107142D01*
X161191877Y-91154761D01*
X161096639Y-91202380D01*
X160810924Y-91202380D01*
X160715686Y-91154761D01*
X160668067Y-91107142D01*
X153833333Y-83452380D02*
X153500000Y-82976190D01*
X153261904Y-83452380D02*
X153261904Y-82452380D01*
X153642857Y-82452380D01*
X153738095Y-82500000D01*
X153785714Y-82547619D01*
X153833333Y-82642857D01*
X153833333Y-82785714D01*
X153785714Y-82880952D01*
X153738095Y-82928571D01*
X153642857Y-82976190D01*
X153261904Y-82976190D01*
X154785714Y-83452380D02*
X154214285Y-83452380D01*
X154500000Y-83452380D02*
X154500000Y-82452380D01*
X154404761Y-82595238D01*
X154309523Y-82690476D01*
X154214285Y-82738095D01*
X154380952Y-86052380D02*
X154047619Y-85576190D01*
X153809523Y-86052380D02*
X153809523Y-85052380D01*
X154190476Y-85052380D01*
X154285714Y-85100000D01*
X154333333Y-85147619D01*
X154380952Y-85242857D01*
X154380952Y-85385714D01*
X154333333Y-85480952D01*
X154285714Y-85528571D01*
X154190476Y-85576190D01*
X153809523Y-85576190D01*
X155333333Y-86052380D02*
X154761904Y-86052380D01*
X155047619Y-86052380D02*
X155047619Y-85052380D01*
X154952380Y-85195238D01*
X154857142Y-85290476D01*
X154761904Y-85338095D01*
X155952380Y-85052380D02*
X156047619Y-85052380D01*
X156142857Y-85100000D01*
X156190476Y-85147619D01*
X156238095Y-85242857D01*
X156285714Y-85433333D01*
X156285714Y-85671428D01*
X156238095Y-85861904D01*
X156190476Y-85957142D01*
X156142857Y-86004761D01*
X156047619Y-86052380D01*
X155952380Y-86052380D01*
X155857142Y-86004761D01*
X155809523Y-85957142D01*
X155761904Y-85861904D01*
X155714285Y-85671428D01*
X155714285Y-85433333D01*
X155761904Y-85242857D01*
X155809523Y-85147619D01*
X155857142Y-85100000D01*
X155952380Y-85052380D01*
X157238095Y-86052380D02*
X156666666Y-86052380D01*
X156952380Y-86052380D02*
X156952380Y-85052380D01*
X156857142Y-85195238D01*
X156761904Y-85290476D01*
X156666666Y-85338095D01*
X154380952Y-88552380D02*
X154047619Y-88076190D01*
X153809523Y-88552380D02*
X153809523Y-87552380D01*
X154190476Y-87552380D01*
X154285714Y-87600000D01*
X154333333Y-87647619D01*
X154380952Y-87742857D01*
X154380952Y-87885714D01*
X154333333Y-87980952D01*
X154285714Y-88028571D01*
X154190476Y-88076190D01*
X153809523Y-88076190D01*
X155333333Y-88552380D02*
X154761904Y-88552380D01*
X155047619Y-88552380D02*
X155047619Y-87552380D01*
X154952380Y-87695238D01*
X154857142Y-87790476D01*
X154761904Y-87838095D01*
X155952380Y-87552380D02*
X156047619Y-87552380D01*
X156142857Y-87600000D01*
X156190476Y-87647619D01*
X156238095Y-87742857D01*
X156285714Y-87933333D01*
X156285714Y-88171428D01*
X156238095Y-88361904D01*
X156190476Y-88457142D01*
X156142857Y-88504761D01*
X156047619Y-88552380D01*
X155952380Y-88552380D01*
X155857142Y-88504761D01*
X155809523Y-88457142D01*
X155761904Y-88361904D01*
X155714285Y-88171428D01*
X155714285Y-87933333D01*
X155761904Y-87742857D01*
X155809523Y-87647619D01*
X155857142Y-87600000D01*
X155952380Y-87552380D01*
X156666666Y-87647619D02*
X156714285Y-87600000D01*
X156809523Y-87552380D01*
X157047619Y-87552380D01*
X157142857Y-87600000D01*
X157190476Y-87647619D01*
X157238095Y-87742857D01*
X157238095Y-87838095D01*
X157190476Y-87980952D01*
X156619047Y-88552380D01*
X157238095Y-88552380D01*
X154380952Y-91052380D02*
X154047619Y-90576190D01*
X153809523Y-91052380D02*
X153809523Y-90052380D01*
X154190476Y-90052380D01*
X154285714Y-90100000D01*
X154333333Y-90147619D01*
X154380952Y-90242857D01*
X154380952Y-90385714D01*
X154333333Y-90480952D01*
X154285714Y-90528571D01*
X154190476Y-90576190D01*
X153809523Y-90576190D01*
X155333333Y-91052380D02*
X154761904Y-91052380D01*
X155047619Y-91052380D02*
X155047619Y-90052380D01*
X154952380Y-90195238D01*
X154857142Y-90290476D01*
X154761904Y-90338095D01*
X155952380Y-90052380D02*
X156047619Y-90052380D01*
X156142857Y-90100000D01*
X156190476Y-90147619D01*
X156238095Y-90242857D01*
X156285714Y-90433333D01*
X156285714Y-90671428D01*
X156238095Y-90861904D01*
X156190476Y-90957142D01*
X156142857Y-91004761D01*
X156047619Y-91052380D01*
X155952380Y-91052380D01*
X155857142Y-91004761D01*
X155809523Y-90957142D01*
X155761904Y-90861904D01*
X155714285Y-90671428D01*
X155714285Y-90433333D01*
X155761904Y-90242857D01*
X155809523Y-90147619D01*
X155857142Y-90100000D01*
X155952380Y-90052380D01*
X156619047Y-90052380D02*
X157238095Y-90052380D01*
X156904761Y-90433333D01*
X157047619Y-90433333D01*
X157142857Y-90480952D01*
X157190476Y-90528571D01*
X157238095Y-90623809D01*
X157238095Y-90861904D01*
X157190476Y-90957142D01*
X157142857Y-91004761D01*
X157047619Y-91052380D01*
X156761904Y-91052380D01*
X156666666Y-91004761D01*
X156619047Y-90957142D01*
M02*
