G04 #@! TF.FileFunction,Legend,Bot*
%FSLAX46Y46*%
G04 Gerber Fmt 4.6, Leading zero omitted, Abs format (unit mm)*
G04 Created by KiCad (PCBNEW (2016-07-20 BZR 6990)-product) date Sun Sep 11 23:36:35 2016*
%MOMM*%
%LPD*%
G01*
G04 APERTURE LIST*
%ADD10C,0.100000*%
%ADD11C,0.200000*%
%ADD12C,0.010000*%
G04 APERTURE END LIST*
D10*
D11*
X217190476Y-84452380D02*
X217190476Y-83452380D01*
X216761904Y-84452380D02*
X216761904Y-83928571D01*
X216809523Y-83833333D01*
X216904761Y-83785714D01*
X217047619Y-83785714D01*
X217142857Y-83833333D01*
X217190476Y-83880952D01*
X216428571Y-83785714D02*
X216047619Y-83785714D01*
X216285714Y-83452380D02*
X216285714Y-84309523D01*
X216238095Y-84404761D01*
X216142857Y-84452380D01*
X216047619Y-84452380D01*
X215857142Y-83785714D02*
X215476190Y-83785714D01*
X215714285Y-83452380D02*
X215714285Y-84309523D01*
X215666666Y-84404761D01*
X215571428Y-84452380D01*
X215476190Y-84452380D01*
X215142857Y-83785714D02*
X215142857Y-84785714D01*
X215142857Y-83833333D02*
X215047619Y-83785714D01*
X214857142Y-83785714D01*
X214761904Y-83833333D01*
X214714285Y-83880952D01*
X214666666Y-83976190D01*
X214666666Y-84261904D01*
X214714285Y-84357142D01*
X214761904Y-84404761D01*
X214857142Y-84452380D01*
X215047619Y-84452380D01*
X215142857Y-84404761D01*
X214238095Y-84357142D02*
X214190476Y-84404761D01*
X214238095Y-84452380D01*
X214285714Y-84404761D01*
X214238095Y-84357142D01*
X214238095Y-84452380D01*
X214238095Y-83833333D02*
X214190476Y-83880952D01*
X214238095Y-83928571D01*
X214285714Y-83880952D01*
X214238095Y-83833333D01*
X214238095Y-83928571D01*
X213047619Y-83404761D02*
X213904761Y-84690476D01*
X212000000Y-83404761D02*
X212857142Y-84690476D01*
X211666666Y-84452380D02*
X211666666Y-83452380D01*
X211666666Y-83833333D02*
X211571428Y-83785714D01*
X211380952Y-83785714D01*
X211285714Y-83833333D01*
X211238095Y-83880952D01*
X211190476Y-83976190D01*
X211190476Y-84261904D01*
X211238095Y-84357142D01*
X211285714Y-84404761D01*
X211380952Y-84452380D01*
X211571428Y-84452380D01*
X211666666Y-84404761D01*
X210333333Y-84452380D02*
X210333333Y-83928571D01*
X210380952Y-83833333D01*
X210476190Y-83785714D01*
X210666666Y-83785714D01*
X210761904Y-83833333D01*
X210333333Y-84404761D02*
X210428571Y-84452380D01*
X210666666Y-84452380D01*
X210761904Y-84404761D01*
X210809523Y-84309523D01*
X210809523Y-84214285D01*
X210761904Y-84119047D01*
X210666666Y-84071428D01*
X210428571Y-84071428D01*
X210333333Y-84023809D01*
X209714285Y-84452380D02*
X209809523Y-84404761D01*
X209857142Y-84357142D01*
X209904761Y-84261904D01*
X209904761Y-83976190D01*
X209857142Y-83880952D01*
X209809523Y-83833333D01*
X209714285Y-83785714D01*
X209571428Y-83785714D01*
X209476190Y-83833333D01*
X209428571Y-83880952D01*
X209380952Y-83976190D01*
X209380952Y-84261904D01*
X209428571Y-84357142D01*
X209476190Y-84404761D01*
X209571428Y-84452380D01*
X209714285Y-84452380D01*
X208952380Y-84452380D02*
X208952380Y-83452380D01*
X208952380Y-83833333D02*
X208857142Y-83785714D01*
X208666666Y-83785714D01*
X208571428Y-83833333D01*
X208523809Y-83880952D01*
X208476190Y-83976190D01*
X208476190Y-84261904D01*
X208523809Y-84357142D01*
X208571428Y-84404761D01*
X208666666Y-84452380D01*
X208857142Y-84452380D01*
X208952380Y-84404761D01*
X208047619Y-84452380D02*
X208047619Y-83785714D01*
X208047619Y-83976190D02*
X208000000Y-83880952D01*
X207952380Y-83833333D01*
X207857142Y-83785714D01*
X207761904Y-83785714D01*
X207428571Y-84452380D02*
X207428571Y-83785714D01*
X207428571Y-83452380D02*
X207476190Y-83500000D01*
X207428571Y-83547619D01*
X207380952Y-83500000D01*
X207428571Y-83452380D01*
X207428571Y-83547619D01*
X206571428Y-84404761D02*
X206666666Y-84452380D01*
X206857142Y-84452380D01*
X206952380Y-84404761D01*
X207000000Y-84309523D01*
X207000000Y-83928571D01*
X206952380Y-83833333D01*
X206857142Y-83785714D01*
X206666666Y-83785714D01*
X206571428Y-83833333D01*
X206523809Y-83928571D01*
X206523809Y-84023809D01*
X207000000Y-84119047D01*
X206095238Y-83785714D02*
X206095238Y-84452380D01*
X206095238Y-83880952D02*
X206047619Y-83833333D01*
X205952380Y-83785714D01*
X205809523Y-83785714D01*
X205714285Y-83833333D01*
X205666666Y-83928571D01*
X205666666Y-84452380D01*
X205190476Y-84357142D02*
X205142857Y-84404761D01*
X205190476Y-84452380D01*
X205238095Y-84404761D01*
X205190476Y-84357142D01*
X205190476Y-84452380D01*
X204285714Y-83785714D02*
X204285714Y-84595238D01*
X204333333Y-84690476D01*
X204380952Y-84738095D01*
X204476190Y-84785714D01*
X204619047Y-84785714D01*
X204714285Y-84738095D01*
X204285714Y-84404761D02*
X204380952Y-84452380D01*
X204571428Y-84452380D01*
X204666666Y-84404761D01*
X204714285Y-84357142D01*
X204761904Y-84261904D01*
X204761904Y-83976190D01*
X204714285Y-83880952D01*
X204666666Y-83833333D01*
X204571428Y-83785714D01*
X204380952Y-83785714D01*
X204285714Y-83833333D01*
X203380952Y-83785714D02*
X203380952Y-84452380D01*
X203809523Y-83785714D02*
X203809523Y-84309523D01*
X203761904Y-84404761D01*
X203666666Y-84452380D01*
X203523809Y-84452380D01*
X203428571Y-84404761D01*
X203380952Y-84357142D01*
X202904761Y-84452380D02*
X202904761Y-83785714D01*
X202904761Y-83976190D02*
X202857142Y-83880952D01*
X202809523Y-83833333D01*
X202714285Y-83785714D01*
X202619047Y-83785714D01*
X201857142Y-83785714D02*
X201857142Y-84452380D01*
X202285714Y-83785714D02*
X202285714Y-84309523D01*
X202238095Y-84404761D01*
X202142857Y-84452380D01*
X202000000Y-84452380D01*
X201904761Y-84404761D01*
X201857142Y-84357142D01*
X200666666Y-83404761D02*
X201523809Y-84690476D01*
D12*
G36*
X204671667Y-69708333D02*
X201708333Y-69708333D01*
X201708333Y-72248333D01*
X202131667Y-72248333D01*
X202131667Y-70131667D01*
X204248333Y-70131667D01*
X204248333Y-72248333D01*
X202131667Y-72248333D01*
X201708333Y-72248333D01*
X201708333Y-72671667D01*
X204671667Y-72671667D01*
X204671667Y-69708333D01*
X204671667Y-69708333D01*
G37*
X204671667Y-69708333D02*
X201708333Y-69708333D01*
X201708333Y-72248333D01*
X202131667Y-72248333D01*
X202131667Y-70131667D01*
X204248333Y-70131667D01*
X204248333Y-72248333D01*
X202131667Y-72248333D01*
X201708333Y-72248333D01*
X201708333Y-72671667D01*
X204671667Y-72671667D01*
X204671667Y-69708333D01*
G36*
X206365000Y-70978333D02*
X207211667Y-70978333D01*
X207211667Y-70555000D01*
X206788333Y-70555000D01*
X206788333Y-70131667D01*
X207211667Y-70131667D01*
X207211667Y-69708333D01*
X206365000Y-69708333D01*
X206365000Y-70555000D01*
X205518333Y-70555000D01*
X205518333Y-69708333D01*
X205095000Y-69708333D01*
X205095000Y-71401667D01*
X205518333Y-71401667D01*
X205518333Y-70978333D01*
X205941667Y-70978333D01*
X205941667Y-71401667D01*
X205518333Y-71401667D01*
X205095000Y-71401667D01*
X205095000Y-71825000D01*
X206365000Y-71825000D01*
X206365000Y-70978333D01*
X206365000Y-70978333D01*
G37*
X206365000Y-70978333D02*
X207211667Y-70978333D01*
X207211667Y-70555000D01*
X206788333Y-70555000D01*
X206788333Y-70131667D01*
X207211667Y-70131667D01*
X207211667Y-69708333D01*
X206365000Y-69708333D01*
X206365000Y-70555000D01*
X205518333Y-70555000D01*
X205518333Y-69708333D01*
X205095000Y-69708333D01*
X205095000Y-71401667D01*
X205518333Y-71401667D01*
X205518333Y-70978333D01*
X205941667Y-70978333D01*
X205941667Y-71401667D01*
X205518333Y-71401667D01*
X205095000Y-71401667D01*
X205095000Y-71825000D01*
X206365000Y-71825000D01*
X206365000Y-70978333D01*
G36*
X202978333Y-73095000D02*
X202555000Y-73095000D01*
X202555000Y-73518333D01*
X202978333Y-73518333D01*
X202978333Y-73095000D01*
X202978333Y-73095000D01*
G37*
X202978333Y-73095000D02*
X202555000Y-73095000D01*
X202555000Y-73518333D01*
X202978333Y-73518333D01*
X202978333Y-73095000D01*
G36*
X208905000Y-78175000D02*
X208481667Y-78175000D01*
X208481667Y-78598333D01*
X208905000Y-78598333D01*
X208905000Y-78175000D01*
X208905000Y-78175000D01*
G37*
X208905000Y-78175000D02*
X208481667Y-78175000D01*
X208481667Y-78598333D01*
X208905000Y-78598333D01*
X208905000Y-78175000D01*
G36*
X206788333Y-79868333D02*
X206788333Y-80291667D01*
X207211667Y-80291667D01*
X207211667Y-79868333D01*
X206788333Y-79868333D01*
X206788333Y-79868333D01*
G37*
X206788333Y-79868333D02*
X206788333Y-80291667D01*
X207211667Y-80291667D01*
X207211667Y-79868333D01*
X206788333Y-79868333D01*
G36*
X207211667Y-79868333D02*
X208058333Y-79868333D01*
X208058333Y-79445000D01*
X207211667Y-79445000D01*
X207211667Y-79868333D01*
X207211667Y-79868333D01*
G37*
X207211667Y-79868333D02*
X208058333Y-79868333D01*
X208058333Y-79445000D01*
X207211667Y-79445000D01*
X207211667Y-79868333D01*
G36*
X206365000Y-78175000D02*
X207635000Y-78175000D01*
X207635000Y-78598333D01*
X206788333Y-78598333D01*
X206788333Y-79445000D01*
X207211667Y-79445000D01*
X207211667Y-79021667D01*
X208481667Y-79021667D01*
X208481667Y-78598333D01*
X208058333Y-78598333D01*
X208058333Y-76905000D01*
X208481667Y-76905000D01*
X208481667Y-77751667D01*
X208905000Y-77751667D01*
X208905000Y-76905000D01*
X209328333Y-76905000D01*
X209328333Y-76481667D01*
X208905000Y-76481667D01*
X208905000Y-76058333D01*
X208481667Y-76058333D01*
X208481667Y-75635000D01*
X208058333Y-75635000D01*
X208058333Y-75211667D01*
X207635000Y-75211667D01*
X207635000Y-75635000D01*
X207211667Y-75635000D01*
X207211667Y-76058333D01*
X207635000Y-76058333D01*
X207635000Y-77751667D01*
X207211667Y-77751667D01*
X207211667Y-77328333D01*
X206788333Y-77328333D01*
X206788333Y-77751667D01*
X206365000Y-77751667D01*
X206365000Y-78175000D01*
X206365000Y-78175000D01*
G37*
X206365000Y-78175000D02*
X207635000Y-78175000D01*
X207635000Y-78598333D01*
X206788333Y-78598333D01*
X206788333Y-79445000D01*
X207211667Y-79445000D01*
X207211667Y-79021667D01*
X208481667Y-79021667D01*
X208481667Y-78598333D01*
X208058333Y-78598333D01*
X208058333Y-76905000D01*
X208481667Y-76905000D01*
X208481667Y-77751667D01*
X208905000Y-77751667D01*
X208905000Y-76905000D01*
X209328333Y-76905000D01*
X209328333Y-76481667D01*
X208905000Y-76481667D01*
X208905000Y-76058333D01*
X208481667Y-76058333D01*
X208481667Y-75635000D01*
X208058333Y-75635000D01*
X208058333Y-75211667D01*
X207635000Y-75211667D01*
X207635000Y-75635000D01*
X207211667Y-75635000D01*
X207211667Y-76058333D01*
X207635000Y-76058333D01*
X207635000Y-77751667D01*
X207211667Y-77751667D01*
X207211667Y-77328333D01*
X206788333Y-77328333D01*
X206788333Y-77751667D01*
X206365000Y-77751667D01*
X206365000Y-78175000D01*
G36*
X204248333Y-76905000D02*
X205518333Y-76905000D01*
X205518333Y-77328333D01*
X205095000Y-77328333D01*
X205095000Y-77751667D01*
X205518333Y-77751667D01*
X205518333Y-77328333D01*
X205941667Y-77328333D01*
X205941667Y-77751667D01*
X205518333Y-77751667D01*
X205095000Y-77751667D01*
X205095000Y-78175000D01*
X205518333Y-78175000D01*
X205518333Y-78598333D01*
X205095000Y-78598333D01*
X205095000Y-79021667D01*
X206365000Y-79021667D01*
X206365000Y-78598333D01*
X205941667Y-78598333D01*
X205941667Y-77751667D01*
X206365000Y-77751667D01*
X206365000Y-77328333D01*
X206788333Y-77328333D01*
X206788333Y-76481667D01*
X206365000Y-76481667D01*
X206365000Y-76905000D01*
X205941667Y-76905000D01*
X205941667Y-76481667D01*
X204248333Y-76481667D01*
X204248333Y-76905000D01*
X204248333Y-76905000D01*
G37*
X204248333Y-76905000D02*
X205518333Y-76905000D01*
X205518333Y-77328333D01*
X205095000Y-77328333D01*
X205095000Y-77751667D01*
X205518333Y-77751667D01*
X205518333Y-77328333D01*
X205941667Y-77328333D01*
X205941667Y-77751667D01*
X205518333Y-77751667D01*
X205095000Y-77751667D01*
X205095000Y-78175000D01*
X205518333Y-78175000D01*
X205518333Y-78598333D01*
X205095000Y-78598333D01*
X205095000Y-79021667D01*
X206365000Y-79021667D01*
X206365000Y-78598333D01*
X205941667Y-78598333D01*
X205941667Y-77751667D01*
X206365000Y-77751667D01*
X206365000Y-77328333D01*
X206788333Y-77328333D01*
X206788333Y-76481667D01*
X206365000Y-76481667D01*
X206365000Y-76905000D01*
X205941667Y-76905000D01*
X205941667Y-76481667D01*
X204248333Y-76481667D01*
X204248333Y-76905000D01*
G36*
X204248333Y-76481667D02*
X204248333Y-76058333D01*
X205518333Y-76058333D01*
X205518333Y-75211667D01*
X205095000Y-75211667D01*
X205095000Y-75635000D01*
X203825000Y-75635000D01*
X203825000Y-75211667D01*
X203401667Y-75211667D01*
X203401667Y-76058333D01*
X203825000Y-76058333D01*
X203825000Y-76481667D01*
X204248333Y-76481667D01*
X204248333Y-76481667D01*
G37*
X204248333Y-76481667D02*
X204248333Y-76058333D01*
X205518333Y-76058333D01*
X205518333Y-75211667D01*
X205095000Y-75211667D01*
X205095000Y-75635000D01*
X203825000Y-75635000D01*
X203825000Y-75211667D01*
X203401667Y-75211667D01*
X203401667Y-76058333D01*
X203825000Y-76058333D01*
X203825000Y-76481667D01*
X204248333Y-76481667D01*
G36*
X201708333Y-75211667D02*
X201708333Y-75635000D01*
X202131667Y-75635000D01*
X202131667Y-76481667D01*
X201708333Y-76481667D01*
X201708333Y-76905000D01*
X203825000Y-76905000D01*
X203825000Y-76481667D01*
X202978333Y-76481667D01*
X202978333Y-75635000D01*
X202555000Y-75635000D01*
X202555000Y-75211667D01*
X201708333Y-75211667D01*
X201708333Y-75211667D01*
G37*
X201708333Y-75211667D02*
X201708333Y-75635000D01*
X202131667Y-75635000D01*
X202131667Y-76481667D01*
X201708333Y-76481667D01*
X201708333Y-76905000D01*
X203825000Y-76905000D01*
X203825000Y-76481667D01*
X202978333Y-76481667D01*
X202978333Y-75635000D01*
X202555000Y-75635000D01*
X202555000Y-75211667D01*
X201708333Y-75211667D01*
G36*
X202555000Y-73941667D02*
X202555000Y-75211667D01*
X202978333Y-75211667D01*
X202978333Y-73941667D01*
X202555000Y-73941667D01*
X202555000Y-73941667D01*
G37*
X202555000Y-73941667D02*
X202555000Y-75211667D01*
X202978333Y-75211667D01*
X202978333Y-73941667D01*
X202555000Y-73941667D01*
G36*
X202978333Y-73518333D02*
X202978333Y-73941667D01*
X203401667Y-73941667D01*
X203401667Y-73518333D01*
X202978333Y-73518333D01*
X202978333Y-73518333D01*
G37*
X202978333Y-73518333D02*
X202978333Y-73941667D01*
X203401667Y-73941667D01*
X203401667Y-73518333D01*
X202978333Y-73518333D01*
G36*
X204248333Y-73941667D02*
X204248333Y-73518333D01*
X204671667Y-73518333D01*
X204671667Y-73095000D01*
X203401667Y-73095000D01*
X203401667Y-73518333D01*
X203825000Y-73518333D01*
X203825000Y-73941667D01*
X203401667Y-73941667D01*
X203401667Y-74365000D01*
X205095000Y-74365000D01*
X205095000Y-73941667D01*
X204248333Y-73941667D01*
X204248333Y-73941667D01*
G37*
X204248333Y-73941667D02*
X204248333Y-73518333D01*
X204671667Y-73518333D01*
X204671667Y-73095000D01*
X203401667Y-73095000D01*
X203401667Y-73518333D01*
X203825000Y-73518333D01*
X203825000Y-73941667D01*
X203401667Y-73941667D01*
X203401667Y-74365000D01*
X205095000Y-74365000D01*
X205095000Y-73941667D01*
X204248333Y-73941667D01*
G36*
X205518333Y-73518333D02*
X205095000Y-73518333D01*
X205095000Y-73941667D01*
X205518333Y-73941667D01*
X205518333Y-73518333D01*
X205518333Y-73518333D01*
G37*
X205518333Y-73518333D02*
X205095000Y-73518333D01*
X205095000Y-73941667D01*
X205518333Y-73941667D01*
X205518333Y-73518333D01*
G36*
X211021667Y-72671667D02*
X211868333Y-72671667D01*
X211868333Y-73518333D01*
X211445000Y-73518333D01*
X211445000Y-73941667D01*
X211021667Y-73941667D01*
X211021667Y-74365000D01*
X211445000Y-74365000D01*
X211445000Y-75211667D01*
X212291667Y-75211667D01*
X212291667Y-72248333D01*
X211021667Y-72248333D01*
X211021667Y-72671667D01*
X211021667Y-72671667D01*
G37*
X211021667Y-72671667D02*
X211868333Y-72671667D01*
X211868333Y-73518333D01*
X211445000Y-73518333D01*
X211445000Y-73941667D01*
X211021667Y-73941667D01*
X211021667Y-74365000D01*
X211445000Y-74365000D01*
X211445000Y-75211667D01*
X212291667Y-75211667D01*
X212291667Y-72248333D01*
X211021667Y-72248333D01*
X211021667Y-72671667D01*
G36*
X210175000Y-76058333D02*
X210598333Y-76058333D01*
X210598333Y-75635000D01*
X210175000Y-75635000D01*
X210175000Y-76058333D01*
X210175000Y-76058333D01*
G37*
X210175000Y-76058333D02*
X210598333Y-76058333D01*
X210598333Y-75635000D01*
X210175000Y-75635000D01*
X210175000Y-76058333D01*
G36*
X208905000Y-73518333D02*
X211021667Y-73518333D01*
X211021667Y-73095000D01*
X210598333Y-73095000D01*
X210598333Y-72248333D01*
X211021667Y-72248333D01*
X211021667Y-70978333D01*
X211445000Y-70978333D01*
X211445000Y-70555000D01*
X211868333Y-70555000D01*
X211868333Y-70978333D01*
X211445000Y-70978333D01*
X211445000Y-71401667D01*
X212291667Y-71401667D01*
X212291667Y-70555000D01*
X211868333Y-70555000D01*
X211868333Y-70131667D01*
X212291667Y-70131667D01*
X212291667Y-69708333D01*
X210598333Y-69708333D01*
X210598333Y-70131667D01*
X210175000Y-70131667D01*
X210175000Y-70555000D01*
X209751667Y-70555000D01*
X209751667Y-70131667D01*
X208481667Y-70131667D01*
X208481667Y-69708333D01*
X208058333Y-69708333D01*
X208058333Y-70555000D01*
X208905000Y-70555000D01*
X208905000Y-70978333D01*
X208481667Y-70978333D01*
X208481667Y-71401667D01*
X209328333Y-71401667D01*
X209328333Y-70555000D01*
X209751667Y-70555000D01*
X209751667Y-70978333D01*
X210598333Y-70978333D01*
X210598333Y-70555000D01*
X211021667Y-70555000D01*
X211021667Y-70978333D01*
X210598333Y-70978333D01*
X209751667Y-70978333D01*
X209751667Y-71401667D01*
X209328333Y-71401667D01*
X208481667Y-71401667D01*
X208058333Y-71401667D01*
X208058333Y-70978333D01*
X207635000Y-70978333D01*
X207635000Y-71401667D01*
X206788333Y-71401667D01*
X206788333Y-71825000D01*
X207635000Y-71825000D01*
X208058333Y-71825000D01*
X208058333Y-72248333D01*
X208481667Y-72248333D01*
X208481667Y-72671667D01*
X207635000Y-72671667D01*
X207635000Y-71825000D01*
X206788333Y-71825000D01*
X206788333Y-72248333D01*
X207211667Y-72248333D01*
X207211667Y-72671667D01*
X206788333Y-72671667D01*
X206788333Y-73095000D01*
X206365000Y-73095000D01*
X206365000Y-72671667D01*
X205941667Y-72671667D01*
X205941667Y-73941667D01*
X206788333Y-73941667D01*
X206788333Y-73095000D01*
X207211667Y-73095000D01*
X207211667Y-72671667D01*
X207635000Y-72671667D01*
X207635000Y-73095000D01*
X208905000Y-73095000D01*
X208905000Y-71825000D01*
X210175000Y-71825000D01*
X210175000Y-73095000D01*
X208905000Y-73095000D01*
X207635000Y-73095000D01*
X207635000Y-73941667D01*
X206788333Y-73941667D01*
X205941667Y-73941667D01*
X205518333Y-73941667D01*
X205518333Y-74365000D01*
X208058333Y-74365000D01*
X208058333Y-73518333D01*
X208481667Y-73518333D01*
X208481667Y-73941667D01*
X208905000Y-73941667D01*
X208905000Y-73518333D01*
X208905000Y-73518333D01*
G37*
X208905000Y-73518333D02*
X211021667Y-73518333D01*
X211021667Y-73095000D01*
X210598333Y-73095000D01*
X210598333Y-72248333D01*
X211021667Y-72248333D01*
X211021667Y-70978333D01*
X211445000Y-70978333D01*
X211445000Y-70555000D01*
X211868333Y-70555000D01*
X211868333Y-70978333D01*
X211445000Y-70978333D01*
X211445000Y-71401667D01*
X212291667Y-71401667D01*
X212291667Y-70555000D01*
X211868333Y-70555000D01*
X211868333Y-70131667D01*
X212291667Y-70131667D01*
X212291667Y-69708333D01*
X210598333Y-69708333D01*
X210598333Y-70131667D01*
X210175000Y-70131667D01*
X210175000Y-70555000D01*
X209751667Y-70555000D01*
X209751667Y-70131667D01*
X208481667Y-70131667D01*
X208481667Y-69708333D01*
X208058333Y-69708333D01*
X208058333Y-70555000D01*
X208905000Y-70555000D01*
X208905000Y-70978333D01*
X208481667Y-70978333D01*
X208481667Y-71401667D01*
X209328333Y-71401667D01*
X209328333Y-70555000D01*
X209751667Y-70555000D01*
X209751667Y-70978333D01*
X210598333Y-70978333D01*
X210598333Y-70555000D01*
X211021667Y-70555000D01*
X211021667Y-70978333D01*
X210598333Y-70978333D01*
X209751667Y-70978333D01*
X209751667Y-71401667D01*
X209328333Y-71401667D01*
X208481667Y-71401667D01*
X208058333Y-71401667D01*
X208058333Y-70978333D01*
X207635000Y-70978333D01*
X207635000Y-71401667D01*
X206788333Y-71401667D01*
X206788333Y-71825000D01*
X207635000Y-71825000D01*
X208058333Y-71825000D01*
X208058333Y-72248333D01*
X208481667Y-72248333D01*
X208481667Y-72671667D01*
X207635000Y-72671667D01*
X207635000Y-71825000D01*
X206788333Y-71825000D01*
X206788333Y-72248333D01*
X207211667Y-72248333D01*
X207211667Y-72671667D01*
X206788333Y-72671667D01*
X206788333Y-73095000D01*
X206365000Y-73095000D01*
X206365000Y-72671667D01*
X205941667Y-72671667D01*
X205941667Y-73941667D01*
X206788333Y-73941667D01*
X206788333Y-73095000D01*
X207211667Y-73095000D01*
X207211667Y-72671667D01*
X207635000Y-72671667D01*
X207635000Y-73095000D01*
X208905000Y-73095000D01*
X208905000Y-71825000D01*
X210175000Y-71825000D01*
X210175000Y-73095000D01*
X208905000Y-73095000D01*
X207635000Y-73095000D01*
X207635000Y-73941667D01*
X206788333Y-73941667D01*
X205941667Y-73941667D01*
X205518333Y-73941667D01*
X205518333Y-74365000D01*
X208058333Y-74365000D01*
X208058333Y-73518333D01*
X208481667Y-73518333D01*
X208481667Y-73941667D01*
X208905000Y-73941667D01*
X208905000Y-73518333D01*
G36*
X208905000Y-75635000D02*
X208905000Y-76058333D01*
X209751667Y-76058333D01*
X209751667Y-75635000D01*
X208905000Y-75635000D01*
X208905000Y-75635000D01*
G37*
X208905000Y-75635000D02*
X208905000Y-76058333D01*
X209751667Y-76058333D01*
X209751667Y-75635000D01*
X208905000Y-75635000D01*
G36*
X210175000Y-75635000D02*
X210175000Y-75211667D01*
X211021667Y-75211667D01*
X211021667Y-74788333D01*
X210598333Y-74788333D01*
X210598333Y-73941667D01*
X210175000Y-73941667D01*
X210175000Y-74365000D01*
X209751667Y-74365000D01*
X209751667Y-73941667D01*
X208905000Y-73941667D01*
X208905000Y-74788333D01*
X209328333Y-74788333D01*
X209328333Y-75211667D01*
X209751667Y-75211667D01*
X209751667Y-75635000D01*
X210175000Y-75635000D01*
X210175000Y-75635000D01*
G37*
X210175000Y-75635000D02*
X210175000Y-75211667D01*
X211021667Y-75211667D01*
X211021667Y-74788333D01*
X210598333Y-74788333D01*
X210598333Y-73941667D01*
X210175000Y-73941667D01*
X210175000Y-74365000D01*
X209751667Y-74365000D01*
X209751667Y-73941667D01*
X208905000Y-73941667D01*
X208905000Y-74788333D01*
X209328333Y-74788333D01*
X209328333Y-75211667D01*
X209751667Y-75211667D01*
X209751667Y-75635000D01*
X210175000Y-75635000D01*
G36*
X205518333Y-72248333D02*
X205095000Y-72248333D01*
X205095000Y-73095000D01*
X205518333Y-73095000D01*
X205518333Y-72248333D01*
X205518333Y-72248333D01*
G37*
X205518333Y-72248333D02*
X205095000Y-72248333D01*
X205095000Y-73095000D01*
X205518333Y-73095000D01*
X205518333Y-72248333D01*
G36*
X202131667Y-73095000D02*
X201708333Y-73095000D01*
X201708333Y-74788333D01*
X202131667Y-74788333D01*
X202131667Y-73095000D01*
X202131667Y-73095000D01*
G37*
X202131667Y-73095000D02*
X201708333Y-73095000D01*
X201708333Y-74788333D01*
X202131667Y-74788333D01*
X202131667Y-73095000D01*
G36*
X211445000Y-75635000D02*
X211021667Y-75635000D01*
X211021667Y-76058333D01*
X211445000Y-76058333D01*
X211445000Y-75635000D01*
X211445000Y-75635000D01*
G37*
X211445000Y-75635000D02*
X211021667Y-75635000D01*
X211021667Y-76058333D01*
X211445000Y-76058333D01*
X211445000Y-75635000D01*
G36*
X212291667Y-76481667D02*
X212291667Y-76058333D01*
X211868333Y-76058333D01*
X211868333Y-76481667D01*
X212291667Y-76481667D01*
X212291667Y-76481667D01*
G37*
X212291667Y-76481667D02*
X212291667Y-76058333D01*
X211868333Y-76058333D01*
X211868333Y-76481667D01*
X212291667Y-76481667D01*
G36*
X211445000Y-76481667D02*
X211445000Y-76905000D01*
X211868333Y-76905000D01*
X211868333Y-76481667D01*
X211445000Y-76481667D01*
X211445000Y-76481667D01*
G37*
X211445000Y-76481667D02*
X211445000Y-76905000D01*
X211868333Y-76905000D01*
X211868333Y-76481667D01*
X211445000Y-76481667D01*
G36*
X210175000Y-76481667D02*
X209751667Y-76481667D01*
X209751667Y-76905000D01*
X210175000Y-76905000D01*
X210175000Y-76481667D01*
X210175000Y-76481667D01*
G37*
X210175000Y-76481667D02*
X209751667Y-76481667D01*
X209751667Y-76905000D01*
X210175000Y-76905000D01*
X210175000Y-76481667D01*
G36*
X211021667Y-76481667D02*
X210598333Y-76481667D01*
X210598333Y-76905000D01*
X211021667Y-76905000D01*
X211021667Y-76481667D01*
X211021667Y-76481667D01*
G37*
X211021667Y-76481667D02*
X210598333Y-76481667D01*
X210598333Y-76905000D01*
X211021667Y-76905000D01*
X211021667Y-76481667D01*
G36*
X204671667Y-77328333D02*
X201708333Y-77328333D01*
X201708333Y-79868333D01*
X202131667Y-79868333D01*
X202131667Y-77751667D01*
X204248333Y-77751667D01*
X204248333Y-79868333D01*
X202131667Y-79868333D01*
X201708333Y-79868333D01*
X201708333Y-80291667D01*
X204671667Y-80291667D01*
X204671667Y-77328333D01*
X204671667Y-77328333D01*
G37*
X204671667Y-77328333D02*
X201708333Y-77328333D01*
X201708333Y-79868333D01*
X202131667Y-79868333D01*
X202131667Y-77751667D01*
X204248333Y-77751667D01*
X204248333Y-79868333D01*
X202131667Y-79868333D01*
X201708333Y-79868333D01*
X201708333Y-80291667D01*
X204671667Y-80291667D01*
X204671667Y-77328333D01*
G36*
X212291667Y-77328333D02*
X209328333Y-77328333D01*
X209328333Y-79868333D01*
X209751667Y-79868333D01*
X209751667Y-77751667D01*
X211868333Y-77751667D01*
X211868333Y-79868333D01*
X209751667Y-79868333D01*
X209328333Y-79868333D01*
X209328333Y-80291667D01*
X212291667Y-80291667D01*
X212291667Y-77328333D01*
X212291667Y-77328333D01*
G37*
X212291667Y-77328333D02*
X209328333Y-77328333D01*
X209328333Y-79868333D01*
X209751667Y-79868333D01*
X209751667Y-77751667D01*
X211868333Y-77751667D01*
X211868333Y-79868333D01*
X209751667Y-79868333D01*
X209328333Y-79868333D01*
X209328333Y-80291667D01*
X212291667Y-80291667D01*
X212291667Y-77328333D01*
G36*
X205518333Y-79445000D02*
X205095000Y-79445000D01*
X205095000Y-79868333D01*
X205518333Y-79868333D01*
X205518333Y-79445000D01*
X205518333Y-79445000D01*
G37*
X205518333Y-79445000D02*
X205095000Y-79445000D01*
X205095000Y-79868333D01*
X205518333Y-79868333D01*
X205518333Y-79445000D01*
G36*
X206365000Y-79445000D02*
X205941667Y-79445000D01*
X205941667Y-80291667D01*
X206365000Y-80291667D01*
X206365000Y-79445000D01*
X206365000Y-79445000D01*
G37*
X206365000Y-79445000D02*
X205941667Y-79445000D01*
X205941667Y-80291667D01*
X206365000Y-80291667D01*
X206365000Y-79445000D01*
G36*
X208905000Y-79868333D02*
X208481667Y-79868333D01*
X208481667Y-80291667D01*
X208905000Y-80291667D01*
X208905000Y-79868333D01*
X208905000Y-79868333D01*
G37*
X208905000Y-79868333D02*
X208481667Y-79868333D01*
X208481667Y-80291667D01*
X208905000Y-80291667D01*
X208905000Y-79868333D01*
G36*
X203825000Y-70555000D02*
X202555000Y-70555000D01*
X202555000Y-71825000D01*
X203825000Y-71825000D01*
X203825000Y-70555000D01*
X203825000Y-70555000D01*
G37*
X203825000Y-70555000D02*
X202555000Y-70555000D01*
X202555000Y-71825000D01*
X203825000Y-71825000D01*
X203825000Y-70555000D01*
G36*
X209751667Y-72248333D02*
X209328333Y-72248333D01*
X209328333Y-72671667D01*
X209751667Y-72671667D01*
X209751667Y-72248333D01*
X209751667Y-72248333D01*
G37*
X209751667Y-72248333D02*
X209328333Y-72248333D01*
X209328333Y-72671667D01*
X209751667Y-72671667D01*
X209751667Y-72248333D01*
G36*
X205518333Y-74365000D02*
X205095000Y-74365000D01*
X205095000Y-74788333D01*
X205518333Y-74788333D01*
X205518333Y-74365000D01*
X205518333Y-74365000D01*
G37*
X205518333Y-74365000D02*
X205095000Y-74365000D01*
X205095000Y-74788333D01*
X205518333Y-74788333D01*
X205518333Y-74365000D01*
G36*
X205518333Y-75211667D02*
X206365000Y-75211667D01*
X206365000Y-74788333D01*
X205518333Y-74788333D01*
X205518333Y-75211667D01*
X205518333Y-75211667D01*
G37*
X205518333Y-75211667D02*
X206365000Y-75211667D01*
X206365000Y-74788333D01*
X205518333Y-74788333D01*
X205518333Y-75211667D01*
G36*
X208905000Y-74788333D02*
X208481667Y-74788333D01*
X208481667Y-74365000D01*
X208058333Y-74365000D01*
X208058333Y-75211667D01*
X208481667Y-75211667D01*
X208481667Y-75635000D01*
X208905000Y-75635000D01*
X208905000Y-74788333D01*
X208905000Y-74788333D01*
G37*
X208905000Y-74788333D02*
X208481667Y-74788333D01*
X208481667Y-74365000D01*
X208058333Y-74365000D01*
X208058333Y-75211667D01*
X208481667Y-75211667D01*
X208481667Y-75635000D01*
X208905000Y-75635000D01*
X208905000Y-74788333D01*
G36*
X204671667Y-74788333D02*
X203825000Y-74788333D01*
X203825000Y-75211667D01*
X204671667Y-75211667D01*
X204671667Y-74788333D01*
X204671667Y-74788333D01*
G37*
X204671667Y-74788333D02*
X203825000Y-74788333D01*
X203825000Y-75211667D01*
X204671667Y-75211667D01*
X204671667Y-74788333D01*
G36*
X207211667Y-75211667D02*
X207635000Y-75211667D01*
X207635000Y-74788333D01*
X206788333Y-74788333D01*
X206788333Y-75635000D01*
X207211667Y-75635000D01*
X207211667Y-75211667D01*
X207211667Y-75211667D01*
G37*
X207211667Y-75211667D02*
X207635000Y-75211667D01*
X207635000Y-74788333D01*
X206788333Y-74788333D01*
X206788333Y-75635000D01*
X207211667Y-75635000D01*
X207211667Y-75211667D01*
G36*
X206365000Y-75635000D02*
X205941667Y-75635000D01*
X205941667Y-76481667D01*
X206365000Y-76481667D01*
X206365000Y-75635000D01*
X206365000Y-75635000D01*
G37*
X206365000Y-75635000D02*
X205941667Y-75635000D01*
X205941667Y-76481667D01*
X206365000Y-76481667D01*
X206365000Y-75635000D01*
G36*
X207211667Y-76058333D02*
X206788333Y-76058333D01*
X206788333Y-76481667D01*
X207211667Y-76481667D01*
X207211667Y-76058333D01*
X207211667Y-76058333D01*
G37*
X207211667Y-76058333D02*
X206788333Y-76058333D01*
X206788333Y-76481667D01*
X207211667Y-76481667D01*
X207211667Y-76058333D01*
G36*
X203825000Y-78175000D02*
X202555000Y-78175000D01*
X202555000Y-79445000D01*
X203825000Y-79445000D01*
X203825000Y-78175000D01*
X203825000Y-78175000D01*
G37*
X203825000Y-78175000D02*
X202555000Y-78175000D01*
X202555000Y-79445000D01*
X203825000Y-79445000D01*
X203825000Y-78175000D01*
G36*
X211445000Y-78175000D02*
X210175000Y-78175000D01*
X210175000Y-79445000D01*
X211445000Y-79445000D01*
X211445000Y-78175000D01*
X211445000Y-78175000D01*
G37*
X211445000Y-78175000D02*
X210175000Y-78175000D01*
X210175000Y-79445000D01*
X211445000Y-79445000D01*
X211445000Y-78175000D01*
M02*
