G04 #@! TF.FileFunction,Copper,L1,Top,Signal*
%FSLAX46Y46*%
G04 Gerber Fmt 4.6, Leading zero omitted, Abs format (unit mm)*
G04 Created by KiCad (PCBNEW 4.0.2+dfsg1-stable) date Sun 11 Sep 2016 08:44:01 PM CDT*
%MOMM*%
G01*
G04 APERTURE LIST*
%ADD10C,0.100000*%
%ADD11R,0.600000X1.550000*%
%ADD12R,1.200000X0.750000*%
%ADD13R,0.750000X1.200000*%
%ADD14R,5.000000X1.600000*%
%ADD15R,1.600000X5.000000*%
%ADD16R,1.600000X4.700000*%
%ADD17R,2.301240X0.500380*%
%ADD18R,2.499360X1.998980*%
%ADD19R,1.524000X2.260600*%
%ADD20R,6.731000X6.223000*%
%ADD21R,1.200000X0.900000*%
%ADD22R,1.700000X0.650000*%
%ADD23R,2.260600X1.524000*%
%ADD24R,6.223000X6.731000*%
%ADD25R,3.299460X2.499360*%
%ADD26R,2.032000X1.727200*%
%ADD27O,2.032000X1.727200*%
%ADD28R,1.750000X0.450000*%
%ADD29R,0.600000X1.500000*%
%ADD30C,2.500000*%
%ADD31R,0.450000X1.750000*%
%ADD32R,1.198880X1.198880*%
%ADD33C,0.635000*%
%ADD34C,1.016000*%
%ADD35C,0.203200*%
%ADD36C,0.762000*%
%ADD37C,0.381000*%
G04 APERTURE END LIST*
D10*
D11*
X154555000Y-74800000D03*
X155825000Y-74800000D03*
X157095000Y-74800000D03*
X158365000Y-74800000D03*
X158365000Y-69400000D03*
X157095000Y-69400000D03*
X155825000Y-69400000D03*
X154555000Y-69400000D03*
X165985000Y-74800000D03*
X167255000Y-74800000D03*
X168525000Y-74800000D03*
X169795000Y-74800000D03*
X169795000Y-69400000D03*
X168525000Y-69400000D03*
X167255000Y-69400000D03*
X165985000Y-69400000D03*
D12*
X197358000Y-46814000D03*
X195458000Y-46814000D03*
D13*
X189296000Y-58056000D03*
X189296000Y-59956000D03*
D12*
X201676000Y-46814000D03*
X199776000Y-46814000D03*
X177300000Y-56650000D03*
X179200000Y-56650000D03*
D14*
X126740000Y-82570000D03*
X118440000Y-82620000D03*
X126740000Y-73070000D03*
X118440000Y-73120000D03*
D13*
X129940000Y-66520000D03*
X129940000Y-64620000D03*
X129940000Y-59220000D03*
X129940000Y-61120000D03*
D15*
X138860000Y-57680000D03*
X138910000Y-65980000D03*
D13*
X91500000Y-72500000D03*
X91500000Y-70600000D03*
X101500000Y-72500000D03*
X101500000Y-70600000D03*
X111500000Y-72500000D03*
X111500000Y-70600000D03*
D16*
X138940000Y-73620000D03*
X133240000Y-73620000D03*
D17*
X210201580Y-56399840D03*
X210201580Y-55599740D03*
X210201580Y-54799640D03*
X210201580Y-53999540D03*
X210201580Y-53199440D03*
D18*
X210300640Y-59249720D03*
X215799740Y-59249720D03*
X210300640Y-50349560D03*
X215799740Y-50349560D03*
D19*
X88786000Y-65337200D03*
X84214000Y-65337200D03*
D20*
X86500000Y-72500000D03*
D19*
X98786000Y-65337200D03*
X94214000Y-65337200D03*
D20*
X96500000Y-72500000D03*
D19*
X108786000Y-65337200D03*
X104214000Y-65337200D03*
D20*
X106500000Y-72500000D03*
D21*
X88400000Y-62000000D03*
X90600000Y-62000000D03*
X98500000Y-62000000D03*
X100700000Y-62000000D03*
X108400000Y-62000000D03*
X110600000Y-62000000D03*
D22*
X184850000Y-54105000D03*
X184850000Y-52835000D03*
X184850000Y-51565000D03*
X184850000Y-50295000D03*
X177550000Y-50295000D03*
X177550000Y-51565000D03*
X177550000Y-52835000D03*
X177550000Y-54105000D03*
D23*
X126440000Y-64906000D03*
X126440000Y-60334000D03*
D24*
X119277200Y-62620000D03*
D25*
X134440000Y-79218940D03*
X134440000Y-86021060D03*
X87500000Y-86901060D03*
X87500000Y-80098940D03*
X97500000Y-86901060D03*
X97500000Y-80098940D03*
X107500000Y-87500000D03*
X107500000Y-80697880D03*
D12*
X161248321Y-53614355D03*
X163148321Y-53614355D03*
X161248321Y-51614355D03*
X163148321Y-51614355D03*
D26*
X93400000Y-56820000D03*
D27*
X93400000Y-54280000D03*
X93400000Y-51740000D03*
X93400000Y-49200000D03*
X93400000Y-46660000D03*
D28*
X165600000Y-64225000D03*
X165600000Y-63575000D03*
X165600000Y-62925000D03*
X165600000Y-62275000D03*
X165600000Y-61625000D03*
X165600000Y-60975000D03*
X165600000Y-60325000D03*
X165600000Y-59675000D03*
X165600000Y-59025000D03*
X165600000Y-58375000D03*
X165600000Y-57725000D03*
X165600000Y-57075000D03*
X165600000Y-56425000D03*
X165600000Y-55775000D03*
X158400000Y-55775000D03*
X158400000Y-56425000D03*
X158400000Y-57075000D03*
X158400000Y-57725000D03*
X158400000Y-58375000D03*
X158400000Y-59025000D03*
X158400000Y-59675000D03*
X158400000Y-60325000D03*
X158400000Y-60975000D03*
X158400000Y-61625000D03*
X158400000Y-62275000D03*
X158400000Y-62925000D03*
X158400000Y-63575000D03*
X158400000Y-64225000D03*
D29*
X201490000Y-82100000D03*
X200220000Y-82100000D03*
X198950000Y-82100000D03*
X197680000Y-82100000D03*
X196410000Y-82100000D03*
X195140000Y-82100000D03*
X193870000Y-82100000D03*
X192600000Y-82100000D03*
X192600000Y-91400000D03*
X193870000Y-91400000D03*
X195140000Y-91400000D03*
X196410000Y-91400000D03*
X197680000Y-91400000D03*
X198950000Y-91400000D03*
X200220000Y-91400000D03*
X201490000Y-91400000D03*
X165045000Y-82100000D03*
X163775000Y-82100000D03*
X162505000Y-82100000D03*
X161235000Y-82100000D03*
X159965000Y-82100000D03*
X158695000Y-82100000D03*
X157425000Y-82100000D03*
X156155000Y-82100000D03*
X156155000Y-91400000D03*
X157425000Y-91400000D03*
X158695000Y-91400000D03*
X159965000Y-91400000D03*
X161235000Y-91400000D03*
X162505000Y-91400000D03*
X163775000Y-91400000D03*
X165045000Y-91400000D03*
D11*
X196600000Y-74800000D03*
X197870000Y-74800000D03*
X199140000Y-74800000D03*
X200410000Y-74800000D03*
X200410000Y-69400000D03*
X199140000Y-69400000D03*
X197870000Y-69400000D03*
X196600000Y-69400000D03*
D13*
X161000000Y-71050000D03*
X161000000Y-72950000D03*
X173000000Y-71050000D03*
X173000000Y-72950000D03*
X203000000Y-71214800D03*
X203000000Y-73114800D03*
D30*
X184500000Y-98500000D03*
X189500000Y-98500000D03*
X194500000Y-98500000D03*
X199500000Y-98500000D03*
X204500000Y-98500000D03*
X209500000Y-98500000D03*
X214500000Y-98500000D03*
X179500000Y-98500000D03*
X144500000Y-98500000D03*
X149500000Y-98500000D03*
X154500000Y-98500000D03*
X159500000Y-98500000D03*
X164500000Y-98500000D03*
X169500000Y-98500000D03*
X174500000Y-98500000D03*
X139500000Y-98500000D03*
D31*
X192100000Y-57300000D03*
X192750000Y-57300000D03*
X193400000Y-57300000D03*
X194050000Y-57300000D03*
X194700000Y-57300000D03*
X195350000Y-57300000D03*
X196000000Y-57300000D03*
X196650000Y-57300000D03*
X197300000Y-57300000D03*
X197950000Y-57300000D03*
X198600000Y-57300000D03*
X199250000Y-57300000D03*
X199900000Y-57300000D03*
X200550000Y-57300000D03*
X200550000Y-50100000D03*
X199900000Y-50100000D03*
X199250000Y-50100000D03*
X198600000Y-50100000D03*
X197950000Y-50100000D03*
X197300000Y-50100000D03*
X196650000Y-50100000D03*
X196000000Y-50100000D03*
X195350000Y-50100000D03*
X194700000Y-50100000D03*
X194050000Y-50100000D03*
X193400000Y-50100000D03*
X192750000Y-50100000D03*
X192100000Y-50100000D03*
D30*
X121500000Y-98500000D03*
X116500000Y-98500000D03*
X131500000Y-98500000D03*
X126500000Y-98500000D03*
X88500000Y-98500000D03*
X83500000Y-98500000D03*
X98500000Y-98500000D03*
X93500000Y-98500000D03*
X108500000Y-98500000D03*
X103500000Y-98500000D03*
D32*
X147598040Y-83000000D03*
X145500000Y-83000000D03*
X147549020Y-85500000D03*
X145450980Y-85500000D03*
X147549020Y-88000000D03*
X145450980Y-88000000D03*
X147598040Y-90500000D03*
X145500000Y-90500000D03*
D21*
X149800000Y-83000000D03*
X152000000Y-83000000D03*
X149900000Y-85500000D03*
X152100000Y-85500000D03*
X149900000Y-88000000D03*
X152100000Y-88000000D03*
X149900000Y-90500000D03*
X152100000Y-90500000D03*
D33*
X146500000Y-65700000D03*
D34*
X117000000Y-68000000D03*
X103200000Y-68000000D03*
D33*
X123400000Y-58200000D03*
X96800000Y-53600000D03*
X162800000Y-54800000D03*
X140800000Y-63600000D03*
X157400000Y-54400000D03*
X202400000Y-75000000D03*
X171200000Y-75600000D03*
X160200000Y-76200000D03*
X212000000Y-55600000D03*
X207631354Y-51439817D03*
X197358000Y-48200000D03*
X193800000Y-59000000D03*
X191200000Y-59600000D03*
X160400000Y-60800000D03*
X199800000Y-66000000D03*
X161977914Y-57422086D03*
X160600000Y-57200000D03*
X168332368Y-60203080D03*
X198400000Y-65600000D03*
X197000000Y-65600000D03*
X160000000Y-60000000D03*
X169057338Y-58628247D03*
X195177914Y-65422086D03*
X160450867Y-59323700D03*
X195073197Y-66770975D03*
X193323626Y-66479454D03*
X167800000Y-58600000D03*
X175082727Y-60144405D03*
X167600000Y-57600000D03*
X168000000Y-67000000D03*
X163400000Y-64200000D03*
X162600000Y-63600000D03*
X166233200Y-67400000D03*
X163200000Y-62806635D03*
X158400000Y-67800000D03*
X163200000Y-61993822D03*
X157000000Y-67600000D03*
X136400000Y-52200000D03*
X156600000Y-58400000D03*
X138000000Y-52200000D03*
X163000000Y-55800000D03*
X137800000Y-51200000D03*
X156200000Y-55200000D03*
X113400000Y-58200000D03*
X97400000Y-55400000D03*
X201800000Y-71000000D03*
X140600000Y-58200000D03*
X159800000Y-52800000D03*
X175000000Y-57200000D03*
X154200000Y-71400000D03*
X163000000Y-71600000D03*
X174800000Y-71800000D03*
X195800000Y-71800000D03*
D34*
X127600000Y-86200000D03*
D33*
X149622069Y-76500000D03*
X153220579Y-84529421D03*
X139809034Y-53196920D03*
X155044137Y-56212580D03*
X150694093Y-78538265D03*
X153500000Y-87000000D03*
X152500000Y-56500000D03*
X140543745Y-54255402D03*
X163422086Y-57177914D03*
X153600000Y-57218989D03*
X151600000Y-78600000D03*
X153350000Y-89400000D03*
X140822086Y-55377914D03*
X163600000Y-58400000D03*
X155312862Y-58390525D03*
X172015731Y-61859902D03*
D35*
X145500000Y-83000000D02*
X145500000Y-66700000D01*
X145500000Y-66700000D02*
X146500000Y-65700000D01*
X145500000Y-90500000D02*
X145500000Y-88049020D01*
X145500000Y-88049020D02*
X145450980Y-88000000D01*
X145500000Y-83000000D02*
X145500000Y-89000000D01*
D36*
X118440000Y-68000000D02*
X118440000Y-63457200D01*
X118440000Y-73120000D02*
X118440000Y-68000000D01*
X118440000Y-68000000D02*
X117000000Y-68000000D01*
X101500000Y-68000000D02*
X103200000Y-68000000D01*
X101863389Y-67943889D02*
X101919500Y-68000000D01*
X101863389Y-67294886D02*
X101863389Y-67943889D01*
X103452775Y-65705500D02*
X101863389Y-67294886D01*
X104214000Y-65705500D02*
X103452775Y-65705500D01*
D37*
X123400000Y-58200000D02*
X119277200Y-62322800D01*
X119277200Y-62322800D02*
X119277200Y-62620000D01*
X95477000Y-53600000D02*
X96800000Y-53600000D01*
X93400000Y-54280000D02*
X94797000Y-54280000D01*
X94797000Y-54280000D02*
X95477000Y-53600000D01*
X162800000Y-54800000D02*
X163148321Y-54451679D01*
X163148321Y-54451679D02*
X163148321Y-54370355D01*
X140800000Y-63600000D02*
X140800000Y-65271000D01*
X140800000Y-65271000D02*
X140091000Y-65980000D01*
X140091000Y-65980000D02*
X138910000Y-65980000D01*
X163977966Y-55200000D02*
X163977966Y-55408966D01*
X163977966Y-55408966D02*
X164344000Y-55775000D01*
X164344000Y-55775000D02*
X165600000Y-55775000D01*
X163148321Y-53614355D02*
X163148321Y-54370355D01*
X163148321Y-54370355D02*
X163977966Y-55200000D01*
X163148321Y-51614355D02*
X163148321Y-53614355D01*
X163148321Y-51614355D02*
X162923321Y-51614355D01*
X148790000Y-54400000D02*
X157400000Y-54400000D01*
X146800000Y-56390000D02*
X148790000Y-54400000D01*
X138910000Y-65980000D02*
X138910000Y-64280000D01*
X138910000Y-64280000D02*
X146800000Y-56390000D01*
D35*
X177550000Y-50295000D02*
X170651800Y-50295000D01*
X170651800Y-50295000D02*
X165600000Y-55346800D01*
X165600000Y-55346800D02*
X165600000Y-55775000D01*
X180200000Y-51800000D02*
X178695000Y-50295000D01*
X178695000Y-50295000D02*
X177550000Y-50295000D01*
X180200000Y-56453200D02*
X180200000Y-51800000D01*
X179200000Y-56650000D02*
X180003200Y-56650000D01*
X180003200Y-56650000D02*
X180200000Y-56453200D01*
X201539800Y-74800000D02*
X202000000Y-74339800D01*
X202000000Y-74339800D02*
X203000000Y-73339800D01*
X202400000Y-75000000D02*
X202000000Y-74600000D01*
X202000000Y-74600000D02*
X202000000Y-74339800D01*
X171200000Y-75600000D02*
X170595000Y-75600000D01*
X170595000Y-75600000D02*
X170416800Y-75778200D01*
X169795000Y-75275000D02*
X169795000Y-74800000D01*
X170416800Y-75778200D02*
X170298200Y-75778200D01*
X170298200Y-75778200D02*
X169795000Y-75275000D01*
X159600000Y-75400000D02*
X160200000Y-76000000D01*
X160200000Y-76000000D02*
X160200000Y-76200000D01*
X159600000Y-74575000D02*
X161000000Y-73175000D01*
X159375000Y-74800000D02*
X159600000Y-74575000D01*
X159600000Y-74575000D02*
X159600000Y-75400000D01*
X200410000Y-74800000D02*
X201539800Y-74800000D01*
X203000000Y-73339800D02*
X203000000Y-73114800D01*
X169795000Y-74800000D02*
X170298200Y-74800000D01*
X172421800Y-72950000D02*
X173000000Y-72950000D01*
X170298200Y-74800000D02*
X172148200Y-72950000D01*
X172148200Y-72950000D02*
X172421800Y-72950000D01*
X158365000Y-74800000D02*
X159375000Y-74800000D01*
X161000000Y-73175000D02*
X161000000Y-72950000D01*
D36*
X118440000Y-82620000D02*
X118440000Y-84182000D01*
X118440000Y-84182000D02*
X126940000Y-92682000D01*
X126940000Y-92682000D02*
X126940000Y-99120000D01*
X129940000Y-62482000D02*
X129940000Y-64620000D01*
X129802000Y-62620000D02*
X119277200Y-62620000D01*
X129940000Y-61120000D02*
X129940000Y-62482000D01*
X129940000Y-62482000D02*
X129802000Y-62620000D01*
X136240000Y-65920000D02*
X131440000Y-61120000D01*
X131440000Y-61120000D02*
X129940000Y-61120000D01*
X137990000Y-65920000D02*
X136240000Y-65920000D01*
X118440000Y-63457200D02*
X119277200Y-62620000D01*
X118440000Y-73120000D02*
X118440000Y-82620000D01*
D37*
X91500000Y-70600000D02*
X91500000Y-68000000D01*
X101500000Y-70600000D02*
X101500000Y-68419500D01*
X101500000Y-68419500D02*
X101919500Y-68000000D01*
X106000000Y-68000000D02*
X106000000Y-67491500D01*
X106000000Y-67491500D02*
X104214000Y-65705500D01*
X104214000Y-65705500D02*
X104214000Y-65337200D01*
X110000000Y-68000000D02*
X106000000Y-68000000D01*
X111500000Y-69500000D02*
X110000000Y-68000000D01*
X111500000Y-70375000D02*
X111500000Y-69500000D01*
X111500000Y-70600000D02*
X111500000Y-70375000D01*
X83889500Y-67229500D02*
X84214000Y-67229500D01*
D36*
X94250000Y-68000000D02*
X91500000Y-68000000D01*
X91500000Y-68000000D02*
X84984500Y-68000000D01*
X101919500Y-68000000D02*
X101500000Y-68000000D01*
X101500000Y-68000000D02*
X94250000Y-68000000D01*
X94214000Y-65337200D02*
X94214000Y-67229500D01*
X94214000Y-67229500D02*
X94250000Y-67265500D01*
X94250000Y-67265500D02*
X94250000Y-68000000D01*
X84214000Y-65337200D02*
X84214000Y-67229500D01*
X84214000Y-67229500D02*
X84984500Y-68000000D01*
D35*
X154305000Y-93700000D02*
X145190000Y-93700000D01*
X145190000Y-93700000D02*
X139600000Y-99290000D01*
X156155000Y-91400000D02*
X156155000Y-91850000D01*
X156155000Y-91850000D02*
X154305000Y-93700000D01*
X155000000Y-95500000D02*
X157425000Y-93075000D01*
X157425000Y-93075000D02*
X157425000Y-91400000D01*
X144600000Y-99290000D02*
X148390000Y-95500000D01*
X148390000Y-95500000D02*
X155000000Y-95500000D01*
X155800000Y-96100000D02*
X152790000Y-96100000D01*
X152790000Y-96100000D02*
X149600000Y-99290000D01*
X158695000Y-93205000D02*
X155800000Y-96100000D01*
X158695000Y-91400000D02*
X158695000Y-93205000D01*
X159965000Y-91400000D02*
X159965000Y-93925000D01*
X159965000Y-93925000D02*
X154600000Y-99290000D01*
X161235000Y-91400000D02*
X161235000Y-97655000D01*
X161235000Y-97655000D02*
X159600000Y-99290000D01*
X162505000Y-91400000D02*
X162505000Y-97195000D01*
X162505000Y-97195000D02*
X164600000Y-99290000D01*
X165500000Y-96900000D02*
X167210000Y-96900000D01*
X167210000Y-96900000D02*
X169600000Y-99290000D01*
X163775000Y-95175000D02*
X165500000Y-96900000D01*
X163775000Y-91400000D02*
X163775000Y-95175000D01*
X166600000Y-95200000D02*
X170510000Y-95200000D01*
X170510000Y-95200000D02*
X174600000Y-99290000D01*
X165045000Y-93645000D02*
X166600000Y-95200000D01*
X165045000Y-91400000D02*
X165045000Y-93645000D01*
X212000000Y-55600000D02*
X211682501Y-55917499D01*
X211682501Y-55917499D02*
X211682501Y-56272739D01*
X211682501Y-56272739D02*
X211555400Y-56399840D01*
X211555400Y-56399840D02*
X210201580Y-56399840D01*
X201840549Y-45200000D02*
X207631354Y-50990805D01*
X207631354Y-50990805D02*
X207631354Y-51439817D01*
X198161200Y-46814000D02*
X199775200Y-45200000D01*
X197358000Y-46814000D02*
X198161200Y-46814000D01*
X199775200Y-45200000D02*
X201840549Y-45200000D01*
X197358000Y-46814000D02*
X197358000Y-48200000D01*
X197358000Y-48200000D02*
X197358000Y-50042000D01*
X197358000Y-50042000D02*
X197300000Y-50100000D01*
X193800000Y-59000000D02*
X194050000Y-58750000D01*
X194050000Y-58750000D02*
X194050000Y-57300000D01*
X190600000Y-58781800D02*
X190600000Y-59000000D01*
X190600000Y-59000000D02*
X191200000Y-59600000D01*
X189296000Y-58056000D02*
X189874200Y-58056000D01*
X189874200Y-58056000D02*
X190600000Y-58781800D01*
X189296000Y-58056000D02*
X189296000Y-57831000D01*
X189296000Y-57831000D02*
X185570000Y-54105000D01*
X185570000Y-54105000D02*
X184850000Y-54105000D01*
X210201580Y-53199440D02*
X210201580Y-52746050D01*
X210201580Y-52746050D02*
X209655530Y-52200000D01*
X209655530Y-52200000D02*
X209600000Y-52200000D01*
X209600000Y-52200000D02*
X201800000Y-44400000D01*
X201800000Y-44400000D02*
X197293800Y-44400000D01*
X197293800Y-44400000D02*
X195458000Y-46235800D01*
X195458000Y-46235800D02*
X195458000Y-46814000D01*
X199776000Y-46814000D02*
X199776000Y-47392200D01*
X199776000Y-47392200D02*
X198600000Y-48568200D01*
X198600000Y-48568200D02*
X198600000Y-49021800D01*
X198600000Y-49021800D02*
X198600000Y-50100000D01*
X195458000Y-46814000D02*
X195458000Y-47392200D01*
X195458000Y-47392200D02*
X196650000Y-48584200D01*
X196650000Y-48584200D02*
X196650000Y-49021800D01*
X196650000Y-49021800D02*
X196650000Y-50100000D01*
X196000000Y-52200000D02*
X196000000Y-56221800D01*
X196000000Y-51828200D02*
X196000000Y-52200000D01*
X196000000Y-52200000D02*
X197578200Y-52200000D01*
X197578200Y-52200000D02*
X198600000Y-51178200D01*
X198600000Y-51178200D02*
X198600000Y-50100000D01*
X196650000Y-50100000D02*
X196650000Y-51178200D01*
X196650000Y-51178200D02*
X196000000Y-51828200D01*
X196000000Y-56221800D02*
X196000000Y-57300000D01*
X194800000Y-60800000D02*
X196000000Y-59600000D01*
X196000000Y-59600000D02*
X196000000Y-57300000D01*
X190718200Y-60800000D02*
X194800000Y-60800000D01*
X189296000Y-59956000D02*
X189874200Y-59956000D01*
X189874200Y-59956000D02*
X190718200Y-60800000D01*
X184620000Y-50000000D02*
X184620000Y-50065000D01*
X184620000Y-50065000D02*
X184850000Y-50295000D01*
X183200000Y-56000000D02*
X183200000Y-51420000D01*
X183200000Y-51420000D02*
X184620000Y-50000000D01*
X187156000Y-59956000D02*
X183200000Y-56000000D01*
X189296000Y-59956000D02*
X187156000Y-59956000D01*
X201068200Y-48000000D02*
X200271800Y-48000000D01*
X200271800Y-48000000D02*
X199250000Y-49021800D01*
X199250000Y-49021800D02*
X199250000Y-50100000D01*
X201676000Y-46814000D02*
X201676000Y-47392200D01*
X201676000Y-47392200D02*
X201068200Y-48000000D01*
D36*
X128440000Y-65013700D02*
X128440000Y-66157000D01*
X128803000Y-66520000D02*
X129940000Y-66520000D01*
X128440000Y-66157000D02*
X128803000Y-66520000D01*
X126440000Y-64906000D02*
X128332300Y-64906000D01*
X128332300Y-64906000D02*
X128440000Y-65013700D01*
X126740000Y-73070000D02*
X126740000Y-65206000D01*
X126740000Y-65206000D02*
X126440000Y-64906000D01*
X133240000Y-73620000D02*
X127290000Y-73620000D01*
X127290000Y-73620000D02*
X126740000Y-73070000D01*
X134440000Y-86021060D02*
X134440000Y-96620000D01*
X134440000Y-96620000D02*
X131940000Y-99120000D01*
X83500000Y-98500000D02*
X81843891Y-96843891D01*
X87099950Y-80098940D02*
X87500000Y-80098940D01*
X81843891Y-96843891D02*
X81843891Y-85354999D01*
X81843891Y-85354999D02*
X87099950Y-80098940D01*
X86500000Y-72500000D02*
X86500000Y-79098940D01*
X86500000Y-79098940D02*
X87500000Y-80098940D01*
X96500000Y-72500000D02*
X96500000Y-79098940D01*
X96500000Y-79098940D02*
X97500000Y-80098940D01*
X93500000Y-98500000D02*
X93500000Y-83698890D01*
X93500000Y-83698890D02*
X97099950Y-80098940D01*
X97099950Y-80098940D02*
X97500000Y-80098940D01*
X106500000Y-72500000D02*
X106500000Y-79697880D01*
X106500000Y-79697880D02*
X107500000Y-80697880D01*
X103500000Y-98500000D02*
X103500000Y-84297830D01*
X103500000Y-84297830D02*
X107099950Y-80697880D01*
X107099950Y-80697880D02*
X107500000Y-80697880D01*
D35*
X199900000Y-50100000D02*
X199900000Y-54855543D01*
X199900000Y-54855543D02*
X200644197Y-55599740D01*
X200644197Y-55599740D02*
X210201580Y-55599740D01*
X201000360Y-54799640D02*
X200550000Y-54349280D01*
X200550000Y-54349280D02*
X200550000Y-53516778D01*
X200550000Y-50100000D02*
X200550000Y-53516778D01*
X201000360Y-54799640D02*
X210201580Y-54799640D01*
D37*
X88400000Y-62000000D02*
X88400000Y-64951200D01*
X88400000Y-64951200D02*
X88786000Y-65337200D01*
X98500000Y-62000000D02*
X98500000Y-65051200D01*
X98500000Y-65051200D02*
X98786000Y-65337200D01*
X108786000Y-65337200D02*
X108786000Y-62386000D01*
X108786000Y-62386000D02*
X108400000Y-62000000D01*
D35*
X160400000Y-60800000D02*
X159827922Y-60800000D01*
X159352922Y-60325000D02*
X158400000Y-60325000D01*
X159827922Y-60800000D02*
X159352922Y-60325000D01*
X200410000Y-66410000D02*
X200000000Y-66000000D01*
X200000000Y-66000000D02*
X199800000Y-66000000D01*
X200410000Y-69400000D02*
X200410000Y-66410000D01*
X201490000Y-78090000D02*
X201490000Y-81146800D01*
X199800000Y-73938830D02*
X199800000Y-76400000D01*
X200410000Y-69400000D02*
X200410000Y-73328830D01*
X201490000Y-81146800D02*
X201490000Y-82100000D01*
X199800000Y-76400000D02*
X201490000Y-78090000D01*
X200410000Y-73328830D02*
X199800000Y-73938830D01*
X161977914Y-63861328D02*
X161977914Y-57871098D01*
X168800000Y-65800000D02*
X163916586Y-65800000D01*
X163916586Y-65800000D02*
X161977914Y-63861328D01*
X169200000Y-66200000D02*
X168800000Y-65800000D01*
X168525000Y-72647752D02*
X169200000Y-71972752D01*
X168525000Y-74800000D02*
X168525000Y-72647752D01*
X169200000Y-71972752D02*
X169200000Y-66200000D01*
X161977914Y-57871098D02*
X161977914Y-57422086D01*
X160600000Y-57200000D02*
X158525000Y-57200000D01*
X158525000Y-57200000D02*
X158400000Y-57075000D01*
X168525000Y-74800000D02*
X168525000Y-76825000D01*
X168525000Y-76825000D02*
X171000000Y-79300000D01*
X171000000Y-79300000D02*
X190400000Y-79300000D01*
X190400000Y-79300000D02*
X190400000Y-79450000D01*
X190400000Y-79450000D02*
X192600000Y-81650000D01*
X192600000Y-81650000D02*
X192600000Y-82100000D01*
X165600000Y-60325000D02*
X168210448Y-60325000D01*
X168210448Y-60325000D02*
X168332368Y-60203080D01*
X199830599Y-67600000D02*
X199830599Y-67369401D01*
X199830599Y-72638244D02*
X199830599Y-67600000D01*
X199830599Y-67600000D02*
X199830599Y-67030599D01*
X199830599Y-67030599D02*
X198400000Y-65600000D01*
X199140000Y-74800000D02*
X199140000Y-73328843D01*
X199140000Y-73328843D02*
X199830599Y-72638244D01*
X199140000Y-76840000D02*
X200220000Y-77920000D01*
X200220000Y-77920000D02*
X200220000Y-82100000D01*
X199140000Y-74800000D02*
X199140000Y-76840000D01*
X197000000Y-65600000D02*
X197000000Y-66073888D01*
X197000000Y-66073888D02*
X199140000Y-68213888D01*
X199140000Y-68213888D02*
X199140000Y-69400000D01*
X159803200Y-60000000D02*
X160000000Y-60000000D01*
X158400000Y-59675000D02*
X159478200Y-59675000D01*
X159478200Y-59675000D02*
X159803200Y-60000000D01*
X199140000Y-69400000D02*
X199140000Y-72288579D01*
X198560599Y-77460599D02*
X198950000Y-77850000D01*
X199140000Y-72288579D02*
X198560599Y-72867980D01*
X198560599Y-72867980D02*
X198560599Y-77460599D01*
X198950000Y-77850000D02*
X198950000Y-82100000D01*
X168739839Y-58945746D02*
X169057338Y-58628247D01*
X168010585Y-59675000D02*
X168739839Y-58945746D01*
X165600000Y-59675000D02*
X168010585Y-59675000D01*
X195495413Y-65739585D02*
X195177914Y-65422086D01*
X198500000Y-68500101D02*
X195739484Y-65739585D01*
X198500000Y-71837322D02*
X198500000Y-68500101D01*
X197870000Y-72467322D02*
X198500000Y-71837322D01*
X197870000Y-74800000D02*
X197870000Y-72467322D01*
X195739484Y-65739585D02*
X195495413Y-65739585D01*
X197870000Y-74800000D02*
X197870000Y-81910000D01*
X197870000Y-81910000D02*
X197680000Y-82100000D01*
X158400000Y-59025000D02*
X160152167Y-59025000D01*
X160152167Y-59025000D02*
X160450867Y-59323700D01*
X195522209Y-66770975D02*
X195073197Y-66770975D01*
X197870000Y-69400000D02*
X197870000Y-68421800D01*
X197870000Y-68421800D02*
X196219175Y-66770975D01*
X196219175Y-66770975D02*
X195522209Y-66770975D01*
X197870000Y-69400000D02*
X197870000Y-71202687D01*
X197200000Y-71872687D02*
X197200000Y-79200000D01*
X197870000Y-71202687D02*
X197200000Y-71872687D01*
X197200000Y-79200000D02*
X196410000Y-79990000D01*
X196410000Y-79990000D02*
X196410000Y-81146800D01*
X196410000Y-81146800D02*
X196410000Y-82100000D01*
X193641125Y-66796953D02*
X193323626Y-66479454D01*
X194212049Y-67367877D02*
X193641125Y-66796953D01*
X197200000Y-68290630D02*
X196277247Y-67367877D01*
X197200000Y-70903815D02*
X197200000Y-68290630D01*
X196600000Y-71503815D02*
X197200000Y-70903815D01*
X196600000Y-74800000D02*
X196600000Y-71503815D01*
X196277247Y-67367877D02*
X194212049Y-67367877D01*
X167800000Y-58600000D02*
X167482501Y-58282501D01*
X167482501Y-58282501D02*
X165692499Y-58282501D01*
X165692499Y-58282501D02*
X165600000Y-58375000D01*
X196600000Y-78600000D02*
X195140000Y-80060000D01*
X195140000Y-80060000D02*
X195140000Y-81840000D01*
X196600000Y-78300000D02*
X196600000Y-78600000D01*
X196600000Y-74800000D02*
X196600000Y-78300000D01*
X169795000Y-65432132D02*
X174765228Y-60461904D01*
X169795000Y-69400000D02*
X169795000Y-65432132D01*
X174765228Y-60461904D02*
X175082727Y-60144405D01*
X167600000Y-57600000D02*
X165725000Y-57600000D01*
X165725000Y-57600000D02*
X165600000Y-57725000D01*
X169795000Y-70378200D02*
X169795000Y-69400000D01*
X169795000Y-73090630D02*
X169795000Y-70378200D01*
X169104401Y-73781229D02*
X169795000Y-73090630D01*
X169104401Y-76604401D02*
X169104401Y-73781229D01*
X170900000Y-78400000D02*
X169104401Y-76604401D01*
X190620000Y-78400000D02*
X170900000Y-78400000D01*
X191300000Y-79080000D02*
X190620000Y-78400000D01*
X191300000Y-79080000D02*
X191200000Y-78980000D01*
X193870000Y-81650000D02*
X191300000Y-79080000D01*
X193870000Y-82100000D02*
X193870000Y-81650000D01*
X168525000Y-69400000D02*
X168525000Y-67525000D01*
X168525000Y-67525000D02*
X168317499Y-67317499D01*
X168317499Y-67317499D02*
X168000000Y-67000000D01*
X164496800Y-64200000D02*
X163400000Y-64200000D01*
X165600000Y-64225000D02*
X164521800Y-64225000D01*
X164521800Y-64225000D02*
X164496800Y-64200000D01*
X165045000Y-82100000D02*
X165548200Y-82100000D01*
X165548200Y-82100000D02*
X167878364Y-79769836D01*
X167878364Y-79769836D02*
X167878364Y-71759334D01*
X167878364Y-71759334D02*
X168525000Y-71112698D01*
X168525000Y-71112698D02*
X168525000Y-69400000D01*
X156500000Y-67983416D02*
X155256967Y-66740383D01*
X156500000Y-68800000D02*
X156500000Y-67983416D01*
X157321800Y-61625000D02*
X158400000Y-61625000D01*
X155256967Y-66740383D02*
X155256967Y-63689833D01*
X155256967Y-63689833D02*
X157321800Y-61625000D01*
X156500000Y-68800000D02*
X156500000Y-68400000D01*
X156500000Y-70750785D02*
X156500000Y-68800000D01*
X155825000Y-74800000D02*
X155825000Y-71425785D01*
X155825000Y-71425785D02*
X156500000Y-70750785D01*
X155800000Y-80791800D02*
X155825000Y-80766800D01*
X155825000Y-80766800D02*
X155825000Y-74800000D01*
X156155000Y-82100000D02*
X156155000Y-81146800D01*
X156155000Y-81146800D02*
X155800000Y-80791800D01*
X157961076Y-66600000D02*
X156600000Y-65238924D01*
X157321800Y-63575000D02*
X158400000Y-63575000D01*
X156600000Y-65238924D02*
X156600000Y-64296800D01*
X166738830Y-66600000D02*
X157961076Y-66600000D01*
X156600000Y-64296800D02*
X157321800Y-63575000D01*
X167900000Y-70839113D02*
X167900000Y-67761170D01*
X167255000Y-71484113D02*
X167900000Y-70839113D01*
X167900000Y-67761170D02*
X166738830Y-66600000D01*
X167255000Y-74800000D02*
X167255000Y-71484113D01*
X163775000Y-82100000D02*
X163775000Y-81650000D01*
X163775000Y-81650000D02*
X167255000Y-78170000D01*
X167255000Y-78170000D02*
X167255000Y-75778200D01*
X167255000Y-75778200D02*
X167255000Y-74800000D01*
X162600000Y-63600000D02*
X165575000Y-63600000D01*
X165575000Y-63600000D02*
X165600000Y-63575000D01*
X167255000Y-69400000D02*
X167255000Y-68421800D01*
X167255000Y-68421800D02*
X166233200Y-67400000D01*
X162505000Y-82100000D02*
X162505000Y-81146800D01*
X166600000Y-71397624D02*
X167255000Y-70742624D01*
X162505000Y-81146800D02*
X166600000Y-77051800D01*
X166600000Y-77051800D02*
X166600000Y-71397624D01*
X167255000Y-70742624D02*
X167255000Y-69400000D01*
X156218989Y-63842181D02*
X157136170Y-62925000D01*
X164949786Y-67000000D02*
X157822246Y-67000000D01*
X157136170Y-62925000D02*
X157321800Y-62925000D01*
X156218989Y-65396743D02*
X156218989Y-63842181D01*
X165946687Y-67996901D02*
X164949786Y-67000000D01*
X157321800Y-62925000D02*
X158400000Y-62925000D01*
X166258071Y-67996901D02*
X165946687Y-67996901D01*
X157822246Y-67000000D02*
X156218989Y-65396743D01*
X166600000Y-70362922D02*
X166600000Y-68338830D01*
X165985000Y-70977922D02*
X166600000Y-70362922D01*
X166600000Y-68338830D02*
X166258071Y-67996901D01*
X165985000Y-74800000D02*
X165985000Y-70977922D01*
X161235000Y-81065000D02*
X165985000Y-76315000D01*
X165985000Y-76315000D02*
X165985000Y-74800000D01*
X161235000Y-82100000D02*
X161235000Y-81065000D01*
X163318365Y-62925000D02*
X163200000Y-62806635D01*
X165600000Y-62925000D02*
X163318365Y-62925000D01*
X158200000Y-68256800D02*
X158200000Y-68000000D01*
X158200000Y-68000000D02*
X158400000Y-67800000D01*
X158365000Y-69400000D02*
X158365000Y-68421800D01*
X158365000Y-68421800D02*
X158200000Y-68256800D01*
X159965000Y-82100000D02*
X159965000Y-78109370D01*
X159965000Y-78109370D02*
X157758172Y-75902542D01*
X157758172Y-75902542D02*
X157758172Y-72441828D01*
X157758172Y-72441828D02*
X158365000Y-71835000D01*
X158365000Y-71835000D02*
X158365000Y-70378200D01*
X158365000Y-70378200D02*
X158365000Y-69400000D01*
X163481178Y-62275000D02*
X163200000Y-61993822D01*
X165600000Y-62275000D02*
X163481178Y-62275000D01*
X157095000Y-67695000D02*
X157000000Y-67600000D01*
X157095000Y-69400000D02*
X157095000Y-67695000D01*
X157425000Y-82100000D02*
X157425000Y-81146800D01*
X157425000Y-81146800D02*
X156450444Y-80172244D01*
X157095000Y-71223085D02*
X157095000Y-70378200D01*
X156450444Y-80172244D02*
X156450444Y-71867641D01*
X156450444Y-71867641D02*
X157095000Y-71223085D01*
X157095000Y-70378200D02*
X157095000Y-69400000D01*
X184850000Y-51565000D02*
X187015000Y-51565000D01*
X187015000Y-51565000D02*
X192100000Y-56650000D01*
X192100000Y-56650000D02*
X192100000Y-57300000D01*
X194700000Y-58983414D02*
X194700000Y-58378200D01*
X194086513Y-59596901D02*
X194700000Y-58983414D01*
X192665101Y-59596901D02*
X194086513Y-59596901D01*
X185903200Y-52835000D02*
X192665101Y-59596901D01*
X184850000Y-52835000D02*
X185903200Y-52835000D01*
X194700000Y-58378200D02*
X194700000Y-57300000D01*
X136400000Y-52200000D02*
X93860000Y-52200000D01*
X93860000Y-52200000D02*
X93400000Y-51740000D01*
X93400000Y-51740000D02*
X93435159Y-51704841D01*
X157296800Y-58400000D02*
X156600000Y-58400000D01*
X158400000Y-58375000D02*
X157321800Y-58375000D01*
X157321800Y-58375000D02*
X157296800Y-58400000D01*
X158375000Y-58400000D02*
X158400000Y-58375000D01*
X93552400Y-49200000D02*
X93400000Y-49200000D01*
X95955499Y-51603099D02*
X93552400Y-49200000D01*
X136686513Y-51603099D02*
X95955499Y-51603099D01*
X137283414Y-52200000D02*
X136686513Y-51603099D01*
X138000000Y-52200000D02*
X137283414Y-52200000D01*
X163625000Y-56425000D02*
X163000000Y-55800000D01*
X165600000Y-56425000D02*
X163625000Y-56425000D01*
X165600000Y-56425000D02*
X166678200Y-56425000D01*
X137800000Y-51200000D02*
X97940000Y-51200000D01*
X97940000Y-51200000D02*
X93400000Y-46660000D01*
X156746800Y-55200000D02*
X156200000Y-55200000D01*
X158400000Y-55775000D02*
X157321800Y-55775000D01*
X157321800Y-55775000D02*
X156746800Y-55200000D01*
X155837978Y-65554562D02*
X155837978Y-63684362D01*
X157785599Y-71471710D02*
X157785599Y-67502183D01*
X157785599Y-67502183D02*
X155837978Y-65554562D01*
X157247340Y-62275000D02*
X157321800Y-62275000D01*
X157321800Y-62275000D02*
X158400000Y-62275000D01*
X155837978Y-63684362D02*
X157247340Y-62275000D01*
X157095000Y-74800000D02*
X157095000Y-72162309D01*
X157095000Y-72162309D02*
X157785599Y-71471710D01*
X157095000Y-74800000D02*
X157095000Y-77543701D01*
X157095000Y-77543701D02*
X158695000Y-79143701D01*
X158695000Y-79143701D02*
X158695000Y-81146800D01*
X158695000Y-81146800D02*
X158695000Y-82100000D01*
X191700000Y-94000000D02*
X184890000Y-94000000D01*
X184890000Y-94000000D02*
X179600000Y-99290000D01*
X192600000Y-93100000D02*
X191700000Y-94000000D01*
X192600000Y-91400000D02*
X192600000Y-93100000D01*
X192000000Y-95100000D02*
X188790000Y-95100000D01*
X188790000Y-95100000D02*
X184600000Y-99290000D01*
X193870000Y-93230000D02*
X192000000Y-95100000D01*
X193870000Y-91400000D02*
X193870000Y-93230000D01*
X195140000Y-91400000D02*
X195140000Y-93750000D01*
X195140000Y-93750000D02*
X189600000Y-99290000D01*
X196410000Y-91400000D02*
X196410000Y-97480000D01*
X196410000Y-97480000D02*
X194600000Y-99290000D01*
X197680000Y-91400000D02*
X197680000Y-97370000D01*
X197680000Y-97370000D02*
X199600000Y-99290000D01*
X198950000Y-94250000D02*
X199560000Y-94250000D01*
X199560000Y-94250000D02*
X204600000Y-99290000D01*
X198950000Y-91400000D02*
X198950000Y-94250000D01*
X204600000Y-96900000D02*
X207210000Y-96900000D01*
X207210000Y-96900000D02*
X209600000Y-99290000D01*
X200220000Y-92520000D02*
X204600000Y-96900000D01*
X200220000Y-91400000D02*
X200220000Y-92520000D01*
X204500000Y-95600000D02*
X210910000Y-95600000D01*
X210910000Y-95600000D02*
X214600000Y-99290000D01*
X201490000Y-92590000D02*
X204500000Y-95600000D01*
X201490000Y-91400000D02*
X201490000Y-92590000D01*
X152000000Y-83000000D02*
X152000000Y-79083414D01*
X152000000Y-79083414D02*
X153882501Y-77200913D01*
X153882501Y-77200913D02*
X153882501Y-71717499D01*
X153882501Y-71717499D02*
X154200000Y-71400000D01*
D37*
X113400000Y-58200000D02*
X114370960Y-58200000D01*
X114370960Y-58200000D02*
X114615480Y-58444520D01*
X96217000Y-55400000D02*
X97400000Y-55400000D01*
X93400000Y-56820000D02*
X94797000Y-56820000D01*
X94797000Y-56820000D02*
X96217000Y-55400000D01*
D35*
X202207000Y-71000000D02*
X201800000Y-71000000D01*
X203000000Y-71214800D02*
X202421800Y-71214800D01*
X202421800Y-71214800D02*
X202207000Y-71000000D01*
D37*
X140600000Y-58200000D02*
X140600000Y-57750988D01*
X140600000Y-57750988D02*
X140529012Y-57680000D01*
X140529012Y-57680000D02*
X140041000Y-57680000D01*
X138860000Y-57680000D02*
X140041000Y-57680000D01*
X140041000Y-57680000D02*
X144921000Y-52800000D01*
X144921000Y-52800000D02*
X159350988Y-52800000D01*
X159350988Y-52800000D02*
X159800000Y-52800000D01*
D35*
X159800000Y-52800000D02*
X161012166Y-52800000D01*
X161012166Y-52800000D02*
X161248321Y-53036155D01*
X161248321Y-53036155D02*
X161248321Y-53614355D01*
X175946800Y-57200000D02*
X175000000Y-57200000D01*
X177300000Y-56650000D02*
X176496800Y-56650000D01*
X176496800Y-56650000D02*
X175946800Y-57200000D01*
X177550000Y-54105000D02*
X177550000Y-56400000D01*
X177550000Y-56400000D02*
X177300000Y-56650000D01*
X161248321Y-51614355D02*
X160041955Y-51614355D01*
X161248321Y-63151679D02*
X160175000Y-64225000D01*
X160175000Y-64225000D02*
X158400000Y-64225000D01*
X161248321Y-53614355D02*
X161248321Y-63151679D01*
X161248321Y-53614355D02*
X161248321Y-51614355D01*
X154200000Y-71400000D02*
X154555000Y-71045000D01*
X154555000Y-71045000D02*
X154555000Y-69400000D01*
X163000000Y-71600000D02*
X164260000Y-71600000D01*
X164260000Y-71600000D02*
X165985000Y-69875000D01*
X165985000Y-69875000D02*
X165985000Y-69400000D01*
X163000000Y-71600000D02*
X161550000Y-71600000D01*
X161550000Y-71600000D02*
X161000000Y-71050000D01*
X174800000Y-71800000D02*
X173750000Y-71800000D01*
X173750000Y-71800000D02*
X173696800Y-71853200D01*
X173696800Y-71853200D02*
X173578200Y-71853200D01*
X173578200Y-71853200D02*
X173000000Y-71275000D01*
X173000000Y-71275000D02*
X173000000Y-71050000D01*
X195800000Y-69696800D02*
X195800000Y-71800000D01*
X196600000Y-69400000D02*
X196096800Y-69400000D01*
X196096800Y-69400000D02*
X195800000Y-69696800D01*
D36*
X126440000Y-60334000D02*
X126440000Y-58810000D01*
X114615480Y-84795480D02*
X123189999Y-93369999D01*
X126440000Y-58810000D02*
X124750000Y-57120000D01*
X124750000Y-57120000D02*
X115940000Y-57120000D01*
X115940000Y-57120000D02*
X114615480Y-58444520D01*
X114615480Y-58444520D02*
X114615480Y-84795480D01*
X123189999Y-97870001D02*
X121940000Y-99120000D01*
X123189999Y-93369999D02*
X123189999Y-97870001D01*
X128440000Y-60226300D02*
X128440000Y-59583000D01*
X128440000Y-59583000D02*
X128803000Y-59220000D01*
X128803000Y-59220000D02*
X129940000Y-59220000D01*
X126440000Y-60334000D02*
X128332300Y-60334000D01*
X128332300Y-60334000D02*
X128440000Y-60226300D01*
X129940000Y-59220000D02*
X136340000Y-59220000D01*
X136340000Y-59220000D02*
X137940000Y-57620000D01*
X87500000Y-86901060D02*
X90810015Y-90211075D01*
X90810015Y-90211075D02*
X90810015Y-96189985D01*
X90810015Y-96189985D02*
X88500000Y-98500000D01*
X127600000Y-86200000D02*
X127700521Y-86099479D01*
X127700521Y-86099479D02*
X127700521Y-83530521D01*
X127700521Y-83530521D02*
X126740000Y-82570000D01*
X134440000Y-79218940D02*
X136851730Y-79218940D01*
X136851730Y-79218940D02*
X138940000Y-77130670D01*
X138940000Y-76732000D02*
X138940000Y-73620000D01*
X138940000Y-77130670D02*
X138940000Y-76732000D01*
X134440000Y-79218940D02*
X128529060Y-79218940D01*
X128529060Y-79218940D02*
X126740000Y-81008000D01*
X126740000Y-81008000D02*
X126740000Y-82570000D01*
D37*
X111500000Y-72500000D02*
X111500000Y-83900050D01*
X111500000Y-83900050D02*
X107900050Y-87500000D01*
X107900050Y-87500000D02*
X107500000Y-87500000D01*
X101500000Y-72500000D02*
X101500000Y-83301110D01*
X101500000Y-83301110D02*
X97900050Y-86901060D01*
X97900050Y-86901060D02*
X97500000Y-86901060D01*
X91500000Y-72500000D02*
X91500000Y-83301110D01*
X91500000Y-83301110D02*
X87900050Y-86901060D01*
X87900050Y-86901060D02*
X87500000Y-86901060D01*
D36*
X107500000Y-87500000D02*
X107500000Y-97500000D01*
X107500000Y-97500000D02*
X108500000Y-98500000D01*
X97500000Y-86901060D02*
X97500000Y-97500000D01*
X97500000Y-97500000D02*
X98500000Y-98500000D01*
D35*
X147598040Y-83000000D02*
X149800000Y-83000000D01*
X149900000Y-85500000D02*
X147549020Y-85500000D01*
X147549020Y-88000000D02*
X149900000Y-88000000D01*
X147598040Y-90500000D02*
X150300000Y-90500000D01*
X151939563Y-55895081D02*
X149622069Y-58212575D01*
X154726638Y-55895081D02*
X151939563Y-55895081D01*
X149622069Y-58212575D02*
X149622069Y-76050988D01*
X155044137Y-56212580D02*
X154726638Y-55895081D01*
X149622069Y-76050988D02*
X149622069Y-76500000D01*
X153220579Y-84529421D02*
X153220579Y-84443210D01*
X152250000Y-85500000D02*
X153220579Y-84529421D01*
X152100000Y-85500000D02*
X152250000Y-85500000D01*
X139360022Y-53196920D02*
X139809034Y-53196920D01*
X93200000Y-62000000D02*
X102003080Y-53196920D01*
X90600000Y-62000000D02*
X93200000Y-62000000D01*
X102003080Y-53196920D02*
X139360022Y-53196920D01*
X155256557Y-56425000D02*
X155044137Y-56212580D01*
X158400000Y-56425000D02*
X155256557Y-56425000D01*
X150218989Y-58781011D02*
X150218989Y-78063161D01*
X152500000Y-56500000D02*
X150218989Y-58781011D01*
X150376594Y-78220766D02*
X150694093Y-78538265D01*
X150218989Y-78063161D02*
X150376594Y-78220766D01*
X153500000Y-87403200D02*
X153500000Y-87000000D01*
X152100000Y-88000000D02*
X152903200Y-88000000D01*
X152903200Y-88000000D02*
X153500000Y-87403200D01*
X105461170Y-62000000D02*
X113842181Y-53618989D01*
X139379058Y-53618989D02*
X140015471Y-54255402D01*
X100700000Y-62000000D02*
X105461170Y-62000000D01*
X113842181Y-53618989D02*
X139379058Y-53618989D01*
X140015471Y-54255402D02*
X140094733Y-54255402D01*
X140094733Y-54255402D02*
X140543745Y-54255402D01*
X163525000Y-57075000D02*
X163422086Y-57177914D01*
X165600000Y-57075000D02*
X163525000Y-57075000D01*
X150600000Y-77600000D02*
X150600000Y-60218989D01*
X150600000Y-60218989D02*
X153600000Y-57218989D01*
X151600000Y-78600000D02*
X150600000Y-77600000D01*
X152100000Y-90500000D02*
X152250000Y-90500000D01*
X152250000Y-90500000D02*
X153350000Y-89400000D01*
X110600000Y-57400000D02*
X114000000Y-54000000D01*
X140373074Y-55377914D02*
X140822086Y-55377914D01*
X114000000Y-54000000D02*
X138995160Y-54000000D01*
X138995160Y-54000000D02*
X140373074Y-55377914D01*
X110600000Y-62000000D02*
X110600000Y-57400000D01*
X163600000Y-60053200D02*
X163600000Y-58400000D01*
X165600000Y-60975000D02*
X164521800Y-60975000D01*
X164521800Y-60975000D02*
X163600000Y-60053200D01*
X177550000Y-51565000D02*
X177025000Y-51565000D01*
X177025000Y-51565000D02*
X173000000Y-55590000D01*
X173000000Y-55590000D02*
X173000000Y-57988538D01*
X173000000Y-57988538D02*
X169363538Y-61625000D01*
X169363538Y-61625000D02*
X166678200Y-61625000D01*
X166678200Y-61625000D02*
X165600000Y-61625000D01*
X155978387Y-57725000D02*
X155630361Y-58073026D01*
X158400000Y-57725000D02*
X155978387Y-57725000D01*
X155630361Y-58073026D02*
X155312862Y-58390525D01*
X177550000Y-52835000D02*
X177025000Y-52835000D01*
X177025000Y-52835000D02*
X173600000Y-56260000D01*
X173600000Y-56260000D02*
X173600000Y-60275633D01*
X172333230Y-61542403D02*
X172015731Y-61859902D01*
X173600000Y-60275633D02*
X172333230Y-61542403D01*
M02*
