G04 #@! TF.FileFunction,Legend,Top*
%FSLAX46Y46*%
G04 Gerber Fmt 4.6, Leading zero omitted, Abs format (unit mm)*
G04 Created by KiCad (PCBNEW 4.0.2+dfsg1-stable) date Sun 11 Sep 2016 08:44:01 PM CDT*
%MOMM*%
G01*
G04 APERTURE LIST*
%ADD10C,0.100000*%
%ADD11C,0.500000*%
%ADD12C,0.300000*%
%ADD13C,0.150000*%
%ADD14C,0.010000*%
G04 APERTURE END LIST*
D10*
D11*
X122702381Y-47416667D02*
X123892858Y-47416667D01*
X122464286Y-48130952D02*
X123297620Y-45630952D01*
X124130953Y-48130952D01*
X126392858Y-48130952D02*
X125559524Y-46940476D01*
X124964286Y-48130952D02*
X124964286Y-45630952D01*
X125916667Y-45630952D01*
X126154762Y-45750000D01*
X126273810Y-45869048D01*
X126392858Y-46107143D01*
X126392858Y-46464286D01*
X126273810Y-46702381D01*
X126154762Y-46821429D01*
X125916667Y-46940476D01*
X124964286Y-46940476D01*
X128892858Y-47892857D02*
X128773810Y-48011905D01*
X128416667Y-48130952D01*
X128178572Y-48130952D01*
X127821429Y-48011905D01*
X127583334Y-47773810D01*
X127464286Y-47535714D01*
X127345238Y-47059524D01*
X127345238Y-46702381D01*
X127464286Y-46226190D01*
X127583334Y-45988095D01*
X127821429Y-45750000D01*
X128178572Y-45630952D01*
X128416667Y-45630952D01*
X128773810Y-45750000D01*
X128892858Y-45869048D01*
X131869048Y-48130952D02*
X131869048Y-45630952D01*
X132821429Y-45630952D01*
X133059524Y-45750000D01*
X133178572Y-45869048D01*
X133297620Y-46107143D01*
X133297620Y-46464286D01*
X133178572Y-46702381D01*
X133059524Y-46821429D01*
X132821429Y-46940476D01*
X131869048Y-46940476D01*
X134369048Y-48130952D02*
X134369048Y-46464286D01*
X134369048Y-46940476D02*
X134488096Y-46702381D01*
X134607143Y-46583333D01*
X134845239Y-46464286D01*
X135083334Y-46464286D01*
X136273810Y-48130952D02*
X136035715Y-48011905D01*
X135916667Y-47892857D01*
X135797619Y-47654762D01*
X135797619Y-46940476D01*
X135916667Y-46702381D01*
X136035715Y-46583333D01*
X136273810Y-46464286D01*
X136630953Y-46464286D01*
X136869048Y-46583333D01*
X136988096Y-46702381D01*
X137107143Y-46940476D01*
X137107143Y-47654762D01*
X136988096Y-47892857D01*
X136869048Y-48011905D01*
X136630953Y-48130952D01*
X136273810Y-48130952D01*
X137821429Y-46464286D02*
X138773810Y-46464286D01*
X138178572Y-45630952D02*
X138178572Y-47773810D01*
X138297620Y-48011905D01*
X138535715Y-48130952D01*
X138773810Y-48130952D01*
X140559524Y-48011905D02*
X140321429Y-48130952D01*
X139845238Y-48130952D01*
X139607143Y-48011905D01*
X139488095Y-47773810D01*
X139488095Y-46821429D01*
X139607143Y-46583333D01*
X139845238Y-46464286D01*
X140321429Y-46464286D01*
X140559524Y-46583333D01*
X140678572Y-46821429D01*
X140678572Y-47059524D01*
X139488095Y-47297619D01*
X142821429Y-48011905D02*
X142583333Y-48130952D01*
X142107143Y-48130952D01*
X141869048Y-48011905D01*
X141750000Y-47892857D01*
X141630952Y-47654762D01*
X141630952Y-46940476D01*
X141750000Y-46702381D01*
X141869048Y-46583333D01*
X142107143Y-46464286D01*
X142583333Y-46464286D01*
X142821429Y-46583333D01*
X143535714Y-46464286D02*
X144488095Y-46464286D01*
X143892857Y-45630952D02*
X143892857Y-47773810D01*
X144011905Y-48011905D01*
X144250000Y-48130952D01*
X144488095Y-48130952D01*
X146273809Y-48011905D02*
X146035714Y-48130952D01*
X145559523Y-48130952D01*
X145321428Y-48011905D01*
X145202380Y-47773810D01*
X145202380Y-46821429D01*
X145321428Y-46583333D01*
X145559523Y-46464286D01*
X146035714Y-46464286D01*
X146273809Y-46583333D01*
X146392857Y-46821429D01*
X146392857Y-47059524D01*
X145202380Y-47297619D01*
X148535714Y-48130952D02*
X148535714Y-45630952D01*
X148535714Y-48011905D02*
X148297618Y-48130952D01*
X147821428Y-48130952D01*
X147583333Y-48011905D01*
X147464285Y-47892857D01*
X147345237Y-47654762D01*
X147345237Y-46940476D01*
X147464285Y-46702381D01*
X147583333Y-46583333D01*
X147821428Y-46464286D01*
X148297618Y-46464286D01*
X148535714Y-46583333D01*
X151630952Y-48130952D02*
X151630952Y-45630952D01*
X152583333Y-45630952D01*
X152821428Y-45750000D01*
X152940476Y-45869048D01*
X153059524Y-46107143D01*
X153059524Y-46464286D01*
X152940476Y-46702381D01*
X152821428Y-46821429D01*
X152583333Y-46940476D01*
X151630952Y-46940476D01*
X154011904Y-48011905D02*
X154369047Y-48130952D01*
X154964285Y-48130952D01*
X155202381Y-48011905D01*
X155321428Y-47892857D01*
X155440476Y-47654762D01*
X155440476Y-47416667D01*
X155321428Y-47178571D01*
X155202381Y-47059524D01*
X154964285Y-46940476D01*
X154488095Y-46821429D01*
X154250000Y-46702381D01*
X154130952Y-46583333D01*
X154011904Y-46345238D01*
X154011904Y-46107143D01*
X154130952Y-45869048D01*
X154250000Y-45750000D01*
X154488095Y-45630952D01*
X155083333Y-45630952D01*
X155440476Y-45750000D01*
X156988095Y-45630952D02*
X157464285Y-45630952D01*
X157702380Y-45750000D01*
X157940476Y-45988095D01*
X158059523Y-46464286D01*
X158059523Y-47297619D01*
X157940476Y-47773810D01*
X157702380Y-48011905D01*
X157464285Y-48130952D01*
X156988095Y-48130952D01*
X156749999Y-48011905D01*
X156511904Y-47773810D01*
X156392856Y-47297619D01*
X156392856Y-46464286D01*
X156511904Y-45988095D01*
X156749999Y-45750000D01*
X156988095Y-45630952D01*
X160559524Y-47892857D02*
X160440476Y-48011905D01*
X160083333Y-48130952D01*
X159845238Y-48130952D01*
X159488095Y-48011905D01*
X159250000Y-47773810D01*
X159130952Y-47535714D01*
X159011904Y-47059524D01*
X159011904Y-46702381D01*
X159130952Y-46226190D01*
X159250000Y-45988095D01*
X159488095Y-45750000D01*
X159845238Y-45630952D01*
X160083333Y-45630952D01*
X160440476Y-45750000D01*
X160559524Y-45869048D01*
X164369047Y-46821429D02*
X164726190Y-46940476D01*
X164845238Y-47059524D01*
X164964286Y-47297619D01*
X164964286Y-47654762D01*
X164845238Y-47892857D01*
X164726190Y-48011905D01*
X164488095Y-48130952D01*
X163535714Y-48130952D01*
X163535714Y-45630952D01*
X164369047Y-45630952D01*
X164607143Y-45750000D01*
X164726190Y-45869048D01*
X164845238Y-46107143D01*
X164845238Y-46345238D01*
X164726190Y-46583333D01*
X164607143Y-46702381D01*
X164369047Y-46821429D01*
X163535714Y-46821429D01*
X166392857Y-48130952D02*
X166154762Y-48011905D01*
X166035714Y-47892857D01*
X165916666Y-47654762D01*
X165916666Y-46940476D01*
X166035714Y-46702381D01*
X166154762Y-46583333D01*
X166392857Y-46464286D01*
X166750000Y-46464286D01*
X166988095Y-46583333D01*
X167107143Y-46702381D01*
X167226190Y-46940476D01*
X167226190Y-47654762D01*
X167107143Y-47892857D01*
X166988095Y-48011905D01*
X166750000Y-48130952D01*
X166392857Y-48130952D01*
X169369048Y-48130952D02*
X169369048Y-46821429D01*
X169250000Y-46583333D01*
X169011905Y-46464286D01*
X168535714Y-46464286D01*
X168297619Y-46583333D01*
X169369048Y-48011905D02*
X169130952Y-48130952D01*
X168535714Y-48130952D01*
X168297619Y-48011905D01*
X168178571Y-47773810D01*
X168178571Y-47535714D01*
X168297619Y-47297619D01*
X168535714Y-47178571D01*
X169130952Y-47178571D01*
X169369048Y-47059524D01*
X170559524Y-48130952D02*
X170559524Y-46464286D01*
X170559524Y-46940476D02*
X170678572Y-46702381D01*
X170797619Y-46583333D01*
X171035715Y-46464286D01*
X171273810Y-46464286D01*
X173178572Y-48130952D02*
X173178572Y-45630952D01*
X173178572Y-48011905D02*
X172940476Y-48130952D01*
X172464286Y-48130952D01*
X172226191Y-48011905D01*
X172107143Y-47892857D01*
X171988095Y-47654762D01*
X171988095Y-46940476D01*
X172107143Y-46702381D01*
X172226191Y-46583333D01*
X172464286Y-46464286D01*
X172940476Y-46464286D01*
X173178572Y-46583333D01*
D12*
X116281250Y-53178571D02*
X116245535Y-53464286D01*
X116852679Y-53178571D02*
X116816964Y-53464286D01*
X117352679Y-53178571D02*
X117522322Y-54678571D01*
X117941964Y-53607143D01*
X118093750Y-54678571D01*
X118638393Y-53178571D01*
X119602678Y-54607143D02*
X119450893Y-54678571D01*
X119165179Y-54678571D01*
X119031250Y-54607143D01*
X118977678Y-54464286D01*
X119049107Y-53892857D01*
X119138393Y-53750000D01*
X119290179Y-53678571D01*
X119575893Y-53678571D01*
X119709821Y-53750000D01*
X119763393Y-53892857D01*
X119745536Y-54035714D01*
X119013393Y-54178571D01*
X121450893Y-54678571D02*
X121638393Y-53178571D01*
X121566964Y-53750000D02*
X121718750Y-53678571D01*
X122004464Y-53678571D01*
X122138392Y-53750000D01*
X122200892Y-53821429D01*
X122254464Y-53964286D01*
X122200893Y-54392857D01*
X122111607Y-54535714D01*
X122031249Y-54607143D01*
X121879464Y-54678571D01*
X121593750Y-54678571D01*
X121459821Y-54607143D01*
X123575893Y-53678571D02*
X123450893Y-54678571D01*
X122933036Y-53678571D02*
X122834821Y-54464286D01*
X122888392Y-54607143D01*
X123022322Y-54678571D01*
X123236607Y-54678571D01*
X123388392Y-54607143D01*
X123468750Y-54535714D01*
X124165179Y-54678571D02*
X124290179Y-53678571D01*
X124352679Y-53178571D02*
X124272321Y-53250000D01*
X124334821Y-53321429D01*
X124415178Y-53250000D01*
X124352679Y-53178571D01*
X124334821Y-53321429D01*
X125093751Y-54678571D02*
X124959821Y-54607143D01*
X124906250Y-54464286D01*
X125066965Y-53178571D01*
X126308036Y-54678571D02*
X126495536Y-53178571D01*
X126316964Y-54607143D02*
X126165179Y-54678571D01*
X125879465Y-54678571D01*
X125745535Y-54607143D01*
X125683036Y-54535714D01*
X125629464Y-54392857D01*
X125683035Y-53964286D01*
X125772321Y-53821429D01*
X125852678Y-53750000D01*
X126004465Y-53678571D01*
X126290179Y-53678571D01*
X126424107Y-53750000D01*
X128165179Y-54678571D02*
X128290179Y-53678571D01*
X128254464Y-53964286D02*
X128343749Y-53821429D01*
X128424107Y-53750000D01*
X128575893Y-53678571D01*
X128718750Y-53678571D01*
X129308036Y-54678571D02*
X129174106Y-54607143D01*
X129111607Y-54535714D01*
X129058035Y-54392857D01*
X129111606Y-53964286D01*
X129200892Y-53821429D01*
X129281249Y-53750000D01*
X129433036Y-53678571D01*
X129647321Y-53678571D01*
X129781249Y-53750000D01*
X129843749Y-53821429D01*
X129897321Y-53964286D01*
X129843750Y-54392857D01*
X129754464Y-54535714D01*
X129674106Y-54607143D01*
X129522321Y-54678571D01*
X129308036Y-54678571D01*
X130450893Y-54678571D02*
X130638393Y-53178571D01*
X130566964Y-53750000D02*
X130718750Y-53678571D01*
X131004464Y-53678571D01*
X131138392Y-53750000D01*
X131200892Y-53821429D01*
X131254464Y-53964286D01*
X131200893Y-54392857D01*
X131111607Y-54535714D01*
X131031249Y-54607143D01*
X130879464Y-54678571D01*
X130593750Y-54678571D01*
X130459821Y-54607143D01*
X132022322Y-54678571D02*
X131888392Y-54607143D01*
X131825893Y-54535714D01*
X131772321Y-54392857D01*
X131825892Y-53964286D01*
X131915178Y-53821429D01*
X131995535Y-53750000D01*
X132147322Y-53678571D01*
X132361607Y-53678571D01*
X132495535Y-53750000D01*
X132558035Y-53821429D01*
X132611607Y-53964286D01*
X132558036Y-54392857D01*
X132468750Y-54535714D01*
X132388392Y-54607143D01*
X132236607Y-54678571D01*
X132022322Y-54678571D01*
X133075893Y-53678571D02*
X133647322Y-53678571D01*
X133352679Y-53178571D02*
X133191964Y-54464286D01*
X133245535Y-54607143D01*
X133379465Y-54678571D01*
X133522322Y-54678571D01*
X133959821Y-54607143D02*
X134093750Y-54678571D01*
X134379465Y-54678571D01*
X134531250Y-54607143D01*
X134620535Y-54464286D01*
X134629464Y-54392857D01*
X134575893Y-54250000D01*
X134441965Y-54178571D01*
X134227679Y-54178571D01*
X134093750Y-54107143D01*
X134040178Y-53964286D01*
X134049107Y-53892857D01*
X134138393Y-53750000D01*
X134290179Y-53678571D01*
X134504465Y-53678571D01*
X134638393Y-53750000D01*
X135352679Y-53178571D02*
X135316964Y-53464286D01*
X135924108Y-53178571D02*
X135888393Y-53464286D01*
D11*
X168876189Y-80916667D02*
X170066666Y-80916667D01*
X168638094Y-81630952D02*
X169471428Y-79130952D01*
X170304761Y-81630952D01*
X172209523Y-79964286D02*
X172209523Y-81630952D01*
X171138094Y-79964286D02*
X171138094Y-81273810D01*
X171257142Y-81511905D01*
X171495237Y-81630952D01*
X171852380Y-81630952D01*
X172090475Y-81511905D01*
X172209523Y-81392857D01*
X173042856Y-79964286D02*
X173995237Y-79964286D01*
X173399999Y-79130952D02*
X173399999Y-81273810D01*
X173519047Y-81511905D01*
X173757142Y-81630952D01*
X173995237Y-81630952D01*
X175185713Y-81630952D02*
X174947618Y-81511905D01*
X174828570Y-81392857D01*
X174709522Y-81154762D01*
X174709522Y-80440476D01*
X174828570Y-80202381D01*
X174947618Y-80083333D01*
X175185713Y-79964286D01*
X175542856Y-79964286D01*
X175780951Y-80083333D01*
X175899999Y-80202381D01*
X176019046Y-80440476D01*
X176019046Y-81154762D01*
X175899999Y-81392857D01*
X175780951Y-81511905D01*
X175542856Y-81630952D01*
X175185713Y-81630952D01*
X177090475Y-79964286D02*
X177090475Y-81630952D01*
X177090475Y-80202381D02*
X177209523Y-80083333D01*
X177447618Y-79964286D01*
X177804761Y-79964286D01*
X178042856Y-80083333D01*
X178161904Y-80321429D01*
X178161904Y-81630952D01*
X179709523Y-81630952D02*
X179471428Y-81511905D01*
X179352380Y-81392857D01*
X179233332Y-81154762D01*
X179233332Y-80440476D01*
X179352380Y-80202381D01*
X179471428Y-80083333D01*
X179709523Y-79964286D01*
X180066666Y-79964286D01*
X180304761Y-80083333D01*
X180423809Y-80202381D01*
X180542856Y-80440476D01*
X180542856Y-81154762D01*
X180423809Y-81392857D01*
X180304761Y-81511905D01*
X180066666Y-81630952D01*
X179709523Y-81630952D01*
X181614285Y-81630952D02*
X181614285Y-79964286D01*
X181614285Y-80202381D02*
X181733333Y-80083333D01*
X181971428Y-79964286D01*
X182328571Y-79964286D01*
X182566666Y-80083333D01*
X182685714Y-80321429D01*
X182685714Y-81630952D01*
X182685714Y-80321429D02*
X182804761Y-80083333D01*
X183042857Y-79964286D01*
X183399999Y-79964286D01*
X183638095Y-80083333D01*
X183757142Y-80321429D01*
X183757142Y-81630952D01*
X185304761Y-81630952D02*
X185066666Y-81511905D01*
X184947618Y-81392857D01*
X184828570Y-81154762D01*
X184828570Y-80440476D01*
X184947618Y-80202381D01*
X185066666Y-80083333D01*
X185304761Y-79964286D01*
X185661904Y-79964286D01*
X185899999Y-80083333D01*
X186019047Y-80202381D01*
X186138094Y-80440476D01*
X186138094Y-81154762D01*
X186019047Y-81392857D01*
X185899999Y-81511905D01*
X185661904Y-81630952D01*
X185304761Y-81630952D01*
X188280952Y-79964286D02*
X188280952Y-81630952D01*
X187209523Y-79964286D02*
X187209523Y-81273810D01*
X187328571Y-81511905D01*
X187566666Y-81630952D01*
X187923809Y-81630952D01*
X188161904Y-81511905D01*
X188280952Y-81392857D01*
X189352380Y-81511905D02*
X189590476Y-81630952D01*
X190066666Y-81630952D01*
X190304761Y-81511905D01*
X190423809Y-81273810D01*
X190423809Y-81154762D01*
X190304761Y-80916667D01*
X190066666Y-80797619D01*
X189709523Y-80797619D01*
X189471428Y-80678571D01*
X189352380Y-80440476D01*
X189352380Y-80321429D01*
X189471428Y-80083333D01*
X189709523Y-79964286D01*
X190066666Y-79964286D01*
X190304761Y-80083333D01*
X176852381Y-85630952D02*
X176019047Y-84440476D01*
X175423809Y-85630952D02*
X175423809Y-83130952D01*
X176376190Y-83130952D01*
X176614285Y-83250000D01*
X176733333Y-83369048D01*
X176852381Y-83607143D01*
X176852381Y-83964286D01*
X176733333Y-84202381D01*
X176614285Y-84321429D01*
X176376190Y-84440476D01*
X175423809Y-84440476D01*
X178280952Y-85630952D02*
X178042857Y-85511905D01*
X177923809Y-85392857D01*
X177804761Y-85154762D01*
X177804761Y-84440476D01*
X177923809Y-84202381D01*
X178042857Y-84083333D01*
X178280952Y-83964286D01*
X178638095Y-83964286D01*
X178876190Y-84083333D01*
X178995238Y-84202381D01*
X179114285Y-84440476D01*
X179114285Y-85154762D01*
X178995238Y-85392857D01*
X178876190Y-85511905D01*
X178638095Y-85630952D01*
X178280952Y-85630952D01*
X180185714Y-85630952D02*
X180185714Y-83130952D01*
X180185714Y-84083333D02*
X180423809Y-83964286D01*
X180900000Y-83964286D01*
X181138095Y-84083333D01*
X181257143Y-84202381D01*
X181376190Y-84440476D01*
X181376190Y-85154762D01*
X181257143Y-85392857D01*
X181138095Y-85511905D01*
X180900000Y-85630952D01*
X180423809Y-85630952D01*
X180185714Y-85511905D01*
X182804762Y-85630952D02*
X182566667Y-85511905D01*
X182447619Y-85392857D01*
X182328571Y-85154762D01*
X182328571Y-84440476D01*
X182447619Y-84202381D01*
X182566667Y-84083333D01*
X182804762Y-83964286D01*
X183161905Y-83964286D01*
X183400000Y-84083333D01*
X183519048Y-84202381D01*
X183638095Y-84440476D01*
X183638095Y-85154762D01*
X183519048Y-85392857D01*
X183400000Y-85511905D01*
X183161905Y-85630952D01*
X182804762Y-85630952D01*
X184352381Y-83964286D02*
X185304762Y-83964286D01*
X184709524Y-83130952D02*
X184709524Y-85273810D01*
X184828572Y-85511905D01*
X185066667Y-85630952D01*
X185304762Y-85630952D01*
X186138095Y-85630952D02*
X186138095Y-83964286D01*
X186138095Y-83130952D02*
X186019047Y-83250000D01*
X186138095Y-83369048D01*
X186257143Y-83250000D01*
X186138095Y-83130952D01*
X186138095Y-83369048D01*
X188400000Y-85511905D02*
X188161904Y-85630952D01*
X187685714Y-85630952D01*
X187447619Y-85511905D01*
X187328571Y-85392857D01*
X187209523Y-85154762D01*
X187209523Y-84440476D01*
X187328571Y-84202381D01*
X187447619Y-84083333D01*
X187685714Y-83964286D01*
X188161904Y-83964286D01*
X188400000Y-84083333D01*
X189352380Y-85511905D02*
X189590476Y-85630952D01*
X190066666Y-85630952D01*
X190304761Y-85511905D01*
X190423809Y-85273810D01*
X190423809Y-85154762D01*
X190304761Y-84916667D01*
X190066666Y-84797619D01*
X189709523Y-84797619D01*
X189471428Y-84678571D01*
X189352380Y-84440476D01*
X189352380Y-84321429D01*
X189471428Y-84083333D01*
X189709523Y-83964286D01*
X190066666Y-83964286D01*
X190304761Y-84083333D01*
X184590476Y-89392857D02*
X184471428Y-89511905D01*
X184114285Y-89630952D01*
X183876190Y-89630952D01*
X183519047Y-89511905D01*
X183280952Y-89273810D01*
X183161904Y-89035714D01*
X183042856Y-88559524D01*
X183042856Y-88202381D01*
X183161904Y-87726190D01*
X183280952Y-87488095D01*
X183519047Y-87250000D01*
X183876190Y-87130952D01*
X184114285Y-87130952D01*
X184471428Y-87250000D01*
X184590476Y-87369048D01*
X186019047Y-89630952D02*
X185780952Y-89511905D01*
X185661904Y-89273810D01*
X185661904Y-87130952D01*
X188042857Y-87964286D02*
X188042857Y-89630952D01*
X186971428Y-87964286D02*
X186971428Y-89273810D01*
X187090476Y-89511905D01*
X187328571Y-89630952D01*
X187685714Y-89630952D01*
X187923809Y-89511905D01*
X188042857Y-89392857D01*
X189233333Y-89630952D02*
X189233333Y-87130952D01*
X189233333Y-88083333D02*
X189471428Y-87964286D01*
X189947619Y-87964286D01*
X190185714Y-88083333D01*
X190304762Y-88202381D01*
X190423809Y-88440476D01*
X190423809Y-89154762D01*
X190304762Y-89392857D01*
X190185714Y-89511905D01*
X189947619Y-89630952D01*
X189471428Y-89630952D01*
X189233333Y-89511905D01*
D12*
X141892858Y-91178571D02*
X141892858Y-89678571D01*
X142250001Y-89678571D01*
X142464286Y-89750000D01*
X142607144Y-89892857D01*
X142678572Y-90035714D01*
X142750001Y-90321429D01*
X142750001Y-90535714D01*
X142678572Y-90821429D01*
X142607144Y-90964286D01*
X142464286Y-91107143D01*
X142250001Y-91178571D01*
X141892858Y-91178571D01*
X143321429Y-89821429D02*
X143392858Y-89750000D01*
X143535715Y-89678571D01*
X143892858Y-89678571D01*
X144035715Y-89750000D01*
X144107144Y-89821429D01*
X144178572Y-89964286D01*
X144178572Y-90107143D01*
X144107144Y-90321429D01*
X143250001Y-91178571D01*
X144178572Y-91178571D01*
X141892858Y-88678571D02*
X141892858Y-87178571D01*
X142250001Y-87178571D01*
X142464286Y-87250000D01*
X142607144Y-87392857D01*
X142678572Y-87535714D01*
X142750001Y-87821429D01*
X142750001Y-88035714D01*
X142678572Y-88321429D01*
X142607144Y-88464286D01*
X142464286Y-88607143D01*
X142250001Y-88678571D01*
X141892858Y-88678571D01*
X144178572Y-88678571D02*
X143321429Y-88678571D01*
X143750001Y-88678571D02*
X143750001Y-87178571D01*
X143607144Y-87392857D01*
X143464286Y-87535714D01*
X143321429Y-87607143D01*
X141892858Y-86178571D02*
X141892858Y-84678571D01*
X142250001Y-84678571D01*
X142464286Y-84750000D01*
X142607144Y-84892857D01*
X142678572Y-85035714D01*
X142750001Y-85321429D01*
X142750001Y-85535714D01*
X142678572Y-85821429D01*
X142607144Y-85964286D01*
X142464286Y-86107143D01*
X142250001Y-86178571D01*
X141892858Y-86178571D01*
X143678572Y-84678571D02*
X143821429Y-84678571D01*
X143964286Y-84750000D01*
X144035715Y-84821429D01*
X144107144Y-84964286D01*
X144178572Y-85250000D01*
X144178572Y-85607143D01*
X144107144Y-85892857D01*
X144035715Y-86035714D01*
X143964286Y-86107143D01*
X143821429Y-86178571D01*
X143678572Y-86178571D01*
X143535715Y-86107143D01*
X143464286Y-86035714D01*
X143392858Y-85892857D01*
X143321429Y-85607143D01*
X143321429Y-85250000D01*
X143392858Y-84964286D01*
X143464286Y-84821429D01*
X143535715Y-84750000D01*
X143678572Y-84678571D01*
X140000000Y-83678571D02*
X140000000Y-82178571D01*
X140571428Y-82178571D01*
X140714286Y-82250000D01*
X140785714Y-82321429D01*
X140857143Y-82464286D01*
X140857143Y-82678571D01*
X140785714Y-82821429D01*
X140714286Y-82892857D01*
X140571428Y-82964286D01*
X140000000Y-82964286D01*
X141357143Y-82178571D02*
X141714286Y-83678571D01*
X142000000Y-82607143D01*
X142285714Y-83678571D01*
X142642857Y-82178571D01*
X144071429Y-83678571D02*
X143571429Y-82964286D01*
X143214286Y-83678571D02*
X143214286Y-82178571D01*
X143785714Y-82178571D01*
X143928572Y-82250000D01*
X144000000Y-82321429D01*
X144071429Y-82464286D01*
X144071429Y-82678571D01*
X144000000Y-82821429D01*
X143928572Y-82892857D01*
X143785714Y-82964286D01*
X143214286Y-82964286D01*
X118714287Y-103178571D02*
X118000001Y-103178571D01*
X117928572Y-103892857D01*
X118000001Y-103821429D01*
X118142858Y-103750000D01*
X118500001Y-103750000D01*
X118642858Y-103821429D01*
X118714287Y-103892857D01*
X118785715Y-104035714D01*
X118785715Y-104392857D01*
X118714287Y-104535714D01*
X118642858Y-104607143D01*
X118500001Y-104678571D01*
X118142858Y-104678571D01*
X118000001Y-104607143D01*
X117928572Y-104535714D01*
X119214286Y-103178571D02*
X119714286Y-104678571D01*
X120214286Y-103178571D01*
X169485715Y-94178571D02*
X169485715Y-92678571D01*
X170057143Y-92678571D01*
X170200001Y-92750000D01*
X170271429Y-92821429D01*
X170342858Y-92964286D01*
X170342858Y-93178571D01*
X170271429Y-93321429D01*
X170200001Y-93392857D01*
X170057143Y-93464286D01*
X169485715Y-93464286D01*
X170985715Y-94178571D02*
X170985715Y-93178571D01*
X170985715Y-93464286D02*
X171057143Y-93321429D01*
X171128572Y-93250000D01*
X171271429Y-93178571D01*
X171414286Y-93178571D01*
X172128572Y-94178571D02*
X171985714Y-94107143D01*
X171914286Y-94035714D01*
X171842857Y-93892857D01*
X171842857Y-93464286D01*
X171914286Y-93321429D01*
X171985714Y-93250000D01*
X172128572Y-93178571D01*
X172342857Y-93178571D01*
X172485714Y-93250000D01*
X172557143Y-93321429D01*
X172628572Y-93464286D01*
X172628572Y-93892857D01*
X172557143Y-94035714D01*
X172485714Y-94107143D01*
X172342857Y-94178571D01*
X172128572Y-94178571D01*
X173057143Y-93178571D02*
X173628572Y-93178571D01*
X173271429Y-92678571D02*
X173271429Y-93964286D01*
X173342857Y-94107143D01*
X173485715Y-94178571D01*
X173628572Y-94178571D01*
X174700000Y-94107143D02*
X174557143Y-94178571D01*
X174271429Y-94178571D01*
X174128572Y-94107143D01*
X174057143Y-93964286D01*
X174057143Y-93392857D01*
X174128572Y-93250000D01*
X174271429Y-93178571D01*
X174557143Y-93178571D01*
X174700000Y-93250000D01*
X174771429Y-93392857D01*
X174771429Y-93535714D01*
X174057143Y-93678571D01*
X176057143Y-94107143D02*
X175914286Y-94178571D01*
X175628572Y-94178571D01*
X175485714Y-94107143D01*
X175414286Y-94035714D01*
X175342857Y-93892857D01*
X175342857Y-93464286D01*
X175414286Y-93321429D01*
X175485714Y-93250000D01*
X175628572Y-93178571D01*
X175914286Y-93178571D01*
X176057143Y-93250000D01*
X176485714Y-93178571D02*
X177057143Y-93178571D01*
X176700000Y-92678571D02*
X176700000Y-93964286D01*
X176771428Y-94107143D01*
X176914286Y-94178571D01*
X177057143Y-94178571D01*
X178128571Y-94107143D02*
X177985714Y-94178571D01*
X177700000Y-94178571D01*
X177557143Y-94107143D01*
X177485714Y-93964286D01*
X177485714Y-93392857D01*
X177557143Y-93250000D01*
X177700000Y-93178571D01*
X177985714Y-93178571D01*
X178128571Y-93250000D01*
X178200000Y-93392857D01*
X178200000Y-93535714D01*
X177485714Y-93678571D01*
X179485714Y-94178571D02*
X179485714Y-92678571D01*
X179485714Y-94107143D02*
X179342857Y-94178571D01*
X179057143Y-94178571D01*
X178914285Y-94107143D01*
X178842857Y-94035714D01*
X178771428Y-93892857D01*
X178771428Y-93464286D01*
X178842857Y-93321429D01*
X178914285Y-93250000D01*
X179057143Y-93178571D01*
X179342857Y-93178571D01*
X179485714Y-93250000D01*
X182128571Y-92750000D02*
X181985714Y-92678571D01*
X181771428Y-92678571D01*
X181557143Y-92750000D01*
X181414285Y-92892857D01*
X181342857Y-93035714D01*
X181271428Y-93321429D01*
X181271428Y-93535714D01*
X181342857Y-93821429D01*
X181414285Y-93964286D01*
X181557143Y-94107143D01*
X181771428Y-94178571D01*
X181914285Y-94178571D01*
X182128571Y-94107143D01*
X182200000Y-94035714D01*
X182200000Y-93535714D01*
X181914285Y-93535714D01*
X182842857Y-94178571D02*
X182842857Y-92678571D01*
X183414285Y-92678571D01*
X183557143Y-92750000D01*
X183628571Y-92821429D01*
X183700000Y-92964286D01*
X183700000Y-93178571D01*
X183628571Y-93321429D01*
X183557143Y-93392857D01*
X183414285Y-93464286D01*
X182842857Y-93464286D01*
X184342857Y-94178571D02*
X184342857Y-92678571D01*
X185342857Y-92678571D02*
X185628571Y-92678571D01*
X185771429Y-92750000D01*
X185914286Y-92892857D01*
X185985714Y-93178571D01*
X185985714Y-93678571D01*
X185914286Y-93964286D01*
X185771429Y-94107143D01*
X185628571Y-94178571D01*
X185342857Y-94178571D01*
X185200000Y-94107143D01*
X185057143Y-93964286D01*
X184985714Y-93678571D01*
X184985714Y-93178571D01*
X185057143Y-92892857D01*
X185200000Y-92750000D01*
X185342857Y-92678571D01*
X199214286Y-104678571D02*
X198357143Y-104678571D01*
X198785715Y-104678571D02*
X198785715Y-103178571D01*
X198642858Y-103392857D01*
X198500000Y-103535714D01*
X198357143Y-103607143D01*
X199714286Y-103178571D02*
X200642857Y-103178571D01*
X200142857Y-103750000D01*
X200357143Y-103750000D01*
X200500000Y-103821429D01*
X200571429Y-103892857D01*
X200642857Y-104035714D01*
X200642857Y-104392857D01*
X200571429Y-104535714D01*
X200500000Y-104607143D01*
X200357143Y-104678571D01*
X199928571Y-104678571D01*
X199785714Y-104607143D01*
X199714286Y-104535714D01*
X194214286Y-104678571D02*
X193357143Y-104678571D01*
X193785715Y-104678571D02*
X193785715Y-103178571D01*
X193642858Y-103392857D01*
X193500000Y-103535714D01*
X193357143Y-103607143D01*
X194785714Y-103321429D02*
X194857143Y-103250000D01*
X195000000Y-103178571D01*
X195357143Y-103178571D01*
X195500000Y-103250000D01*
X195571429Y-103321429D01*
X195642857Y-103464286D01*
X195642857Y-103607143D01*
X195571429Y-103821429D01*
X194714286Y-104678571D01*
X195642857Y-104678571D01*
X179214286Y-104678571D02*
X179500001Y-104678571D01*
X179642858Y-104607143D01*
X179714286Y-104535714D01*
X179857144Y-104321429D01*
X179928572Y-104035714D01*
X179928572Y-103464286D01*
X179857144Y-103321429D01*
X179785715Y-103250000D01*
X179642858Y-103178571D01*
X179357144Y-103178571D01*
X179214286Y-103250000D01*
X179142858Y-103321429D01*
X179071429Y-103464286D01*
X179071429Y-103821429D01*
X179142858Y-103964286D01*
X179214286Y-104035714D01*
X179357144Y-104107143D01*
X179642858Y-104107143D01*
X179785715Y-104035714D01*
X179857144Y-103964286D01*
X179928572Y-103821429D01*
X184214286Y-104678571D02*
X183357143Y-104678571D01*
X183785715Y-104678571D02*
X183785715Y-103178571D01*
X183642858Y-103392857D01*
X183500000Y-103535714D01*
X183357143Y-103607143D01*
X185142857Y-103178571D02*
X185285714Y-103178571D01*
X185428571Y-103250000D01*
X185500000Y-103321429D01*
X185571429Y-103464286D01*
X185642857Y-103750000D01*
X185642857Y-104107143D01*
X185571429Y-104392857D01*
X185500000Y-104535714D01*
X185428571Y-104607143D01*
X185285714Y-104678571D01*
X185142857Y-104678571D01*
X185000000Y-104607143D01*
X184928571Y-104535714D01*
X184857143Y-104392857D01*
X184785714Y-104107143D01*
X184785714Y-103750000D01*
X184857143Y-103464286D01*
X184928571Y-103321429D01*
X185000000Y-103250000D01*
X185142857Y-103178571D01*
X189214286Y-104678571D02*
X188357143Y-104678571D01*
X188785715Y-104678571D02*
X188785715Y-103178571D01*
X188642858Y-103392857D01*
X188500000Y-103535714D01*
X188357143Y-103607143D01*
X190642857Y-104678571D02*
X189785714Y-104678571D01*
X190214286Y-104678571D02*
X190214286Y-103178571D01*
X190071429Y-103392857D01*
X189928571Y-103535714D01*
X189785714Y-103607143D01*
X214214286Y-104678571D02*
X213357143Y-104678571D01*
X213785715Y-104678571D02*
X213785715Y-103178571D01*
X213642858Y-103392857D01*
X213500000Y-103535714D01*
X213357143Y-103607143D01*
X215500000Y-103178571D02*
X215214286Y-103178571D01*
X215071429Y-103250000D01*
X215000000Y-103321429D01*
X214857143Y-103535714D01*
X214785714Y-103821429D01*
X214785714Y-104392857D01*
X214857143Y-104535714D01*
X214928571Y-104607143D01*
X215071429Y-104678571D01*
X215357143Y-104678571D01*
X215500000Y-104607143D01*
X215571429Y-104535714D01*
X215642857Y-104392857D01*
X215642857Y-104035714D01*
X215571429Y-103892857D01*
X215500000Y-103821429D01*
X215357143Y-103750000D01*
X215071429Y-103750000D01*
X214928571Y-103821429D01*
X214857143Y-103892857D01*
X214785714Y-104035714D01*
X209214286Y-104678571D02*
X208357143Y-104678571D01*
X208785715Y-104678571D02*
X208785715Y-103178571D01*
X208642858Y-103392857D01*
X208500000Y-103535714D01*
X208357143Y-103607143D01*
X210571429Y-103178571D02*
X209857143Y-103178571D01*
X209785714Y-103892857D01*
X209857143Y-103821429D01*
X210000000Y-103750000D01*
X210357143Y-103750000D01*
X210500000Y-103821429D01*
X210571429Y-103892857D01*
X210642857Y-104035714D01*
X210642857Y-104392857D01*
X210571429Y-104535714D01*
X210500000Y-104607143D01*
X210357143Y-104678571D01*
X210000000Y-104678571D01*
X209857143Y-104607143D01*
X209785714Y-104535714D01*
X204214286Y-104678571D02*
X203357143Y-104678571D01*
X203785715Y-104678571D02*
X203785715Y-103178571D01*
X203642858Y-103392857D01*
X203500000Y-103535714D01*
X203357143Y-103607143D01*
X205500000Y-103678571D02*
X205500000Y-104678571D01*
X205142857Y-103107143D02*
X204785714Y-104178571D01*
X205714286Y-104178571D01*
X169000001Y-103178571D02*
X170000001Y-103178571D01*
X169357144Y-104678571D01*
X174357144Y-103821429D02*
X174214286Y-103750000D01*
X174142858Y-103678571D01*
X174071429Y-103535714D01*
X174071429Y-103464286D01*
X174142858Y-103321429D01*
X174214286Y-103250000D01*
X174357144Y-103178571D01*
X174642858Y-103178571D01*
X174785715Y-103250000D01*
X174857144Y-103321429D01*
X174928572Y-103464286D01*
X174928572Y-103535714D01*
X174857144Y-103678571D01*
X174785715Y-103750000D01*
X174642858Y-103821429D01*
X174357144Y-103821429D01*
X174214286Y-103892857D01*
X174142858Y-103964286D01*
X174071429Y-104107143D01*
X174071429Y-104392857D01*
X174142858Y-104535714D01*
X174214286Y-104607143D01*
X174357144Y-104678571D01*
X174642858Y-104678571D01*
X174785715Y-104607143D01*
X174857144Y-104535714D01*
X174928572Y-104392857D01*
X174928572Y-104107143D01*
X174857144Y-103964286D01*
X174785715Y-103892857D01*
X174642858Y-103821429D01*
X159857144Y-103178571D02*
X159142858Y-103178571D01*
X159071429Y-103892857D01*
X159142858Y-103821429D01*
X159285715Y-103750000D01*
X159642858Y-103750000D01*
X159785715Y-103821429D01*
X159857144Y-103892857D01*
X159928572Y-104035714D01*
X159928572Y-104392857D01*
X159857144Y-104535714D01*
X159785715Y-104607143D01*
X159642858Y-104678571D01*
X159285715Y-104678571D01*
X159142858Y-104607143D01*
X159071429Y-104535714D01*
X164785715Y-103178571D02*
X164500001Y-103178571D01*
X164357144Y-103250000D01*
X164285715Y-103321429D01*
X164142858Y-103535714D01*
X164071429Y-103821429D01*
X164071429Y-104392857D01*
X164142858Y-104535714D01*
X164214286Y-104607143D01*
X164357144Y-104678571D01*
X164642858Y-104678571D01*
X164785715Y-104607143D01*
X164857144Y-104535714D01*
X164928572Y-104392857D01*
X164928572Y-104035714D01*
X164857144Y-103892857D01*
X164785715Y-103821429D01*
X164642858Y-103750000D01*
X164357144Y-103750000D01*
X164214286Y-103821429D01*
X164142858Y-103892857D01*
X164071429Y-104035714D01*
X149000001Y-103178571D02*
X149928572Y-103178571D01*
X149428572Y-103750000D01*
X149642858Y-103750000D01*
X149785715Y-103821429D01*
X149857144Y-103892857D01*
X149928572Y-104035714D01*
X149928572Y-104392857D01*
X149857144Y-104535714D01*
X149785715Y-104607143D01*
X149642858Y-104678571D01*
X149214286Y-104678571D01*
X149071429Y-104607143D01*
X149000001Y-104535714D01*
X154785715Y-103678571D02*
X154785715Y-104678571D01*
X154428572Y-103107143D02*
X154071429Y-104178571D01*
X155000001Y-104178571D01*
X144071429Y-103321429D02*
X144142858Y-103250000D01*
X144285715Y-103178571D01*
X144642858Y-103178571D01*
X144785715Y-103250000D01*
X144857144Y-103321429D01*
X144928572Y-103464286D01*
X144928572Y-103607143D01*
X144857144Y-103821429D01*
X144000001Y-104678571D01*
X144928572Y-104678571D01*
X139928572Y-104678571D02*
X139071429Y-104678571D01*
X139500001Y-104678571D02*
X139500001Y-103178571D01*
X139357144Y-103392857D01*
X139214286Y-103535714D01*
X139071429Y-103607143D01*
X130928572Y-103607143D02*
X132071429Y-103607143D01*
X131500000Y-104178571D02*
X131500000Y-103035714D01*
X125928572Y-103607143D02*
X127071429Y-103607143D01*
X120928572Y-103607143D02*
X122071429Y-103607143D01*
X121500000Y-104178571D02*
X121500000Y-103035714D01*
X115928572Y-103607143D02*
X117071429Y-103607143D01*
X88607143Y-91178571D02*
X87892857Y-91178571D01*
X87892857Y-89678571D01*
X89321429Y-91178571D02*
X89178571Y-91107143D01*
X89107143Y-91035714D01*
X89035714Y-90892857D01*
X89035714Y-90464286D01*
X89107143Y-90321429D01*
X89178571Y-90250000D01*
X89321429Y-90178571D01*
X89535714Y-90178571D01*
X89678571Y-90250000D01*
X89750000Y-90321429D01*
X89821429Y-90464286D01*
X89821429Y-90892857D01*
X89750000Y-91035714D01*
X89678571Y-91107143D01*
X89535714Y-91178571D01*
X89321429Y-91178571D01*
X90321429Y-90178571D02*
X90607143Y-91178571D01*
X90892857Y-90464286D01*
X91178572Y-91178571D01*
X91464286Y-90178571D01*
X93107143Y-91107143D02*
X93321429Y-91178571D01*
X93678572Y-91178571D01*
X93821429Y-91107143D01*
X93892858Y-91035714D01*
X93964286Y-90892857D01*
X93964286Y-90750000D01*
X93892858Y-90607143D01*
X93821429Y-90535714D01*
X93678572Y-90464286D01*
X93392858Y-90392857D01*
X93250000Y-90321429D01*
X93178572Y-90250000D01*
X93107143Y-90107143D01*
X93107143Y-89964286D01*
X93178572Y-89821429D01*
X93250000Y-89750000D01*
X93392858Y-89678571D01*
X93750000Y-89678571D01*
X93964286Y-89750000D01*
X94607143Y-91178571D02*
X94607143Y-90178571D01*
X94607143Y-89678571D02*
X94535714Y-89750000D01*
X94607143Y-89821429D01*
X94678571Y-89750000D01*
X94607143Y-89678571D01*
X94607143Y-89821429D01*
X95964286Y-91178571D02*
X95964286Y-89678571D01*
X95964286Y-91107143D02*
X95821429Y-91178571D01*
X95535715Y-91178571D01*
X95392857Y-91107143D01*
X95321429Y-91035714D01*
X95250000Y-90892857D01*
X95250000Y-90464286D01*
X95321429Y-90321429D01*
X95392857Y-90250000D01*
X95535715Y-90178571D01*
X95821429Y-90178571D01*
X95964286Y-90250000D01*
X97250000Y-91107143D02*
X97107143Y-91178571D01*
X96821429Y-91178571D01*
X96678572Y-91107143D01*
X96607143Y-90964286D01*
X96607143Y-90392857D01*
X96678572Y-90250000D01*
X96821429Y-90178571D01*
X97107143Y-90178571D01*
X97250000Y-90250000D01*
X97321429Y-90392857D01*
X97321429Y-90535714D01*
X96607143Y-90678571D01*
X99035714Y-91107143D02*
X99250000Y-91178571D01*
X99607143Y-91178571D01*
X99750000Y-91107143D01*
X99821429Y-91035714D01*
X99892857Y-90892857D01*
X99892857Y-90750000D01*
X99821429Y-90607143D01*
X99750000Y-90535714D01*
X99607143Y-90464286D01*
X99321429Y-90392857D01*
X99178571Y-90321429D01*
X99107143Y-90250000D01*
X99035714Y-90107143D01*
X99035714Y-89964286D01*
X99107143Y-89821429D01*
X99178571Y-89750000D01*
X99321429Y-89678571D01*
X99678571Y-89678571D01*
X99892857Y-89750000D01*
X100392857Y-90178571D02*
X100678571Y-91178571D01*
X100964285Y-90464286D01*
X101250000Y-91178571D01*
X101535714Y-90178571D01*
X102107143Y-91178571D02*
X102107143Y-90178571D01*
X102107143Y-89678571D02*
X102035714Y-89750000D01*
X102107143Y-89821429D01*
X102178571Y-89750000D01*
X102107143Y-89678571D01*
X102107143Y-89821429D01*
X102607143Y-90178571D02*
X103178572Y-90178571D01*
X102821429Y-89678571D02*
X102821429Y-90964286D01*
X102892857Y-91107143D01*
X103035715Y-91178571D01*
X103178572Y-91178571D01*
X104321429Y-91107143D02*
X104178572Y-91178571D01*
X103892858Y-91178571D01*
X103750000Y-91107143D01*
X103678572Y-91035714D01*
X103607143Y-90892857D01*
X103607143Y-90464286D01*
X103678572Y-90321429D01*
X103750000Y-90250000D01*
X103892858Y-90178571D01*
X104178572Y-90178571D01*
X104321429Y-90250000D01*
X104964286Y-91178571D02*
X104964286Y-89678571D01*
X105607143Y-91178571D02*
X105607143Y-90392857D01*
X105535714Y-90250000D01*
X105392857Y-90178571D01*
X105178572Y-90178571D01*
X105035714Y-90250000D01*
X104964286Y-90321429D01*
X106892857Y-91107143D02*
X106750000Y-91178571D01*
X106464286Y-91178571D01*
X106321429Y-91107143D01*
X106250000Y-90964286D01*
X106250000Y-90392857D01*
X106321429Y-90250000D01*
X106464286Y-90178571D01*
X106750000Y-90178571D01*
X106892857Y-90250000D01*
X106964286Y-90392857D01*
X106964286Y-90535714D01*
X106250000Y-90678571D01*
X107535714Y-91107143D02*
X107678571Y-91178571D01*
X107964286Y-91178571D01*
X108107143Y-91107143D01*
X108178571Y-90964286D01*
X108178571Y-90892857D01*
X108107143Y-90750000D01*
X107964286Y-90678571D01*
X107750000Y-90678571D01*
X107607143Y-90607143D01*
X107535714Y-90464286D01*
X107535714Y-90392857D01*
X107607143Y-90250000D01*
X107750000Y-90178571D01*
X107964286Y-90178571D01*
X108107143Y-90250000D01*
X125940001Y-89098571D02*
X126940001Y-89098571D01*
X126297144Y-90598571D01*
X127511429Y-90027143D02*
X128654286Y-90027143D01*
X129225715Y-89098571D02*
X130154286Y-89098571D01*
X129654286Y-89670000D01*
X129868572Y-89670000D01*
X130011429Y-89741429D01*
X130082858Y-89812857D01*
X130154286Y-89955714D01*
X130154286Y-90312857D01*
X130082858Y-90455714D01*
X130011429Y-90527143D01*
X129868572Y-90598571D01*
X129440000Y-90598571D01*
X129297143Y-90527143D01*
X129225715Y-90455714D01*
X131511429Y-89098571D02*
X130797143Y-89098571D01*
X130725714Y-89812857D01*
X130797143Y-89741429D01*
X130940000Y-89670000D01*
X131297143Y-89670000D01*
X131440000Y-89741429D01*
X131511429Y-89812857D01*
X131582857Y-89955714D01*
X131582857Y-90312857D01*
X131511429Y-90455714D01*
X131440000Y-90527143D01*
X131297143Y-90598571D01*
X130940000Y-90598571D01*
X130797143Y-90527143D01*
X130725714Y-90455714D01*
X132011428Y-89098571D02*
X132511428Y-90598571D01*
X133011428Y-89098571D01*
X128761429Y-92998571D02*
X128761429Y-91498571D01*
X129475715Y-91998571D02*
X129475715Y-92998571D01*
X129475715Y-92141429D02*
X129547143Y-92070000D01*
X129690001Y-91998571D01*
X129904286Y-91998571D01*
X130047143Y-92070000D01*
X130118572Y-92212857D01*
X130118572Y-92998571D01*
X116725716Y-89098571D02*
X116011430Y-89098571D01*
X115940001Y-89812857D01*
X116011430Y-89741429D01*
X116154287Y-89670000D01*
X116511430Y-89670000D01*
X116654287Y-89741429D01*
X116725716Y-89812857D01*
X116797144Y-89955714D01*
X116797144Y-90312857D01*
X116725716Y-90455714D01*
X116654287Y-90527143D01*
X116511430Y-90598571D01*
X116154287Y-90598571D01*
X116011430Y-90527143D01*
X115940001Y-90455714D01*
X117225715Y-89098571D02*
X117725715Y-90598571D01*
X118225715Y-89098571D01*
X120654286Y-90598571D02*
X119797143Y-90598571D01*
X120225715Y-90598571D02*
X120225715Y-89098571D01*
X120082858Y-89312857D01*
X119940000Y-89455714D01*
X119797143Y-89527143D01*
X121225714Y-90170000D02*
X121940000Y-90170000D01*
X121082857Y-90598571D02*
X121582857Y-89098571D01*
X122082857Y-90598571D01*
X117690000Y-91498571D02*
X117975714Y-91498571D01*
X118118572Y-91570000D01*
X118261429Y-91712857D01*
X118332857Y-91998571D01*
X118332857Y-92498571D01*
X118261429Y-92784286D01*
X118118572Y-92927143D01*
X117975714Y-92998571D01*
X117690000Y-92998571D01*
X117547143Y-92927143D01*
X117404286Y-92784286D01*
X117332857Y-92498571D01*
X117332857Y-91998571D01*
X117404286Y-91712857D01*
X117547143Y-91570000D01*
X117690000Y-91498571D01*
X119618572Y-91998571D02*
X119618572Y-92998571D01*
X118975715Y-91998571D02*
X118975715Y-92784286D01*
X119047143Y-92927143D01*
X119190001Y-92998571D01*
X119404286Y-92998571D01*
X119547143Y-92927143D01*
X119618572Y-92855714D01*
X120118572Y-91998571D02*
X120690001Y-91998571D01*
X120332858Y-91498571D02*
X120332858Y-92784286D01*
X120404286Y-92927143D01*
X120547144Y-92998571D01*
X120690001Y-92998571D01*
X104892858Y-104678571D02*
X104892858Y-103178571D01*
X105250001Y-103178571D01*
X105464286Y-103250000D01*
X105607144Y-103392857D01*
X105678572Y-103535714D01*
X105750001Y-103821429D01*
X105750001Y-104035714D01*
X105678572Y-104321429D01*
X105607144Y-104464286D01*
X105464286Y-104607143D01*
X105250001Y-104678571D01*
X104892858Y-104678571D01*
X106321429Y-103321429D02*
X106392858Y-103250000D01*
X106535715Y-103178571D01*
X106892858Y-103178571D01*
X107035715Y-103250000D01*
X107107144Y-103321429D01*
X107178572Y-103464286D01*
X107178572Y-103607143D01*
X107107144Y-103821429D01*
X106250001Y-104678571D01*
X107178572Y-104678571D01*
X94892858Y-104678571D02*
X94892858Y-103178571D01*
X95250001Y-103178571D01*
X95464286Y-103250000D01*
X95607144Y-103392857D01*
X95678572Y-103535714D01*
X95750001Y-103821429D01*
X95750001Y-104035714D01*
X95678572Y-104321429D01*
X95607144Y-104464286D01*
X95464286Y-104607143D01*
X95250001Y-104678571D01*
X94892858Y-104678571D01*
X97178572Y-104678571D02*
X96321429Y-104678571D01*
X96750001Y-104678571D02*
X96750001Y-103178571D01*
X96607144Y-103392857D01*
X96464286Y-103535714D01*
X96321429Y-103607143D01*
X84892858Y-104678571D02*
X84892858Y-103178571D01*
X85250001Y-103178571D01*
X85464286Y-103250000D01*
X85607144Y-103392857D01*
X85678572Y-103535714D01*
X85750001Y-103821429D01*
X85750001Y-104035714D01*
X85678572Y-104321429D01*
X85607144Y-104464286D01*
X85464286Y-104607143D01*
X85250001Y-104678571D01*
X84892858Y-104678571D01*
X86678572Y-103178571D02*
X86821429Y-103178571D01*
X86964286Y-103250000D01*
X87035715Y-103321429D01*
X87107144Y-103464286D01*
X87178572Y-103750000D01*
X87178572Y-104107143D01*
X87107144Y-104392857D01*
X87035715Y-104535714D01*
X86964286Y-104607143D01*
X86821429Y-104678571D01*
X86678572Y-104678571D01*
X86535715Y-104607143D01*
X86464286Y-104535714D01*
X86392858Y-104392857D01*
X86321429Y-104107143D01*
X86321429Y-103750000D01*
X86392858Y-103464286D01*
X86464286Y-103321429D01*
X86535715Y-103250000D01*
X86678572Y-103178571D01*
X107928572Y-103607143D02*
X109071429Y-103607143D01*
X108500000Y-104178571D02*
X108500000Y-103035714D01*
X102928572Y-103607143D02*
X104071429Y-103607143D01*
X97928572Y-103607143D02*
X99071429Y-103607143D01*
X98500000Y-104178571D02*
X98500000Y-103035714D01*
X92928572Y-103607143D02*
X94071429Y-103607143D01*
X87928572Y-103607143D02*
X89071429Y-103607143D01*
X88500000Y-104178571D02*
X88500000Y-103035714D01*
X82928572Y-103607143D02*
X84071429Y-103607143D01*
D13*
X153885000Y-74175000D02*
X154030000Y-74175000D01*
X153885000Y-70025000D02*
X154030000Y-70025000D01*
X159035000Y-70025000D02*
X158890000Y-70025000D01*
X159035000Y-74175000D02*
X158890000Y-74175000D01*
X153885000Y-74175000D02*
X153885000Y-70025000D01*
X159035000Y-74175000D02*
X159035000Y-70025000D01*
X154030000Y-74175000D02*
X154030000Y-75575000D01*
X165315000Y-74175000D02*
X165460000Y-74175000D01*
X165315000Y-70025000D02*
X165460000Y-70025000D01*
X170465000Y-70025000D02*
X170320000Y-70025000D01*
X170465000Y-74175000D02*
X170320000Y-74175000D01*
X165315000Y-74175000D02*
X165315000Y-70025000D01*
X170465000Y-74175000D02*
X170465000Y-70025000D01*
X165460000Y-74175000D02*
X165460000Y-75575000D01*
X196758000Y-47414000D02*
X196058000Y-47414000D01*
X196058000Y-46214000D02*
X196758000Y-46214000D01*
X189896000Y-58656000D02*
X189896000Y-59356000D01*
X188696000Y-59356000D02*
X188696000Y-58656000D01*
X201076000Y-47414000D02*
X200376000Y-47414000D01*
X200376000Y-46214000D02*
X201076000Y-46214000D01*
X177900000Y-56050000D02*
X178600000Y-56050000D01*
X178600000Y-57250000D02*
X177900000Y-57250000D01*
X118440000Y-79720000D02*
X119740000Y-78420000D01*
X119740000Y-86720000D02*
X118440000Y-85420000D01*
X118440000Y-86720000D02*
X126740000Y-86720000D01*
X118440000Y-78420000D02*
X118440000Y-86720000D01*
X126740000Y-78420000D02*
X118440000Y-78420000D01*
X126740000Y-86720000D02*
X126740000Y-78420000D01*
X118440000Y-70220000D02*
X119740000Y-68920000D01*
X119740000Y-77220000D02*
X118440000Y-75920000D01*
X118440000Y-77220000D02*
X126740000Y-77220000D01*
X118440000Y-68920000D02*
X118440000Y-77220000D01*
X126740000Y-68920000D02*
X118440000Y-68920000D01*
X126740000Y-77220000D02*
X126740000Y-68920000D01*
X129340000Y-65920000D02*
X129340000Y-65220000D01*
X130540000Y-65220000D02*
X130540000Y-65920000D01*
X130540000Y-59820000D02*
X130540000Y-60520000D01*
X129340000Y-60520000D02*
X129340000Y-59820000D01*
X136010000Y-65980000D02*
X134710000Y-64680000D01*
X143010000Y-64680000D02*
X141710000Y-65980000D01*
X143010000Y-65980000D02*
X143010000Y-57680000D01*
X134710000Y-65980000D02*
X143010000Y-65980000D01*
X134710000Y-57680000D02*
X134710000Y-65980000D01*
X143010000Y-57680000D02*
X134710000Y-57680000D01*
X90900000Y-71900000D02*
X90900000Y-71200000D01*
X92100000Y-71200000D02*
X92100000Y-71900000D01*
X100900000Y-71900000D02*
X100900000Y-71200000D01*
X102100000Y-71200000D02*
X102100000Y-71900000D01*
X110900000Y-71900000D02*
X110900000Y-71200000D01*
X112100000Y-71200000D02*
X112100000Y-71900000D01*
X132082000Y-76160000D02*
X139956000Y-76160000D01*
X132082000Y-70953000D02*
X132082000Y-76160000D01*
X139956000Y-70953000D02*
X132082000Y-70953000D01*
X139956000Y-76160000D02*
X139956000Y-70953000D01*
X217250080Y-58650280D02*
X217250080Y-50949000D01*
X218250840Y-58650280D02*
X218250840Y-50949000D01*
X218250840Y-50949000D02*
X209050960Y-50949000D01*
X209050960Y-50949000D02*
X209050960Y-58650280D01*
X209050960Y-58650280D02*
X218250840Y-58650280D01*
X90310000Y-63813200D02*
X82690000Y-63813200D01*
X90310000Y-76005200D02*
X90310000Y-63813200D01*
X82690000Y-76005200D02*
X90310000Y-76005200D01*
X82690000Y-76005200D02*
X82690000Y-63813200D01*
X100310000Y-63813200D02*
X92690000Y-63813200D01*
X100310000Y-76005200D02*
X100310000Y-63813200D01*
X92690000Y-76005200D02*
X100310000Y-76005200D01*
X92690000Y-76005200D02*
X92690000Y-63813200D01*
X110310000Y-63813200D02*
X102690000Y-63813200D01*
X110310000Y-76005200D02*
X110310000Y-63813200D01*
X102690000Y-76005200D02*
X110310000Y-76005200D01*
X102690000Y-76005200D02*
X102690000Y-63813200D01*
X90000000Y-62675000D02*
X89000000Y-62675000D01*
X89000000Y-61325000D02*
X90000000Y-61325000D01*
X100100000Y-62675000D02*
X99100000Y-62675000D01*
X99100000Y-61325000D02*
X100100000Y-61325000D01*
X110000000Y-62675000D02*
X109000000Y-62675000D01*
X109000000Y-61325000D02*
X110000000Y-61325000D01*
X183950000Y-54955000D02*
X183950000Y-54655000D01*
X178450000Y-54955000D02*
X178450000Y-54655000D01*
X178450000Y-49445000D02*
X178450000Y-49745000D01*
X183950000Y-49445000D02*
X183950000Y-49745000D01*
X183950000Y-54955000D02*
X178450000Y-54955000D01*
X183950000Y-49445000D02*
X178450000Y-49445000D01*
X183950000Y-54655000D02*
X185700000Y-54655000D01*
X127964000Y-66430000D02*
X127964000Y-58810000D01*
X115772000Y-66430000D02*
X127964000Y-66430000D01*
X115772000Y-58810000D02*
X115772000Y-66430000D01*
X115772000Y-58810000D02*
X127964000Y-58810000D01*
X136438980Y-81970560D02*
X136438980Y-81068860D01*
X136438980Y-83121180D02*
X136438980Y-84119400D01*
X131038940Y-79470540D02*
X132240360Y-79470540D01*
X137841060Y-79470540D02*
X136639640Y-79470540D01*
X131038940Y-86219180D02*
X132240360Y-86219180D01*
X137841060Y-86219180D02*
X136639640Y-86219180D01*
X131038940Y-79020820D02*
X132291160Y-79020820D01*
X137841060Y-79020820D02*
X136588840Y-79020820D01*
X137239080Y-81970560D02*
X135638880Y-81970560D01*
X135689680Y-83121180D02*
X137239080Y-83121180D01*
X136438980Y-81970560D02*
X135689680Y-83121180D01*
X136438980Y-81970560D02*
X137239080Y-83121180D01*
X131038940Y-79020820D02*
X131038940Y-86219180D01*
X137841060Y-79020820D02*
X137841060Y-86219180D01*
X85501020Y-84149440D02*
X85501020Y-85051140D01*
X85501020Y-82998820D02*
X85501020Y-82000600D01*
X90901060Y-86649460D02*
X89699640Y-86649460D01*
X84098940Y-86649460D02*
X85300360Y-86649460D01*
X90901060Y-79900820D02*
X89699640Y-79900820D01*
X84098940Y-79900820D02*
X85300360Y-79900820D01*
X90901060Y-87099180D02*
X89648840Y-87099180D01*
X84098940Y-87099180D02*
X85351160Y-87099180D01*
X84700920Y-84149440D02*
X86301120Y-84149440D01*
X86250320Y-82998820D02*
X84700920Y-82998820D01*
X85501020Y-84149440D02*
X86250320Y-82998820D01*
X85501020Y-84149440D02*
X84700920Y-82998820D01*
X90901060Y-87099180D02*
X90901060Y-79900820D01*
X84098940Y-87099180D02*
X84098940Y-79900820D01*
X95501020Y-84149440D02*
X95501020Y-85051140D01*
X95501020Y-82998820D02*
X95501020Y-82000600D01*
X100901060Y-86649460D02*
X99699640Y-86649460D01*
X94098940Y-86649460D02*
X95300360Y-86649460D01*
X100901060Y-79900820D02*
X99699640Y-79900820D01*
X94098940Y-79900820D02*
X95300360Y-79900820D01*
X100901060Y-87099180D02*
X99648840Y-87099180D01*
X94098940Y-87099180D02*
X95351160Y-87099180D01*
X94700920Y-84149440D02*
X96301120Y-84149440D01*
X96250320Y-82998820D02*
X94700920Y-82998820D01*
X95501020Y-84149440D02*
X96250320Y-82998820D01*
X95501020Y-84149440D02*
X94700920Y-82998820D01*
X100901060Y-87099180D02*
X100901060Y-79900820D01*
X94098940Y-87099180D02*
X94098940Y-79900820D01*
X105501020Y-84748380D02*
X105501020Y-85650080D01*
X105501020Y-83597760D02*
X105501020Y-82599540D01*
X110901060Y-87248400D02*
X109699640Y-87248400D01*
X104098940Y-87248400D02*
X105300360Y-87248400D01*
X110901060Y-80499760D02*
X109699640Y-80499760D01*
X104098940Y-80499760D02*
X105300360Y-80499760D01*
X110901060Y-87698120D02*
X109648840Y-87698120D01*
X104098940Y-87698120D02*
X105351160Y-87698120D01*
X104700920Y-84748380D02*
X106301120Y-84748380D01*
X106250320Y-83597760D02*
X104700920Y-83597760D01*
X105501020Y-84748380D02*
X106250320Y-83597760D01*
X105501020Y-84748380D02*
X104700920Y-83597760D01*
X110901060Y-87698120D02*
X110901060Y-80499760D01*
X104098940Y-87698120D02*
X104098940Y-80499760D01*
X161848321Y-53014355D02*
X162548321Y-53014355D01*
X162548321Y-54214355D02*
X161848321Y-54214355D01*
X161848321Y-51014355D02*
X162548321Y-51014355D01*
X162548321Y-52214355D02*
X161848321Y-52214355D01*
X94700000Y-58370000D02*
X94700000Y-56820000D01*
X93400000Y-58370000D02*
X94700000Y-58370000D01*
X89209000Y-56947000D02*
X83367000Y-56947000D01*
X83367000Y-56947000D02*
X83367000Y-56693000D01*
X83367000Y-56693000D02*
X89209000Y-56693000D01*
X89209000Y-56693000D02*
X89209000Y-56820000D01*
X89209000Y-56820000D02*
X83367000Y-56820000D01*
X91876000Y-57074000D02*
X92257000Y-57074000D01*
X91876000Y-56566000D02*
X92257000Y-56566000D01*
X91876000Y-54534000D02*
X92257000Y-54534000D01*
X91876000Y-54026000D02*
X92257000Y-54026000D01*
X91876000Y-51994000D02*
X92257000Y-51994000D01*
X91876000Y-51486000D02*
X92257000Y-51486000D01*
X91876000Y-49454000D02*
X92257000Y-49454000D01*
X91876000Y-48946000D02*
X92257000Y-48946000D01*
X91876000Y-46406000D02*
X92257000Y-46406000D01*
X91876000Y-46914000D02*
X92257000Y-46914000D01*
X89336000Y-55550000D02*
X89336000Y-58090000D01*
X83240000Y-56566000D02*
X89336000Y-56566000D01*
X83240000Y-57074000D02*
X83240000Y-56566000D01*
X89336000Y-57074000D02*
X83240000Y-57074000D01*
X91876000Y-55550000D02*
X89336000Y-55550000D01*
X91876000Y-58090000D02*
X91876000Y-55550000D01*
X91876000Y-58090000D02*
X89336000Y-58090000D01*
X91876000Y-53010000D02*
X89336000Y-53010000D01*
X91876000Y-53010000D02*
X91876000Y-50470000D01*
X91876000Y-50470000D02*
X89336000Y-50470000D01*
X89336000Y-51994000D02*
X83240000Y-51994000D01*
X83240000Y-51994000D02*
X83240000Y-51486000D01*
X83240000Y-51486000D02*
X89336000Y-51486000D01*
X89336000Y-50470000D02*
X89336000Y-53010000D01*
X89336000Y-53010000D02*
X89336000Y-55550000D01*
X83240000Y-54026000D02*
X89336000Y-54026000D01*
X83240000Y-54534000D02*
X83240000Y-54026000D01*
X89336000Y-54534000D02*
X83240000Y-54534000D01*
X91876000Y-53010000D02*
X89336000Y-53010000D01*
X91876000Y-55550000D02*
X91876000Y-53010000D01*
X91876000Y-55550000D02*
X89336000Y-55550000D01*
X91876000Y-47930000D02*
X89336000Y-47930000D01*
X91876000Y-47930000D02*
X91876000Y-45390000D01*
X91876000Y-45390000D02*
X89336000Y-45390000D01*
X89336000Y-46914000D02*
X83240000Y-46914000D01*
X83240000Y-46914000D02*
X83240000Y-46406000D01*
X83240000Y-46406000D02*
X89336000Y-46406000D01*
X89336000Y-45390000D02*
X89336000Y-47930000D01*
X89336000Y-47930000D02*
X89336000Y-50470000D01*
X83240000Y-48946000D02*
X89336000Y-48946000D01*
X83240000Y-49454000D02*
X83240000Y-48946000D01*
X89336000Y-49454000D02*
X83240000Y-49454000D01*
X91876000Y-47930000D02*
X89336000Y-47930000D01*
X91876000Y-50470000D02*
X91876000Y-47930000D01*
X91876000Y-50470000D02*
X89336000Y-50470000D01*
X164875000Y-65325000D02*
X164875000Y-64675000D01*
X159125000Y-65325000D02*
X159125000Y-64675000D01*
X159125000Y-54675000D02*
X159125000Y-55325000D01*
X164875000Y-54675000D02*
X164875000Y-55325000D01*
X164875000Y-65325000D02*
X159125000Y-65325000D01*
X164875000Y-54675000D02*
X159125000Y-54675000D01*
X164875000Y-64675000D02*
X166475000Y-64675000D01*
X202370000Y-82875000D02*
X202015000Y-82875000D01*
X202370000Y-90625000D02*
X202015000Y-90625000D01*
X191720000Y-90625000D02*
X192075000Y-90625000D01*
X191720000Y-82875000D02*
X192075000Y-82875000D01*
X202370000Y-82875000D02*
X202370000Y-90625000D01*
X191720000Y-82875000D02*
X191720000Y-90625000D01*
X202015000Y-82875000D02*
X202015000Y-81350000D01*
X165925000Y-82875000D02*
X165570000Y-82875000D01*
X165925000Y-90625000D02*
X165570000Y-90625000D01*
X155275000Y-90625000D02*
X155630000Y-90625000D01*
X155275000Y-82875000D02*
X155630000Y-82875000D01*
X165925000Y-82875000D02*
X165925000Y-90625000D01*
X155275000Y-82875000D02*
X155275000Y-90625000D01*
X165570000Y-82875000D02*
X165570000Y-81350000D01*
X195930000Y-74175000D02*
X196075000Y-74175000D01*
X195930000Y-70025000D02*
X196075000Y-70025000D01*
X201080000Y-70025000D02*
X200935000Y-70025000D01*
X201080000Y-74175000D02*
X200935000Y-74175000D01*
X195930000Y-74175000D02*
X195930000Y-70025000D01*
X201080000Y-74175000D02*
X201080000Y-70025000D01*
X196075000Y-74175000D02*
X196075000Y-75575000D01*
X161600000Y-71650000D02*
X161600000Y-72350000D01*
X160400000Y-72350000D02*
X160400000Y-71650000D01*
X173600000Y-71650000D02*
X173600000Y-72350000D01*
X172400000Y-72350000D02*
X172400000Y-71650000D01*
X203600000Y-71814800D02*
X203600000Y-72514800D01*
X202400000Y-72514800D02*
X202400000Y-71814800D01*
X177000000Y-96500000D02*
X217000000Y-96500000D01*
X217000000Y-102750000D02*
X177000000Y-102750000D01*
X217000000Y-94500000D02*
X217000000Y-102750000D01*
X177000000Y-94500000D02*
X217000000Y-94500000D01*
X177000000Y-94500000D02*
X177000000Y-102750000D01*
X137000000Y-96500000D02*
X177000000Y-96500000D01*
X177000000Y-102750000D02*
X137000000Y-102750000D01*
X177000000Y-94500000D02*
X177000000Y-102750000D01*
X137000000Y-94500000D02*
X177000000Y-94500000D01*
X137000000Y-94500000D02*
X137000000Y-102750000D01*
X191000000Y-56575000D02*
X191650000Y-56575000D01*
X191000000Y-50825000D02*
X191650000Y-50825000D01*
X201650000Y-50825000D02*
X201000000Y-50825000D01*
X201650000Y-56575000D02*
X201000000Y-56575000D01*
X191000000Y-56575000D02*
X191000000Y-50825000D01*
X201650000Y-56575000D02*
X201650000Y-50825000D01*
X191650000Y-56575000D02*
X191650000Y-58175000D01*
X114000000Y-96500000D02*
X124000000Y-96500000D01*
X124000000Y-102750000D02*
X114000000Y-102750000D01*
X114000000Y-94500000D02*
X124000000Y-94500000D01*
X114000000Y-94500000D02*
X114000000Y-102750000D01*
X124000000Y-94500000D02*
X124000000Y-102750000D01*
X124000000Y-96500000D02*
X134000000Y-96500000D01*
X134000000Y-102750000D02*
X124000000Y-102750000D01*
X124000000Y-94500000D02*
X134000000Y-94500000D01*
X124000000Y-94500000D02*
X124000000Y-102750000D01*
X134000000Y-94500000D02*
X134000000Y-102750000D01*
X81000000Y-96500000D02*
X91000000Y-96500000D01*
X91000000Y-102750000D02*
X81000000Y-102750000D01*
X81000000Y-94500000D02*
X91000000Y-94500000D01*
X81000000Y-94500000D02*
X81000000Y-102750000D01*
X91000000Y-94500000D02*
X91000000Y-102750000D01*
X91000000Y-96500000D02*
X101000000Y-96500000D01*
X101000000Y-102750000D02*
X91000000Y-102750000D01*
X91000000Y-94500000D02*
X101000000Y-94500000D01*
X91000000Y-94500000D02*
X91000000Y-102750000D01*
X101000000Y-94500000D02*
X101000000Y-102750000D01*
X101000000Y-96500000D02*
X111000000Y-96500000D01*
X111000000Y-102750000D02*
X101000000Y-102750000D01*
X101000000Y-94500000D02*
X111000000Y-94500000D01*
X101000000Y-94500000D02*
X101000000Y-102750000D01*
X111000000Y-94500000D02*
X111000000Y-102750000D01*
X144949020Y-83750000D02*
X147649020Y-83750000D01*
X144949020Y-82250000D02*
X147649020Y-82250000D01*
X146449020Y-83150000D02*
X146449020Y-82900000D01*
X146449020Y-82900000D02*
X146299020Y-83050000D01*
X146199020Y-82650000D02*
X146199020Y-83350000D01*
X146549020Y-83000000D02*
X146899020Y-83000000D01*
X146199020Y-83000000D02*
X146549020Y-82650000D01*
X146549020Y-82650000D02*
X146549020Y-83350000D01*
X146549020Y-83350000D02*
X146199020Y-83000000D01*
X144900000Y-86250000D02*
X147600000Y-86250000D01*
X144900000Y-84750000D02*
X147600000Y-84750000D01*
X146400000Y-85650000D02*
X146400000Y-85400000D01*
X146400000Y-85400000D02*
X146250000Y-85550000D01*
X146150000Y-85150000D02*
X146150000Y-85850000D01*
X146500000Y-85500000D02*
X146850000Y-85500000D01*
X146150000Y-85500000D02*
X146500000Y-85150000D01*
X146500000Y-85150000D02*
X146500000Y-85850000D01*
X146500000Y-85850000D02*
X146150000Y-85500000D01*
X144900000Y-88750000D02*
X147600000Y-88750000D01*
X144900000Y-87250000D02*
X147600000Y-87250000D01*
X146400000Y-88150000D02*
X146400000Y-87900000D01*
X146400000Y-87900000D02*
X146250000Y-88050000D01*
X146150000Y-87650000D02*
X146150000Y-88350000D01*
X146500000Y-88000000D02*
X146850000Y-88000000D01*
X146150000Y-88000000D02*
X146500000Y-87650000D01*
X146500000Y-87650000D02*
X146500000Y-88350000D01*
X146500000Y-88350000D02*
X146150000Y-88000000D01*
X144949020Y-91250000D02*
X147649020Y-91250000D01*
X144949020Y-89750000D02*
X147649020Y-89750000D01*
X146449020Y-90650000D02*
X146449020Y-90400000D01*
X146449020Y-90400000D02*
X146299020Y-90550000D01*
X146199020Y-90150000D02*
X146199020Y-90850000D01*
X146549020Y-90500000D02*
X146899020Y-90500000D01*
X146199020Y-90500000D02*
X146549020Y-90150000D01*
X146549020Y-90150000D02*
X146549020Y-90850000D01*
X146549020Y-90850000D02*
X146199020Y-90500000D01*
X151400000Y-83675000D02*
X150400000Y-83675000D01*
X150400000Y-82325000D02*
X151400000Y-82325000D01*
X151500000Y-86175000D02*
X150500000Y-86175000D01*
X150500000Y-84825000D02*
X151500000Y-84825000D01*
X151500000Y-88675000D02*
X150500000Y-88675000D01*
X150500000Y-87325000D02*
X151500000Y-87325000D01*
X151500000Y-91175000D02*
X150500000Y-91175000D01*
X150500000Y-89825000D02*
X151500000Y-89825000D01*
D14*
G36*
X192042702Y-69777299D02*
X192895961Y-69990859D01*
X193427708Y-70221010D01*
X193685470Y-70362327D01*
X193819245Y-70494282D01*
X193869699Y-70690097D01*
X193877500Y-71022999D01*
X193877500Y-71030901D01*
X193857418Y-71401831D01*
X193780022Y-71579069D01*
X193619582Y-71573845D01*
X193350371Y-71397392D01*
X193240155Y-71309145D01*
X192668363Y-70967570D01*
X191968459Y-70756216D01*
X191185492Y-70683569D01*
X190364508Y-70758118D01*
X190339932Y-70762685D01*
X189930951Y-70856651D01*
X189632427Y-70984291D01*
X189352214Y-71194381D01*
X189132849Y-71401598D01*
X188821374Y-71737961D01*
X188624957Y-72049090D01*
X188486939Y-72433508D01*
X188442221Y-72602501D01*
X188312301Y-73366657D01*
X188276104Y-74191299D01*
X188333709Y-74985668D01*
X188439634Y-75510997D01*
X188729141Y-76194330D01*
X189171540Y-76737223D01*
X189753585Y-77130386D01*
X190462029Y-77364533D01*
X191178698Y-77431667D01*
X191789161Y-77376668D01*
X192401729Y-77226812D01*
X192945917Y-77004810D01*
X193351243Y-76733375D01*
X193354124Y-76730703D01*
X193606781Y-76528862D01*
X193766017Y-76499383D01*
X193850077Y-76653829D01*
X193877203Y-77003766D01*
X193877500Y-77062464D01*
X193877500Y-77645761D01*
X193186666Y-77962169D01*
X192302787Y-78299939D01*
X191481863Y-78463752D01*
X190675121Y-78459427D01*
X190014583Y-78340666D01*
X189145327Y-78037676D01*
X188426022Y-77592129D01*
X187845336Y-76993305D01*
X187391937Y-76230486D01*
X187159560Y-75639956D01*
X187076092Y-75340291D01*
X187026701Y-75018094D01*
X187007385Y-74618732D01*
X187014143Y-74087571D01*
X187024458Y-73795188D01*
X187050163Y-73238335D01*
X187083637Y-72834775D01*
X187137026Y-72526180D01*
X187222475Y-72254222D01*
X187352129Y-71960573D01*
X187446233Y-71769583D01*
X187927552Y-71021181D01*
X188537857Y-70440437D01*
X189276330Y-70027816D01*
X190142153Y-69783784D01*
X191072917Y-69708527D01*
X192042702Y-69777299D01*
X192042702Y-69777299D01*
G37*
X192042702Y-69777299D02*
X192895961Y-69990859D01*
X193427708Y-70221010D01*
X193685470Y-70362327D01*
X193819245Y-70494282D01*
X193869699Y-70690097D01*
X193877500Y-71022999D01*
X193877500Y-71030901D01*
X193857418Y-71401831D01*
X193780022Y-71579069D01*
X193619582Y-71573845D01*
X193350371Y-71397392D01*
X193240155Y-71309145D01*
X192668363Y-70967570D01*
X191968459Y-70756216D01*
X191185492Y-70683569D01*
X190364508Y-70758118D01*
X190339932Y-70762685D01*
X189930951Y-70856651D01*
X189632427Y-70984291D01*
X189352214Y-71194381D01*
X189132849Y-71401598D01*
X188821374Y-71737961D01*
X188624957Y-72049090D01*
X188486939Y-72433508D01*
X188442221Y-72602501D01*
X188312301Y-73366657D01*
X188276104Y-74191299D01*
X188333709Y-74985668D01*
X188439634Y-75510997D01*
X188729141Y-76194330D01*
X189171540Y-76737223D01*
X189753585Y-77130386D01*
X190462029Y-77364533D01*
X191178698Y-77431667D01*
X191789161Y-77376668D01*
X192401729Y-77226812D01*
X192945917Y-77004810D01*
X193351243Y-76733375D01*
X193354124Y-76730703D01*
X193606781Y-76528862D01*
X193766017Y-76499383D01*
X193850077Y-76653829D01*
X193877203Y-77003766D01*
X193877500Y-77062464D01*
X193877500Y-77645761D01*
X193186666Y-77962169D01*
X192302787Y-78299939D01*
X191481863Y-78463752D01*
X190675121Y-78459427D01*
X190014583Y-78340666D01*
X189145327Y-78037676D01*
X188426022Y-77592129D01*
X187845336Y-76993305D01*
X187391937Y-76230486D01*
X187159560Y-75639956D01*
X187076092Y-75340291D01*
X187026701Y-75018094D01*
X187007385Y-74618732D01*
X187014143Y-74087571D01*
X187024458Y-73795188D01*
X187050163Y-73238335D01*
X187083637Y-72834775D01*
X187137026Y-72526180D01*
X187222475Y-72254222D01*
X187352129Y-71960573D01*
X187446233Y-71769583D01*
X187927552Y-71021181D01*
X188537857Y-70440437D01*
X189276330Y-70027816D01*
X190142153Y-69783784D01*
X191072917Y-69708527D01*
X192042702Y-69777299D01*
G36*
X177314583Y-69864583D02*
X177504163Y-70436281D01*
X177647391Y-70838045D01*
X177834102Y-71322388D01*
X178006871Y-71743821D01*
X178158533Y-72118083D01*
X178269758Y-72426600D01*
X178319218Y-72609593D01*
X178320000Y-72621468D01*
X178361798Y-72778429D01*
X178473037Y-73071923D01*
X178632480Y-73447222D01*
X178690417Y-73576099D01*
X178860095Y-73959621D01*
X178988887Y-74272028D01*
X179055862Y-74461737D01*
X179060833Y-74488984D01*
X179098122Y-74626300D01*
X179200265Y-74921489D01*
X179352673Y-75336230D01*
X179540761Y-75832204D01*
X179749941Y-76371088D01*
X179965625Y-76914562D01*
X180173228Y-77424306D01*
X180231348Y-77563958D01*
X180530422Y-78278333D01*
X179861773Y-78278333D01*
X179497765Y-78273954D01*
X179291951Y-78244804D01*
X179190862Y-78166864D01*
X179141028Y-78016116D01*
X179127124Y-77948327D01*
X179055159Y-77683239D01*
X178929613Y-77304005D01*
X178777508Y-76892198D01*
X178775747Y-76887686D01*
X178490371Y-76157051D01*
X176579560Y-76185817D01*
X174668750Y-76214583D01*
X174481694Y-76796667D01*
X174341634Y-77220147D01*
X174194867Y-77645399D01*
X174128983Y-77828542D01*
X173963327Y-78278333D01*
X172790209Y-78278333D01*
X172857500Y-77934375D01*
X172931707Y-77664240D01*
X173062769Y-77281121D01*
X173222892Y-76866038D01*
X173229646Y-76849583D01*
X173408855Y-76404554D01*
X173624204Y-75855816D01*
X173838599Y-75298256D01*
X173912282Y-75103333D01*
X175140967Y-75103333D01*
X176633470Y-75103333D01*
X177164398Y-75097964D01*
X177607015Y-75083210D01*
X177924775Y-75061100D01*
X178081131Y-75033663D01*
X178090694Y-75022419D01*
X178033512Y-74877979D01*
X177914593Y-74568214D01*
X177746416Y-74126027D01*
X177541465Y-73584320D01*
X177312220Y-72975996D01*
X177097635Y-72404583D01*
X176937620Y-71967173D01*
X176805337Y-71585924D01*
X176719946Y-71317000D01*
X176700476Y-71240417D01*
X176650821Y-71188969D01*
X176548451Y-71313899D01*
X176385895Y-71625433D01*
X176326038Y-71752990D01*
X176163692Y-72124236D01*
X176044826Y-72433433D01*
X175992404Y-72620205D01*
X175991667Y-72632106D01*
X175953286Y-72795523D01*
X175850824Y-73098931D01*
X175703299Y-73487648D01*
X175636201Y-73654116D01*
X175465412Y-74084246D01*
X175320934Y-74472644D01*
X175226868Y-74753688D01*
X175210851Y-74812292D01*
X175140967Y-75103333D01*
X173912282Y-75103333D01*
X174122994Y-74547659D01*
X174354347Y-73945547D01*
X174565956Y-73401887D01*
X174625337Y-73251250D01*
X174831019Y-72723107D01*
X175052576Y-72140664D01*
X175243245Y-71626908D01*
X175249093Y-71610833D01*
X175419353Y-71147629D01*
X175592465Y-70685126D01*
X175731958Y-70320734D01*
X175736119Y-70310096D01*
X175934661Y-69803109D01*
X177314583Y-69864583D01*
X177314583Y-69864583D01*
G37*
X177314583Y-69864583D02*
X177504163Y-70436281D01*
X177647391Y-70838045D01*
X177834102Y-71322388D01*
X178006871Y-71743821D01*
X178158533Y-72118083D01*
X178269758Y-72426600D01*
X178319218Y-72609593D01*
X178320000Y-72621468D01*
X178361798Y-72778429D01*
X178473037Y-73071923D01*
X178632480Y-73447222D01*
X178690417Y-73576099D01*
X178860095Y-73959621D01*
X178988887Y-74272028D01*
X179055862Y-74461737D01*
X179060833Y-74488984D01*
X179098122Y-74626300D01*
X179200265Y-74921489D01*
X179352673Y-75336230D01*
X179540761Y-75832204D01*
X179749941Y-76371088D01*
X179965625Y-76914562D01*
X180173228Y-77424306D01*
X180231348Y-77563958D01*
X180530422Y-78278333D01*
X179861773Y-78278333D01*
X179497765Y-78273954D01*
X179291951Y-78244804D01*
X179190862Y-78166864D01*
X179141028Y-78016116D01*
X179127124Y-77948327D01*
X179055159Y-77683239D01*
X178929613Y-77304005D01*
X178777508Y-76892198D01*
X178775747Y-76887686D01*
X178490371Y-76157051D01*
X176579560Y-76185817D01*
X174668750Y-76214583D01*
X174481694Y-76796667D01*
X174341634Y-77220147D01*
X174194867Y-77645399D01*
X174128983Y-77828542D01*
X173963327Y-78278333D01*
X172790209Y-78278333D01*
X172857500Y-77934375D01*
X172931707Y-77664240D01*
X173062769Y-77281121D01*
X173222892Y-76866038D01*
X173229646Y-76849583D01*
X173408855Y-76404554D01*
X173624204Y-75855816D01*
X173838599Y-75298256D01*
X173912282Y-75103333D01*
X175140967Y-75103333D01*
X176633470Y-75103333D01*
X177164398Y-75097964D01*
X177607015Y-75083210D01*
X177924775Y-75061100D01*
X178081131Y-75033663D01*
X178090694Y-75022419D01*
X178033512Y-74877979D01*
X177914593Y-74568214D01*
X177746416Y-74126027D01*
X177541465Y-73584320D01*
X177312220Y-72975996D01*
X177097635Y-72404583D01*
X176937620Y-71967173D01*
X176805337Y-71585924D01*
X176719946Y-71317000D01*
X176700476Y-71240417D01*
X176650821Y-71188969D01*
X176548451Y-71313899D01*
X176385895Y-71625433D01*
X176326038Y-71752990D01*
X176163692Y-72124236D01*
X176044826Y-72433433D01*
X175992404Y-72620205D01*
X175991667Y-72632106D01*
X175953286Y-72795523D01*
X175850824Y-73098931D01*
X175703299Y-73487648D01*
X175636201Y-73654116D01*
X175465412Y-74084246D01*
X175320934Y-74472644D01*
X175226868Y-74753688D01*
X175210851Y-74812292D01*
X175140967Y-75103333D01*
X173912282Y-75103333D01*
X174122994Y-74547659D01*
X174354347Y-73945547D01*
X174565956Y-73401887D01*
X174625337Y-73251250D01*
X174831019Y-72723107D01*
X175052576Y-72140664D01*
X175243245Y-71626908D01*
X175249093Y-71610833D01*
X175419353Y-71147629D01*
X175592465Y-70685126D01*
X175731958Y-70320734D01*
X175736119Y-70310096D01*
X175934661Y-69803109D01*
X177314583Y-69864583D01*
G36*
X182368125Y-69813763D02*
X183344288Y-69829262D01*
X184133849Y-69878874D01*
X184760436Y-69972104D01*
X185247679Y-70118457D01*
X185619207Y-70327436D01*
X185898649Y-70608547D01*
X186109633Y-70971294D01*
X186261953Y-71380023D01*
X186412923Y-72122426D01*
X186387509Y-72790457D01*
X186190550Y-73365713D01*
X185826884Y-73829796D01*
X185566198Y-74025644D01*
X185090182Y-74321923D01*
X185460486Y-74617165D01*
X185720005Y-74890443D01*
X186030929Y-75324799D01*
X186370436Y-75883084D01*
X186715704Y-76528150D01*
X186998021Y-77119946D01*
X187175949Y-77492795D01*
X187353226Y-77829538D01*
X187450565Y-77993071D01*
X187638213Y-78278333D01*
X186273966Y-78278333D01*
X185635257Y-76964628D01*
X185330606Y-76371964D01*
X185029000Y-75846144D01*
X184758253Y-75433418D01*
X184585077Y-75218378D01*
X184173607Y-74785833D01*
X182130000Y-74785833D01*
X182130000Y-78278333D01*
X180965833Y-78278333D01*
X180965833Y-70874033D01*
X182130000Y-70874033D01*
X182130000Y-73727500D01*
X183161875Y-73727104D01*
X183684938Y-73718417D01*
X184050349Y-73687441D01*
X184311646Y-73626092D01*
X184522365Y-73526285D01*
X184532570Y-73520118D01*
X184918436Y-73168394D01*
X185139928Y-72683733D01*
X185199167Y-72166734D01*
X185179487Y-71835134D01*
X185091780Y-71598406D01*
X184893046Y-71359355D01*
X184802292Y-71269699D01*
X184588156Y-71076469D01*
X184392461Y-70955345D01*
X184150192Y-70882762D01*
X183796335Y-70835160D01*
X183538774Y-70811787D01*
X183095991Y-70784999D01*
X182704497Y-70780607D01*
X182436059Y-70798974D01*
X182401066Y-70805999D01*
X182130000Y-70874033D01*
X180965833Y-70874033D01*
X180965833Y-69811667D01*
X182368125Y-69813763D01*
X182368125Y-69813763D01*
G37*
X182368125Y-69813763D02*
X183344288Y-69829262D01*
X184133849Y-69878874D01*
X184760436Y-69972104D01*
X185247679Y-70118457D01*
X185619207Y-70327436D01*
X185898649Y-70608547D01*
X186109633Y-70971294D01*
X186261953Y-71380023D01*
X186412923Y-72122426D01*
X186387509Y-72790457D01*
X186190550Y-73365713D01*
X185826884Y-73829796D01*
X185566198Y-74025644D01*
X185090182Y-74321923D01*
X185460486Y-74617165D01*
X185720005Y-74890443D01*
X186030929Y-75324799D01*
X186370436Y-75883084D01*
X186715704Y-76528150D01*
X186998021Y-77119946D01*
X187175949Y-77492795D01*
X187353226Y-77829538D01*
X187450565Y-77993071D01*
X187638213Y-78278333D01*
X186273966Y-78278333D01*
X185635257Y-76964628D01*
X185330606Y-76371964D01*
X185029000Y-75846144D01*
X184758253Y-75433418D01*
X184585077Y-75218378D01*
X184173607Y-74785833D01*
X182130000Y-74785833D01*
X182130000Y-78278333D01*
X180965833Y-78278333D01*
X180965833Y-70874033D01*
X182130000Y-70874033D01*
X182130000Y-73727500D01*
X183161875Y-73727104D01*
X183684938Y-73718417D01*
X184050349Y-73687441D01*
X184311646Y-73626092D01*
X184522365Y-73526285D01*
X184532570Y-73520118D01*
X184918436Y-73168394D01*
X185139928Y-72683733D01*
X185199167Y-72166734D01*
X185179487Y-71835134D01*
X185091780Y-71598406D01*
X184893046Y-71359355D01*
X184802292Y-71269699D01*
X184588156Y-71076469D01*
X184392461Y-70955345D01*
X184150192Y-70882762D01*
X183796335Y-70835160D01*
X183538774Y-70811787D01*
X183095991Y-70784999D01*
X182704497Y-70780607D01*
X182436059Y-70798974D01*
X182401066Y-70805999D01*
X182130000Y-70874033D01*
X180965833Y-70874033D01*
X180965833Y-69811667D01*
X182368125Y-69813763D01*
G36*
X185354879Y-59729427D02*
X185995158Y-59957241D01*
X186629214Y-60373057D01*
X187260442Y-60981004D01*
X187892238Y-61785212D01*
X188527995Y-62789810D01*
X189171110Y-63998929D01*
X189584933Y-64874943D01*
X189755794Y-65262752D01*
X189886210Y-65579390D01*
X189955589Y-65774013D01*
X189961667Y-65805128D01*
X189996793Y-65937250D01*
X190092625Y-66225766D01*
X190234844Y-66629148D01*
X190409132Y-67105866D01*
X190423134Y-67143519D01*
X190608908Y-67657914D01*
X190771225Y-68135900D01*
X190892335Y-68523332D01*
X190953776Y-68762092D01*
X191022950Y-69141267D01*
X189273750Y-69335417D01*
X188917598Y-68118333D01*
X188769366Y-67602225D01*
X188637311Y-67125020D01*
X188536845Y-66743482D01*
X188486580Y-66530833D01*
X188388944Y-66167636D01*
X188221033Y-65664904D01*
X188002911Y-65074523D01*
X187754640Y-64448379D01*
X187496285Y-63838358D01*
X187247908Y-63296346D01*
X187190583Y-63179275D01*
X186724630Y-62358596D01*
X186217728Y-61675058D01*
X185688384Y-61147717D01*
X185155106Y-60795630D01*
X184736567Y-60652661D01*
X184281436Y-60670670D01*
X183788286Y-60873391D01*
X183278979Y-61242518D01*
X182775378Y-61759741D01*
X182299344Y-62406755D01*
X181973339Y-62966600D01*
X181728652Y-63467850D01*
X181464650Y-64066156D01*
X181206245Y-64699116D01*
X180978353Y-65304325D01*
X180805886Y-65819382D01*
X180740490Y-66054583D01*
X180664533Y-66333456D01*
X180541547Y-66749547D01*
X180390707Y-67239028D01*
X180279454Y-67589167D01*
X180123027Y-68099012D01*
X179986601Y-68587705D01*
X179888172Y-68988397D01*
X179852100Y-69176667D01*
X179798217Y-69472231D01*
X179705122Y-69910208D01*
X179586585Y-70428080D01*
X179474649Y-70890268D01*
X179352852Y-71406139D01*
X179253800Y-71876198D01*
X179188218Y-72246072D01*
X179166667Y-72451309D01*
X179144804Y-72697220D01*
X179077135Y-72750377D01*
X178960542Y-72607721D01*
X178791904Y-72266191D01*
X178660479Y-71954792D01*
X178466301Y-71462152D01*
X178270492Y-70941895D01*
X178113755Y-70502305D01*
X178106865Y-70481992D01*
X177886336Y-69829401D01*
X178149347Y-68841575D01*
X178309487Y-68293018D01*
X178501431Y-67712616D01*
X178690056Y-67204996D01*
X178736596Y-67092259D01*
X178890740Y-66716012D01*
X179005164Y-66409609D01*
X179059123Y-66229290D01*
X179060833Y-66213196D01*
X179104635Y-66049156D01*
X179223179Y-65738417D01*
X179397171Y-65323912D01*
X179607316Y-64848572D01*
X179834321Y-64355330D01*
X180058892Y-63887118D01*
X180261733Y-63486868D01*
X180393737Y-63247281D01*
X180575780Y-62928310D01*
X180705353Y-62685320D01*
X180754167Y-62571649D01*
X180817970Y-62449670D01*
X180988197Y-62208320D01*
X181233078Y-61888554D01*
X181520840Y-61531328D01*
X181819710Y-61177597D01*
X181952433Y-61027040D01*
X182647467Y-60377024D01*
X183381567Y-59933556D01*
X184152714Y-59697408D01*
X184958887Y-59669349D01*
X185354879Y-59729427D01*
X185354879Y-59729427D01*
G37*
X185354879Y-59729427D02*
X185995158Y-59957241D01*
X186629214Y-60373057D01*
X187260442Y-60981004D01*
X187892238Y-61785212D01*
X188527995Y-62789810D01*
X189171110Y-63998929D01*
X189584933Y-64874943D01*
X189755794Y-65262752D01*
X189886210Y-65579390D01*
X189955589Y-65774013D01*
X189961667Y-65805128D01*
X189996793Y-65937250D01*
X190092625Y-66225766D01*
X190234844Y-66629148D01*
X190409132Y-67105866D01*
X190423134Y-67143519D01*
X190608908Y-67657914D01*
X190771225Y-68135900D01*
X190892335Y-68523332D01*
X190953776Y-68762092D01*
X191022950Y-69141267D01*
X189273750Y-69335417D01*
X188917598Y-68118333D01*
X188769366Y-67602225D01*
X188637311Y-67125020D01*
X188536845Y-66743482D01*
X188486580Y-66530833D01*
X188388944Y-66167636D01*
X188221033Y-65664904D01*
X188002911Y-65074523D01*
X187754640Y-64448379D01*
X187496285Y-63838358D01*
X187247908Y-63296346D01*
X187190583Y-63179275D01*
X186724630Y-62358596D01*
X186217728Y-61675058D01*
X185688384Y-61147717D01*
X185155106Y-60795630D01*
X184736567Y-60652661D01*
X184281436Y-60670670D01*
X183788286Y-60873391D01*
X183278979Y-61242518D01*
X182775378Y-61759741D01*
X182299344Y-62406755D01*
X181973339Y-62966600D01*
X181728652Y-63467850D01*
X181464650Y-64066156D01*
X181206245Y-64699116D01*
X180978353Y-65304325D01*
X180805886Y-65819382D01*
X180740490Y-66054583D01*
X180664533Y-66333456D01*
X180541547Y-66749547D01*
X180390707Y-67239028D01*
X180279454Y-67589167D01*
X180123027Y-68099012D01*
X179986601Y-68587705D01*
X179888172Y-68988397D01*
X179852100Y-69176667D01*
X179798217Y-69472231D01*
X179705122Y-69910208D01*
X179586585Y-70428080D01*
X179474649Y-70890268D01*
X179352852Y-71406139D01*
X179253800Y-71876198D01*
X179188218Y-72246072D01*
X179166667Y-72451309D01*
X179144804Y-72697220D01*
X179077135Y-72750377D01*
X178960542Y-72607721D01*
X178791904Y-72266191D01*
X178660479Y-71954792D01*
X178466301Y-71462152D01*
X178270492Y-70941895D01*
X178113755Y-70502305D01*
X178106865Y-70481992D01*
X177886336Y-69829401D01*
X178149347Y-68841575D01*
X178309487Y-68293018D01*
X178501431Y-67712616D01*
X178690056Y-67204996D01*
X178736596Y-67092259D01*
X178890740Y-66716012D01*
X179005164Y-66409609D01*
X179059123Y-66229290D01*
X179060833Y-66213196D01*
X179104635Y-66049156D01*
X179223179Y-65738417D01*
X179397171Y-65323912D01*
X179607316Y-64848572D01*
X179834321Y-64355330D01*
X180058892Y-63887118D01*
X180261733Y-63486868D01*
X180393737Y-63247281D01*
X180575780Y-62928310D01*
X180705353Y-62685320D01*
X180754167Y-62571649D01*
X180817970Y-62449670D01*
X180988197Y-62208320D01*
X181233078Y-61888554D01*
X181520840Y-61531328D01*
X181819710Y-61177597D01*
X181952433Y-61027040D01*
X182647467Y-60377024D01*
X183381567Y-59933556D01*
X184152714Y-59697408D01*
X184958887Y-59669349D01*
X185354879Y-59729427D01*
D13*
X152412381Y-73814286D02*
X153221905Y-73814286D01*
X153317143Y-73766667D01*
X153364762Y-73719048D01*
X153412381Y-73623810D01*
X153412381Y-73433333D01*
X153364762Y-73338095D01*
X153317143Y-73290476D01*
X153221905Y-73242857D01*
X152412381Y-73242857D01*
X152507619Y-72814286D02*
X152460000Y-72766667D01*
X152412381Y-72671429D01*
X152412381Y-72433333D01*
X152460000Y-72338095D01*
X152507619Y-72290476D01*
X152602857Y-72242857D01*
X152698095Y-72242857D01*
X152840952Y-72290476D01*
X153412381Y-72861905D01*
X153412381Y-72242857D01*
X152412381Y-71623810D02*
X152412381Y-71528571D01*
X152460000Y-71433333D01*
X152507619Y-71385714D01*
X152602857Y-71338095D01*
X152793333Y-71290476D01*
X153031429Y-71290476D01*
X153221905Y-71338095D01*
X153317143Y-71385714D01*
X153364762Y-71433333D01*
X153412381Y-71528571D01*
X153412381Y-71623810D01*
X153364762Y-71719048D01*
X153317143Y-71766667D01*
X153221905Y-71814286D01*
X153031429Y-71861905D01*
X152793333Y-71861905D01*
X152602857Y-71814286D01*
X152507619Y-71766667D01*
X152460000Y-71719048D01*
X152412381Y-71623810D01*
X153412381Y-70338095D02*
X153412381Y-70909524D01*
X153412381Y-70623810D02*
X152412381Y-70623810D01*
X152555238Y-70719048D01*
X152650476Y-70814286D01*
X152698095Y-70909524D01*
X163842381Y-73814286D02*
X164651905Y-73814286D01*
X164747143Y-73766667D01*
X164794762Y-73719048D01*
X164842381Y-73623810D01*
X164842381Y-73433333D01*
X164794762Y-73338095D01*
X164747143Y-73290476D01*
X164651905Y-73242857D01*
X163842381Y-73242857D01*
X163937619Y-72814286D02*
X163890000Y-72766667D01*
X163842381Y-72671429D01*
X163842381Y-72433333D01*
X163890000Y-72338095D01*
X163937619Y-72290476D01*
X164032857Y-72242857D01*
X164128095Y-72242857D01*
X164270952Y-72290476D01*
X164842381Y-72861905D01*
X164842381Y-72242857D01*
X163842381Y-71623810D02*
X163842381Y-71528571D01*
X163890000Y-71433333D01*
X163937619Y-71385714D01*
X164032857Y-71338095D01*
X164223333Y-71290476D01*
X164461429Y-71290476D01*
X164651905Y-71338095D01*
X164747143Y-71385714D01*
X164794762Y-71433333D01*
X164842381Y-71528571D01*
X164842381Y-71623810D01*
X164794762Y-71719048D01*
X164747143Y-71766667D01*
X164651905Y-71814286D01*
X164461429Y-71861905D01*
X164223333Y-71861905D01*
X164032857Y-71814286D01*
X163937619Y-71766667D01*
X163890000Y-71719048D01*
X163842381Y-71623810D01*
X163937619Y-70909524D02*
X163890000Y-70861905D01*
X163842381Y-70766667D01*
X163842381Y-70528571D01*
X163890000Y-70433333D01*
X163937619Y-70385714D01*
X164032857Y-70338095D01*
X164128095Y-70338095D01*
X164270952Y-70385714D01*
X164842381Y-70957143D01*
X164842381Y-70338095D01*
X195288953Y-45647143D02*
X195241334Y-45694762D01*
X195098477Y-45742381D01*
X195003239Y-45742381D01*
X194860381Y-45694762D01*
X194765143Y-45599524D01*
X194717524Y-45504286D01*
X194669905Y-45313810D01*
X194669905Y-45170952D01*
X194717524Y-44980476D01*
X194765143Y-44885238D01*
X194860381Y-44790000D01*
X195003239Y-44742381D01*
X195098477Y-44742381D01*
X195241334Y-44790000D01*
X195288953Y-44837619D01*
X195622286Y-44742381D02*
X196241334Y-44742381D01*
X195908000Y-45123333D01*
X196050858Y-45123333D01*
X196146096Y-45170952D01*
X196193715Y-45218571D01*
X196241334Y-45313810D01*
X196241334Y-45551905D01*
X196193715Y-45647143D01*
X196146096Y-45694762D01*
X196050858Y-45742381D01*
X195765143Y-45742381D01*
X195669905Y-45694762D01*
X195622286Y-45647143D01*
X196860381Y-44742381D02*
X196955620Y-44742381D01*
X197050858Y-44790000D01*
X197098477Y-44837619D01*
X197146096Y-44932857D01*
X197193715Y-45123333D01*
X197193715Y-45361429D01*
X197146096Y-45551905D01*
X197098477Y-45647143D01*
X197050858Y-45694762D01*
X196955620Y-45742381D01*
X196860381Y-45742381D01*
X196765143Y-45694762D01*
X196717524Y-45647143D01*
X196669905Y-45551905D01*
X196622286Y-45361429D01*
X196622286Y-45123333D01*
X196669905Y-44932857D01*
X196717524Y-44837619D01*
X196765143Y-44790000D01*
X196860381Y-44742381D01*
X198146096Y-45742381D02*
X197574667Y-45742381D01*
X197860381Y-45742381D02*
X197860381Y-44742381D01*
X197765143Y-44885238D01*
X197669905Y-44980476D01*
X197574667Y-45028095D01*
X188129143Y-60125047D02*
X188176762Y-60172666D01*
X188224381Y-60315523D01*
X188224381Y-60410761D01*
X188176762Y-60553619D01*
X188081524Y-60648857D01*
X187986286Y-60696476D01*
X187795810Y-60744095D01*
X187652952Y-60744095D01*
X187462476Y-60696476D01*
X187367238Y-60648857D01*
X187272000Y-60553619D01*
X187224381Y-60410761D01*
X187224381Y-60315523D01*
X187272000Y-60172666D01*
X187319619Y-60125047D01*
X187224381Y-59791714D02*
X187224381Y-59172666D01*
X187605333Y-59506000D01*
X187605333Y-59363142D01*
X187652952Y-59267904D01*
X187700571Y-59220285D01*
X187795810Y-59172666D01*
X188033905Y-59172666D01*
X188129143Y-59220285D01*
X188176762Y-59267904D01*
X188224381Y-59363142D01*
X188224381Y-59648857D01*
X188176762Y-59744095D01*
X188129143Y-59791714D01*
X187224381Y-58553619D02*
X187224381Y-58458380D01*
X187272000Y-58363142D01*
X187319619Y-58315523D01*
X187414857Y-58267904D01*
X187605333Y-58220285D01*
X187843429Y-58220285D01*
X188033905Y-58267904D01*
X188129143Y-58315523D01*
X188176762Y-58363142D01*
X188224381Y-58458380D01*
X188224381Y-58553619D01*
X188176762Y-58648857D01*
X188129143Y-58696476D01*
X188033905Y-58744095D01*
X187843429Y-58791714D01*
X187605333Y-58791714D01*
X187414857Y-58744095D01*
X187319619Y-58696476D01*
X187272000Y-58648857D01*
X187224381Y-58553619D01*
X187319619Y-57839333D02*
X187272000Y-57791714D01*
X187224381Y-57696476D01*
X187224381Y-57458380D01*
X187272000Y-57363142D01*
X187319619Y-57315523D01*
X187414857Y-57267904D01*
X187510095Y-57267904D01*
X187652952Y-57315523D01*
X188224381Y-57886952D01*
X188224381Y-57267904D01*
X199606953Y-48695143D02*
X199559334Y-48742762D01*
X199416477Y-48790381D01*
X199321239Y-48790381D01*
X199178381Y-48742762D01*
X199083143Y-48647524D01*
X199035524Y-48552286D01*
X198987905Y-48361810D01*
X198987905Y-48218952D01*
X199035524Y-48028476D01*
X199083143Y-47933238D01*
X199178381Y-47838000D01*
X199321239Y-47790381D01*
X199416477Y-47790381D01*
X199559334Y-47838000D01*
X199606953Y-47885619D01*
X199940286Y-47790381D02*
X200559334Y-47790381D01*
X200226000Y-48171333D01*
X200368858Y-48171333D01*
X200464096Y-48218952D01*
X200511715Y-48266571D01*
X200559334Y-48361810D01*
X200559334Y-48599905D01*
X200511715Y-48695143D01*
X200464096Y-48742762D01*
X200368858Y-48790381D01*
X200083143Y-48790381D01*
X199987905Y-48742762D01*
X199940286Y-48695143D01*
X201178381Y-47790381D02*
X201273620Y-47790381D01*
X201368858Y-47838000D01*
X201416477Y-47885619D01*
X201464096Y-47980857D01*
X201511715Y-48171333D01*
X201511715Y-48409429D01*
X201464096Y-48599905D01*
X201416477Y-48695143D01*
X201368858Y-48742762D01*
X201273620Y-48790381D01*
X201178381Y-48790381D01*
X201083143Y-48742762D01*
X201035524Y-48695143D01*
X200987905Y-48599905D01*
X200940286Y-48409429D01*
X200940286Y-48171333D01*
X200987905Y-47980857D01*
X201035524Y-47885619D01*
X201083143Y-47838000D01*
X201178381Y-47790381D01*
X201845048Y-47790381D02*
X202464096Y-47790381D01*
X202130762Y-48171333D01*
X202273620Y-48171333D01*
X202368858Y-48218952D01*
X202416477Y-48266571D01*
X202464096Y-48361810D01*
X202464096Y-48599905D01*
X202416477Y-48695143D01*
X202368858Y-48742762D01*
X202273620Y-48790381D01*
X201987905Y-48790381D01*
X201892667Y-48742762D01*
X201845048Y-48695143D01*
X176942953Y-58531143D02*
X176895334Y-58578762D01*
X176752477Y-58626381D01*
X176657239Y-58626381D01*
X176514381Y-58578762D01*
X176419143Y-58483524D01*
X176371524Y-58388286D01*
X176323905Y-58197810D01*
X176323905Y-58054952D01*
X176371524Y-57864476D01*
X176419143Y-57769238D01*
X176514381Y-57674000D01*
X176657239Y-57626381D01*
X176752477Y-57626381D01*
X176895334Y-57674000D01*
X176942953Y-57721619D01*
X177276286Y-57626381D02*
X177895334Y-57626381D01*
X177562000Y-58007333D01*
X177704858Y-58007333D01*
X177800096Y-58054952D01*
X177847715Y-58102571D01*
X177895334Y-58197810D01*
X177895334Y-58435905D01*
X177847715Y-58531143D01*
X177800096Y-58578762D01*
X177704858Y-58626381D01*
X177419143Y-58626381D01*
X177323905Y-58578762D01*
X177276286Y-58531143D01*
X178514381Y-57626381D02*
X178609620Y-57626381D01*
X178704858Y-57674000D01*
X178752477Y-57721619D01*
X178800096Y-57816857D01*
X178847715Y-58007333D01*
X178847715Y-58245429D01*
X178800096Y-58435905D01*
X178752477Y-58531143D01*
X178704858Y-58578762D01*
X178609620Y-58626381D01*
X178514381Y-58626381D01*
X178419143Y-58578762D01*
X178371524Y-58531143D01*
X178323905Y-58435905D01*
X178276286Y-58245429D01*
X178276286Y-58007333D01*
X178323905Y-57816857D01*
X178371524Y-57721619D01*
X178419143Y-57674000D01*
X178514381Y-57626381D01*
X179704858Y-57959714D02*
X179704858Y-58626381D01*
X179466762Y-57578762D02*
X179228667Y-58293048D01*
X179847715Y-58293048D01*
X117997143Y-80339047D02*
X118044762Y-80386666D01*
X118092381Y-80529523D01*
X118092381Y-80624761D01*
X118044762Y-80767619D01*
X117949524Y-80862857D01*
X117854286Y-80910476D01*
X117663810Y-80958095D01*
X117520952Y-80958095D01*
X117330476Y-80910476D01*
X117235238Y-80862857D01*
X117140000Y-80767619D01*
X117092381Y-80624761D01*
X117092381Y-80529523D01*
X117140000Y-80386666D01*
X117187619Y-80339047D01*
X117425714Y-79481904D02*
X118092381Y-79481904D01*
X117044762Y-79720000D02*
X117759048Y-79958095D01*
X117759048Y-79339047D01*
X117092381Y-78767619D02*
X117092381Y-78672380D01*
X117140000Y-78577142D01*
X117187619Y-78529523D01*
X117282857Y-78481904D01*
X117473333Y-78434285D01*
X117711429Y-78434285D01*
X117901905Y-78481904D01*
X117997143Y-78529523D01*
X118044762Y-78577142D01*
X118092381Y-78672380D01*
X118092381Y-78767619D01*
X118044762Y-78862857D01*
X117997143Y-78910476D01*
X117901905Y-78958095D01*
X117711429Y-79005714D01*
X117473333Y-79005714D01*
X117282857Y-78958095D01*
X117187619Y-78910476D01*
X117140000Y-78862857D01*
X117092381Y-78767619D01*
X118092381Y-77481904D02*
X118092381Y-78053333D01*
X118092381Y-77767619D02*
X117092381Y-77767619D01*
X117235238Y-77862857D01*
X117330476Y-77958095D01*
X117378095Y-78053333D01*
X117997143Y-70839047D02*
X118044762Y-70886666D01*
X118092381Y-71029523D01*
X118092381Y-71124761D01*
X118044762Y-71267619D01*
X117949524Y-71362857D01*
X117854286Y-71410476D01*
X117663810Y-71458095D01*
X117520952Y-71458095D01*
X117330476Y-71410476D01*
X117235238Y-71362857D01*
X117140000Y-71267619D01*
X117092381Y-71124761D01*
X117092381Y-71029523D01*
X117140000Y-70886666D01*
X117187619Y-70839047D01*
X117425714Y-69981904D02*
X118092381Y-69981904D01*
X117044762Y-70220000D02*
X117759048Y-70458095D01*
X117759048Y-69839047D01*
X117092381Y-69267619D02*
X117092381Y-69172380D01*
X117140000Y-69077142D01*
X117187619Y-69029523D01*
X117282857Y-68981904D01*
X117473333Y-68934285D01*
X117711429Y-68934285D01*
X117901905Y-68981904D01*
X117997143Y-69029523D01*
X118044762Y-69077142D01*
X118092381Y-69172380D01*
X118092381Y-69267619D01*
X118044762Y-69362857D01*
X117997143Y-69410476D01*
X117901905Y-69458095D01*
X117711429Y-69505714D01*
X117473333Y-69505714D01*
X117282857Y-69458095D01*
X117187619Y-69410476D01*
X117140000Y-69362857D01*
X117092381Y-69267619D01*
X117187619Y-68553333D02*
X117140000Y-68505714D01*
X117092381Y-68410476D01*
X117092381Y-68172380D01*
X117140000Y-68077142D01*
X117187619Y-68029523D01*
X117282857Y-67981904D01*
X117378095Y-67981904D01*
X117520952Y-68029523D01*
X118092381Y-68600952D01*
X118092381Y-67981904D01*
X132297143Y-66689047D02*
X132344762Y-66736666D01*
X132392381Y-66879523D01*
X132392381Y-66974761D01*
X132344762Y-67117619D01*
X132249524Y-67212857D01*
X132154286Y-67260476D01*
X131963810Y-67308095D01*
X131820952Y-67308095D01*
X131630476Y-67260476D01*
X131535238Y-67212857D01*
X131440000Y-67117619D01*
X131392381Y-66974761D01*
X131392381Y-66879523D01*
X131440000Y-66736666D01*
X131487619Y-66689047D01*
X131725714Y-65831904D02*
X132392381Y-65831904D01*
X131344762Y-66070000D02*
X132059048Y-66308095D01*
X132059048Y-65689047D01*
X131392381Y-65117619D02*
X131392381Y-65022380D01*
X131440000Y-64927142D01*
X131487619Y-64879523D01*
X131582857Y-64831904D01*
X131773333Y-64784285D01*
X132011429Y-64784285D01*
X132201905Y-64831904D01*
X132297143Y-64879523D01*
X132344762Y-64927142D01*
X132392381Y-65022380D01*
X132392381Y-65117619D01*
X132344762Y-65212857D01*
X132297143Y-65260476D01*
X132201905Y-65308095D01*
X132011429Y-65355714D01*
X131773333Y-65355714D01*
X131582857Y-65308095D01*
X131487619Y-65260476D01*
X131440000Y-65212857D01*
X131392381Y-65117619D01*
X131392381Y-64450952D02*
X131392381Y-63831904D01*
X131773333Y-64165238D01*
X131773333Y-64022380D01*
X131820952Y-63927142D01*
X131868571Y-63879523D01*
X131963810Y-63831904D01*
X132201905Y-63831904D01*
X132297143Y-63879523D01*
X132344762Y-63927142D01*
X132392381Y-64022380D01*
X132392381Y-64308095D01*
X132344762Y-64403333D01*
X132297143Y-64450952D01*
X132197143Y-61289047D02*
X132244762Y-61336666D01*
X132292381Y-61479523D01*
X132292381Y-61574761D01*
X132244762Y-61717619D01*
X132149524Y-61812857D01*
X132054286Y-61860476D01*
X131863810Y-61908095D01*
X131720952Y-61908095D01*
X131530476Y-61860476D01*
X131435238Y-61812857D01*
X131340000Y-61717619D01*
X131292381Y-61574761D01*
X131292381Y-61479523D01*
X131340000Y-61336666D01*
X131387619Y-61289047D01*
X131625714Y-60431904D02*
X132292381Y-60431904D01*
X131244762Y-60670000D02*
X131959048Y-60908095D01*
X131959048Y-60289047D01*
X131292381Y-59717619D02*
X131292381Y-59622380D01*
X131340000Y-59527142D01*
X131387619Y-59479523D01*
X131482857Y-59431904D01*
X131673333Y-59384285D01*
X131911429Y-59384285D01*
X132101905Y-59431904D01*
X132197143Y-59479523D01*
X132244762Y-59527142D01*
X132292381Y-59622380D01*
X132292381Y-59717619D01*
X132244762Y-59812857D01*
X132197143Y-59860476D01*
X132101905Y-59908095D01*
X131911429Y-59955714D01*
X131673333Y-59955714D01*
X131482857Y-59908095D01*
X131387619Y-59860476D01*
X131340000Y-59812857D01*
X131292381Y-59717619D01*
X131625714Y-58527142D02*
X132292381Y-58527142D01*
X131244762Y-58765238D02*
X131959048Y-59003333D01*
X131959048Y-58384285D01*
X134390953Y-67137143D02*
X134343334Y-67184762D01*
X134200477Y-67232381D01*
X134105239Y-67232381D01*
X133962381Y-67184762D01*
X133867143Y-67089524D01*
X133819524Y-66994286D01*
X133771905Y-66803810D01*
X133771905Y-66660952D01*
X133819524Y-66470476D01*
X133867143Y-66375238D01*
X133962381Y-66280000D01*
X134105239Y-66232381D01*
X134200477Y-66232381D01*
X134343334Y-66280000D01*
X134390953Y-66327619D01*
X135248096Y-66565714D02*
X135248096Y-67232381D01*
X135010000Y-66184762D02*
X134771905Y-66899048D01*
X135390953Y-66899048D01*
X135962381Y-66232381D02*
X136057620Y-66232381D01*
X136152858Y-66280000D01*
X136200477Y-66327619D01*
X136248096Y-66422857D01*
X136295715Y-66613333D01*
X136295715Y-66851429D01*
X136248096Y-67041905D01*
X136200477Y-67137143D01*
X136152858Y-67184762D01*
X136057620Y-67232381D01*
X135962381Y-67232381D01*
X135867143Y-67184762D01*
X135819524Y-67137143D01*
X135771905Y-67041905D01*
X135724286Y-66851429D01*
X135724286Y-66613333D01*
X135771905Y-66422857D01*
X135819524Y-66327619D01*
X135867143Y-66280000D01*
X135962381Y-66232381D01*
X137200477Y-66232381D02*
X136724286Y-66232381D01*
X136676667Y-66708571D01*
X136724286Y-66660952D01*
X136819524Y-66613333D01*
X137057620Y-66613333D01*
X137152858Y-66660952D01*
X137200477Y-66708571D01*
X137248096Y-66803810D01*
X137248096Y-67041905D01*
X137200477Y-67137143D01*
X137152858Y-67184762D01*
X137057620Y-67232381D01*
X136819524Y-67232381D01*
X136724286Y-67184762D01*
X136676667Y-67137143D01*
X91957143Y-77169047D02*
X92004762Y-77216666D01*
X92052381Y-77359523D01*
X92052381Y-77454761D01*
X92004762Y-77597619D01*
X91909524Y-77692857D01*
X91814286Y-77740476D01*
X91623810Y-77788095D01*
X91480952Y-77788095D01*
X91290476Y-77740476D01*
X91195238Y-77692857D01*
X91100000Y-77597619D01*
X91052381Y-77454761D01*
X91052381Y-77359523D01*
X91100000Y-77216666D01*
X91147619Y-77169047D01*
X91052381Y-76264285D02*
X91052381Y-76740476D01*
X91528571Y-76788095D01*
X91480952Y-76740476D01*
X91433333Y-76645238D01*
X91433333Y-76407142D01*
X91480952Y-76311904D01*
X91528571Y-76264285D01*
X91623810Y-76216666D01*
X91861905Y-76216666D01*
X91957143Y-76264285D01*
X92004762Y-76311904D01*
X92052381Y-76407142D01*
X92052381Y-76645238D01*
X92004762Y-76740476D01*
X91957143Y-76788095D01*
X91052381Y-75597619D02*
X91052381Y-75502380D01*
X91100000Y-75407142D01*
X91147619Y-75359523D01*
X91242857Y-75311904D01*
X91433333Y-75264285D01*
X91671429Y-75264285D01*
X91861905Y-75311904D01*
X91957143Y-75359523D01*
X92004762Y-75407142D01*
X92052381Y-75502380D01*
X92052381Y-75597619D01*
X92004762Y-75692857D01*
X91957143Y-75740476D01*
X91861905Y-75788095D01*
X91671429Y-75835714D01*
X91433333Y-75835714D01*
X91242857Y-75788095D01*
X91147619Y-75740476D01*
X91100000Y-75692857D01*
X91052381Y-75597619D01*
X92052381Y-74311904D02*
X92052381Y-74883333D01*
X92052381Y-74597619D02*
X91052381Y-74597619D01*
X91195238Y-74692857D01*
X91290476Y-74788095D01*
X91338095Y-74883333D01*
X101957143Y-77169047D02*
X102004762Y-77216666D01*
X102052381Y-77359523D01*
X102052381Y-77454761D01*
X102004762Y-77597619D01*
X101909524Y-77692857D01*
X101814286Y-77740476D01*
X101623810Y-77788095D01*
X101480952Y-77788095D01*
X101290476Y-77740476D01*
X101195238Y-77692857D01*
X101100000Y-77597619D01*
X101052381Y-77454761D01*
X101052381Y-77359523D01*
X101100000Y-77216666D01*
X101147619Y-77169047D01*
X101052381Y-76264285D02*
X101052381Y-76740476D01*
X101528571Y-76788095D01*
X101480952Y-76740476D01*
X101433333Y-76645238D01*
X101433333Y-76407142D01*
X101480952Y-76311904D01*
X101528571Y-76264285D01*
X101623810Y-76216666D01*
X101861905Y-76216666D01*
X101957143Y-76264285D01*
X102004762Y-76311904D01*
X102052381Y-76407142D01*
X102052381Y-76645238D01*
X102004762Y-76740476D01*
X101957143Y-76788095D01*
X101052381Y-75597619D02*
X101052381Y-75502380D01*
X101100000Y-75407142D01*
X101147619Y-75359523D01*
X101242857Y-75311904D01*
X101433333Y-75264285D01*
X101671429Y-75264285D01*
X101861905Y-75311904D01*
X101957143Y-75359523D01*
X102004762Y-75407142D01*
X102052381Y-75502380D01*
X102052381Y-75597619D01*
X102004762Y-75692857D01*
X101957143Y-75740476D01*
X101861905Y-75788095D01*
X101671429Y-75835714D01*
X101433333Y-75835714D01*
X101242857Y-75788095D01*
X101147619Y-75740476D01*
X101100000Y-75692857D01*
X101052381Y-75597619D01*
X101147619Y-74883333D02*
X101100000Y-74835714D01*
X101052381Y-74740476D01*
X101052381Y-74502380D01*
X101100000Y-74407142D01*
X101147619Y-74359523D01*
X101242857Y-74311904D01*
X101338095Y-74311904D01*
X101480952Y-74359523D01*
X102052381Y-74930952D01*
X102052381Y-74311904D01*
X111957143Y-77169047D02*
X112004762Y-77216666D01*
X112052381Y-77359523D01*
X112052381Y-77454761D01*
X112004762Y-77597619D01*
X111909524Y-77692857D01*
X111814286Y-77740476D01*
X111623810Y-77788095D01*
X111480952Y-77788095D01*
X111290476Y-77740476D01*
X111195238Y-77692857D01*
X111100000Y-77597619D01*
X111052381Y-77454761D01*
X111052381Y-77359523D01*
X111100000Y-77216666D01*
X111147619Y-77169047D01*
X111052381Y-76264285D02*
X111052381Y-76740476D01*
X111528571Y-76788095D01*
X111480952Y-76740476D01*
X111433333Y-76645238D01*
X111433333Y-76407142D01*
X111480952Y-76311904D01*
X111528571Y-76264285D01*
X111623810Y-76216666D01*
X111861905Y-76216666D01*
X111957143Y-76264285D01*
X112004762Y-76311904D01*
X112052381Y-76407142D01*
X112052381Y-76645238D01*
X112004762Y-76740476D01*
X111957143Y-76788095D01*
X111052381Y-75597619D02*
X111052381Y-75502380D01*
X111100000Y-75407142D01*
X111147619Y-75359523D01*
X111242857Y-75311904D01*
X111433333Y-75264285D01*
X111671429Y-75264285D01*
X111861905Y-75311904D01*
X111957143Y-75359523D01*
X112004762Y-75407142D01*
X112052381Y-75502380D01*
X112052381Y-75597619D01*
X112004762Y-75692857D01*
X111957143Y-75740476D01*
X111861905Y-75788095D01*
X111671429Y-75835714D01*
X111433333Y-75835714D01*
X111242857Y-75788095D01*
X111147619Y-75740476D01*
X111100000Y-75692857D01*
X111052381Y-75597619D01*
X111052381Y-74930952D02*
X111052381Y-74311904D01*
X111433333Y-74645238D01*
X111433333Y-74502380D01*
X111480952Y-74407142D01*
X111528571Y-74359523D01*
X111623810Y-74311904D01*
X111861905Y-74311904D01*
X111957143Y-74359523D01*
X112004762Y-74407142D01*
X112052381Y-74502380D01*
X112052381Y-74788095D01*
X112004762Y-74883333D01*
X111957143Y-74930952D01*
X136931953Y-70516381D02*
X136455762Y-70516381D01*
X136455762Y-69516381D01*
X137693858Y-69849714D02*
X137693858Y-70516381D01*
X137455762Y-69468762D02*
X137217667Y-70183048D01*
X137836715Y-70183048D01*
X138408143Y-69516381D02*
X138503382Y-69516381D01*
X138598620Y-69564000D01*
X138646239Y-69611619D01*
X138693858Y-69706857D01*
X138741477Y-69897333D01*
X138741477Y-70135429D01*
X138693858Y-70325905D01*
X138646239Y-70421143D01*
X138598620Y-70468762D01*
X138503382Y-70516381D01*
X138408143Y-70516381D01*
X138312905Y-70468762D01*
X138265286Y-70421143D01*
X138217667Y-70325905D01*
X138170048Y-70135429D01*
X138170048Y-69897333D01*
X138217667Y-69706857D01*
X138265286Y-69611619D01*
X138312905Y-69564000D01*
X138408143Y-69516381D01*
X139693858Y-70516381D02*
X139122429Y-70516381D01*
X139408143Y-70516381D02*
X139408143Y-69516381D01*
X139312905Y-69659238D01*
X139217667Y-69754476D01*
X139122429Y-69802095D01*
X211960424Y-48350841D02*
X211960424Y-47350841D01*
X212341377Y-47350841D01*
X212436615Y-47398460D01*
X212484234Y-47446079D01*
X212531853Y-47541317D01*
X212531853Y-47684174D01*
X212484234Y-47779412D01*
X212436615Y-47827031D01*
X212341377Y-47874650D01*
X211960424Y-47874650D01*
X212865186Y-47350841D02*
X213484234Y-47350841D01*
X213150900Y-47731793D01*
X213293758Y-47731793D01*
X213388996Y-47779412D01*
X213436615Y-47827031D01*
X213484234Y-47922270D01*
X213484234Y-48160365D01*
X213436615Y-48255603D01*
X213388996Y-48303222D01*
X213293758Y-48350841D01*
X213008043Y-48350841D01*
X212912805Y-48303222D01*
X212865186Y-48255603D01*
X214103281Y-47350841D02*
X214198520Y-47350841D01*
X214293758Y-47398460D01*
X214341377Y-47446079D01*
X214388996Y-47541317D01*
X214436615Y-47731793D01*
X214436615Y-47969889D01*
X214388996Y-48160365D01*
X214341377Y-48255603D01*
X214293758Y-48303222D01*
X214198520Y-48350841D01*
X214103281Y-48350841D01*
X214008043Y-48303222D01*
X213960424Y-48255603D01*
X213912805Y-48160365D01*
X213865186Y-47969889D01*
X213865186Y-47731793D01*
X213912805Y-47541317D01*
X213960424Y-47446079D01*
X214008043Y-47398460D01*
X214103281Y-47350841D01*
X215388996Y-48350841D02*
X214817567Y-48350841D01*
X215103281Y-48350841D02*
X215103281Y-47350841D01*
X215008043Y-47493698D01*
X214912805Y-47588936D01*
X214817567Y-47636555D01*
X87230381Y-77314819D02*
X87135143Y-77267200D01*
X87039905Y-77171962D01*
X86897048Y-77029105D01*
X86801809Y-76981486D01*
X86706571Y-76981486D01*
X86754190Y-77219581D02*
X86658952Y-77171962D01*
X86563714Y-77076724D01*
X86516095Y-76886248D01*
X86516095Y-76552914D01*
X86563714Y-76362438D01*
X86658952Y-76267200D01*
X86754190Y-76219581D01*
X86944667Y-76219581D01*
X87039905Y-76267200D01*
X87135143Y-76362438D01*
X87182762Y-76552914D01*
X87182762Y-76886248D01*
X87135143Y-77076724D01*
X87039905Y-77171962D01*
X86944667Y-77219581D01*
X86754190Y-77219581D01*
X88087524Y-76219581D02*
X87611333Y-76219581D01*
X87563714Y-76695771D01*
X87611333Y-76648152D01*
X87706571Y-76600533D01*
X87944667Y-76600533D01*
X88039905Y-76648152D01*
X88087524Y-76695771D01*
X88135143Y-76791010D01*
X88135143Y-77029105D01*
X88087524Y-77124343D01*
X88039905Y-77171962D01*
X87944667Y-77219581D01*
X87706571Y-77219581D01*
X87611333Y-77171962D01*
X87563714Y-77124343D01*
X88754190Y-76219581D02*
X88849429Y-76219581D01*
X88944667Y-76267200D01*
X88992286Y-76314819D01*
X89039905Y-76410057D01*
X89087524Y-76600533D01*
X89087524Y-76838629D01*
X89039905Y-77029105D01*
X88992286Y-77124343D01*
X88944667Y-77171962D01*
X88849429Y-77219581D01*
X88754190Y-77219581D01*
X88658952Y-77171962D01*
X88611333Y-77124343D01*
X88563714Y-77029105D01*
X88516095Y-76838629D01*
X88516095Y-76600533D01*
X88563714Y-76410057D01*
X88611333Y-76314819D01*
X88658952Y-76267200D01*
X88754190Y-76219581D01*
X90039905Y-77219581D02*
X89468476Y-77219581D01*
X89754190Y-77219581D02*
X89754190Y-76219581D01*
X89658952Y-76362438D01*
X89563714Y-76457676D01*
X89468476Y-76505295D01*
X97230381Y-77314819D02*
X97135143Y-77267200D01*
X97039905Y-77171962D01*
X96897048Y-77029105D01*
X96801809Y-76981486D01*
X96706571Y-76981486D01*
X96754190Y-77219581D02*
X96658952Y-77171962D01*
X96563714Y-77076724D01*
X96516095Y-76886248D01*
X96516095Y-76552914D01*
X96563714Y-76362438D01*
X96658952Y-76267200D01*
X96754190Y-76219581D01*
X96944667Y-76219581D01*
X97039905Y-76267200D01*
X97135143Y-76362438D01*
X97182762Y-76552914D01*
X97182762Y-76886248D01*
X97135143Y-77076724D01*
X97039905Y-77171962D01*
X96944667Y-77219581D01*
X96754190Y-77219581D01*
X98087524Y-76219581D02*
X97611333Y-76219581D01*
X97563714Y-76695771D01*
X97611333Y-76648152D01*
X97706571Y-76600533D01*
X97944667Y-76600533D01*
X98039905Y-76648152D01*
X98087524Y-76695771D01*
X98135143Y-76791010D01*
X98135143Y-77029105D01*
X98087524Y-77124343D01*
X98039905Y-77171962D01*
X97944667Y-77219581D01*
X97706571Y-77219581D01*
X97611333Y-77171962D01*
X97563714Y-77124343D01*
X98754190Y-76219581D02*
X98849429Y-76219581D01*
X98944667Y-76267200D01*
X98992286Y-76314819D01*
X99039905Y-76410057D01*
X99087524Y-76600533D01*
X99087524Y-76838629D01*
X99039905Y-77029105D01*
X98992286Y-77124343D01*
X98944667Y-77171962D01*
X98849429Y-77219581D01*
X98754190Y-77219581D01*
X98658952Y-77171962D01*
X98611333Y-77124343D01*
X98563714Y-77029105D01*
X98516095Y-76838629D01*
X98516095Y-76600533D01*
X98563714Y-76410057D01*
X98611333Y-76314819D01*
X98658952Y-76267200D01*
X98754190Y-76219581D01*
X99468476Y-76314819D02*
X99516095Y-76267200D01*
X99611333Y-76219581D01*
X99849429Y-76219581D01*
X99944667Y-76267200D01*
X99992286Y-76314819D01*
X100039905Y-76410057D01*
X100039905Y-76505295D01*
X99992286Y-76648152D01*
X99420857Y-77219581D01*
X100039905Y-77219581D01*
X107230381Y-77314819D02*
X107135143Y-77267200D01*
X107039905Y-77171962D01*
X106897048Y-77029105D01*
X106801809Y-76981486D01*
X106706571Y-76981486D01*
X106754190Y-77219581D02*
X106658952Y-77171962D01*
X106563714Y-77076724D01*
X106516095Y-76886248D01*
X106516095Y-76552914D01*
X106563714Y-76362438D01*
X106658952Y-76267200D01*
X106754190Y-76219581D01*
X106944667Y-76219581D01*
X107039905Y-76267200D01*
X107135143Y-76362438D01*
X107182762Y-76552914D01*
X107182762Y-76886248D01*
X107135143Y-77076724D01*
X107039905Y-77171962D01*
X106944667Y-77219581D01*
X106754190Y-77219581D01*
X108087524Y-76219581D02*
X107611333Y-76219581D01*
X107563714Y-76695771D01*
X107611333Y-76648152D01*
X107706571Y-76600533D01*
X107944667Y-76600533D01*
X108039905Y-76648152D01*
X108087524Y-76695771D01*
X108135143Y-76791010D01*
X108135143Y-77029105D01*
X108087524Y-77124343D01*
X108039905Y-77171962D01*
X107944667Y-77219581D01*
X107706571Y-77219581D01*
X107611333Y-77171962D01*
X107563714Y-77124343D01*
X108754190Y-76219581D02*
X108849429Y-76219581D01*
X108944667Y-76267200D01*
X108992286Y-76314819D01*
X109039905Y-76410057D01*
X109087524Y-76600533D01*
X109087524Y-76838629D01*
X109039905Y-77029105D01*
X108992286Y-77124343D01*
X108944667Y-77171962D01*
X108849429Y-77219581D01*
X108754190Y-77219581D01*
X108658952Y-77171962D01*
X108611333Y-77124343D01*
X108563714Y-77029105D01*
X108516095Y-76838629D01*
X108516095Y-76600533D01*
X108563714Y-76410057D01*
X108611333Y-76314819D01*
X108658952Y-76267200D01*
X108754190Y-76219581D01*
X109420857Y-76219581D02*
X110039905Y-76219581D01*
X109706571Y-76600533D01*
X109849429Y-76600533D01*
X109944667Y-76648152D01*
X109992286Y-76695771D01*
X110039905Y-76791010D01*
X110039905Y-77029105D01*
X109992286Y-77124343D01*
X109944667Y-77171962D01*
X109849429Y-77219581D01*
X109563714Y-77219581D01*
X109468476Y-77171962D01*
X109420857Y-77124343D01*
X88380953Y-60552381D02*
X88047619Y-60076190D01*
X87809524Y-60552381D02*
X87809524Y-59552381D01*
X88190477Y-59552381D01*
X88285715Y-59600000D01*
X88333334Y-59647619D01*
X88380953Y-59742857D01*
X88380953Y-59885714D01*
X88333334Y-59980952D01*
X88285715Y-60028571D01*
X88190477Y-60076190D01*
X87809524Y-60076190D01*
X89285715Y-59552381D02*
X88809524Y-59552381D01*
X88761905Y-60028571D01*
X88809524Y-59980952D01*
X88904762Y-59933333D01*
X89142858Y-59933333D01*
X89238096Y-59980952D01*
X89285715Y-60028571D01*
X89333334Y-60123810D01*
X89333334Y-60361905D01*
X89285715Y-60457143D01*
X89238096Y-60504762D01*
X89142858Y-60552381D01*
X88904762Y-60552381D01*
X88809524Y-60504762D01*
X88761905Y-60457143D01*
X89952381Y-59552381D02*
X90047620Y-59552381D01*
X90142858Y-59600000D01*
X90190477Y-59647619D01*
X90238096Y-59742857D01*
X90285715Y-59933333D01*
X90285715Y-60171429D01*
X90238096Y-60361905D01*
X90190477Y-60457143D01*
X90142858Y-60504762D01*
X90047620Y-60552381D01*
X89952381Y-60552381D01*
X89857143Y-60504762D01*
X89809524Y-60457143D01*
X89761905Y-60361905D01*
X89714286Y-60171429D01*
X89714286Y-59933333D01*
X89761905Y-59742857D01*
X89809524Y-59647619D01*
X89857143Y-59600000D01*
X89952381Y-59552381D01*
X91238096Y-60552381D02*
X90666667Y-60552381D01*
X90952381Y-60552381D02*
X90952381Y-59552381D01*
X90857143Y-59695238D01*
X90761905Y-59790476D01*
X90666667Y-59838095D01*
X98480953Y-60552381D02*
X98147619Y-60076190D01*
X97909524Y-60552381D02*
X97909524Y-59552381D01*
X98290477Y-59552381D01*
X98385715Y-59600000D01*
X98433334Y-59647619D01*
X98480953Y-59742857D01*
X98480953Y-59885714D01*
X98433334Y-59980952D01*
X98385715Y-60028571D01*
X98290477Y-60076190D01*
X97909524Y-60076190D01*
X99385715Y-59552381D02*
X98909524Y-59552381D01*
X98861905Y-60028571D01*
X98909524Y-59980952D01*
X99004762Y-59933333D01*
X99242858Y-59933333D01*
X99338096Y-59980952D01*
X99385715Y-60028571D01*
X99433334Y-60123810D01*
X99433334Y-60361905D01*
X99385715Y-60457143D01*
X99338096Y-60504762D01*
X99242858Y-60552381D01*
X99004762Y-60552381D01*
X98909524Y-60504762D01*
X98861905Y-60457143D01*
X100052381Y-59552381D02*
X100147620Y-59552381D01*
X100242858Y-59600000D01*
X100290477Y-59647619D01*
X100338096Y-59742857D01*
X100385715Y-59933333D01*
X100385715Y-60171429D01*
X100338096Y-60361905D01*
X100290477Y-60457143D01*
X100242858Y-60504762D01*
X100147620Y-60552381D01*
X100052381Y-60552381D01*
X99957143Y-60504762D01*
X99909524Y-60457143D01*
X99861905Y-60361905D01*
X99814286Y-60171429D01*
X99814286Y-59933333D01*
X99861905Y-59742857D01*
X99909524Y-59647619D01*
X99957143Y-59600000D01*
X100052381Y-59552381D01*
X100766667Y-59647619D02*
X100814286Y-59600000D01*
X100909524Y-59552381D01*
X101147620Y-59552381D01*
X101242858Y-59600000D01*
X101290477Y-59647619D01*
X101338096Y-59742857D01*
X101338096Y-59838095D01*
X101290477Y-59980952D01*
X100719048Y-60552381D01*
X101338096Y-60552381D01*
X108380953Y-60552381D02*
X108047619Y-60076190D01*
X107809524Y-60552381D02*
X107809524Y-59552381D01*
X108190477Y-59552381D01*
X108285715Y-59600000D01*
X108333334Y-59647619D01*
X108380953Y-59742857D01*
X108380953Y-59885714D01*
X108333334Y-59980952D01*
X108285715Y-60028571D01*
X108190477Y-60076190D01*
X107809524Y-60076190D01*
X109285715Y-59552381D02*
X108809524Y-59552381D01*
X108761905Y-60028571D01*
X108809524Y-59980952D01*
X108904762Y-59933333D01*
X109142858Y-59933333D01*
X109238096Y-59980952D01*
X109285715Y-60028571D01*
X109333334Y-60123810D01*
X109333334Y-60361905D01*
X109285715Y-60457143D01*
X109238096Y-60504762D01*
X109142858Y-60552381D01*
X108904762Y-60552381D01*
X108809524Y-60504762D01*
X108761905Y-60457143D01*
X109952381Y-59552381D02*
X110047620Y-59552381D01*
X110142858Y-59600000D01*
X110190477Y-59647619D01*
X110238096Y-59742857D01*
X110285715Y-59933333D01*
X110285715Y-60171429D01*
X110238096Y-60361905D01*
X110190477Y-60457143D01*
X110142858Y-60504762D01*
X110047620Y-60552381D01*
X109952381Y-60552381D01*
X109857143Y-60504762D01*
X109809524Y-60457143D01*
X109761905Y-60361905D01*
X109714286Y-60171429D01*
X109714286Y-59933333D01*
X109761905Y-59742857D01*
X109809524Y-59647619D01*
X109857143Y-59600000D01*
X109952381Y-59552381D01*
X110619048Y-59552381D02*
X111238096Y-59552381D01*
X110904762Y-59933333D01*
X111047620Y-59933333D01*
X111142858Y-59980952D01*
X111190477Y-60028571D01*
X111238096Y-60123810D01*
X111238096Y-60361905D01*
X111190477Y-60457143D01*
X111142858Y-60504762D01*
X111047620Y-60552381D01*
X110761905Y-60552381D01*
X110666667Y-60504762D01*
X110619048Y-60457143D01*
X180501714Y-55332381D02*
X180501714Y-56141905D01*
X180549333Y-56237143D01*
X180596952Y-56284762D01*
X180692190Y-56332381D01*
X180882667Y-56332381D01*
X180977905Y-56284762D01*
X181025524Y-56237143D01*
X181073143Y-56141905D01*
X181073143Y-55332381D01*
X181454095Y-55332381D02*
X182073143Y-55332381D01*
X181739809Y-55713333D01*
X181882667Y-55713333D01*
X181977905Y-55760952D01*
X182025524Y-55808571D01*
X182073143Y-55903810D01*
X182073143Y-56141905D01*
X182025524Y-56237143D01*
X181977905Y-56284762D01*
X181882667Y-56332381D01*
X181596952Y-56332381D01*
X181501714Y-56284762D01*
X181454095Y-56237143D01*
X182692190Y-55332381D02*
X182787429Y-55332381D01*
X182882667Y-55380000D01*
X182930286Y-55427619D01*
X182977905Y-55522857D01*
X183025524Y-55713333D01*
X183025524Y-55951429D01*
X182977905Y-56141905D01*
X182930286Y-56237143D01*
X182882667Y-56284762D01*
X182787429Y-56332381D01*
X182692190Y-56332381D01*
X182596952Y-56284762D01*
X182549333Y-56237143D01*
X182501714Y-56141905D01*
X182454095Y-55951429D01*
X182454095Y-55713333D01*
X182501714Y-55522857D01*
X182549333Y-55427619D01*
X182596952Y-55380000D01*
X182692190Y-55332381D01*
X183406476Y-55427619D02*
X183454095Y-55380000D01*
X183549333Y-55332381D01*
X183787429Y-55332381D01*
X183882667Y-55380000D01*
X183930286Y-55427619D01*
X183977905Y-55522857D01*
X183977905Y-55618095D01*
X183930286Y-55760952D01*
X183358857Y-56332381D01*
X183977905Y-56332381D01*
X114462381Y-66112286D02*
X115271905Y-66112286D01*
X115367143Y-66064667D01*
X115414762Y-66017048D01*
X115462381Y-65921810D01*
X115462381Y-65731333D01*
X115414762Y-65636095D01*
X115367143Y-65588476D01*
X115271905Y-65540857D01*
X114462381Y-65540857D01*
X114795714Y-64636095D02*
X115462381Y-64636095D01*
X114414762Y-64874191D02*
X115129048Y-65112286D01*
X115129048Y-64493238D01*
X114462381Y-63921810D02*
X114462381Y-63826571D01*
X114510000Y-63731333D01*
X114557619Y-63683714D01*
X114652857Y-63636095D01*
X114843333Y-63588476D01*
X115081429Y-63588476D01*
X115271905Y-63636095D01*
X115367143Y-63683714D01*
X115414762Y-63731333D01*
X115462381Y-63826571D01*
X115462381Y-63921810D01*
X115414762Y-64017048D01*
X115367143Y-64064667D01*
X115271905Y-64112286D01*
X115081429Y-64159905D01*
X114843333Y-64159905D01*
X114652857Y-64112286D01*
X114557619Y-64064667D01*
X114510000Y-64017048D01*
X114462381Y-63921810D01*
X115462381Y-62636095D02*
X115462381Y-63207524D01*
X115462381Y-62921810D02*
X114462381Y-62921810D01*
X114605238Y-63017048D01*
X114700476Y-63112286D01*
X114748095Y-63207524D01*
X139592381Y-84310476D02*
X138592381Y-84310476D01*
X138592381Y-84072381D01*
X138640000Y-83929523D01*
X138735238Y-83834285D01*
X138830476Y-83786666D01*
X139020952Y-83739047D01*
X139163810Y-83739047D01*
X139354286Y-83786666D01*
X139449524Y-83834285D01*
X139544762Y-83929523D01*
X139592381Y-84072381D01*
X139592381Y-84310476D01*
X138925714Y-82881904D02*
X139592381Y-82881904D01*
X138544762Y-83120000D02*
X139259048Y-83358095D01*
X139259048Y-82739047D01*
X138592381Y-82167619D02*
X138592381Y-82072380D01*
X138640000Y-81977142D01*
X138687619Y-81929523D01*
X138782857Y-81881904D01*
X138973333Y-81834285D01*
X139211429Y-81834285D01*
X139401905Y-81881904D01*
X139497143Y-81929523D01*
X139544762Y-81977142D01*
X139592381Y-82072380D01*
X139592381Y-82167619D01*
X139544762Y-82262857D01*
X139497143Y-82310476D01*
X139401905Y-82358095D01*
X139211429Y-82405714D01*
X138973333Y-82405714D01*
X138782857Y-82358095D01*
X138687619Y-82310476D01*
X138640000Y-82262857D01*
X138592381Y-82167619D01*
X139592381Y-80881904D02*
X139592381Y-81453333D01*
X139592381Y-81167619D02*
X138592381Y-81167619D01*
X138735238Y-81262857D01*
X138830476Y-81358095D01*
X138878095Y-81453333D01*
X83252381Y-85190476D02*
X82252381Y-85190476D01*
X82252381Y-84952381D01*
X82300000Y-84809523D01*
X82395238Y-84714285D01*
X82490476Y-84666666D01*
X82680952Y-84619047D01*
X82823810Y-84619047D01*
X83014286Y-84666666D01*
X83109524Y-84714285D01*
X83204762Y-84809523D01*
X83252381Y-84952381D01*
X83252381Y-85190476D01*
X82252381Y-83714285D02*
X82252381Y-84190476D01*
X82728571Y-84238095D01*
X82680952Y-84190476D01*
X82633333Y-84095238D01*
X82633333Y-83857142D01*
X82680952Y-83761904D01*
X82728571Y-83714285D01*
X82823810Y-83666666D01*
X83061905Y-83666666D01*
X83157143Y-83714285D01*
X83204762Y-83761904D01*
X83252381Y-83857142D01*
X83252381Y-84095238D01*
X83204762Y-84190476D01*
X83157143Y-84238095D01*
X82252381Y-83047619D02*
X82252381Y-82952380D01*
X82300000Y-82857142D01*
X82347619Y-82809523D01*
X82442857Y-82761904D01*
X82633333Y-82714285D01*
X82871429Y-82714285D01*
X83061905Y-82761904D01*
X83157143Y-82809523D01*
X83204762Y-82857142D01*
X83252381Y-82952380D01*
X83252381Y-83047619D01*
X83204762Y-83142857D01*
X83157143Y-83190476D01*
X83061905Y-83238095D01*
X82871429Y-83285714D01*
X82633333Y-83285714D01*
X82442857Y-83238095D01*
X82347619Y-83190476D01*
X82300000Y-83142857D01*
X82252381Y-83047619D01*
X83252381Y-81761904D02*
X83252381Y-82333333D01*
X83252381Y-82047619D02*
X82252381Y-82047619D01*
X82395238Y-82142857D01*
X82490476Y-82238095D01*
X82538095Y-82333333D01*
X93252381Y-85190476D02*
X92252381Y-85190476D01*
X92252381Y-84952381D01*
X92300000Y-84809523D01*
X92395238Y-84714285D01*
X92490476Y-84666666D01*
X92680952Y-84619047D01*
X92823810Y-84619047D01*
X93014286Y-84666666D01*
X93109524Y-84714285D01*
X93204762Y-84809523D01*
X93252381Y-84952381D01*
X93252381Y-85190476D01*
X92252381Y-83714285D02*
X92252381Y-84190476D01*
X92728571Y-84238095D01*
X92680952Y-84190476D01*
X92633333Y-84095238D01*
X92633333Y-83857142D01*
X92680952Y-83761904D01*
X92728571Y-83714285D01*
X92823810Y-83666666D01*
X93061905Y-83666666D01*
X93157143Y-83714285D01*
X93204762Y-83761904D01*
X93252381Y-83857142D01*
X93252381Y-84095238D01*
X93204762Y-84190476D01*
X93157143Y-84238095D01*
X92252381Y-83047619D02*
X92252381Y-82952380D01*
X92300000Y-82857142D01*
X92347619Y-82809523D01*
X92442857Y-82761904D01*
X92633333Y-82714285D01*
X92871429Y-82714285D01*
X93061905Y-82761904D01*
X93157143Y-82809523D01*
X93204762Y-82857142D01*
X93252381Y-82952380D01*
X93252381Y-83047619D01*
X93204762Y-83142857D01*
X93157143Y-83190476D01*
X93061905Y-83238095D01*
X92871429Y-83285714D01*
X92633333Y-83285714D01*
X92442857Y-83238095D01*
X92347619Y-83190476D01*
X92300000Y-83142857D01*
X92252381Y-83047619D01*
X92347619Y-82333333D02*
X92300000Y-82285714D01*
X92252381Y-82190476D01*
X92252381Y-81952380D01*
X92300000Y-81857142D01*
X92347619Y-81809523D01*
X92442857Y-81761904D01*
X92538095Y-81761904D01*
X92680952Y-81809523D01*
X93252381Y-82380952D01*
X93252381Y-81761904D01*
X103252381Y-85789416D02*
X102252381Y-85789416D01*
X102252381Y-85551321D01*
X102300000Y-85408463D01*
X102395238Y-85313225D01*
X102490476Y-85265606D01*
X102680952Y-85217987D01*
X102823810Y-85217987D01*
X103014286Y-85265606D01*
X103109524Y-85313225D01*
X103204762Y-85408463D01*
X103252381Y-85551321D01*
X103252381Y-85789416D01*
X102252381Y-84313225D02*
X102252381Y-84789416D01*
X102728571Y-84837035D01*
X102680952Y-84789416D01*
X102633333Y-84694178D01*
X102633333Y-84456082D01*
X102680952Y-84360844D01*
X102728571Y-84313225D01*
X102823810Y-84265606D01*
X103061905Y-84265606D01*
X103157143Y-84313225D01*
X103204762Y-84360844D01*
X103252381Y-84456082D01*
X103252381Y-84694178D01*
X103204762Y-84789416D01*
X103157143Y-84837035D01*
X102252381Y-83646559D02*
X102252381Y-83551320D01*
X102300000Y-83456082D01*
X102347619Y-83408463D01*
X102442857Y-83360844D01*
X102633333Y-83313225D01*
X102871429Y-83313225D01*
X103061905Y-83360844D01*
X103157143Y-83408463D01*
X103204762Y-83456082D01*
X103252381Y-83551320D01*
X103252381Y-83646559D01*
X103204762Y-83741797D01*
X103157143Y-83789416D01*
X103061905Y-83837035D01*
X102871429Y-83884654D01*
X102633333Y-83884654D01*
X102442857Y-83837035D01*
X102347619Y-83789416D01*
X102300000Y-83741797D01*
X102252381Y-83646559D01*
X102252381Y-82979892D02*
X102252381Y-82360844D01*
X102633333Y-82694178D01*
X102633333Y-82551320D01*
X102680952Y-82456082D01*
X102728571Y-82408463D01*
X102823810Y-82360844D01*
X103061905Y-82360844D01*
X103157143Y-82408463D01*
X103204762Y-82456082D01*
X103252381Y-82551320D01*
X103252381Y-82837035D01*
X103204762Y-82932273D01*
X103157143Y-82979892D01*
X157279274Y-53971498D02*
X157231655Y-54019117D01*
X157088798Y-54066736D01*
X156993560Y-54066736D01*
X156850702Y-54019117D01*
X156755464Y-53923879D01*
X156707845Y-53828641D01*
X156660226Y-53638165D01*
X156660226Y-53495307D01*
X156707845Y-53304831D01*
X156755464Y-53209593D01*
X156850702Y-53114355D01*
X156993560Y-53066736D01*
X157088798Y-53066736D01*
X157231655Y-53114355D01*
X157279274Y-53161974D01*
X158231655Y-54066736D02*
X157660226Y-54066736D01*
X157945940Y-54066736D02*
X157945940Y-53066736D01*
X157850702Y-53209593D01*
X157755464Y-53304831D01*
X157660226Y-53352450D01*
X158850702Y-53066736D02*
X158945941Y-53066736D01*
X159041179Y-53114355D01*
X159088798Y-53161974D01*
X159136417Y-53257212D01*
X159184036Y-53447688D01*
X159184036Y-53685784D01*
X159136417Y-53876260D01*
X159088798Y-53971498D01*
X159041179Y-54019117D01*
X158945941Y-54066736D01*
X158850702Y-54066736D01*
X158755464Y-54019117D01*
X158707845Y-53971498D01*
X158660226Y-53876260D01*
X158612607Y-53685784D01*
X158612607Y-53447688D01*
X158660226Y-53257212D01*
X158707845Y-53161974D01*
X158755464Y-53114355D01*
X158850702Y-53066736D01*
X160136417Y-54066736D02*
X159564988Y-54066736D01*
X159850702Y-54066736D02*
X159850702Y-53066736D01*
X159755464Y-53209593D01*
X159660226Y-53304831D01*
X159564988Y-53352450D01*
X157079274Y-52171498D02*
X157031655Y-52219117D01*
X156888798Y-52266736D01*
X156793560Y-52266736D01*
X156650702Y-52219117D01*
X156555464Y-52123879D01*
X156507845Y-52028641D01*
X156460226Y-51838165D01*
X156460226Y-51695307D01*
X156507845Y-51504831D01*
X156555464Y-51409593D01*
X156650702Y-51314355D01*
X156793560Y-51266736D01*
X156888798Y-51266736D01*
X157031655Y-51314355D01*
X157079274Y-51361974D01*
X158031655Y-52266736D02*
X157460226Y-52266736D01*
X157745940Y-52266736D02*
X157745940Y-51266736D01*
X157650702Y-51409593D01*
X157555464Y-51504831D01*
X157460226Y-51552450D01*
X158650702Y-51266736D02*
X158745941Y-51266736D01*
X158841179Y-51314355D01*
X158888798Y-51361974D01*
X158936417Y-51457212D01*
X158984036Y-51647688D01*
X158984036Y-51885784D01*
X158936417Y-52076260D01*
X158888798Y-52171498D01*
X158841179Y-52219117D01*
X158745941Y-52266736D01*
X158650702Y-52266736D01*
X158555464Y-52219117D01*
X158507845Y-52171498D01*
X158460226Y-52076260D01*
X158412607Y-51885784D01*
X158412607Y-51647688D01*
X158460226Y-51457212D01*
X158507845Y-51361974D01*
X158555464Y-51314355D01*
X158650702Y-51266736D01*
X159364988Y-51361974D02*
X159412607Y-51314355D01*
X159507845Y-51266736D01*
X159745941Y-51266736D01*
X159841179Y-51314355D01*
X159888798Y-51361974D01*
X159936417Y-51457212D01*
X159936417Y-51552450D01*
X159888798Y-51695307D01*
X159317369Y-52266736D01*
X159936417Y-52266736D01*
X91709524Y-62372381D02*
X91709524Y-61372381D01*
X92090477Y-61372381D01*
X92185715Y-61420000D01*
X92233334Y-61467619D01*
X92280953Y-61562857D01*
X92280953Y-61705714D01*
X92233334Y-61800952D01*
X92185715Y-61848571D01*
X92090477Y-61896190D01*
X91709524Y-61896190D01*
X93233334Y-62372381D02*
X92661905Y-62372381D01*
X92947619Y-62372381D02*
X92947619Y-61372381D01*
X92852381Y-61515238D01*
X92757143Y-61610476D01*
X92661905Y-61658095D01*
X93852381Y-61372381D02*
X93947620Y-61372381D01*
X94042858Y-61420000D01*
X94090477Y-61467619D01*
X94138096Y-61562857D01*
X94185715Y-61753333D01*
X94185715Y-61991429D01*
X94138096Y-62181905D01*
X94090477Y-62277143D01*
X94042858Y-62324762D01*
X93947620Y-62372381D01*
X93852381Y-62372381D01*
X93757143Y-62324762D01*
X93709524Y-62277143D01*
X93661905Y-62181905D01*
X93614286Y-61991429D01*
X93614286Y-61753333D01*
X93661905Y-61562857D01*
X93709524Y-61467619D01*
X93757143Y-61420000D01*
X93852381Y-61372381D01*
X95138096Y-62372381D02*
X94566667Y-62372381D01*
X94852381Y-62372381D02*
X94852381Y-61372381D01*
X94757143Y-61515238D01*
X94661905Y-61610476D01*
X94566667Y-61658095D01*
X160285714Y-65702381D02*
X160285714Y-66511905D01*
X160333333Y-66607143D01*
X160380952Y-66654762D01*
X160476190Y-66702381D01*
X160666667Y-66702381D01*
X160761905Y-66654762D01*
X160809524Y-66607143D01*
X160857143Y-66511905D01*
X160857143Y-65702381D01*
X161857143Y-66702381D02*
X161285714Y-66702381D01*
X161571428Y-66702381D02*
X161571428Y-65702381D01*
X161476190Y-65845238D01*
X161380952Y-65940476D01*
X161285714Y-65988095D01*
X162476190Y-65702381D02*
X162571429Y-65702381D01*
X162666667Y-65750000D01*
X162714286Y-65797619D01*
X162761905Y-65892857D01*
X162809524Y-66083333D01*
X162809524Y-66321429D01*
X162761905Y-66511905D01*
X162714286Y-66607143D01*
X162666667Y-66654762D01*
X162571429Y-66702381D01*
X162476190Y-66702381D01*
X162380952Y-66654762D01*
X162333333Y-66607143D01*
X162285714Y-66511905D01*
X162238095Y-66321429D01*
X162238095Y-66083333D01*
X162285714Y-65892857D01*
X162333333Y-65797619D01*
X162380952Y-65750000D01*
X162476190Y-65702381D01*
X163761905Y-66702381D02*
X163190476Y-66702381D01*
X163476190Y-66702381D02*
X163476190Y-65702381D01*
X163380952Y-65845238D01*
X163285714Y-65940476D01*
X163190476Y-65988095D01*
X203747381Y-88369047D02*
X203271190Y-88702381D01*
X203747381Y-88940476D02*
X202747381Y-88940476D01*
X202747381Y-88559523D01*
X202795000Y-88464285D01*
X202842619Y-88416666D01*
X202937857Y-88369047D01*
X203080714Y-88369047D01*
X203175952Y-88416666D01*
X203223571Y-88464285D01*
X203271190Y-88559523D01*
X203271190Y-88940476D01*
X203747381Y-87940476D02*
X202747381Y-87940476D01*
X202747381Y-87559523D01*
X202795000Y-87464285D01*
X202842619Y-87416666D01*
X202937857Y-87369047D01*
X203080714Y-87369047D01*
X203175952Y-87416666D01*
X203223571Y-87464285D01*
X203271190Y-87559523D01*
X203271190Y-87940476D01*
X202842619Y-86988095D02*
X202795000Y-86940476D01*
X202747381Y-86845238D01*
X202747381Y-86607142D01*
X202795000Y-86511904D01*
X202842619Y-86464285D01*
X202937857Y-86416666D01*
X203033095Y-86416666D01*
X203175952Y-86464285D01*
X203747381Y-87035714D01*
X203747381Y-86416666D01*
X202747381Y-85797619D02*
X202747381Y-85702380D01*
X202795000Y-85607142D01*
X202842619Y-85559523D01*
X202937857Y-85511904D01*
X203128333Y-85464285D01*
X203366429Y-85464285D01*
X203556905Y-85511904D01*
X203652143Y-85559523D01*
X203699762Y-85607142D01*
X203747381Y-85702380D01*
X203747381Y-85797619D01*
X203699762Y-85892857D01*
X203652143Y-85940476D01*
X203556905Y-85988095D01*
X203366429Y-86035714D01*
X203128333Y-86035714D01*
X202937857Y-85988095D01*
X202842619Y-85940476D01*
X202795000Y-85892857D01*
X202747381Y-85797619D01*
X203747381Y-84511904D02*
X203747381Y-85083333D01*
X203747381Y-84797619D02*
X202747381Y-84797619D01*
X202890238Y-84892857D01*
X202985476Y-84988095D01*
X203033095Y-85083333D01*
X167302381Y-88369047D02*
X166826190Y-88702381D01*
X167302381Y-88940476D02*
X166302381Y-88940476D01*
X166302381Y-88559523D01*
X166350000Y-88464285D01*
X166397619Y-88416666D01*
X166492857Y-88369047D01*
X166635714Y-88369047D01*
X166730952Y-88416666D01*
X166778571Y-88464285D01*
X166826190Y-88559523D01*
X166826190Y-88940476D01*
X167302381Y-87940476D02*
X166302381Y-87940476D01*
X166302381Y-87559523D01*
X166350000Y-87464285D01*
X166397619Y-87416666D01*
X166492857Y-87369047D01*
X166635714Y-87369047D01*
X166730952Y-87416666D01*
X166778571Y-87464285D01*
X166826190Y-87559523D01*
X166826190Y-87940476D01*
X166397619Y-86988095D02*
X166350000Y-86940476D01*
X166302381Y-86845238D01*
X166302381Y-86607142D01*
X166350000Y-86511904D01*
X166397619Y-86464285D01*
X166492857Y-86416666D01*
X166588095Y-86416666D01*
X166730952Y-86464285D01*
X167302381Y-87035714D01*
X167302381Y-86416666D01*
X166302381Y-85797619D02*
X166302381Y-85702380D01*
X166350000Y-85607142D01*
X166397619Y-85559523D01*
X166492857Y-85511904D01*
X166683333Y-85464285D01*
X166921429Y-85464285D01*
X167111905Y-85511904D01*
X167207143Y-85559523D01*
X167254762Y-85607142D01*
X167302381Y-85702380D01*
X167302381Y-85797619D01*
X167254762Y-85892857D01*
X167207143Y-85940476D01*
X167111905Y-85988095D01*
X166921429Y-86035714D01*
X166683333Y-86035714D01*
X166492857Y-85988095D01*
X166397619Y-85940476D01*
X166350000Y-85892857D01*
X166302381Y-85797619D01*
X166397619Y-85083333D02*
X166350000Y-85035714D01*
X166302381Y-84940476D01*
X166302381Y-84702380D01*
X166350000Y-84607142D01*
X166397619Y-84559523D01*
X166492857Y-84511904D01*
X166588095Y-84511904D01*
X166730952Y-84559523D01*
X167302381Y-85130952D01*
X167302381Y-84511904D01*
X194457381Y-73814286D02*
X195266905Y-73814286D01*
X195362143Y-73766667D01*
X195409762Y-73719048D01*
X195457381Y-73623810D01*
X195457381Y-73433333D01*
X195409762Y-73338095D01*
X195362143Y-73290476D01*
X195266905Y-73242857D01*
X194457381Y-73242857D01*
X194552619Y-72814286D02*
X194505000Y-72766667D01*
X194457381Y-72671429D01*
X194457381Y-72433333D01*
X194505000Y-72338095D01*
X194552619Y-72290476D01*
X194647857Y-72242857D01*
X194743095Y-72242857D01*
X194885952Y-72290476D01*
X195457381Y-72861905D01*
X195457381Y-72242857D01*
X194457381Y-71623810D02*
X194457381Y-71528571D01*
X194505000Y-71433333D01*
X194552619Y-71385714D01*
X194647857Y-71338095D01*
X194838333Y-71290476D01*
X195076429Y-71290476D01*
X195266905Y-71338095D01*
X195362143Y-71385714D01*
X195409762Y-71433333D01*
X195457381Y-71528571D01*
X195457381Y-71623810D01*
X195409762Y-71719048D01*
X195362143Y-71766667D01*
X195266905Y-71814286D01*
X195076429Y-71861905D01*
X194838333Y-71861905D01*
X194647857Y-71814286D01*
X194552619Y-71766667D01*
X194505000Y-71719048D01*
X194457381Y-71623810D01*
X194457381Y-70957143D02*
X194457381Y-70338095D01*
X194838333Y-70671429D01*
X194838333Y-70528571D01*
X194885952Y-70433333D01*
X194933571Y-70385714D01*
X195028810Y-70338095D01*
X195266905Y-70338095D01*
X195362143Y-70385714D01*
X195409762Y-70433333D01*
X195457381Y-70528571D01*
X195457381Y-70814286D01*
X195409762Y-70909524D01*
X195362143Y-70957143D01*
X161357143Y-75166666D02*
X161404762Y-75214285D01*
X161452381Y-75357142D01*
X161452381Y-75452380D01*
X161404762Y-75595238D01*
X161309524Y-75690476D01*
X161214286Y-75738095D01*
X161023810Y-75785714D01*
X160880952Y-75785714D01*
X160690476Y-75738095D01*
X160595238Y-75690476D01*
X160500000Y-75595238D01*
X160452381Y-75452380D01*
X160452381Y-75357142D01*
X160500000Y-75214285D01*
X160547619Y-75166666D01*
X161452381Y-74214285D02*
X161452381Y-74785714D01*
X161452381Y-74500000D02*
X160452381Y-74500000D01*
X160595238Y-74595238D01*
X160690476Y-74690476D01*
X160738095Y-74785714D01*
X172157143Y-69566666D02*
X172204762Y-69614285D01*
X172252381Y-69757142D01*
X172252381Y-69852380D01*
X172204762Y-69995238D01*
X172109524Y-70090476D01*
X172014286Y-70138095D01*
X171823810Y-70185714D01*
X171680952Y-70185714D01*
X171490476Y-70138095D01*
X171395238Y-70090476D01*
X171300000Y-69995238D01*
X171252381Y-69852380D01*
X171252381Y-69757142D01*
X171300000Y-69614285D01*
X171347619Y-69566666D01*
X171347619Y-69185714D02*
X171300000Y-69138095D01*
X171252381Y-69042857D01*
X171252381Y-68804761D01*
X171300000Y-68709523D01*
X171347619Y-68661904D01*
X171442857Y-68614285D01*
X171538095Y-68614285D01*
X171680952Y-68661904D01*
X172252381Y-69233333D01*
X172252381Y-68614285D01*
X203521943Y-76166666D02*
X203569562Y-76214285D01*
X203617181Y-76357142D01*
X203617181Y-76452380D01*
X203569562Y-76595238D01*
X203474324Y-76690476D01*
X203379086Y-76738095D01*
X203188610Y-76785714D01*
X203045752Y-76785714D01*
X202855276Y-76738095D01*
X202760038Y-76690476D01*
X202664800Y-76595238D01*
X202617181Y-76452380D01*
X202617181Y-76357142D01*
X202664800Y-76214285D01*
X202712419Y-76166666D01*
X202617181Y-75833333D02*
X202617181Y-75214285D01*
X202998133Y-75547619D01*
X202998133Y-75404761D01*
X203045752Y-75309523D01*
X203093371Y-75261904D01*
X203188610Y-75214285D01*
X203426705Y-75214285D01*
X203521943Y-75261904D01*
X203569562Y-75309523D01*
X203617181Y-75404761D01*
X203617181Y-75690476D01*
X203569562Y-75785714D01*
X203521943Y-75833333D01*
X202709524Y-93952381D02*
X202709524Y-92952381D01*
X203090477Y-92952381D01*
X203185715Y-93000000D01*
X203233334Y-93047619D01*
X203280953Y-93142857D01*
X203280953Y-93285714D01*
X203233334Y-93380952D01*
X203185715Y-93428571D01*
X203090477Y-93476190D01*
X202709524Y-93476190D01*
X203661905Y-93047619D02*
X203709524Y-93000000D01*
X203804762Y-92952381D01*
X204042858Y-92952381D01*
X204138096Y-93000000D01*
X204185715Y-93047619D01*
X204233334Y-93142857D01*
X204233334Y-93238095D01*
X204185715Y-93380952D01*
X203614286Y-93952381D01*
X204233334Y-93952381D01*
X204852381Y-92952381D02*
X204947620Y-92952381D01*
X205042858Y-93000000D01*
X205090477Y-93047619D01*
X205138096Y-93142857D01*
X205185715Y-93333333D01*
X205185715Y-93571429D01*
X205138096Y-93761905D01*
X205090477Y-93857143D01*
X205042858Y-93904762D01*
X204947620Y-93952381D01*
X204852381Y-93952381D01*
X204757143Y-93904762D01*
X204709524Y-93857143D01*
X204661905Y-93761905D01*
X204614286Y-93571429D01*
X204614286Y-93333333D01*
X204661905Y-93142857D01*
X204709524Y-93047619D01*
X204757143Y-93000000D01*
X204852381Y-92952381D01*
X206138096Y-93952381D02*
X205566667Y-93952381D01*
X205852381Y-93952381D02*
X205852381Y-92952381D01*
X205757143Y-93095238D01*
X205661905Y-93190476D01*
X205566667Y-93238095D01*
X137059524Y-93952381D02*
X137059524Y-92952381D01*
X137440477Y-92952381D01*
X137535715Y-93000000D01*
X137583334Y-93047619D01*
X137630953Y-93142857D01*
X137630953Y-93285714D01*
X137583334Y-93380952D01*
X137535715Y-93428571D01*
X137440477Y-93476190D01*
X137059524Y-93476190D01*
X138011905Y-93047619D02*
X138059524Y-93000000D01*
X138154762Y-92952381D01*
X138392858Y-92952381D01*
X138488096Y-93000000D01*
X138535715Y-93047619D01*
X138583334Y-93142857D01*
X138583334Y-93238095D01*
X138535715Y-93380952D01*
X137964286Y-93952381D01*
X138583334Y-93952381D01*
X139202381Y-92952381D02*
X139297620Y-92952381D01*
X139392858Y-93000000D01*
X139440477Y-93047619D01*
X139488096Y-93142857D01*
X139535715Y-93333333D01*
X139535715Y-93571429D01*
X139488096Y-93761905D01*
X139440477Y-93857143D01*
X139392858Y-93904762D01*
X139297620Y-93952381D01*
X139202381Y-93952381D01*
X139107143Y-93904762D01*
X139059524Y-93857143D01*
X139011905Y-93761905D01*
X138964286Y-93571429D01*
X138964286Y-93333333D01*
X139011905Y-93142857D01*
X139059524Y-93047619D01*
X139107143Y-93000000D01*
X139202381Y-92952381D01*
X139916667Y-93047619D02*
X139964286Y-93000000D01*
X140059524Y-92952381D01*
X140297620Y-92952381D01*
X140392858Y-93000000D01*
X140440477Y-93047619D01*
X140488096Y-93142857D01*
X140488096Y-93238095D01*
X140440477Y-93380952D01*
X139869048Y-93952381D01*
X140488096Y-93952381D01*
X189527381Y-55414286D02*
X190336905Y-55414286D01*
X190432143Y-55366667D01*
X190479762Y-55319048D01*
X190527381Y-55223810D01*
X190527381Y-55033333D01*
X190479762Y-54938095D01*
X190432143Y-54890476D01*
X190336905Y-54842857D01*
X189527381Y-54842857D01*
X189527381Y-54461905D02*
X189527381Y-53842857D01*
X189908333Y-54176191D01*
X189908333Y-54033333D01*
X189955952Y-53938095D01*
X190003571Y-53890476D01*
X190098810Y-53842857D01*
X190336905Y-53842857D01*
X190432143Y-53890476D01*
X190479762Y-53938095D01*
X190527381Y-54033333D01*
X190527381Y-54319048D01*
X190479762Y-54414286D01*
X190432143Y-54461905D01*
X189527381Y-53223810D02*
X189527381Y-53128571D01*
X189575000Y-53033333D01*
X189622619Y-52985714D01*
X189717857Y-52938095D01*
X189908333Y-52890476D01*
X190146429Y-52890476D01*
X190336905Y-52938095D01*
X190432143Y-52985714D01*
X190479762Y-53033333D01*
X190527381Y-53128571D01*
X190527381Y-53223810D01*
X190479762Y-53319048D01*
X190432143Y-53366667D01*
X190336905Y-53414286D01*
X190146429Y-53461905D01*
X189908333Y-53461905D01*
X189717857Y-53414286D01*
X189622619Y-53366667D01*
X189575000Y-53319048D01*
X189527381Y-53223810D01*
X190527381Y-51938095D02*
X190527381Y-52509524D01*
X190527381Y-52223810D02*
X189527381Y-52223810D01*
X189670238Y-52319048D01*
X189765476Y-52414286D01*
X189813095Y-52509524D01*
X112709524Y-93952381D02*
X112709524Y-92952381D01*
X113090477Y-92952381D01*
X113185715Y-93000000D01*
X113233334Y-93047619D01*
X113280953Y-93142857D01*
X113280953Y-93285714D01*
X113233334Y-93380952D01*
X113185715Y-93428571D01*
X113090477Y-93476190D01*
X112709524Y-93476190D01*
X113614286Y-92952381D02*
X114233334Y-92952381D01*
X113900000Y-93333333D01*
X114042858Y-93333333D01*
X114138096Y-93380952D01*
X114185715Y-93428571D01*
X114233334Y-93523810D01*
X114233334Y-93761905D01*
X114185715Y-93857143D01*
X114138096Y-93904762D01*
X114042858Y-93952381D01*
X113757143Y-93952381D01*
X113661905Y-93904762D01*
X113614286Y-93857143D01*
X114852381Y-92952381D02*
X114947620Y-92952381D01*
X115042858Y-93000000D01*
X115090477Y-93047619D01*
X115138096Y-93142857D01*
X115185715Y-93333333D01*
X115185715Y-93571429D01*
X115138096Y-93761905D01*
X115090477Y-93857143D01*
X115042858Y-93904762D01*
X114947620Y-93952381D01*
X114852381Y-93952381D01*
X114757143Y-93904762D01*
X114709524Y-93857143D01*
X114661905Y-93761905D01*
X114614286Y-93571429D01*
X114614286Y-93333333D01*
X114661905Y-93142857D01*
X114709524Y-93047619D01*
X114757143Y-93000000D01*
X114852381Y-92952381D01*
X115566667Y-93047619D02*
X115614286Y-93000000D01*
X115709524Y-92952381D01*
X115947620Y-92952381D01*
X116042858Y-93000000D01*
X116090477Y-93047619D01*
X116138096Y-93142857D01*
X116138096Y-93238095D01*
X116090477Y-93380952D01*
X115519048Y-93952381D01*
X116138096Y-93952381D01*
X124059524Y-93952381D02*
X124059524Y-92952381D01*
X124440477Y-92952381D01*
X124535715Y-93000000D01*
X124583334Y-93047619D01*
X124630953Y-93142857D01*
X124630953Y-93285714D01*
X124583334Y-93380952D01*
X124535715Y-93428571D01*
X124440477Y-93476190D01*
X124059524Y-93476190D01*
X125488096Y-93285714D02*
X125488096Y-93952381D01*
X125250000Y-92904762D02*
X125011905Y-93619048D01*
X125630953Y-93619048D01*
X126202381Y-92952381D02*
X126297620Y-92952381D01*
X126392858Y-93000000D01*
X126440477Y-93047619D01*
X126488096Y-93142857D01*
X126535715Y-93333333D01*
X126535715Y-93571429D01*
X126488096Y-93761905D01*
X126440477Y-93857143D01*
X126392858Y-93904762D01*
X126297620Y-93952381D01*
X126202381Y-93952381D01*
X126107143Y-93904762D01*
X126059524Y-93857143D01*
X126011905Y-93761905D01*
X125964286Y-93571429D01*
X125964286Y-93333333D01*
X126011905Y-93142857D01*
X126059524Y-93047619D01*
X126107143Y-93000000D01*
X126202381Y-92952381D01*
X127488096Y-93952381D02*
X126916667Y-93952381D01*
X127202381Y-93952381D02*
X127202381Y-92952381D01*
X127107143Y-93095238D01*
X127011905Y-93190476D01*
X126916667Y-93238095D01*
X81059524Y-93952381D02*
X81059524Y-92952381D01*
X81440477Y-92952381D01*
X81535715Y-93000000D01*
X81583334Y-93047619D01*
X81630953Y-93142857D01*
X81630953Y-93285714D01*
X81583334Y-93380952D01*
X81535715Y-93428571D01*
X81440477Y-93476190D01*
X81059524Y-93476190D01*
X82535715Y-92952381D02*
X82059524Y-92952381D01*
X82011905Y-93428571D01*
X82059524Y-93380952D01*
X82154762Y-93333333D01*
X82392858Y-93333333D01*
X82488096Y-93380952D01*
X82535715Y-93428571D01*
X82583334Y-93523810D01*
X82583334Y-93761905D01*
X82535715Y-93857143D01*
X82488096Y-93904762D01*
X82392858Y-93952381D01*
X82154762Y-93952381D01*
X82059524Y-93904762D01*
X82011905Y-93857143D01*
X83202381Y-92952381D02*
X83297620Y-92952381D01*
X83392858Y-93000000D01*
X83440477Y-93047619D01*
X83488096Y-93142857D01*
X83535715Y-93333333D01*
X83535715Y-93571429D01*
X83488096Y-93761905D01*
X83440477Y-93857143D01*
X83392858Y-93904762D01*
X83297620Y-93952381D01*
X83202381Y-93952381D01*
X83107143Y-93904762D01*
X83059524Y-93857143D01*
X83011905Y-93761905D01*
X82964286Y-93571429D01*
X82964286Y-93333333D01*
X83011905Y-93142857D01*
X83059524Y-93047619D01*
X83107143Y-93000000D01*
X83202381Y-92952381D01*
X84488096Y-93952381D02*
X83916667Y-93952381D01*
X84202381Y-93952381D02*
X84202381Y-92952381D01*
X84107143Y-93095238D01*
X84011905Y-93190476D01*
X83916667Y-93238095D01*
X91059524Y-93952381D02*
X91059524Y-92952381D01*
X91440477Y-92952381D01*
X91535715Y-93000000D01*
X91583334Y-93047619D01*
X91630953Y-93142857D01*
X91630953Y-93285714D01*
X91583334Y-93380952D01*
X91535715Y-93428571D01*
X91440477Y-93476190D01*
X91059524Y-93476190D01*
X92535715Y-92952381D02*
X92059524Y-92952381D01*
X92011905Y-93428571D01*
X92059524Y-93380952D01*
X92154762Y-93333333D01*
X92392858Y-93333333D01*
X92488096Y-93380952D01*
X92535715Y-93428571D01*
X92583334Y-93523810D01*
X92583334Y-93761905D01*
X92535715Y-93857143D01*
X92488096Y-93904762D01*
X92392858Y-93952381D01*
X92154762Y-93952381D01*
X92059524Y-93904762D01*
X92011905Y-93857143D01*
X93202381Y-92952381D02*
X93297620Y-92952381D01*
X93392858Y-93000000D01*
X93440477Y-93047619D01*
X93488096Y-93142857D01*
X93535715Y-93333333D01*
X93535715Y-93571429D01*
X93488096Y-93761905D01*
X93440477Y-93857143D01*
X93392858Y-93904762D01*
X93297620Y-93952381D01*
X93202381Y-93952381D01*
X93107143Y-93904762D01*
X93059524Y-93857143D01*
X93011905Y-93761905D01*
X92964286Y-93571429D01*
X92964286Y-93333333D01*
X93011905Y-93142857D01*
X93059524Y-93047619D01*
X93107143Y-93000000D01*
X93202381Y-92952381D01*
X93916667Y-93047619D02*
X93964286Y-93000000D01*
X94059524Y-92952381D01*
X94297620Y-92952381D01*
X94392858Y-93000000D01*
X94440477Y-93047619D01*
X94488096Y-93142857D01*
X94488096Y-93238095D01*
X94440477Y-93380952D01*
X93869048Y-93952381D01*
X94488096Y-93952381D01*
X101059524Y-93952381D02*
X101059524Y-92952381D01*
X101440477Y-92952381D01*
X101535715Y-93000000D01*
X101583334Y-93047619D01*
X101630953Y-93142857D01*
X101630953Y-93285714D01*
X101583334Y-93380952D01*
X101535715Y-93428571D01*
X101440477Y-93476190D01*
X101059524Y-93476190D01*
X102535715Y-92952381D02*
X102059524Y-92952381D01*
X102011905Y-93428571D01*
X102059524Y-93380952D01*
X102154762Y-93333333D01*
X102392858Y-93333333D01*
X102488096Y-93380952D01*
X102535715Y-93428571D01*
X102583334Y-93523810D01*
X102583334Y-93761905D01*
X102535715Y-93857143D01*
X102488096Y-93904762D01*
X102392858Y-93952381D01*
X102154762Y-93952381D01*
X102059524Y-93904762D01*
X102011905Y-93857143D01*
X103202381Y-92952381D02*
X103297620Y-92952381D01*
X103392858Y-93000000D01*
X103440477Y-93047619D01*
X103488096Y-93142857D01*
X103535715Y-93333333D01*
X103535715Y-93571429D01*
X103488096Y-93761905D01*
X103440477Y-93857143D01*
X103392858Y-93904762D01*
X103297620Y-93952381D01*
X103202381Y-93952381D01*
X103107143Y-93904762D01*
X103059524Y-93857143D01*
X103011905Y-93761905D01*
X102964286Y-93571429D01*
X102964286Y-93333333D01*
X103011905Y-93142857D01*
X103059524Y-93047619D01*
X103107143Y-93000000D01*
X103202381Y-92952381D01*
X103869048Y-92952381D02*
X104488096Y-92952381D01*
X104154762Y-93333333D01*
X104297620Y-93333333D01*
X104392858Y-93380952D01*
X104440477Y-93428571D01*
X104488096Y-93523810D01*
X104488096Y-93761905D01*
X104440477Y-93857143D01*
X104392858Y-93904762D01*
X104297620Y-93952381D01*
X104011905Y-93952381D01*
X103916667Y-93904762D01*
X103869048Y-93857143D01*
X159761905Y-84452381D02*
X159761905Y-83452381D01*
X160000000Y-83452381D01*
X160142858Y-83500000D01*
X160238096Y-83595238D01*
X160285715Y-83690476D01*
X160333334Y-83880952D01*
X160333334Y-84023810D01*
X160285715Y-84214286D01*
X160238096Y-84309524D01*
X160142858Y-84404762D01*
X160000000Y-84452381D01*
X159761905Y-84452381D01*
X161285715Y-84452381D02*
X160714286Y-84452381D01*
X161000000Y-84452381D02*
X161000000Y-83452381D01*
X160904762Y-83595238D01*
X160809524Y-83690476D01*
X160714286Y-83738095D01*
X157809524Y-86202381D02*
X157809524Y-85202381D01*
X158047619Y-85202381D01*
X158190477Y-85250000D01*
X158285715Y-85345238D01*
X158333334Y-85440476D01*
X158380953Y-85630952D01*
X158380953Y-85773810D01*
X158333334Y-85964286D01*
X158285715Y-86059524D01*
X158190477Y-86154762D01*
X158047619Y-86202381D01*
X157809524Y-86202381D01*
X159333334Y-86202381D02*
X158761905Y-86202381D01*
X159047619Y-86202381D02*
X159047619Y-85202381D01*
X158952381Y-85345238D01*
X158857143Y-85440476D01*
X158761905Y-85488095D01*
X159952381Y-85202381D02*
X160047620Y-85202381D01*
X160142858Y-85250000D01*
X160190477Y-85297619D01*
X160238096Y-85392857D01*
X160285715Y-85583333D01*
X160285715Y-85821429D01*
X160238096Y-86011905D01*
X160190477Y-86107143D01*
X160142858Y-86154762D01*
X160047620Y-86202381D01*
X159952381Y-86202381D01*
X159857143Y-86154762D01*
X159809524Y-86107143D01*
X159761905Y-86011905D01*
X159714286Y-85821429D01*
X159714286Y-85583333D01*
X159761905Y-85392857D01*
X159809524Y-85297619D01*
X159857143Y-85250000D01*
X159952381Y-85202381D01*
X161238096Y-86202381D02*
X160666667Y-86202381D01*
X160952381Y-86202381D02*
X160952381Y-85202381D01*
X160857143Y-85345238D01*
X160761905Y-85440476D01*
X160666667Y-85488095D01*
X157809524Y-88702381D02*
X157809524Y-87702381D01*
X158047619Y-87702381D01*
X158190477Y-87750000D01*
X158285715Y-87845238D01*
X158333334Y-87940476D01*
X158380953Y-88130952D01*
X158380953Y-88273810D01*
X158333334Y-88464286D01*
X158285715Y-88559524D01*
X158190477Y-88654762D01*
X158047619Y-88702381D01*
X157809524Y-88702381D01*
X159333334Y-88702381D02*
X158761905Y-88702381D01*
X159047619Y-88702381D02*
X159047619Y-87702381D01*
X158952381Y-87845238D01*
X158857143Y-87940476D01*
X158761905Y-87988095D01*
X159952381Y-87702381D02*
X160047620Y-87702381D01*
X160142858Y-87750000D01*
X160190477Y-87797619D01*
X160238096Y-87892857D01*
X160285715Y-88083333D01*
X160285715Y-88321429D01*
X160238096Y-88511905D01*
X160190477Y-88607143D01*
X160142858Y-88654762D01*
X160047620Y-88702381D01*
X159952381Y-88702381D01*
X159857143Y-88654762D01*
X159809524Y-88607143D01*
X159761905Y-88511905D01*
X159714286Y-88321429D01*
X159714286Y-88083333D01*
X159761905Y-87892857D01*
X159809524Y-87797619D01*
X159857143Y-87750000D01*
X159952381Y-87702381D01*
X160666667Y-87797619D02*
X160714286Y-87750000D01*
X160809524Y-87702381D01*
X161047620Y-87702381D01*
X161142858Y-87750000D01*
X161190477Y-87797619D01*
X161238096Y-87892857D01*
X161238096Y-87988095D01*
X161190477Y-88130952D01*
X160619048Y-88702381D01*
X161238096Y-88702381D01*
X157858544Y-91202381D02*
X157858544Y-90202381D01*
X158096639Y-90202381D01*
X158239497Y-90250000D01*
X158334735Y-90345238D01*
X158382354Y-90440476D01*
X158429973Y-90630952D01*
X158429973Y-90773810D01*
X158382354Y-90964286D01*
X158334735Y-91059524D01*
X158239497Y-91154762D01*
X158096639Y-91202381D01*
X157858544Y-91202381D01*
X159382354Y-91202381D02*
X158810925Y-91202381D01*
X159096639Y-91202381D02*
X159096639Y-90202381D01*
X159001401Y-90345238D01*
X158906163Y-90440476D01*
X158810925Y-90488095D01*
X160001401Y-90202381D02*
X160096640Y-90202381D01*
X160191878Y-90250000D01*
X160239497Y-90297619D01*
X160287116Y-90392857D01*
X160334735Y-90583333D01*
X160334735Y-90821429D01*
X160287116Y-91011905D01*
X160239497Y-91107143D01*
X160191878Y-91154762D01*
X160096640Y-91202381D01*
X160001401Y-91202381D01*
X159906163Y-91154762D01*
X159858544Y-91107143D01*
X159810925Y-91011905D01*
X159763306Y-90821429D01*
X159763306Y-90583333D01*
X159810925Y-90392857D01*
X159858544Y-90297619D01*
X159906163Y-90250000D01*
X160001401Y-90202381D01*
X160668068Y-90202381D02*
X161287116Y-90202381D01*
X160953782Y-90583333D01*
X161096640Y-90583333D01*
X161191878Y-90630952D01*
X161239497Y-90678571D01*
X161287116Y-90773810D01*
X161287116Y-91011905D01*
X161239497Y-91107143D01*
X161191878Y-91154762D01*
X161096640Y-91202381D01*
X160810925Y-91202381D01*
X160715687Y-91154762D01*
X160668068Y-91107143D01*
X153833334Y-83452381D02*
X153500000Y-82976190D01*
X153261905Y-83452381D02*
X153261905Y-82452381D01*
X153642858Y-82452381D01*
X153738096Y-82500000D01*
X153785715Y-82547619D01*
X153833334Y-82642857D01*
X153833334Y-82785714D01*
X153785715Y-82880952D01*
X153738096Y-82928571D01*
X153642858Y-82976190D01*
X153261905Y-82976190D01*
X154785715Y-83452381D02*
X154214286Y-83452381D01*
X154500000Y-83452381D02*
X154500000Y-82452381D01*
X154404762Y-82595238D01*
X154309524Y-82690476D01*
X154214286Y-82738095D01*
X154380953Y-86052381D02*
X154047619Y-85576190D01*
X153809524Y-86052381D02*
X153809524Y-85052381D01*
X154190477Y-85052381D01*
X154285715Y-85100000D01*
X154333334Y-85147619D01*
X154380953Y-85242857D01*
X154380953Y-85385714D01*
X154333334Y-85480952D01*
X154285715Y-85528571D01*
X154190477Y-85576190D01*
X153809524Y-85576190D01*
X155333334Y-86052381D02*
X154761905Y-86052381D01*
X155047619Y-86052381D02*
X155047619Y-85052381D01*
X154952381Y-85195238D01*
X154857143Y-85290476D01*
X154761905Y-85338095D01*
X155952381Y-85052381D02*
X156047620Y-85052381D01*
X156142858Y-85100000D01*
X156190477Y-85147619D01*
X156238096Y-85242857D01*
X156285715Y-85433333D01*
X156285715Y-85671429D01*
X156238096Y-85861905D01*
X156190477Y-85957143D01*
X156142858Y-86004762D01*
X156047620Y-86052381D01*
X155952381Y-86052381D01*
X155857143Y-86004762D01*
X155809524Y-85957143D01*
X155761905Y-85861905D01*
X155714286Y-85671429D01*
X155714286Y-85433333D01*
X155761905Y-85242857D01*
X155809524Y-85147619D01*
X155857143Y-85100000D01*
X155952381Y-85052381D01*
X157238096Y-86052381D02*
X156666667Y-86052381D01*
X156952381Y-86052381D02*
X156952381Y-85052381D01*
X156857143Y-85195238D01*
X156761905Y-85290476D01*
X156666667Y-85338095D01*
X154380953Y-88552381D02*
X154047619Y-88076190D01*
X153809524Y-88552381D02*
X153809524Y-87552381D01*
X154190477Y-87552381D01*
X154285715Y-87600000D01*
X154333334Y-87647619D01*
X154380953Y-87742857D01*
X154380953Y-87885714D01*
X154333334Y-87980952D01*
X154285715Y-88028571D01*
X154190477Y-88076190D01*
X153809524Y-88076190D01*
X155333334Y-88552381D02*
X154761905Y-88552381D01*
X155047619Y-88552381D02*
X155047619Y-87552381D01*
X154952381Y-87695238D01*
X154857143Y-87790476D01*
X154761905Y-87838095D01*
X155952381Y-87552381D02*
X156047620Y-87552381D01*
X156142858Y-87600000D01*
X156190477Y-87647619D01*
X156238096Y-87742857D01*
X156285715Y-87933333D01*
X156285715Y-88171429D01*
X156238096Y-88361905D01*
X156190477Y-88457143D01*
X156142858Y-88504762D01*
X156047620Y-88552381D01*
X155952381Y-88552381D01*
X155857143Y-88504762D01*
X155809524Y-88457143D01*
X155761905Y-88361905D01*
X155714286Y-88171429D01*
X155714286Y-87933333D01*
X155761905Y-87742857D01*
X155809524Y-87647619D01*
X155857143Y-87600000D01*
X155952381Y-87552381D01*
X156666667Y-87647619D02*
X156714286Y-87600000D01*
X156809524Y-87552381D01*
X157047620Y-87552381D01*
X157142858Y-87600000D01*
X157190477Y-87647619D01*
X157238096Y-87742857D01*
X157238096Y-87838095D01*
X157190477Y-87980952D01*
X156619048Y-88552381D01*
X157238096Y-88552381D01*
X154380953Y-91052381D02*
X154047619Y-90576190D01*
X153809524Y-91052381D02*
X153809524Y-90052381D01*
X154190477Y-90052381D01*
X154285715Y-90100000D01*
X154333334Y-90147619D01*
X154380953Y-90242857D01*
X154380953Y-90385714D01*
X154333334Y-90480952D01*
X154285715Y-90528571D01*
X154190477Y-90576190D01*
X153809524Y-90576190D01*
X155333334Y-91052381D02*
X154761905Y-91052381D01*
X155047619Y-91052381D02*
X155047619Y-90052381D01*
X154952381Y-90195238D01*
X154857143Y-90290476D01*
X154761905Y-90338095D01*
X155952381Y-90052381D02*
X156047620Y-90052381D01*
X156142858Y-90100000D01*
X156190477Y-90147619D01*
X156238096Y-90242857D01*
X156285715Y-90433333D01*
X156285715Y-90671429D01*
X156238096Y-90861905D01*
X156190477Y-90957143D01*
X156142858Y-91004762D01*
X156047620Y-91052381D01*
X155952381Y-91052381D01*
X155857143Y-91004762D01*
X155809524Y-90957143D01*
X155761905Y-90861905D01*
X155714286Y-90671429D01*
X155714286Y-90433333D01*
X155761905Y-90242857D01*
X155809524Y-90147619D01*
X155857143Y-90100000D01*
X155952381Y-90052381D01*
X156619048Y-90052381D02*
X157238096Y-90052381D01*
X156904762Y-90433333D01*
X157047620Y-90433333D01*
X157142858Y-90480952D01*
X157190477Y-90528571D01*
X157238096Y-90623810D01*
X157238096Y-90861905D01*
X157190477Y-90957143D01*
X157142858Y-91004762D01*
X157047620Y-91052381D01*
X156761905Y-91052381D01*
X156666667Y-91004762D01*
X156619048Y-90957143D01*
M02*
