M48
;DRILL file {KiCad 4.0.2+dfsg1-stable} date Sun 11 Sep 2016 08:44:06 PM CDT
;FORMAT={-:-/ absolute / inch / decimal}
FMAT,2
INCH,TZ
T1C0.035
T2C0.055
T3C0.126
%
G90
G05
M72
T1
X8.378Y-2.0709
X8.378Y-2.2441
T2
X3.2874Y-4.0079
X3.4843Y-4.0079
X3.6811Y-4.0079
X3.878Y-4.0079
X4.0748Y-4.0079
X4.2717Y-4.0079
X4.5866Y-4.0079
X4.7835Y-4.0079
X4.9803Y-4.0079
X5.1772Y-4.0079
X5.4921Y-4.0079
X5.689Y-4.0079
X5.8858Y-4.0079
X6.0827Y-4.0079
X6.2795Y-4.0079
X6.4764Y-4.0079
X6.6732Y-4.0079
X6.8701Y-4.0079
X7.0669Y-4.0079
X7.2638Y-4.0079
X7.4606Y-4.0079
X7.6575Y-4.0079
X7.8543Y-4.0079
X8.0512Y-4.0079
X8.248Y-4.0079
X8.4449Y-4.0079
T3
X3.3858Y-3.622
X4.0551Y-1.8898
X6.811Y-3.5039
X8.3858Y-2.5591
X8.3858Y-3.4646
T0
M30
